<svg id="brasil" xmlns="http://www.w3.org/2000/svg" viewBox="0 0 747.3 743.5">
    <style>
        /* Estilos base para todas as regiões (mantidos como estavam) */
        .regiao {
            cursor: pointer;
            stroke: #FFFFFF; /* Borda branca para todas as regiões */
            stroke-width: 2;
            /* A transição agora é APENAS para a cor de preenchimento (fill) */
            transition: fill 0.3s ease-in-out;
        }

        /* Cores base de cada região por ID (mantidas como estavam) */
        #regiao_sul { fill: #f90; }
        #regiao_centro-oeste { fill: #98db11; }
        #regiao_nordeste { fill: #59f; }
        #regiao_sudeste { fill: red; }
        #regiao_norte { fill: #ffcc29; }

        /* Estilos de HOVER (ao passar o mouse) - (mantidos como estavam) */
        .regiao:hover {
            opacity: 0.8; /* Levemente mais opaco no hover */
            fill: #FFD700 !important; /* Amarelo dourado para hover */
        }
    </style>

    <g id="regiao_sul" class="regiao">
        <path d="M493.7,581l-1-.2-.2-.1-.5-.2-.1-.2v-.1l-.8-3.4v-.5l.1-.3.2-.5.2-.9-.1-.1-.8-.3-1-.3-.7-.1-.8.1h-.1l-.1.1v.3l-1.3,2.8-.7.9-.1.1h-.2l-.8-.4-.2-.1-.1-.1-.1-.1-.1-.2-.3-.7.8-3.6.1-.1.2-.2h.1l.4-.2.2-.2.2-.2.1-.1v-.5l-1.9-1.2h-.2l-1.7-.1h-.1l-1.9.2-.6-.4h-.1l-2.7.4-1.4.2-2.9.1h-.5l-.6-.2-.2-.1-.2-.1-.3-.2-.2-.1-.1-.1-.1-.2-.3-1.8v-.3l.1-.1h.1l1.4-2.1.1-.1.3-1v-.3l-.3-.2-.6-.3h-.2l-.1-.1-.1-.1-.9-2v-.1l.1-.8v-.2l-.1-.1-.4-.4-.1-.1-.2-.1-.2-.1-.5-.1-.2-.1-1.4-1.2v-.1l-.8-1.5-1-1.7.1-.1.4-.5v-.1l.1-1.6v-.5l-.1-.1-.3-.2-.8-.7-.2-.1-.1-.2-.1-.1-.1-.2-.1-.4-.4-1.7.2-.9.1-.1.4-.6.1-.1-.1-3v-.1l-.5-1.2-.1-.1-.5-.6-.1-.1-4.4-3.2-1.1-1.5-.1-.2-.1-.1-.2-.1-.9.2-.1.1-.1.2-.6.2-1.8.5-5.4-.1h-.9l-.2-.1-.1-.2-.1-.3-.3-.1-.2-.1-1.8-.2-.2.1-.2.1-.2.1-.1.1-.1.2-2-.2-.8-1.5-.1-.1-.3-.3-.3-.2-.2-.1-2.1-.4-1.9-.4-.2-.1-1.9-.8-.2-.1-.2-.2-.1-.2-.1-.2-.1-.2-.1-.1-.1-.1h-1.6l-1.4.1-.2.1-.2.2-.2.2h-.1l-.2.1-.5.1h-1.4l-.2-.1-.2-.1-.5-.3L424,531l-.6-.1-2.4-.4-.2-.2-.7-.4-.9-.4-.4-.2-.5-.1-.4-.1-.2.1-.2.1-.2.1-.2.1-.2.2-.1.1-.3.5-.1.2-1.4.6h-1.9l-.3-.1-1.5-.2h-.2l-.2.1-1.6.1-2.9-.1h-.1l-2.5-.2-.2-.1-.3-.1-.4-.2-.5-.2h-.5l-.3.1-.3.1-1.5,1.1-2,1.3-.5.2-.2.1-.5.2-.2.1-1,.3-1,.4-.6.2-1.4.5-1.2.5-.3.2-.8.5-.3.2-.1.2-.1.2-.1.2-.3.8-.5,1.4v1.5l-1.2,2.9-.1.2-.4.6-.2.2-.3.3-.5.4-1.9,1.1-.2.1-.7.1H383l-.4.3-.3.2-.1.1-.1.1-.1.2v.7l-.5,2.3v.1l-.4,1.3-.7,4v.4l-.2.5-.2.3-.2.1-2.2,1.3-.2.1-.3.1H377l-.4.2-.3.2-.2.2-.2.2-.4.4-.1.2-.1.3v.3l.3,1.6.1.2.2.2.1.1.2.2.3.2.1.2.1.1.1.2.2.8v.3l-.4.9-.1.1-.1.1-.1.1-.2.2-.3.4-.1.1-.1.2-.1.2-.1.3-.1.4v.2l.1.3.1.3.1.2.1.6v.4l-.1.2-.1.5-.1.3-1.2,2.4-.2.7-.9,3.3v.2l-.1.6v.7l.5.6.1.2v.2l-.1.2-1.4,2.3-.2.2-.2.2-.2.2-.3.4-.2.1-.3.2-.2.2-.7,1.5v.2l.3,2.3.9-.1h.2l1.3.9.3.2,1.2-.9.2-.1,1.3-.4.4-.1h.2l.1.1.1.2.1.2,1.6-.1.4-.5.7-.6.2-.1h.2l4,2.6.1.1.5.9.1.2.7,2.1v.4l-.1.3-.1.8.1,1.2v.2l1.6,2.5,2.3,3.6h-.2v.4l-.2.5-.4.5-.1.1-.3.3-.1.2v.3l.1,2.5-.3,2.8-.2.7.3,1.6v.1l.3,2-.1.4-.6,1.3-.2.5-1.1,2.1a4.33,4.33,0,0,0-.5-.1,2,2,0,0,0-1.1.3l-.1-.1-.8.1-2,.6-.1.1-.3.5-.1.2-.3.4-.1.1-.4.3-.4.3-.3.1-.2.1h-.5l-1.6,1.8-.8.7-.2.1-.1.1-1.3.5-1.8.2-1.5.4-1.9.8-1.1.5H368l-1.4.2h-.3l-.1-.1v-.5l-.1-.1h-.3l-.1.1-.1.2-1.5,2.4-.1.8-.1.2-.1.3-2.1,1.8-.7.2h-.1l-2,.2h-.2l-2.5,1.2-.2.1-.9.9-.1.2v.2l.1.3v.2l-.1.1-1.2,1.1-2.6.9-.8.2v.2l-.1.2-.1.1-.8.6-.6.2-.6.1-.3.1-.2.1-.1.1-.1.2v.2l.1.1.1.1.9.4.5.2.2.1.1.1.2.2v.6l-.3.8-.1.2-.1.2-.1.1h-.2l-.1-.1-.1-.3v-.3l-.1-.2-.1-.1-1.9-.2h-.7l-.2.1-.2.1-.1.1-1.6,2.2-.6,1.4-1,1.2-2,1.9-1.9.9-.2.1-.2.1-.1.2v.1l-.1.2v.4l-2.1,4.1-.2.4-.1.2-1.6.4-.4.2-.7.4-.3.2-.2.1-.6.6-.3.4-.1.2-.1.4v.7l-.6,1.2-.1.2-.1.1-2.2,2.3-1.9,1.7-2.5,2.8-.5.5-.2.2-.2.2-.2.1-.2.1-.5.2h-1.1l-.6.1-.4.1-.3.1-.2.1-.2.2-.1.2-.2.3-.3.6-.1.2v.7l-.1,1.1v.1l-.1.2-.3.3-2.6,2.4-.2.2-.8.5-.4.2-.6.2-.5.1.6.2.1.1.2.1.1.1v.3l-.1.1v.4l.1.1.2.1.3.2.2.1h.1l.4.1h.2l2.6-.2.6-.1h.1l.2.1.2.1,1.5.3.2-.1.2-.1.2-.1.7-.7.1-.2v-.8l.1-.2.6-.8.1-.2.5-.4.2-.1,2.5-.2H327l.9.2.4.2,2.8,2.1.2.2,1.3,1.3.4.5.4.4.3.2,2.4,1.9,1.4.9.9.5.6.4,2.3,2.2,2.2,2.3.2.3.2.6v.4l-.1.4-.1.2-.2.3-.1.2v.8l-.1,1.9.1.2h2.2l.9-.1h.1l.2-.1,1.3-1,1.7-1.3.6-1.4V688l.1-.2.1-.1.1-.1.2-.1h.7l.1.1,1.1.8,1.9,1.4,1.3,1.5.1.2.3.4.1.1v.4l1.4,2.4.2.2.1.2.3.2,2.3,1.3.2.1h.5l.1-.1h1.5l.7.6.6.5.9.7.4.3.3.1.2.1.2.1.9.1.5-.1h.6l1.7.3h.1l.2.1.1.1,2.1,2,.1.1.1.1v.1l.1.3v1.3l.4.2.5.2.5.3.1.2.5.5.1.2,1.2,1,2.3,1.6,1.3-.1.3-.2h.4l2.6,1.2.2.1.2.1.5.3.1.2v.2l2.4,2.1,1.5,2.1.5,1.1v.2l-.1.6v.2l.1.6.1.2.1.2,1.1,1.2.3.3.3.3.3.3,2.1,1.7.2.1.2.1h.3l.4.1,1.7.4,1.2.6.2.1.5.5,1,1,.2.2.1.1v.1l-.1.2-2.9,1.2-1.4,1.1-1,1.6-2.6,1.8-.5.4-.2.2-.2.2-.2.2-.1.3-.2.3-.1.3v.2l-.1.4-.1.6v.4l.1.3.1.6.1.4.1.3.1.4.1,1.7v.4l-.1.6-.1.5-.1.7-.2.9-.1.7-.1.9.1.3.1.2.1.1.1.1,2.1,1,.2.1h.1l.2-.1,1.1-.6.2-.1.7-.5.5-.4.2-.2.2-.2,1.3-1.2,3.8-2.9.7-.6,3.2-2.6.2-.2,1.7-2,.1-.2.2-.3,2.1-3.8.4-.8.8-2.1.1-.4.1-.3.1-.4.3-1,.9-2.7v-.1l.1-.2,2-3.5.3-.5.3-.4.2-.2.2-.1,1.3-.9,1.2-.6.1-.1v-.1l-.2-.9-.4-.2-1.2-.4-.4.2-.2.1H414l-.1-.1-.4-.6.2-1.3.1-.2.1-.1.2-.1.9-.4h.1l-.3-1-.6-.9v-1.6l.1-.2.1-.2.1-.1.2-.1.2-.1.6-.2.7-.2.6-.2.3-.1.2-.1.1-.2.4-.6.1-.1.7-1.6.1-2.2v-.4l.1-.3.5-1.1.1-.1.8-.5h.1l4.9-1.6v-.1l.1-.6.2-.4.2-.5.1-.2.2-.1h.1l.6-.1,1.1-.5,1-.6-.2-.2-.1-.2-.1-.2v-1.4l.1-.6.1-.4.1-.2.2-.1,1.3-2.8v-1.5l.1-.2.2-.2.4-.2.4.3h.3l.1.1.5,1.3.1.4v.4l-.1.1H432l-.1.1v.1l.1.1.4.3h.1l.1-.1.1-.1v-.1l.1-.3v-.3l-.3-1.6-.1-.2v-.4l-.1-.8.1-.2.3-1.3.1-.2.5-1.1.6-.8.1-.1-1.5-2.1-.1-.1v-.1l-.5-2.2v-.1l.5-2.7v-.1l.1-.1.1-.1h.1l.1.1.6.7v.1l-.1.3-.1.2-.1.1.5,1.4.9,1.3.6.5.2.1h.1l.1-.1.1-.2h.1l.6-.1h.2l.1.1.7.4.2.2v.4l-.2.4.1,1.2,1,.5.7.2-.1-.2v-.3l.1-.8v-.3l.1-.1.1-.2h.1l2.4-.4,1.6.1h.1l.2-.1h.1l.1-.1.1-.1.1-.1.1-.1.1-.3v-.3l-.1-.1h-.1v-.3l.2-.5.1-.1.1-.1.1-.1h.4l.2.1.2.1,1,1.1.2.3.1.3v.4l-.1.8-.4,1.8-.1.2v.1l-.1.1-.1.2-.3.1h-.2l-.2-.1-.5-.6-.1-.2-.1-.2-.6.8.3,2.4-.1.6-.3,1.6-.1.2-.1.3-.1.3-.2.4-.2.2-.2.2-.3.2-.3.2-.1.1-1.9,1-1,.4-.6.6-.6,2.1v.1l.4,1.4-.1.2-.1.1-.4.1-.1-.1v-.1l-.1-.7v-.1l-.9-.3-1.7-.1-.2.1-.1.1-.1.2-.1,1v.3l.2.4v.5l.1.9v.5l-.2.8-.3,1.3-.1.2-.1.2-.7.9-.4.4-.3.2-.9.6-.2.1-.3.1h-1l-.3-.1-.1-.1v-.1l-.8.8-1.4,1.6-2.1,2.3-.3.2-.7.5-3,1.4-.3.1-.4.1h-.4l-.3-.1-.1-.1-.1-.1-.1-.1-.1-.2-.2-.2-.2-.1-.2-.1-.2-.1-.2-.1-.5-.1-.4-.1h-.2l-.4.1-.2.1-.1.1-.1.2v.1l.1.2.3.3.5.5.6.7.1.1.1.2v.1l-.4,1.9-.1.3v.1l-.2.3-.2.2-.2.3-.2.4v.5l.1.2.1.1h.1l.1-.1,1.7-2.2.6-.8.6-.8.1-.2.1-.1.6-.4.5-.3.3-.2,2.6-1.3.3-.2.2-.1.7-.2.4-.2,2.5-1.4,4.7-3.6,1.9-1.5,1.3-1.1.4-.4,2.4-2.4,1.3-1.4,1.9-2,.6-.8.7-.9.1-.2.4-.7v-.1l.2-.4.2-.2,3-4.1.9-1.3.2-.2.9-1.2,1.1-1.8.8-1.4.2-.4.1-.3.3-.8.1-.4.1-.4,1-2.7,1.7-4.2.1-.2.4-.7.1-.3.2-.5,1.8-3.1.8-1.4,2-3,.2-.2.1-.1h.2a1.61,1.61,0,0,0,.9-.3,4.35,4.35,0,0,0,.7-.6,1.27,1.27,0,0,0,.4-.9c0-.2.1-.4.1-.7a3,3,0,0,0-.2-1l.1-.2,3.5-3.7,1-1,.1-.1,3.4-2.7.4-.3,4.3-2.8.3-.2.2-.1.7-.3,1.4-.5,1.3-1.8h-.3l-1.2-.8-.1-.1v-.1l-.2-.9-.1-1.4v-.1l.1-.2.1-.2.1-.1h.2l1,1,.1.1v.4l-.2.4-.1.3v.2l.1.1.2.4.2.2.1.1.1.1h.2l.1-.1,2-5,.5-2.7.2-1.7,1.1-2.5-.1-.6-.2-.3-.1-.2-.1-.1-.5-.9-.4-1.9v-.2l.1-.1.6-.7.2-.1-.8-2.8.4-4.1.1-.2,1-.5.2-.1h.4l.4-.1v.1l-.1.1h-.2l-.1.1v.1l.2.1h.2l.3-.1.1-.1-.1-.7-.1-.3-.2-.6-.1-.1h-.2l-.1.2-.3.2v.2l-.1.1-.1.1h-.1l-.1-.1-.3-.1-.1-.2-.2-.4v-.1l-.3-4.4.1-1.9-.2-.1-.7-.5-.1-.2-.1-.1-.1-.2v-.8l.1-1.4.1-.5.1-.2.7-1.2.4-.6.1-.1.1-.3v-.4l.8.6.1-.6v-.1l.6-1.3.1-.2.2-.2.1-.1.2-.2.5-.7.1-.3-.6-.9-.1-.1-.2-.1-.2-.1h-.2l-2.9,2.6h0l-1.2-1-.7-3-.2-1.2.1-.1h.1l.1.1.1.1.3.6.5,1.4v.7l.1.2.1.1.6.3.2.1h.3l.1-.1.4-.3,1.2-.8.1-.1.1-.2v-.2l-.1-.2-.1-.2-.1-.2-.4-1.1-.1-.3V596h.1a2.23,2.23,0,0,0,.6-1.3c-.1-.1-.2-.2-.3-.2l-.2-1.1-1.2.2-2.4.2-.1-.1v-.1l.2-.4.1-.1,2.9-.6,1.5-.9.6-1.2.8-1.3.5-.6.1-.1.5-.3.3-.1.1-.1.2-.1.1-.1v-.1l-.2-.4-.1-.1h-.1l-2.4-.7h-.1l-.8.2-.7.1h-.3l-.6-.1-1.1-.4-.2-.1-.3-.4.2-1,.4-.2.1.1.2.1.9.5,1.4.3,1.6.3h.1l.3-.1.9-.9v-.2l-.1-.2-.3-.4-.2-.3.1-.4.2-.6.7-.4.7.2.4.4h1.1l1.1-.6,1.7-.6h.1l.1.2-.2.2h-.1l-.3.1h-.2l-.2.1-.5.3-.2.2-.2.2-.1.4v-.1l-.1-.2h-.2l-.3.2-.3.2-.1.1-.3.2-.3.6-.1.1v.2l.1.7.1.1.6.4h.2l.4-.2.1-.2v-.2h.1l.4.1h.1l.1-.1.1-.5.1-.3.2-.5.2-.3.1-.1,1.6-1.1Z" />
    </g>

    <g id="regiao_centro-oeste" class="regiao">
        <path d="M535.3,373.9l-2.1-1.7-1.5-1-.1-.1-.1-.2-1.8-3.5-.2-.5-.2-.6-.3-1.1-.1-.7-.1-1-.1-.8v-1.9l1.3-4.3.1-.2.1-.2.5-.3.3-.1.3-.2.6-.5.2-.2.2-.3.1-.2v-.5l-.1-.2v-.1H532l-1-.3-.4-.2-.1-.1v-.4l.3-2.1v-.2l.1-.3.1-.2.1-.2.9-.6.7-.4.1-.2v-.5l-.1-.2-.6-.6-1.2-.8-.3-.2-1.1-1.2-3.6,1.1-2.9.6-2.1,1.6-3.1,1.3-.9.1-1-.1-5.5,1.2-3.1,2.5-2.2,1.1-.5-.3-.6-1.1-1.2-2.1h-.7l-.4,1.9-.2,2-.8.1-4.1-.8-3.8-1.7.7-1.9-.3-.9H492l-4.3.6-2.5-.4h-.9l-.7.6-.4,1.2-.9.9h-1.4l-.8-3.7-1.3-4.4-1.3-2.2-1.4-1.6-1.4,1.2-1.8,2.9-1.6,5.2-.4,1.9-.8.3-5-1.7-3.8-2-1.9-.3-2.9-.2-2.7-1.2-2.9-.5.6-2.8L453,341v-2l-.5.2-.3.2-2.1,2.4-.8,1.5-.1.5-.1.6h-.8l-.5-.2-.7-.4H447l-.3-.8-.9-3.2.4-1.4.5-1.7v-.3l-.1-1-.1-.5-.1-.9-.2-1-.1-.2-.1-.1-.1-.1h-.3l-.1-.2-.1-.2v-2l.6-3.5v-.4l-.1-.1h-.2l-.4-.8-.7-1.6v-.7l.2-.3.5-.5.2-.1.1-.1.1-.1.1-.2.1-.7v-.3l-.1-.1-.2-.2-.4-.2-.4-.2-.1-.1-.3-.5-.1-.2-.1-.1-.1-.2v-.8l.3-1.2v-.1l.3-.8.3-.9.7-1.8.7-2.3v-1.9l.1-1.7.2-1.9.4-1.6.7-2.1.1-.1.4-.8.5-1.5.6-1.9.2-.2.2-.2.2-.2.2-.4v-.1l.1-.4.3-1.4v-.4l-.1-.3v-1.1l.2-.6.1-.1.5-.6.1-.1.2-.1.1-.1.1-.2.2-.2.1-.2.2-.3.1-.2.1-.8.3-.9.3-.5.5-.7-1.7-.1-4.3-.2h-.3l-10.3-.5-8.6-.5-2-.1-6.6-.4-5.6-.3-8-.5-7.6-.4-4.3-.2-8.6-.5-8.8-.5-3.4-.3-.8-.1-3.4-.2-3.1-.2-10.9-.7-10.2-.7-5.5-.4-4.4-.3-2.5-1-.2-.1-1.9-.6h-.1l-.2.1-.2.1-.4.2-.2.1h-.4l-.2-.1-.1-.2-.1-.2-.2-.6v-.2l.1-.4-.2-.4-.2-.2-.2-.2-.2-.2-.4-.2-.4-.1-1.1-.2h-.6l-.4.2-.9-.3-.2-.1-.1-.2-.2-.4v-.6l.1-.8-.1-.5-.1-.4-.1-.3-.1-.2-1.8-.8-2.1-1-.2-.1-1-.7-.1-.2-2.4-2.3-.2-.1-1.8-1.3-.9-2.7-.6-2.9v-1.7l.3-1.3-.9-2L310,253l-.1-.2-.1-.2-.5-1.3-1.1-3.3-.1-.5-.2-1.2-.2-.5-1.4-2.6-.2-.2-.8-1.2-.6-.9-.4-.4-.2-.2-.9-.7-.2.2-1.2,1.3-.2.6-.1.2-.1.7v.2l.1.4.2.4v.4l-.1.4-.3.6-.2.4-1.1,1.7-.2.2-.6.3-.4.3-.3.4-.1.2-.1.2v.8l.1.6.1.4.5.9.2.4.2.8.2,1,.1.6-.7,2.3-.8,2.2-.1.4-.1.2-.6,2.7-.8,3.6-1.5.9h-5.8l-3.3.1-4.2.1H278l-4.4.1-7.1.1-3.6-.1-8.6.2h-4.2l-3.6.1-2.8.1h-7.1l.8.5.8.6.1.2.3.5.2.4.1.4v.2l-.4.6-.3.6-.2.4-.4,1.3-.1.2-.9,3.2-.2,1.2v.4l.1.2.2.2.2.1.4.2.3.7v.2l.2,1.6.5,1.6.6,1.1-.2.2-1.1,1.9.1.4.4,2-.4,1.4-.4,1.6-.2.5-.2.6v1l.3,2,.1.2.8,1.8.1.2.2.2.2.2.2.2.1.2.2.6-.5,5-.6,5.7h20.9v.1l-.3.4-.1.4.2.2,1.1,1,.2.1h.2l.2-.1,3.9-.1h.2l1.3.1,1.2.5.2.2,1.6,4.2.1.2v.3l-.1.2-.1.2-.1.2-1.6,2-.6.5-.8.6-.2.2-.1.2-.1.9v.6l.1,1.4.3,2,.1.4.2.3.1.2.2.1h.2l.4-.2h.4l.2.1.2.2,1.7,3.6v3l.1.3.2.4.1.2.3.6-.1,2-.6,2.6-.1.2-.4.6-.1.2-.4.4-.7.6-.2.2-.1.2-.1.2-.4,1.4-.1,1.1-.1.2-.2.4-.4.6-.3.4-.2.1-.2.1h-.6l-.4.1-.2.1-.2.1-.4.3-.9,1-.2.2-.1.2-1.6,4.3-.1.2-.1.4-.2.9-.1.6-.1.4v.2l-.1.2-.2.2-.3.2-.7.3-1.3.7-2.7,1.7-.7.6,1.1.9,1.8.6,1.9.6.2.2,1.6,3.4v.1l-.3.8-.4.6-.2.3-.5.3-.1.2-.1.2-.2.8v.4l.6,2.1.1.2.4.5,1.5,3,1.2,2.7.1,1.6.2,3.9.1,2.3v1.1h-2.4l-3.6.1,2.5,2.8,4,4.5.8,9.4v.3l.5,5.2,1,.1,1.9.1,9,.4h.8l9.8.4,8.2.3,1.9.1h.2l.3-.1.2-.1.1-.2.1-.2.1-.3.1-.2h1.1v2.2l-.4,2.1-.2.3-.1.1-.6.5-.4.4-.2.3-.6.9-.1.2-.1.5v.9l.2,3.3v.4l.1.2.2.4.1.2.1.2.1.2.2.7.3,1.8v.6l-.1,1,.1.7.1.4.1.2.1.2.3.2.4.2.4.1h.2l.4.1.9.5,2.4,1.6.1.2.2.4.3.3,1.3.8.2.1.4.1.2-.1,1.5-.7.4.3,1.8,1.5.6.5.2.2v.2l-.4.2-.1.2-.2.4.4.9.5.6.1.1.2.1h.1a1.41,1.41,0,0,0-.1.9,2.92,2.92,0,0,0,.2.9v1.6l2.6,4.8,1.2,2-.5.7-.1.2-.2.4-1.2,3.7-2.7,8.3v.1l.9.1h.1l.1.4.2,2.1-1.4.1-.2.4-.6,1.3-.6,1.3-2,4.1-2.4,4.9-.6,1.2.3.4,4.7,4,.1.1-.9.9-.1.1-.2.1-3.9,2.2-.9.4.1,1.2.4,1,.8,1.2.7,1.1.9,1.8v.5l.2,1.7v.2l.2,1.5.1.2.1.1h.2l.1-.1.1-.1.2-.6.1-.1.2-.1h.2l.2.2.1.1.8.9.1.2v1.9l.8,2.5v.3l-.7,6.7-.1.2-.5.6-.7.9-.3.6-.4.9v.1l.3,2.2.1.2.1.2.2.2-.3,2.1-.5,3.8-.4.9-.1.3v1.1l1,.5h.1l.5.2.2.1,1.1.3h.1l.6-.3.5-.3,2.4.2.4.9.1.1.1.1.3.1,4.1.7h.9l1.6-.1h.1l.2-.1.6-.1.9-.1,3.1.6,2.1.8,1.3-.2.7-.3.2-.1,1-.5h.2l.1.1.1.1.2.2.1.1.8.2,1.2-1.2.2-.3.2-.2.1-.2v-.1l.3-.4.1-.2.3-.3.2-.2.1-.1.6-.2,1-.2h.1l.1.1.4.9v.5l.1.3.1.1.5.5.4.3,2,1.3h.1l.5.1h.1l1.4.2h.1l.3-.1.4-.2h.1l1-.1,2.7.3,2,2,.1.1v1.6l.1.9v.1l.1.2.1.3.2.3.1.2.3.2.3.2.3.2.3.1h.1l.2.1.1.1.1.1v1.9l-.1.2-.2.4-.2.3-.1.1-.1.2-.1.2-.1.2v.2l.1.6v.2l.7,3,.4,1.2.7,1,.1,2.9-.1.4v.3l.1.2.1.1.7.8-.6,1.4v.2l.3,2.6v.1l.2.2.2.2.2.1.2.1.1.1.2.2.1.2.2.3.1.3v.2l.1.7.1,1,.1,1.4v1.2l.1.2.1.1.1.2.2.1.4.2.2.1.2.1.2.1,2.6.5h.6l.5-.1,2.2-.4,1.9-.5.3-.1.2-.1.1-.1.1-.2.2-.3.1-.1.1-.1,4.7-2.2h.2l1.6.8,2.5,1.3,2.2,2,.9.6h.1l.3-.1.2-.1,2.2-1.3.1-.1.2-.3.2-.5v-.4l.7-4,.4-1.3v-.1l.5-2.3v-.7l.1-.2.1-.1.1-.1.3-.2.4-.3h.4l.4-.1.2-.1,1.9-1.1.5-.4.3-.3.2-.2.4-.6.1-.2,1.2-2.9v-1.5l.5-1.4.3-.8.1-.2.1-.2.1-.2.3-.2.8-.5.3-.2,1.2-.5,1.4-.5.6-.2,1-.4,1-.3.2-.1.5-.2.2-.1.5-.2,1-1.2.6-1.2.1-.3.1-.2.1-.1,1.5-1.3,4.2-2.5,3-1.7.9-.4.7-.3.3-.2.2-.2.5-.3.3-.2.3-.2.8-.8.3-.4.9-1.5.2-.3.2-.5.1-.3.1-.1.2-.2,1.1-1,.8-.6.1-.2.1-.1v-.3l.1-.6.1-.3.1-.2.1-.1.7-.6.4-.2.3-.1.2-.1.1-.1.1-.1.1-.2.2-1.2-.1-.2-.3-.6-.1-.3,1.2-1.5h.3l.4-.2.6-.7,1.2-2.1.3-.6.1-1v-.2l-.1-.4-.1-.4-.2-.4-.1-.8h0l.1-.3.1-.2.1-.1.4-.2.3-.1.3-.1.2-.1.1-.1,2.7-3.4.1-.2.3-.4.1-.2v-.9l.1-1.6.1-.8.7-1.9.1-.2.6-.2h.5l.2-.1.8-.7,1-1.5,1.3-1.5.2-.2.4-.4.4-.3.2-.1.4-.3.4-.2h.7l.4.1h.2l.4-.1,1.6-.8h.1l.2-.1.1-.2.1-.2.1-.2.4-2.2,1,.2-.1-.2-.1-.2V483l.2-1.3.2-1v-.3l-.3-1.5-.1-.3-.2-.3-.1-.2-.1-.6v-.6l1.1-4.6v-.2l.1-.2.2-.1h.4l-.1-.3-.1-.2-.1-.2-.6-.5a.37.37,0,0,0,.1-.3v.1l.1.1.2.3.6.4.3.1h.2l.2-.1.2-.1.1-.2v-.2l-.1-.2-.1-.1-.5-.4-.1-.1v-.3l.8-1.9.2-.3,1.7-2.1,1.1-.8.2-.1.5-.1.6.2h.8l.5-.2h.1l.2-.2.6-.8.2-.3v-.3l-.1-1,1.5-2.9,1.5-2.3.1-.1.2-.1.2-.1.5-.2,2-.3,2.9-1.1.2-.1h.2l.4.1.3.1.8.2,2.6.4h.3l3.7-1.9,1.9.4,1.5,1.6.2.1h.3l.2-.2,3.3-3.3,5-3.1h.2l1.5.8h.1l.7.2h1.3l1.1-.1h2.2l.1.1.6.2,1.1.1H490V450l.5-.4h.3l5.1,2.2.6.5.2.2v.2l.3-.1,2.7-1.3,1.8-1,1.1-.7.2-.1.2-.3v-.1l.3-.9.6-.8.3-.2.3-.1h.2l.1.1v.1l.5-.1.5-.2,3.8-2.4v-.2l-.1-.3-.9-2.5-.3-.9v-.1l-.2-.1v-.2l.3-.9.3-.9.2-.3.4-.7.2-.2.3.1.2-.1v-1.5l-.1-.4-.1-.2-.1-.2-.2-.2-.2-.1-.2-.2-.4-.2-.2-.1-1.2-.3h-.1l-.4.1h-.1l-.2.1-.2.2h-.4l-.2-.2-.9-1v-.3l.4-1.8.2-.5v-.1l3.9-3.5,2.8-3,.1-.2v-.2l-.1-.4-.1-.4-1.9-5-1.7-1.2-.2-.1-.4-.1-.4-.2-.2-.1v-.1l-.6-.6-.1-.2V415l-.2-.4.2-.8.2-.8.1-.1.2-.2.4-.3.1-.2.5-.8.4-.7.4-1.1v-.3l-.2-.3-.1-.5-.1-.7v-.1l.2-.6.1-.5a2.08,2.08,0,0,0,1.4-1.2h.4l2.7-1.7,2.1-.5h.1l.8-.2h.1l1-.3.4-.2.1-.1.2-.2v-.1l-.6-4.6v-.4l-.2-.1-.5-.1h-.2l-.2-.2-.1-.2v-.3l-.1-2v-.3l.4-.3.2-.2.2-.3.7-1v-.4l-.1-.2-.4-.8-.1-.1-.2-.2h-.3l-.3.1H516v-.2l.8-3.2V387l.1-.2.2-.2.1-.1.2-.1.2-.1.4-.1h.9l.5.1.4.1.7.4.9.5.2.1.5.2h.3l.2-.1.2-.2.5-.5v-.1l-.2-1.6V385l-.3-.9-.1-1.7v-.2l.2-.3.2-.3.5-.6.3-.3.2-.1h.2l1.9,1.1.2.1.3.2.3.3.5.7v.1l.1.2.1.2.1.3.1.3v.2l.1.2.2.1,3.8.3h.1l.2-.1,1-1.1v-.3l.8-1.2.2-.3.2-.1h.1l.3-.2.1-.1.1-.2v-.1l.2-.6v-.7l-.2-.7V379l-.3-.7-.2-.3v-.1l-.2-.7v-.3l.1-.5v-.1l.1-.2.5-1,.2-.2.1-.2v-.6Z" />
    </g>

    <g id="regiao_nordeste" class="regiao">
        <path d="M745.7,248.5l.1-.7.5-.8.1-.2.4-.2h.1l.4-.8v-.2l-.3-.8-.3-.6-.1-.1-.6-.1c0-.4.1-.7.1-1.1l.1-.3.2-2.2v-1l.1-3v-.2l-.7-1.1v-.3h0v0l-.1-.6.2-.6v-.9l-.2-.2-.2.8-.3,1.1-.5.8-.1.2-.2.1.2-.6v-.6l.5-.6v-.9l.3-.2v-.2l-.1-.6-.3-.6-1.4-4.3-.1-.4-.1-.4v-1.7h.2V224l-.1-.8-.2-.6-1.2-3.3-.9-.7-.1-.4-.2-1.7-.5-2.5-.1-.1-.2-.3-.9-3.4v-.4l.1-.5v-.4l-.6-2-1.7-3.8-1-1.9-.2-.3-.6-.9-.1-.2-1.2-.9-.5-.3-.2-.1-2.4-.7-.8-.1-3.1-.6-1.6-.5-.6-.1H724l-1.2.4-1,.4-.3.1-3.1.3-.9-.3-1.6-.2-.8-.1H715l-2,.2-.6.2H711l-1.5-.6-.5-.4-.1-.1-.1-.1-.1-.3-.1-.1-.9-.9-.3-.2-.1-.1-1.3-.4h-3.4l-.5-.1-.4-.2-.6-.6-.2-.3-.1-.2-.1-.2-.1-.2.6-.2-.5-1.5-.2-.3-.2-.2-.5-.4-.2-.2-.3-.1-1.5-.6-1-.3h-1.5l-.6-.3-.3-.2-.7-.5-.1-.1-1.1-1v-.2l-.1-.2-.3-.6-1.4-1.7-2.2-1.5-1.8-1.2-1-.9-.2-.3-.5-.5-.1-.1-.6-.6-.3-.4-.1-.2v-.1l-.2-.5-.1-.2-1.5-1.9-.2-.1-.3-.1-.4-.1h-.1l-.2-.2-.4-.4-2.9-3.6h-.8l-1.9-.5h-.1l-.4-.2-.2-.1-3.6-2.5-1.5-1.5-.5-.8-.6-.4-.1-.1-.5-.1h-1.1l-2.6-1.7-3-1.9-.2-.1-1.6-.6h-.1l-1.9-1.2-2.7-1.3-.4-.2-1.7-1.1-.1-.1-.3-.4-.2-.3h-.1l-.2-.1-2.2-1.2h-.2l-3.6-.5-2.5-.3-2.9-.2h-.6l-.2.1-.7.3-1,.3h-1.1l-2.6.5-2.3.1-6,.2-.8.8h-.2a7.72,7.72,0,0,0-1.5.2l-.3-.3h-.1l-1.2-.4h-.1l-1.2-.2h-.2l-.2.1-.2.1-.4.1h-.1l-1.4-.1-.3-.1-1.2-.4-.4-.2v-.2l.2-.1h.1l.1.1.1.1.2-.1v-.2l-.2-.2-.1-.1-.3-.2-.5-.3-1.2-.7-.6-.2-.3.1-.2.2h0v-.3H612l-1.5.2-.6.2h.1l.7.4h.1v.7l-.2.4h-.1l-1.4-.3-.6-.2-.9-.3h-1.9l-.2.1-.1.1-.2.4v-.6l-.5-.8v-.1l-.2-.1h-.2l-.4.1-.4.2h-.4l-1.9-.3h-.1l-.8-.3-2.3-1.6-.9-1-.2-.3v-.1l-.4-.3-.9-.1-.5.1h-.4l-1.6-1-.7-.5h-.2l-.4-.1h-.7l-.2-.1-.6-.2-1.4-.5-.8-.4-.3-.1h-.1l-2.1-.4-.7-.1h-2.3l-.5.1H582l-.2.2v.3l.2.2.3.8.2,1.5-2.1-.3-2.8-.2-1.6.7h-.3l-1.3.3-1-.4h-.1l-1.4,1.6-.3.3-1.9,2.3-1.1,1.5-.8,1.4-.3-.2v-.3l.4-.3h.2l.1-.1v-.3l-.2-.8h-.2l-1.1.2h-.2l-.1.2v.2l-.1.3-.2.4v.1H566l-.7-.1h-.1v-1.1l1.3-.8.7-.4.7-.4h.7l.5-.3.1-.1,1.6-2.2v-.1l.2-.4.1-.3v-1.8l-.1-.2h-.5l-.7.1h-.2l-.2.2-.1.1-.8.5-.7.3-.3.1-.6.1h-.7l-1.3.8-.2.5-.3,2.8-.4,3.2-.1.6-.2.6-.1.2-.2.3-.4.5-.3.4-.1.1h-.1l-1.2.8-1.3,1-.8,1.5-1.8,1.7-.6.4v-1.7l.1-.1.2-.1h.3l2.4-2.4.1-.2v-.4l-.9-.3h-.2l-.1-.1-.1-.2v-.2l.2-1.5.5-2.6.1-.3.8-1.6.6-1.1-.1-.8V150l1.4-1.7,1.2-1.1h.7l.4-.1.1-.1.1-.2.3-1v-.5l-.1-.4v-.1l-.5-1.7-.1-.2-.4-.6v-.1l-.1-.1-.2-.1h-.9l-.3.1h-.1l-2,2v.1l-.3.5-.4.6v.3l-.1-1,.5-1.1.9-1,1.7-2.3v-.1l.1-1v-.2l-.4-1.4-.3-.9-.2-.5-.6-.3-1.3-.5-1,.5-.5-.5-1.5-1.7.2-1.4v-.1l-.1-.2-.1-.2-.3-.4v-.1l-.3-.1-1.2.7-.2.5-.4-.4-.3-.3.7-1.1.7-.8.3-.2h.2V129l-.1-.3-.1-.3v-.1h-.1l-1.7,1.5-1-.2-1.6-.5h-.1l-1.2.3H550l-.7.7-.8.8v.1l-.1.2-.1.2v.6l.2.4.1.1.2.2.1.2.1.2v.2l-1,.9h-.1l-.2.1-.6.1-.5-.1-.1-.1-.2-.3v-.1l-.1-3.3.3-1.2.7-.7.3-.4v-.9l-.2-.6-.1-.2-.2-.3h-.1l-.3-.1-.2.1h-.1v.2l.1.2v.2l-.6,1.2-1.3,2.5h-.2v-.6l-.1-.2-.7-.6h-.1v-.2l1.7-2-.6-.9-2.1-.7h-1.2l-.1.3v1.1l-.1.4-.1.2h-1.3l-.1-.1-.3-2.8-.3-.7-1,1.7-1.3.1-.3-.2v-.5l-.3-1.2-.2-.5V123l-1.4-1.1-.2-.2H534l-.4.5-.2.3-.3.7.1.2v.7l-.3.2h-.7l-.8.4-.2.1-.1.1v.1l-.5,1v.3l.1.1.1,1.5-.5,3.5-.4,1.8v.1l-.1.2-.5.7H529l-.3-.1-.9.2h-.1v.2l.1.5v.2l.2.5v.1h.2l.3-.1.2-.2.3-.1h.1l.3.1.2.1.2.2.1.2v.1l-.1,1.7v.3l-1.1,3.5-.4.8v.1l-.1.1-1.5,1.4-.5.4-.6,3,.1.4.1.3v1.3l-1.2.8-1.6,1.2-.5.4-.9.8-.3.3-.1.2v.2l.8,1.2.5.6-1,1,.2,1.7v.5l-.5,1.4-.1.3-.2.4-.7,1.2v.1l-1.8,2.1-1.1.8-.3.1h-.1l-.8.8-.2.3-1,3-.8,2.6v.1l-.3,2.2-.1.2-.4,1.2-.1.2-.1.1-.2.2-2.1,2.1-.5.5-.3.1h-.3l-.2.1-.7.3-.1.1v.1l-.6,2.5-.1.5.1.4-.9.5-.4.3-.3.3-.2.3-.1.1-.1.2v.2l-.1.2-.4.7-1.4,2-.1.2-.3.4-.2.2-1.2,1-.2.1h-.8l-.4-.2-.5-.1-1.1-.1-.3.3-4.1,3.3-3.7,3-1.7,1.4-8.1,6.5.6.1.2-.3.2-.3.1-.1.2-.2,3-2.2h.1l1.5-.5h.2l.6-.1h.6l.5.1h.1l.4.2.4.3.5.3,1.4.7.2.1.4.2.2.1,1.4.1h.6l.1-.1.1-.1.1-.2.2-.2.1-.1.2-.1h.1l.7.1.9.2h.1l.3.1h.1l.1.1.2.2.1.2.2.4v.6l.1.6v.1l.1.2.1.1.2.1.3.1h.8l.2-.1h.3l3.8,1.7.1.1.2.3.5.6.3.4.1.2.2.5.2,1v.8l.2,1.8.2.3.6,1.4v.1l-.1,1.6-.1.6v2.3l.2,1.2.1.2.1.2.4.4.1.2.1.1.1.3.1.2v.6l-.7,2.4-.9,2.8-.1.2-.5,2v.2l-.3,2.7v.1l.1.4.2.6.1.4-.3,1.7-.2.4-1.9,2.1-1.3.5H502l-.6.3-.2.3-.1.3v.1l.1.2.1.2,2.2,1.4.4-.3.2-.1h.2l1.1.2.4.2.2.3.1.3.1.6v.4l-.1.2-.2.2-.2.2-.2.9.9,1.7.1.1.1.1h.3l.1-.1h.8l1.5,1.9.9,1.4,1.2,1.7,1,.9.2.2,1.9,2.5.8,1.1,1.1-.6.7-.7.1-.1.7-.3.8-.1,1-.2.3-.1v-.1l.1-.2.1-.1.2-.1,2.5-.4h.2l.2.1h.1l1.7,1.2v.1l.1.2v2.1l-.3,1.9-.5,2,.5,1.7-4,.4-.3.1-.7.2-.7.3-.1.1-.2.2-.4.4-.2.2-.1.1-.6,1.2-.2.4-.1.4-.8,2.8v.4l.1.1.1.1v1l-.1.2-.3.2-.3.2-.1.1-1.2,1-1.2,1.2-.1.2-.1.1-.2.6v.3l.1.2.1.2.1.1.3.1.4.1h.5l.7-.1h.5l.2.2.6.4.4.3.2.2.5.7.1.2.1.2.2.7V279l.1.3.3.5.1.2.2.2.1.2.1.1.6.4,1.4.8.5.2.4.1.5.2.7.2.2.1.3.2.1.1.1.2v.6l-2,2,.1,2h.1l2.5,1.9.1.1.4.9v.9l.7,1.6,1.6,2.4.2.2.5.1h.4l.5-.1.6-.2h.2l.5.1.2.1,1.1.3.6.2.3.2.2.2.2.4.3.4.1.1.2.2.7.4.3.1.3.1v-.6l.1-1.7v-.1c.1,0,.1.1.2.1v1.2l1.8.2h1c0,.1.1.1.1.2v.8l-.1.3-.1.1-.5.4-.2.2-.6.3-1.9.8-1.6.8-.5.3-2.1,1.5-1.7,1.5-.3.2v.5l.8.7.7,1,.1.2v.4l-.3.1-.2.1-.5.1-.6.2-.6.3-.2.2-.2.2-.1.1-.3.6-.6,1.3-.1.3-.2.5-.1.3-.2.6-.2.4-.2.3-.2.1-.2.1-.4.2-.2.1-.2.3-.3.6-.1.3-.2.5v.5l.1.3.1.2.1.2,1.7,1.9.3.2.1.1.2.1,1.2.2,1.2.2.5.1.3.1,1,.3.6.2.6.2.2.1.4.2.4.3.2.1v1l-.1.1-.5.3-.2.1-.6.2-.4.1-.3.1-.5.2-.5.2-.1.1-.2.1-.1.2v.2l-.1.3v.9l.1.2.1.2.1.1h.2l.3-.1.3-.1.3-.1h.5l.2.1.5.2.2.2.3.2.2.2.1.2.3.5v.2l-.1.1-1,.7-.2.1-.4.1-.4.1-.4.2-.2.2-2.2,1.8-.1.1-.1.3-.1.7v3.5l.2,1v.2l.1.2.2.3.1.1.2.2.6.3h.1l.5.1.7.2.2.1.3.2.1.1.1.2.1.2v1.9l-.1.3-.1.1-.1.1-.3.5-.3.4-.1.2-.3.5-.1.2-.2.4-.1.3v.6l.1.2,1.1,1.2.3.2,1.2.8.6.6.1.2v.5l-.1.2-.7.4-.9.6-.1.2-.1.2-.1.3v.2l-.3,2.2v.4l.1.1.4.2,1,.3.3.1v.1l.1.2v.7l-.1.3v.2l-.2.3-.2.2-.6.5-.3.2-.3.1-.5.3-.1.2-.1.2-1.3,4.3v1.9l.1.8.1,1,.1.7.3,1.1.2.6.2.5,1.8,3.5.1.2.1.1,1.6,1,2.1,1.7v.1l.1.2v.6l-.1.2-.1.2-.5,1-.1.2v.1l-.1.5v.3l.2.7v.1l.2.3.3.7v.2l.2.7v.7l-.2.6v.1l-.1.2-.1.1-.3.2-.1.1-.1.1-.2.3-.9,1.3v.3l.3,1.4.3,1.4-.5,1.6-.1.2-.2.6v.1l-.1.2-.3.5-.2.3-.2.5v.4l.2.1h.2l.2-.1.1-.1,1.4-1,.1-.1.3-.5.1-.2.2-.4.1-.2.2-.1h.8l2.1.4h.1l.2.1.2-.1.8-.4.3-.2.2-.2v-.1l1-1.3.5-.8.7-.9.1-.1h.5l.3.1.3.1h.1l.6-.1.2-.1.8-.4.2-.2,2.1-1.8,1.1-1.3V381l.3-.2,1.3-.2h.1l.2.1h.1l.4-.1.2-.1,4-2.2.5-.5.3-.8,3.4-2.5,1.8-1.1.5-.2,4.2-1.7,1.7.1.5.1.1.1.3.2.1.1h.1l.8.2h.2l2.5.1,1.8.4.2.1.7.2,1,.5v.1l-.3.6-.6,1.2-.6,1.3-.1.4-.1.6v.1l.2,1.3.1.3.1.2.3.3.1.1.4.2,5.9,1.7h.4l.3-.1.5-.1.1-.1.6-.7.1-.2v-.2l.1-.2.1-.1.2-.1,2.1-.9.8-.2.3-.1h1.1l3.2.9,1.3.7,3.2,2.8.1.1,1.3,1,.1.1.5.4h.3l.3-.1.5-.1h.2l.9.6.5.3.2.2.1.2.1.1.7.5.2.2,2.8,1.3.2.1.2.1.8.2h.2l.2-.1.3-.2h.2l.9.8.7.7.8-.3,4.5-1.2h.2l.3.2,7.9,7.2v.2l.1.7.1.7.2,1.6.2,1.6.5-.2h.4l1.1.2.2.1.2.1,1.4.2,1.3-.4.5-.2.6-.6.1-.2v-.1l.1-.1.1-.1.5-.2h.4l2.2.2,3.2.6.3.1.7.3.2.1.3.3,1.5.6,2.7.7.9.1.2-.1,1-.1h.4l.3.1,1.5,1.3,1.7,1.5.1.1.4.2.3.1.2.1.3-.1h.4l.2.1.1.1.1.1.7.9.1.2v.1l.3.7.1.3v.4l-1.3,2.8-.3.4-.3.3-2.9,2.4-2.7,2-.2.1-.1.2-.1.2-.2,2.8v.4l.1.1.3.3.1.2.2.4v.6l-.1.1-.8.6-.2.2h-1.6l-1-.1-.4-.1-.3-.1-.1.1-.7.8-.1.2-.1.2v.1l-.9,3.5v.3l-.3,2.8v.1l-.1.3v.2l-.1,1.4v.5l.1.1.1.1h.2l.2-.1.1-.3v-.2l.1-.2.1-.1.1-.1.6-.2h.1l.1.1.5,1.3v.7l-.3.6v.7l.1.3v.1l.1.1h.1l2,1.3,2.9,2.1.2.1.3.5.1.3.1.4v.6l-.1.2-.1.2-.1.2-.3.3-.2.2-.1.3v.2l.1.2.4.7.4.6,5.5,3.3,4.4,2.6.2-.9.2-.8.1-.3.3-.6.1-.2,2.2-3.1,1-1.3.3-.3.2-.2.2-.1.5-.2,1.2-.3.5-.2.2-.1.3-.2,2.7-3.3V437l-.2-.2-.3-.2-.1-.2-.3-.5-.1-.3v-.4l-.1-.6-.3-3.2-.1-1.3V429l.1-1.5v-.4l.1-.3.1-.2.5-1.6.5-2,.2-1.2-.1-.2-.1-.3v-1.7l.2-.5.2-.2.2-.2v-.1l.1-.3.2-1.1v-.5l.1-.8.2-1.2.3-1.5.6-2.6,1.3-4,1.4-3.9-.3-1.5-.5-1-.5-1.6-.3-2.2-.8-5.4-.2-4.1v-1.4l-.4-2.8-.3-.2h-.1v-.1l-.1-.2v-.1l-.2-1.7v-1.5l.1-.3.4-1.6.6-3.8.2-1.8.1-.8v-.1l.5-1.2v-.1l.1-.1.1-.2v-.1l.4-1.4.1-1.9v-.4l-.1-.3-.2-.2h-.1l-.8.5-.1.1v.4l.2.3.1.6.2,1.2v.4l-1.4,1.9-.1.1-.7-.5v-.1l.1-1.2v-.2l.3-.1.3.3v.1h.1l.5-.5.1-.1v-1l-.3-.7-.4-2.5.6-1,.7-1.9v-.2l-.4-1.1-.4-.4-.1-.7.3-.5-.2-.6-.2-.1-.5-.3h-.2l-.1.2-.1.2-.3.7.4-3v-.1l.2-.4.9.1.6.2.2.1-.2-1,.1-.6.2-.4.2-.6.2-.2.1-.1,1.4-1,.1-.1.2-2.1.1-.1.9-.7.5-.7.6-2.1-.2-.1-1.2-.3h-.2l-.1.2-.1.1-.1.1-.2-.1-.4-.2-.1-.1-.7-1.2-.4-.8.3-.7.6-.9h.1l.1.1.2.2v.1l-.1.2-.1.1-.2.1h-.1l-.1.1-.1.3v.1l.2.7.4,1.2v.1l.5.2h.3l.5-.5.1-.1.6-1,.2-.5v-.1l-.1-.1V342l.5-1.8.3-.6v-.1l.1-.1.7,1,.2,1.1v.1l.3.4.3.2,1.1.1h.8v.1l.5,2.1v.2l-.1,1.2h-.1l-.3.1-.1.1v.1l-.3.9-.3-.6-.1-.2-.3-.2-.1-.1h-.1l-.5-.2h-.3v.1l.1.4.1.1.1.1.2.2v.3l-.2.5-.6.6-.3.3-.4.3-.2.1-.6.2-.1.1v.8l.1.7.1.1.5-.4,1.8-1.4,1.2-.9.1-.1h.7l.2-.1,2.2-1,.1-.1.5-.4.1-.1,5.2-5.8.9-1.1.7-1.6v-.3l.1-.2.3-.6.2-.2,1-1.1,1.5-2.1,1.8-2.5.3-.5.5-.8.5-1.1.3-.5.3-.7.4-1,.2-.6.1-.2,1.2-2.6a8.68,8.68,0,0,0,2-3.5h0l.4-.2.7-.4.1-.1.2-.3.1-.4-.4-.7.3-1.3.5-.6.2-.1.5-1.3-.2-.8h.2l.7.3.2.1v.2l-.2.6-.2.4-.2.2-.3.4-.4.1-.1.1-.5,1.6.1.5.4.1.6-.1.1-.1.1-.2.1-.5v-.2l.7-1.3.2-.4,1.1-1.4.3-2.1-.7-.2-.7-.5-.1-.2-.3-.5v-.2l.2-.1.6.1.4.1.2.1.2.3.1.4.1.2.4.3.2.1.2-.1,1.4-2.5.6-2.3v-.2l.2.4-.2.6v.8l.3.2.2-.1.3-.4.7-.9v-.2l.1-.2.7-.9.1-.1,1.1-1,2.9-1.9.8-.5,1.9-1.1.7-.3,1.1-.2.9-.3v.2l.2-.1.1-.1,1.2-1.9.6-1.4.1-.3.1-.2.5-.6.7-.7,1-.8.6-.4.2-.1,1.4-1.2.1-.1.1-.1,2.5-3.5.5-.8.6-1.1.9-1.8,2.4-1.5,1.1-1.1,4.1-4.5.5-.6,1-1.2.7-.9V275l.1-.2,1.2-2.2.2-.3.2-.1.3-.2.2-.3.3-.5.1-.2.2-.7-.2-.2-.2-.1-.7-.1v-.1l1,.1.2.1.6.2.3-.8.5-1.8.7-2,.5-1.1,1.9-5.2.7-2.8.6-2.3h.3l.1-.1.1-.2.2-.8v-.2l.3-1.7V251l-.2-.6-.1-.2-.3-.5-.4-.1-.3-.2-.1-.2v-.7Zm-133.2-95,.2-.3.1-.1-.3.9v.6h-.4v-.1Zm91.7,152.4h0l.1.1v.1Z" />
    </g>

    <g id="regiao_sudeste" class="regiao">
        <path d="M654.5,454.9l.3-2.6v-.4l.2-1,.1-.3.5-1.6.3-.8-4.4-2.6-5.5-3.3-.4-.6-1.1-.6h-.1l-.3-.3v-.1l-.1-.4-.1-.3-.3-.5-.1-.1-2.9-2.1-2-1.3h-.1l-.1-.1v-.1l-.1-.3v-.7l.3-.6v-1l-.5-1.3v-.1H638l-.6.2-.1.1v.1l-.1.2v.2l-.2.3-.2.1h-.2l-.1-.1-.1-.1v-.5l.1-1.4v-.2l.1-.3v-.1l.3-2.8v-.3l.9-3.5v-.1l.1-.2.1-.2.7-.8.1-.1.3.1.4.1,1,.1h1.6l.2-.2.8-.6.1-.1V421l-.1-.4-.1-.2-.3-.3-.1-.1v-.4l.2-2.8v-.2l.1-.2.2-.1,2.7-2,2.9-2.4.3-.3.3-.4,1.3-2.8v-.5l-.1-.3-.3-.7v-.1l-.1-.2-.7-.9-.1-.1-.1-.1-.2-.1h-.4l-.3.1-.2-.1-.3-.1-.4-.2-.2-.1-1.7-1.5-1.5-1.3-.3-.1h-.6l-.7.1-.6.1-.5-.1-2.7-.7-1.5-.6-.3-.3-.2-.1-.7-.3-.3-.1-3.2-.6-2.3-.2h-.3l-.5.2-.1.1-.1.1v.1l-.1.2-.6.6-.5.2-1.3.4-1.4-.2-.2-.1-.2-.1-1.1-.2h-.4l-.5.2-.2-1.6-.2-1.6-.1-.7-.1-.7V396l-7.9-7.3-.3-.2h-.2l-4.5,1.2-.8.3-.7-.7-.9-.8h-.2l-.3.2-.2.1H606l-.8-.2-.2-.1-.2-.1-2.8-1.3-.2-.2-.7-.5-.1-.1-.1-.2-.2-.2-.5-.3-.9-.6h-.2l-.5.1-.3.1H598l-.5-.4-.1-.1-1.3-1-.1-.1-3.2-2.8-1.3-.7-3.2-.9h-1.1l-.3.1-.8.2-2.1.9-.2.1-.1.1-.1.2v.2l-.1.2-.6.7-.1.1-.5.1-.3.1h-.4l-5.9-1.7-.4-.2-.1-.1-.3-.3-.4-.5-.1-.3-.2-1.3v-.1l.1-.6.1-.4.6-1.3.6-1.2.3-.6v-.2l-1-.5-.7-.2-.2-.1-1.8-.4-2.5-.1h-.2l-.8-.2h-.1l-.1-.1-.3-.2-.1-.1-.5-.1-1.7-.1-4.2,1.7-.5.2-1.8,1.1-3.4,2.5-.3.8-.5.5-4,2.2-.2.1-.4.1h-.1l-.2-.1h-.1l-1.3.2-.3.2v.1l-1.1,1.3-2.1,1.8-.2.2-.8.4-.2.1-.6.1h-.1l-.3-.1-.3-.1h-.5l-.1.1-.7.9-.5.8-1,1.3v.1l-.2.2-.4.4-.8.4-.2.1-.2-.1h-.1l-2.1-.4h-.8l-.2.1-.1.2-.2.4-.1.2-.3.5-.1.1-1.4,1-.1.1-.2.1h-.2l-.2-.1v-.4l.2-.5.2-.3.3-.5.1-.2V389l.2-.6.1-.2.5-1.6-.3-1.4-.3-1.4-1,1.1-.2.1h-.2l-3.7-.3-.2-.1-.1-.2v-.2l-.1-.3-.1-.3-.1-.2-.1-.2v-.1l-.5-.7-.3-.3-.3-.2-.2-.2-1.9-1.1H524l-.2.1-.3.3-.5.6-.2.3-.2.3v.2l.1,1.7.3.8v.1l.2,1.6v.1l-.5.5-.2.2-.2.1H522l-.5-.2-.2-.1-.9-.5-.7-.4-.4-.1-.5-.1h-.6l-.3.1-.4.1-.2.1-.2.1-.1.1-.2.2-.1.2v.1l-.8,3.2v.2h.2l.3-.1h.3l.2.2v.1l.4.8.1.2v.4l-.7.9-.2.3-.2.2-.4.3v.3l.1,2,.1.2v.1l.1.2v.1l.2.2h.1l.5.1.2.1v.4l.6,4.6v.1l-.1.2-.1.1-.4.2-1,.3h-.1l-.8.2h-.1l-2.1.5-2.7,1.7h-.3l-1.3.1-.4,1.1-.2.6v.1l.1.7.1.5.2.3v.1l-.1.2-.4,1.1-.4.7-.5.8-.1.2-.4.3-.2.2-.1.1-.2.8-.2.8.2.4v.1l.1.2.6.7.1.1.1.1.4.2.4.1.2.1,1.7,1.2,1.9,5.1.1.4.1.4v.2l-.1.2-2.8,3-3.9,3.5-.1.1-.2.5-.4,1.8v.3l.9,1,.2.2.1.1h.2l.1-.1.2-.2.2-.1.1-.1.4-.1h.1l1.2.3.2.1.4.2.2.2.1.1.2.2.1.2.1.2.1.4v.7l-.1.8-.2.1-.1.1-.2.2-.4.7-.1.3-.3.9-.3.9v.2l.2.1.1.1.3.9.9,2.4.1.3v.3l-3.8,2.4-.5.2-.5.1V447l-.1-.1h-.2l-.3.1-.3.2-.6.8-.3.9v.1l-.2.3-.2.1-1.1.7-1.8,1-2.7,1.3-.3.1-.1-.2-.2-.2-.6-.5-5.1-2.2h-.2l-.1.1-.5.4-.1.1v.1h-2.8l-1.1-.1-.6-.2-.1-.1h-2.2l-1.1.1-1.3.1-.7-.2-.1-.1-1.6-.8h-.2l-4.9,3.1-3.3,3.3-.2.2h-.3l-.2-.1-1.5-1.6-1.9-.4-3.7,1.9h-.5l-2.6-.4-.8-.2-.3-.1-.4-.1H457l-.2.1-2.9,1.1-2,.3-.5.2-.2.1-.2.1-.1.1-1.5,2.3-1.5,2.9.1,1v.3l-.2.3-.6.8-.2.2-.1.1-.5.2-.4.1h-.5l-.6-.2-.5.1-.2.1-1.1.8-1.7,2.1-.2.3-.8,1.9v.2l.1.1.1.1.5.4.1.1.1.3v.1l-.1.2-.1.1-.2.1h-.2l-.3-.1-.6-.4h-.4l-.2.1-.1.2v.2L438,476v.6l.1.6.1.2.2.3.1.3.3,1.5v.3l-.2,1-.2,1.3v.2l.1.2.1.2.1-.2.2-.2h0l-.2,1.2-.1.2-.1.2-.1.2-.1.1h-.1l-1.6.8-.4.1H436l-.4-.1h-.7l-.4.2-.4.3-.2.1-.4.3-.4.4-.2.2-1.3,1.5-1,1.5-.8.7-.2.1h-.5l-.6,1.1-.1.2-.7,1.9-.1.8-.1,1.6v.9l-.1.2-.3.4-.1.2-2.7,3.4-.1.1-.2.1-.3.1-.3.1-.4.2-.1.1-.1.2-.1.3v.1l.1.8.2.4.1.4.1.4v.7l-.1.5-.3.6-1.2,2.1-.6.7-.4.2h-.3l-1.2,1.5.1.3.3.6.1.3-.2,1.1-.1.2-.1.1-.2.1-.2.1-.3.1-.4.2-.7.6-.1.1-.1.2-.1.3-.2.6v.3l-.1.1-.1.2-.8.6-1.1,1-.2.2-.1.1-.1.3-.2.5-.1.3-.9,1.5-.3.4-.8.8-.3.2-.3.2-.5.3-.2.2-.3.2-.7.3-.9.4-3,1.7-4.2,2.5-1.5,1.3-.1.1-.1.2-.1.3-.6,1.2-1,1.2,2-1.3,1.5-1.1.3-.1.3-.1h.5l.5.2.4.2.3.1.2.1,2.5.2h.1l2.9.1,1.6-.1.2-.1h.2l1.5.2.3.1h1.9l1.4-.6.1-.2.3-.5.1-.1.2-.2.2-.1.2-.1.2-.1.2-.1.4.1.5.1.4.2.9.4.7.4.2.2,2.8.4.3.1,2.4.8.5.3.2.1.2.1h1.4l.5-.1.2-.1h.1l.2-.2.2-.2.1-.1,1.3-.1h1.6l.1.1.2.1.1.2.1.2.1.2.1.2.2.2.2.1,1.9.8.2.1,1.9.4,2.1.4.2.1.3.2.3.3.1.1.8,1.5,2,.2.1-.2.1-.1.1-.1.2-.1.3-.1,1.7.2.2.1.3.1.1.3.1.2h1.2l5.4.1,1.8-.5.6-.2.1-.2.1-.1,1-.2.1.1.1.1.1.2,1.1,1.5,4.4,3.2.1.1.5.6.1.1.5,1.2v.1l.1,3-.1.1-.4.6-.1.1-.2.9.4,1.7.1.4.1.2.1.1.1.2.1.1.8.7.3.2.1.1v.5l-.1,1.6v.1l-.4.5-.2.1,1,1.7.8,1.5v.1l1.4,1.2.2.1.5.1.2.1.2.1.1.1.4.4.1.1v.2l-.1.8v.1l.9,2,.1.1.1.1h.2l.6.3.3.2v.3l-.3,1-.1.1-1.3,2.1h-.1l-.1.1v.3l.3,1.8.1.2.1.1.2.1.3.2.2.1.2.1.6.2h.5l2.9-.1,1.4-.2,2.7-.4h.1l.6.4,1.9-.2h.1l1.7.1h.2l1.9,1.2v.5l-.1.1-.2.2-.2.2-.4.2h-.1l-.2.2-.1.1-.8,3.7.3.6.1.2.1.1.1.1.2.1.8.4h.2l.1-.1.7-.9,1.3-2.8v-.3l.1-.1h.1l.8-.1.7.1,1,.3.8.3.1.1-.2.9-.2.5-.1.3v.5l.8,3.4v.1l.1.2.5.2.2.1.9.2.1-.1.4-.4.4-.4.1-.1.2-.2.4.1h.1l.1-.1.3-.2.1-.1.3-.3.3-.4.2-.3.3-.8.1-.8v-.1l-.1-.1h-.1l-.2.1-.2.2-.3.2-.2.1h-.2l-.6-.1-.9-.3-.1-.1-.1-.1v-.2l.6-.6.8-.1,2.8-2.2.7-.4,1.6-1,2.3-1.6,1-.6,1.2-.3,1.2-.3,2-1.1,1.9-1.1,4-3.2-.1-.1V563l.3-1v-.1l.1-.1.2-.2.1-.1.4-.3.5-.3.4-.3,1.1-.7.4-.2,4.4-2.3,2.2-1,.8-.3.4-.6-.1-.1-.3-.7v-.3l.9-1.2v-.1h.1l1.3.9.1.1v.1l.4.8.2.4v.2l.2.8h0l-.3-.4-.1-.1-1.1-.1h-.1l-.1.1-.4.4v.1l.2.5v.1h.1l2.1.2v-.3l1.3-.5.6-.6,1.1-1.8v-.1h-.3l-.2.1-.2.1-.1.1-.5.5-.2.2-.5.1h-.3v-.1l.2-.1,1.8-1,.8-.4,2-.9.3-.1.8-.2.2-.1.4-.1.9-.2h.2l3.1.5.6.1,1.6.3.3.4.1.1.3.2h.2l1.3-.2.2-.1.2-.1.1-.1v-.1l.2-.3v-.2l-.2-.7-.4-.7v-1.2l.1-.1.3-.3,2.8-.8,3.3-1.5.6-.3,1-.7-.1-.1-.3-.2.5-.7,1.1-.9.4-.3.3-.2h.2l.7.5.1.1.1.2.1.2.1.1h.2a3.45,3.45,0,0,0,1.3,1c1,.5,1.9-.7,1.4-1.4l.1-.4v-.1l.1-.1.1-.1h1.6l.5.2h.5l.2-.1,1.3-1v-.3l-.1-.1-1-1h-1.6l-1.2-.1v-.1l-.1-.3v-.1l.3-1.7.1-.6a.6.6,0,0,0,.4.1,27.73,27.73,0,0,0,5.6-1.1c.6-.2,1.2-.4,1.7-.6l.5.8v.1l.1.1.1.1h.8l1.1-.3.3-.1.4-.3.2-.2.2-.2.1-.1.7-.9,3.2-.7h.3l1.6.6,3.1,1.7v.1l-.1.1-1.6.4-.3.1-1.1.1h-.5l-1.5-.1-1.3-.2h-.2l-.2.1-.1.1-.2.2-.1.1-.1.3v.4l.1.1h.1l.4-.2.6-.2.4-.1h.4l4.9-.5,4.8-.7h1.1l.8.1,1-.2.3-.1.6-.2.1-.1.6-.4.1-.1v-.3l-.3-.8-.1-.2-1-1.1h-.1l-.1.2h-.1l-.2-.2-.1-.2-.2-.3-.2-.5V533l.1-.6.1-.2.2-.1,3.3-1.2.6.1.3.1h.1v.7l-.1.5v.1l-.7,1.1-.4.3-.1.1-.2.2-.6,1.1v.8l.5.3.1.1,2.7.5h.3l4.8-.4.1-.1.2-.1.3-.1.3-.1h.2l1.4-.1h2.3l5.3.2,2.2-.6.9-1.7.3-1.8-.1-.1-.1-.2-.1-.3-.1-.2v-2.4l.1-.2.1-.2.2-.2v-.1l.1-.1h.1l2.1-1.8,1.6-1.7,1.2-.8.5-.3,1.2-.6.5-.2.7-.2.4-.1,2.3-.7,1.1-.3.8-.2.4-.1.9-.3.5-.2.3-.1,3.3-1.7.3-.2.3-.3.3-.4V517l-1-5.3-.5-1.9.3-2.4.3-.4.8-1.2v-.3l.1-.4a3,3,0,0,0,.4-.8l.9.2v-.4l.1-.3.3-.5.2-.3.8-.9.4-.4.2-.1.2-.3v-.1l.1-.3.2-.4.3-.8v-.1l-.1-.4v-.4l.1-.4.1-.2v-.1l.8-1.2v-.1h.1l.3-.2,1.6-.6h.3v.3h.3l3.9-4,.2-.3,1.2-2.1.2-.4,1-2.4-.8-.3-.4-.1-.5-.1v-.2l.1-.5.3-1H644v.3l.8.6.1.1h.1l.8-1.6.1-.2.4-1.3.4-1.8.3-1.2,2-3.8.2-.3.1-.1.3-.2,1-.5.7-.3h.1l.4-.2,1-.4.3-.2h.1l.1-.2.3-.5,1.4-2.9.2-.4v-.7l.1-1.4v-.4l-.2-1.7v-.4l-.2-1.6-.1-.5-.2-1-.2-1.9-.1-2.5v-2.8Zm-98.9,86.5v-.3l.1-.2,1.3-3.8,1.2-1.2.1-.1.1-.1,2.6-1h.4l.2.1h.1l.2.1,3.2-.5,1.8-.7.1-.2,1-1.1v.2a.79.79,0,0,0,.5.8c0,.1-.1.1-.1.2a4.82,4.82,0,0,1-2.2,1.5,23.55,23.55,0,0,1-3.8,1h-.2l-.2-.1h-.4l-.8.3a1.4,1.4,0,0,0-.9-.3c-1.2.1-2.2,1.6-2.7,2.5a12,12,0,0,0-1.3,3.3l-.1-.1-.1-.1Z" />
    </g>

    <g id="regiao_norte" class="regiao">
        <path d="M537.3,297.3H536l-1.8-.2-.3-.1-.3-.1-.7-.4-.2-.2-.1-.1-.3-.4-.2-.4-.2-.2-.3-.2-.6-.2-1.1-.3-.2-.1-.5-.1H529l-.6.2-.5.1h-.6l-.2-.1-.2-.2-1.6-2.4-.7-1.6v-.9l-.4-.9-.1-.1-2.5-1.9h-.1l-.1-2,2-2v-.6l-.1-.2-.1-.1-.3-.2-.2-.1-.7-.2-.5-.2-.4-.1-.5-.2-1.4-.8-.6-.4-.1-.1-.1-.2-.2-.2-.1-.2-.3-.5-.1-.3V276l-.2-.7-.1-.2-.1-.2-.5-.7-.1-.2-.4-.3-.6-.4-.2-.2H515l-.7.1h-.5l-.4-.1-.3-.1-.1-.1-.1-.2-.1-.2v-.3l.2-.6.1-.1.1-.2,1.2-1.2,1.2-1,.1-.1.3-.2.3-.2.1-.2v-1l-.1-.1-.2-.1v-.4l.8-2.8.1-.4.1-.4.6-1.2v-.1l.2-.2.4-.4.2-.2.1-.1.7-.3.7-.2.3-.1,4-.4-.5-1.7.5-2,.3-1.9v-2.1l-.1-.2V252l-1.7-1.2h-.1l-.2-.1h-.2l-2.5.4-.2.1-.2.1-.1.2v.1l-.3.1-1.3.2-.5.1-.7.3-.1.1-.7.7-1.1.6-.8-1.1-1.9-2.5-.2-.2-1-.9-1.2-1.7-.9-1.4-1.5-1.9h-.8l-.1.1h-.3l-.1-.1-.1-.1-.9-1.7.2-.9.2-.2.2-.2.1-.2v-.4l-.1-.6-.1-.3-.2-.3-.4-.2-1.1-.2h-.2l-.2.1-.4.3-2.2-1.4-.1-.2-.1-.2v-.1l.1-.3.2-.3.6-.3h.2l1.3-.5,1.9-2.1.2-.4.3-1.8-.1-.3-.2-.6-.1-.4v-.1l.3-2.7v-.2l.5-2,.1-.2.9-2.8.7-2.4v-.6l-.1-.2-.1-.3-.1-.1-.1-.2-.4-.4-.1-.2-.1-.2-.2-1.2v-2.3l.1-.6.1-1.6v-.1l-.6-1.4-.2-.3-.2-1.8v-.8l-.2-1-.2-.5-.1-.2-.3-.4-.5-.6-.2-.3-.1-.1-3.8-1.7h-.3l-.2.1h-.8l-.3-.1-.1-.1-.1-.1-.2-.2v-.1l-.1-.6V201l-.2-.4-.1-.2-.2-.2-.1-.1h-.1l-.3-.1h-.1l-.9-.2-.7-.1H495l-.2.1-.1.1-.2.2-.1.2-.1.1-.1.1h-.6l-1.4-.1-.2-.1-.4-.2-.2-.1-1.4-.7-.5-.3-.4-.3-.4-.2h-.1l-.5-.1h-.6l-.6.1h-.2l-1,.3a1.42,1.42,0,0,0-.6-.2l4-3.2,1.7-1.4,3.7-3,4.1-3.3.3-.3,1.1.1.5.1.4.2h.8l.2-.1,1.2-1,.2-.2.3-.4.1-.2,1.4-2,.4-.7.1-.2v-.2l.1-.2.1-.1.2-.3.3-.3.4-.3.9-.5-.1-.4.1-.5.6-2.5v-.1l.2-.1.7-.3.2-.1h.3l.3-.1.5-.5,2.1-2.1.2-.2.1-.1.1-.2.4-1.2.1-.2.3-2.2v-.1l.8-2.6,1-3,.2-.3.8-.8h.1l.3-.1,1.1-.8,1.8-2.1v-.1l.7-1.2.2-.4.1-.3.5-1.4v-.5l-.2-1.7,1-1-.5-.6-.8-1.2v-.2l.1-.2.3-.3.9-.8.5-.4,1.6-1.2,1.2-.8v-1.4l-.1-.2-.1-.6.6-2.8.5-.4,1.5-1.4.1-.1v-.1l.4-.8,1.1-3.5v-.3l.1-1.7v-.1l-.1-.2-.2-.2-.1-.1-.3-.1h-.1l-.3.1-.2.2-.4.1h-.1v-.1l-.2-.5v-.2l-.1-.5v-.1l.1-.1h.1l.9-.2.3.1h.3l.5-.7.1-.2V132l.4-1.8.5-3.5-.1-1.5-.1-.1v-.3l.5-1v-.1l.1-.1.1-.1.8-.4-.1-.6-.7-1.4-.7.8-1.8.7v-.2l.2-.5.7-1.6.4-1.9-1.3.6-3,.9-.6.1-1.7-.2-.1-.1-.1-.2v-.2l-.1-.1h-.2l-.5.3.4-.6v-.2l-.6-2-.4-.7-.1-.2h-.2l-2.1.1-.9.2-.5-.5.3-1V114l-.1-.2-.3-.2h-.2l-.7,1.2-.6,1.7-1,.8-.1-.1-.1-.2-.1-.2v-.2l.1-.2.1-.2.2-.1h.2l.1-.1.1-.2-.6-2.5H515l-1.9,1-2-.9-.5-1-.2-.3-.1-.1-1.2-.7h-.2l-2.7-.3-.5.2-.1.2-.2.5.2,1.4.2.4.4.1.8.5.1.5-.3.6-1.6-1.5-.9-1.6-.1-.2-.2-.1h-.8l-.1.2v.2l-.1.4-.2.3-.1.1.1-1.1V112l-.3-.5-.2-.2h-.2l-.5.3-.1.2-.3.8v.2l.1.3v.1l.3.6-.9.3h-.4l-.1-.2.1-.2.4-.4.1-.5-.1-.4-.1-.2-.4-.4-.2-.1h-.2l-.2.1-.2.1-1.3.9-.1.1v-.1l-.1-.1-.2-.1-.4-.2h-.2l-.5.1-.1.2-.2.5v.2l.3.6-.5.4h-.2l-.3-.1-.1-.2-.1-.2v-.2l-.1-.2-.5-.6-.3-.1h-.2l-.2.1-3.4,3-1,1.5-.4.7-.1.2-.1.2v.5l.1.2.1.2.7,1.5-.1.8h0l-.1-.8-.1-.1H488l-.1.1-1,1.4v.2l.1.1.1.1.8.6.5.2h.1l.7.2-.3.9-.1.2-.2.1-1-.2h-.2l-.1-.1-.3-.3h-.4l-.3.2-.2.1-.2.2-.2,1.9-.1,1,.1.2.1.1h.9l.1-.1.3-.1.4-.1h.3l1-.1h2.1l.4.1.2.1.1.1.1.2-3.1.5h-1.3l-.9,1.1.2.3.2.4.2.4.1.4v.5H487l-1.3-.7-.1-.1-.6-.6-.1-.2-.1-.4-.1-.2-.7-1,.3-.5v-.1l-.6-1-.2-.3h-.2l-.5.9-.2.4.4.5.1.1-.3.1-.5-.3-.5-.3-.6.5-.1.1-.8,1.3-.8,1.5-1.5,1.8.5-1.7.1-.8v-.1h-.5l-.9.3h-.1l-.1.1-.3.4-.2.2-.7,1.3v.1l.1.3h-.1l-.6.3-.2.1-.1.1-1,1.7-.1.2v.1h0l-.1.1h-.9l-.1.1-.2.3-1.3,1.8-.1.2-.7,1.9-.2.9-.4,1.1-.6,1.2-.9,1.5-.1.2-.2.5-.1.2v1.1l.1.5-.1.2-.3.5-.7.9.3-1.6.1-1.4-.1-.4-.2-.5-.2-.3-.2-.5v-1.1l.5-.8.1-.1.3-.2.2-.2.5-1.1v-.2l.3-1.7.8-1.8,1.5-2.5.2-.3.1-.3v-.9l-.1-.2-.2-.1-.8.1-1.9.6-.3.2-.4.2-.4.3-.3.2-.1.2-.2.3-.7.6-1.1.5h-.3l-2-1.6.1-.2v-.1l.2-.4-.1-.3-.2-.5v-1.4l.2.1.5,1.8v.3l.9.5,2.2-1.4.1-.1.7-1.2.1-.2,2.5.5,4-.6,4.1-1.7,1-.5.5-.4.3-.2.3-.3.1-.2,1.6-4.2,2.3-3,.1-.2.1-.2-.2-.4-.2-.4v-.4l.3-.8.1-.1.2-.1.4-.1.4-.2.2-.1.2-.2.1-.1.1-.2.1-.4.1-.4.6-2.2.2-.9.3-1.7v-1.2l.1-.2.1-.2.5-1.3.2-.3.1-.2.1-.1.3-.2.1-.1.1-.2.1-.2.1-.2.1-.9v-.2l-.1-.2-.1-.1-.7-.5-4.2-.7-3.7-.3-3.4-1-2.7-.3H473l-2.6.5-.3.1-.2.1-.8.5-.1.1-.1.2v.2l-11-25.1.2-.1.6-.5.1-.2.4-.5.2-.4v-.7l-.1-.4-.1-.3-.1-.1h-.3l-.5.3-.1.1-.5.1-1.3.2h-.9l-.3-.1.2-.2.5-.2.8-.3.4-.1.8-.1.2-.1,1.4-1,.2-.2.1-.2.2-2.2-.1-1.4v-.4l-.1-.4-.1-.4-.7-2.3-.1-.2-.1-.2-1.5-.9-.6-.3-2.7-.8h-.2l-2.5-.1-1.5.2-.7-.1-.3-.2-.2-.2-.3-.3L448,64l-1.7-2.7-1.6-2.6-2-6.1-.6-2.4V50l-.2-.6-.5-1.6-1.2-2.5-1.5-3.2-.5-1.2-.1-.4-.5-2.5-.1-.4-.1-.9-.1-.9-.2-3.9v-1l.1-1.7-.1-2.8v-.2L437,26l-.1-.2-.1-.2h-.2l-.2.1-.2.2-.3.5-.5-.4V24.1l-.5-1.1-.2-.3-1-1.3-.2-.3-1.1-1.2-.3-.2-3.8-3h-.2l-.1.2-.1.2-.1.2v1.1l.1.4.1.4.7,2.4.1.4.4,1.1.4.7.2.9-1-1.6-.1-.2-.6-1.7-1.3.7-.2.4-.4.7-.1.2-.5.3h-.3l-.4.2-.5.2-.3.2-.3.2-.1.2-.1.2-.2.4-.2.8-.3.6-.1.2-.2.2L421,28.3l-.3.2-.1.2-.9,1.2-.1.2-.1.2-.1.6-.1.5-.1.3-1.9,3.2-1.2,2-1,1.5-.1.2-.3.3h-.1l-.1-.1h-.2l-.2.1-.1.1-.1.1-1.1,1.4-.1.5.1.8v.1l-.1.9-.5,1.1-.1.3-.5.8-1.1,2.1-1.1,2.2-.6,1.4v.1l.2.6v.3l-.1.2-.3.6-.1.2-.5.8-1.5,1.8h-.1l-.1.1-2,1.2-1.8,1.5v.1l-.2.2h-.1l-.2.2-.7.3h-.9l-1-.2-.1-.1-.1-.1-.2-.3-.1-.1h-.7l-1.5.2-.8.1.2-1.1-1.3-1-.4-.5-.1-.1-.2-.1h-.2l-.1.1v.5h-.1l-2,1.1-1.3.2h-.1l-3.2-1.1-.4-.5.1-.1v-.1l-.1-.1-.3-.4-.1-.1h-.4l-.2.1-.2.1-.3.2-.1.1-2,1.4-.3.5v.2l-.1.2-.1.1-.1.1-3,2h-.4l-3.7-.9h-.1l-2.6-.9h-.1l-.2-.2-.8-.7-.2-.5.2-.2-.3-.3h-.2l-.5-.1-.3-.1h-.2l-.5.2h-.1a5.27,5.27,0,0,0-1.2-.3l-.3-.9.1-.2h.4l.1-.1V54l-.1-.1-.2-.1-.8-.2h-.4l-.2.2-.3-.1-.2.2-.2.2h-1.3l-1.8-2-.1-.2-2.3.4-.4.2-7.4,1.7-3.7.7h-.5l-2.5-1.3h-.1l-.1-.1-.2-.2-.2-.3-.4-.3-.2-.1-.3-.1h-.5l-.3.1-.1.2-.3,1.2v.1l-1.6,1.7-.6,2.1,1.5.8,2.5,3,.1.2v2.8l-.1.1-.2.2-.5.5-.1.1-.4.2-.5.1h-.9l-.4-.1h-.2l-.3-.1-.6-.2-1.7-.5-2.4-.7-1.9-.2-.8-.2-1,.4-.9.1-.1-.1-.2-.2-.5-.2h-.2l-1.7.4h-.1l-.2.2h-.1l-.1.2v.1l-.2.2-.1.1h-.3l-1.7-.4-2.3-.5-.3-.1-.6-.3-.2-.2-.1-.5-.1-.4-.1-.2-.2-.1h-.5l-1.1.5-.7.5-.5.4h-.2l-.2-.1-.5-.5h-.6l-.4.1-.3.1-1.5,1.1-.1.2v.8l-.3.8-.1.2-1,1.3-.2.2-.2.2-.5.3H314l-1.2.1h-.1l-.3-.1-.5-.2-.3-.1-.4-.1h-.9l-.2.1-1.9.9-1.8.8v.2l-.1.5-.1.3-.3.8-.1.1h-.2l-2.2-.1-2.7-1-.6-.2-1.6,1.9h-.2l-.3.1-1.9.3.6,1.7.1.4v.2l-.1.2-.2.2-.5.6-.1.1h-.3l-.9-.1-2.2-.2h-.1l-.2.2-.1.2v.1l-.2.5-.1.2-.4.3-.3.1-.7.3h-.7l-.6-.2-.2-.1-.3-.2-.2-.2-.1-.1v-.1l.1-.2h.1v-.3l-.1-.2-.4-.4-.1-.1-.6-.2-.3-.1.1,2c-.1-.1-.2-.2-.2-.3l-.2-2.1-2.5-.5-2.4-.7-.2-.1h-.1l-.2-.2-3-3.2-1.2-1.5-.2-.3-.4-.5-1.7-.6h-.2l-.4-.1-.2-.1-.2-.2-.4-.4-.1-.2.5-.6.4-.6v-.1l-.1-.1-1.5-.2-.2.1h-.2l-.2-.1-.1-.2-.1-.8v-.1l.2-3.1.3-3.1v-.2l-.1-.6v-.1l-.1-.1H271l-.2-.2-.8-.5-.7-.5h-.1l-.1-.1L269,55v-.2l.2-.3v-.1l-.1-.8v-.1l-.6-2.1-.6-.9-.6-1.2-.1-.2V49l.1-3.2.1-.7.3-2.4.2-.9.9-2.5.7-1.4.3-.4.3-.3.2-.2.4-.5V33.8l-.1-.2-.3-.4.9-1.8,2.3-1.7,1.8-3.6-.2-1.9L272.7,21l-.1-.1-.2-.3-.1-.4-.1-.3V18.7l1.1-1.5.1-.1V17l-.1-.1-.8-.5-1.4-.8-2.6-1h-.6l-.1.1-1.3.2h-.4l-1.4-.3h-.1l-.3-.1v-.1l-.1-1,.5-.4h.6l.2-.2.1-.2.1-.1.9-1.7.1-.5.3-2,.4-3.5-.6-1.7-1.3-1V1.9l-.3-.8-.3-.5-.1-.1L263.4,0H263l-.7.2h-.1l-.2.2-.1.2-.1.2-.7.6h-.2l-4.4.1h-.4l-.2-.1-.1-.1h-.2l-1.5-.1h-.3l-.6.2h.4l.3.1h.1l.4.2.2.1.1.1.2.4L256,5.4l.1.3.1.3v.1l-.1.2v.1l-.2.3-1,1.5-.1.2-.4.5-.7.6-.3.2-2,1-.2.1h-.8l-.1.1-.6,1-.1.3-.1.2v.9l-.4.5-.3.4-.3.3h-.1l-1.2.2-2,.3H245l-2.7-.2L239,16.6l-.2.2-.1.1-.1.2-.1.3v.2l.1.4v.4l-.1.2-.2.4-.1.2-.4.4h-.2l-1.1.1h-.1l-.3-.1-.6-.2-.6-.1h-.1l-1,.2-.2.2-.3.3-.2.2-.2.4-.2.1-.6.4-1,.2h-.7l-.3-.1H230l-.4-.2h-.3l-1.1.4h-.1l-.4.4-.1.2-.2.2-.2.1h-.1l-.3.1-.3.1h-.2l-.5-.1-.3-.1-.6-.2-.8-.3-.4-.2-.8-.3-1.2-.5-.3-.1h-.9l-1.6,1.1-.1.1-.1.3-1,1.2h-.3l-1-.1h-.1l-1,.2h-.1l-.3.1-.2.2-.1.2v.1l-.3,1.8v.4l.1.3.3.8.2.5.1.3.1.2.2,1v.8l-.1.4-.1.2-.3.6-.4.5h-.1l-.3.1-1.6.8h-.3l-.3-.1h-.2l-1.2-.7-.1-.1-3.2-3.6-1.3-1.7-.1-.2-.1-.1h-.1l-.7-.5-.2-.1h-.1l-.6-.2-.3-.1-.3-.1-.4-.1h-.6l-.2.1-.1.1-.1.2v.2l-.1.2-.1.3-.1.3-.2.4-.1.1h-.1l-.4.1h-.4l-.4-.1-.3-.1h-.1l-.2-.3-.4-.4-.3-.4-.4-.3h-.7l-3.6-.2h-.2l-1,.4-.2.1-.4.4-.1.1v.1l-.1.1-.1.1-.2.1-.5.1h-.5l-.4-.1-.2-.1-.1-.1-.1-.2v-.1l-.1-.7v-.2l-.4-1.4-.4-.9V23l-.2-.3-.1-.1h-.1l-1.7-.5-.5-.1-1.6-.1h-.9l-.3.1-.4.2h-.3l-.6.1-1.4.2h-.8l-.2-.1-.1-.2-.1-.2-.7-1.5-.1-.2-.2-.3-.3-.2-.3-.2-.5-.2-.3-.1h-1.1l-.2.1-.1.1v1.4l.1.2h.1l.2.2h.1l.6.3.3.1.2.1.1.2v.1l.1.4.2.7.6,1.1.1.2.2.3.2.3.2.2,2.1,2.1,1.1,1.1.2.2.2.1.6.3.8.3,1.1.6,2.1,2.2.1.2.1.2.1.2.1.5v.1l-.1.3-.1.4-.1.2-.4.4-.1.2-.1.2-.1.4-.1.2.2,1.7.4,2.8.9,2.5.2.4,1.1,1.9,1,2.1.9,2v.3l-.1,1.5V51l-.1.2-.4.8-.2.4-.1.1-.2.5-.1.2v.5l.1.2.2.1,3.7.7h1l3.8-.2,3.9.2h.1l.2.1.2.1.1.2-.2,2.6-.1.2-.1.1-.3.5.6.6-.4-.2-.2-.2-.8-.8-.2,1.4v.1l-.1.1h-.2l-1.5.2h-1.3l-.9.4h-.1l-2.1,1.5-.4.4-1.6.5h-2l-.3.1-.5.2-.4.2-.2.2-.1.1-.3.3-.1.1-.3.4-.1.2v1.2l-.2,2.3v.1l-.1.5-.1.3-.1.2-.5.8-.1.2-2.8,2-1.7-.4-.1-.1-.2-.1H183l-.2.1-2.4,1.4-.2.2-.1.1-.2.3-.1.2-.1.3-.1.4-.1.2v.1l-.2.2-.2.1-1.9,1.3-.4.2-.2.1H176l-.4-.3-.4-.3-.1-.1h-.3l-2.2,1.3-1.2.8-1.6.4h-.2l-.3.2-.2.2-.2.2-.1.2-.1.2-.1.7v.4l-.1.7-.1.3-.1.2-.1.4-.3.4-.1.1-.5.2h-.7l-.4-.2h-.4l-.2.2-.2.3-1,1.2-.2.2-.1.2v.1l-.1.7v1.5l-.6.9-.8.6h-.2l-.6.2h-.3l-.2-.1-.1-.1-.2-.2-.2-.3-.1-.3-.1-.3V87l.1-.4.2-.3.6-.5.2-.3.2-.4.1-.2.1-.3v-.8l-.2-.3-.1-.2-.3-.4-.4-.4-.6-.3h-1.3l-1.4.1h-.2l-2.5,1.4-.7.6-.2.2-.1.1-.2.2-.3.5-.2.2-.2.2-.3.2L150.5,87l-.2.1h-.2l-2.9-.3h-.6l-.4-.3-8.6-7.3L136,77.8h-.4l-2.6.7-.3.1-.6.1-.1-.4-.1-1.8.1-1.8v-.2l.1-.4.2-.5.1-1.7v-.1l-.2-1.6-.1-.2-.8-2.1-.9-1.6-.8-1h-.1l-.2-.1-.2-.1-.2-.2-.6-.8-.1-.2-.8-1.5-.2-.6-.1-.3-.1-.3-.2-.3-.2-.1-1.4-.5H125l-1.3.6-.2.1-.2.1-.9.6-.3.2-.2.1-1.5,1.5-.2.7-.1.3-.1.2-1.4,1.7h-.1l-.3.3-.4.4-.1.1-.2.1-.8.4-.3.1-.6.2h-1.1l-.3-.1h-.1l-.2-.2-.2-.2-.4-.5-.6-1-.1-.2-.1-.2-.2-.8v-.2l-.2-.3-.2-.2-.2-.1-.3-.1-1.2-.2-.6.8-.2.5-.4,1.1.5,1.5.2.1h.7l.3.1.4.7H88l-.4-.3-1.1-.3-1.8-.5h-.1l-2.7.7-1.5.7-.2.1H80l-.9-.1L79.2,81h2.4l2-.1,3.4.8,1-.3.2-.2.5-.3.2.1,1.2.6.2.2.5.5.2.2L92.6,85v.1l-.3,2v.1l.7,1.9v.2l-.1.2h-.1l-1.4.3-1.5-.1v-.1l-.8-.6-2.3-1.5-.2-.1h-.2l-.2.1-3.8,1.1h-.2l-1.2.8-.8.6H76.5l-1,.1v5.4l-.1,3.1-.1,2.7v3l.7.9,1.6,1.8.2.2,3.5,2.7.2.1h.7l.3.1.9.4h.1l.1.1.3.3v.1l.6,2.1v.2l-.2.5-.2.5-.1.2-.2.2-.2.1-.1.1.1.4.1.2,1.6,3.1.1.1.1.1.2.1.3.2.2.2.8.7v.3l-.1.1.2.3.1.2.3,1.6.4,2.2.2,1.6v.3l-.1.3-.1.3-.1.1-.1.2-1,2.5-1.3,7.4L84,145l-.3,1.4-.3,1.8-.2,1-3,16.9-1.7,9.6-1.2,5.5v.1l-.2.4.1.5-.1.3-.1.3-.2.3-.2.2-.5.3-.1.1h-.2l-3.2-.1h-.2l-1-.8-.8-.7-.2-.2-.1-.2.1-.2.1-.4v-.4l-.1-.2-.3-.5-.2-.1-1.8-.1h-.2l-.2.1-.4.4-.7.5-1.6.3-.7-.6-.1-.2-2.4-.2h-.2l-.2.1-.7.4-.3.2-.2.1-.1.2-.6,1v.5l-.1.2-1.5,1.8H56.3l-.4-.3h-.2l-1.9-.1-2.1.4-.2.1-1.7.9-5,1.5h-.2l-1.3-.3-.4-.1-2.6.4-.4.1L37.5,189l-1.9,1.5-2,1.1-.4.2h-.5l-.4-.1-.5.1-.9.5-.2.3v.7l-.1.5-.1.2-.1.2-.1.1-1.2,1.1-2.7,1.5L23.7,198l-.6.2-1.2.7-.9.9-.4,2.8-.8,2.4-.1.2v.5l.1.4.1.2.1.2.1.2v.2l-.3,1.9-.1.2-.5,1.1-1.1,1.5-.6.7-.9.9-1.4,2.7-.2.5-.2.9.1.5.1.3.1.3L16,220l.9,2.5.1.3-.1.6-.1.6-.4.8-.3.5-.4.5-.2.2-.5.3-1.1.2h-.3l-.3-.1h-.5l-.3.1-.3.2-3.7,2.5a.1.1,0,0,0-.1.1l-.3.2-.2.1-1.6,1.3L5,232.3l-.2.3-.9,3.6.1.8,1.5.7.4,1.3v.3l-.2.2-.2.1-.3.1H5l-3.5.4v1.4l.1.2v.3l-.5,1.2-.1.1-.2.1H.6l-.1-.1H.2l-.1.1-.1.1v.3l.1.1.1.1.4.2.8.7,1.2,1.2.1.2.2.2.1.3.1.2.1.1.2.2.3.1,1.2.4.5.2.2.1.1.1.1.1.1.2.1.2v.9l-.1.2-.2.2-.1.1-.1.1H5.2l-.6-.2H4.4l-.1.1v.2l.3,1.2.1.2.1.1.1.1.3.1.5.2.2.1.9.5.1.1.1.2.9,1.7.1.3.7,2.3.3,1,.1.7v.3l.1.2.9.7,1.4,1,1.1,2.8.1.2,1.2,1.2.2.1.3.1h.3l.4.1.5.2.2.2.1.1.1.2.2.3.2.5v.1l.2.5.2.3,1.1,1.7.1.1.1.1.1.1.8.3.2.1.1.1.6.8.1.2.2,1,.1.5v.5l-.1.4-.2.5-1.1,1.5-1.8,1.8-.7.6-.4.3-.1.1-.1.2-.2.4-.1.2h.1l4.1.1h4.7l2.4.6,3.9.7.5.1.2.1,1.2.7.2.1.9,2.2v.1l-.1.5-.1.2-.1.2-.1.4v.3l.2.2.1.1.2.2.3.1.2.1.6.2.2.2.1.1.1.2.1.4.3.9v.2l-.3,1.2-.3.9h.8l1.6-.2h13l1.3-.2h.1l2.1-1.1.1-.1.2-.2.2-.5.1-.3.1-.2.2-.2.1-.1.2-.1,2-.6.2-.1.2-.1.2-.2.1-.1.1-.1.1-.3.1-.3.1-.2,1.6-1.7.7-.5,1.2-.8,2.6-2.2,1-.9.1-.1.2-.1h.2l.9-.1-.6,1.4-.6.7-.6.7.2.8.1.2.1.1.2.2-.3,2.6-.3.3-.1.2-.1.3-.1.4v22.4l.9-.7.9-.7.2.1.3.2.2.1.5.5.2.3.1.2.1.2.2.2.2.1.1.1.5.2.9.4.5.1,1.8-.3.2-.1.9-.3.4-.2,1.9-1,1-.6.6-.3.3-.1.2-.1.3-.1h.1l2.6.2h.1l.2.2.5.5.1.1.1.1h.1l.8-.1.4-.1,1.5-.1h1.9l.7-.1h.1l.6-.2,3.6.2,2.8.3,4.3.9,1.2,2.1.1.2.1.1.2.1h.1l1.1-.1.9-.2.6-.2.7-.2.3-.1.3-.2.4-.4.1-.2.1-.1,2.2-.7.9-.2h.3l.5-.2.5-.2.2-.1.1-.1.9-1.2,2-2.8.1-.2v-.6l.3-.4.4-.3.4-.3.7-.3.3-.1h3.1l.3.1.2.1.6.4.8.5h.1l.7-.4.5-1.4,1.2-1.7.1-.1.5-.5,1-.4.4-.2,1.1-.6,2.2-1.4.2-.1v-.1l-.1-.3-.1-.2v-.1l.1-.1.2-.1h.2l1.3-.1.2.1.4.2.2.1h.2l1.8-1,.1-.1.5-.4,1.4-1.4.4-.4.4-.5.1-.1.5-.5.2-.2,2.4-1.8.5-.3.7-.2h.1l.3-.2,1.3.5.1.1V290l.1-.1.2-.1,1.4-.3h.1l1.1-.1h.2l.4.1h.4l.8-.4,3.8-1.3.3-.1,1.6-.4h.1l1.9.1h3.4l.9-.1,2.5,1.2h.9l.9-1v-.3l.1-.5.4-.4.9-.8.4.1h.3l.3.1.2.1.2.2.6,1,.7,1.2.1.2v.4l-.2.5-.2.2-.1.2-.2.4v.5l.1,1.4.1.2v.1l.3.5.2.4.1.2.2,1.6v.5l-.4,1.2-.1.2-.1.2-.2.2-.2.2-.2.2-.4.4-.1.2-.2.3-.1.4.1.3v.1l-.1.3v.1l-.2.2-.4.3h-.4l-.1.2.2,2.5v.2l.9,2.5,1,1.6.1.1.1.2.1.4.3,2v.1l-.1.2-.7,1.1-1,1.7-.2.4.2,1.8.1.3.8,2.3.5,1.4.2.2.1.1.1.1h.3l.5-.1.3.1h.2l.1.1.1.1,1,1.7v.1l-.3.7-.2.5-.2.5.1.5.2.2.2.1.3.2.3.1.1-.1.2-1.2.1-.2.2-.1.1.1.1.1.9,1v.1l.3,1,.2,1.4.4,1.7.2.4.3.4.3.1,1.9.5h1.2l.3.1h.1l.2.1.1.2.5,1,.4.9v.1l.1.1,2.2,1.1.2.1,1.8.5h.1l.3,2.3.1.1,1.4,1.4.3.2.2.1.4.1,1.5.3,1-.1,1.2.1,2.4.5h.1l.1.1.2.2.1.1.2.1,1.4.2h.1l.3-.1.4-.3.5-.7.7-.4.7-.3,2.4.2,3.7,1.8.2.2v.5l.9,1,.4.3,1.2.7h1.6l.2-.2.2-.3.2-.1.9-.5.5-.2h.1l1,.3.1.1.1.1v.8l.2.7.1.2,1,1.7.4.3,1.5.9,1,.8,1.4,1.2,1.3-.7h.2l.3.2.5.4.1.2-.1.3v.1h.1l4.3,1.9.7.2h1l1-.1.3-.1.2-.2.2-.1.3-.1h.3l1.6.5.2.1v.6l.5,1.7,2.3,1.4.6.2.5.4,1.3,1v.1l.1.5.3.9.2.2.2.1.5.1,1.5-.2h.1l2.1-.4.4-.1.2.3.1.2.9.4.3.1h.4l4.4-.6,4.2-.6.7.9.9.8,3,1.8.3.1h.7l.4-.5.4-.4.2-.2.8-.6,2.7-1.7,1.3-.7.7-.3.3-.2.2-.2.1-.2v-.2l.1-.4v-.6l.2-1,.1-.4V353l1.6-4.3.1-.2.2-.2,1-1,.4-.3.2-.1h.2l.4-.1h.6l.2-.1.2-.1.3-.4.4-.5.2-.4.1-.2.1-1.1.4-1.4.1-.2.1-.2.2-.2.7-.6.4-.4.2-.2.4-.6.1-.2.6-2.6.1-2-.3-.5-.1-.2-.2-.4V331l-1.7-3.6-.1-.2h-.6l-.4.2H267l-.2-.1-.2-.2-.2-.3-.1-.4-.3-2-.1-1.4v-1.5l.1-.2.2-.2.8-.6.6-.5,1.6-2,.1-.2.1-.2.1-.2v-.3l-.1-.2-1.6-4.1-.2-.2-1.2-.5-1.3-.1H261l-.2.1h-.2l-.2-.1-1.1-1-.2-.4.1-.2.3-.4v-.1H238.6l.6-5.7.5-5.2-.2-.4-.1-.2-.2-.2-.2-.2-.2-.2-.1-.2-.8-1.8-.1-.2-.3-2v-1l.2-.6.2-.5.4-1.6.4-1.6-.4-1.8-.1-.4,1.1-1.9.2-.4-.6-.9-.5-1.6-.2-1.6v-.2l-.3-.7-.4-.2-.2-.1-.2-.2-.1-.2v-.4l.2-1.2.9-3.2.1-.2.4-1.3.2-.4.3-.6.4-.6V270l-.1-.4-.2-.4-.3-.5-.2-.2-.8-.5-.6-.4h5.9l2.8-.1,3.6-.1h4.2l8.6-.2,3.6.1,7.1-.1,4.3-.1h3.8l4.2-.1,3.3-.1h5.8l1.5-.9.8-3.6.6-2.7.1-.2.1-.4.8-2.2.7-2.5-.1-.4-.2-1-.2-.8-.2-.4-.5-.9-.1-.4-.1-.6v-.7l.1-.2.1-.2.3-.4.4-.3.6-.3.2-.2,1.1-1.7.2-.4.3-.6.1-.4v-.4l-.2-.4-.1-.4v-.2l.1-.7.1-.2.2-.6,1.2-1.3-.4-.4c.1-.1.2-.1.2-.2l.1.2.4.3.9.7.2.2.4.4.6.9.8,1.2.1.2,1.4,2.6.2.5.2,1.2.1.5,1.1,3.3.5,1.3.1.2.1.2,1.5,2.1.9,2-.3,1.3v1.7l.6,2.9.9,2.7,1.8,1.3.2.1,2.4,2.3.1.2,1,.7.2.1,2.1,1,1.8.8.1.2.1.3.1.4.1.5-.1.8v.6l.2.4.1.2.2.1.9.3.4-.2h.6l1.1.2.4.1.4.2.2.2.2.2.2.2.2.4-.1.4v.2l.2.6.1.2.1.2.2.1h.4l.2-.1.4-.2.2-.1.2-.1h.4l1.7.6.2.1,2.5,1,4.4.3,5.5.4,10.2.7,10.9.7,3.1.2,3.4.2.8.1,3.4.3,8.8.5,8.6.5,4.3.2,7.6.4,8,.5,5.6.3,6.6.4,2,.1,8.6.5,10.3.5h.3l4.3.2,1.2.1-.2.3-.5.7-.3.5-.3.9-.1.8-.1.2-.2.3-.2.2-.1.2-.1.2-.1.1-.2.1-.1.1-.5.6-.1.1-.2.6v1.1l.1.3v.4l-.3,1.4-.1.4v.1l-.2.4-.2.2-.2.2-.2.2-.6,1.9-.5,1.5-.4.8-.1.1-.7,2.1-.4,1.6v1.9l-.1,1.7V312l-.7,2.3-.7,1.8-.3.9-.3.8v.1l-.3,1.2v.8l.1.2.1.1.1.2.3.5.2.1.4.2.4.2.2.2.1.1v.3l-.1.7-.1.2-.1.1-.1.1-.2.1-.5.5-.2.3v.7l.7,1.6.4.8h.2l.1.1v.4l-.6,3.5v2l.1.2.1.2h.3l.1.1.1.1.1.2.2,1,.1.9.1.5.1,1v.3l-.5,1.7-.4,1.4.9,3.2.3.8h.1l.7.4.5.2h1l.4-.5v-1.1l.1-.7.1-.5.8-1.5,2.1-2.4.3-.2.6-.2v2l-1.5,2.2-.6,2.8,2.9.5,2.7,1.2,2.9.2,1.9.3,3.8,2,5,1.7.8-.3.4-1.9,1.6-5.2,1.8-2.9,1.4-1.2,1.4,1.6,1.3,2.2,1.3,4.4.8,3.7,1.4.1.9-.9.4-1.2.7-.7h.9l2.4.4,4.3-.6h1.2l.3.9-.7,1.9,3.8,1.7,4.1.8.8-.1.2-2,.4-1.9h.7l1.2,2.1.6,1.1.6.3,2.2-1.1,3.1-2.5,5.5-1.2,1,.1.9-.1,3.1-1.3,2.1-1.6,2.9-.6,2.9-.6-.1-.2v-.6l.1-.3.2-.4.1-.2.3-.5.2-.2.3-.4.3-.5.1-.1.1-.1.1-.3v-1.9l-.1-.2-.1-.2-.1-.1-.3-.2-.2-.1-.7-.2-.5-.1h-.1l-.6-.3-.2-.2-.1-.1-.2-.3-.1-.2v-.2l-.2-1v-3.5l.1-.7.1-.3.1-.1,2.2-1.8.2-.2.4-.2.4-.1.4-.1.2-.1,1-.7.1-.1v-.2l-.3-.5-.2-.2-.2-.2-.3-.2-.2-.2-.5-.2-.2-.1h-.5l-.3.1-.3.1-.3.1h-.2l-.1-.1-.1-.2v-1.1l.1-.3v-.2l.1-.2.2-.1.1-.1.5-.2.5-.2.3-.1.4-.1.6-.2.2-.1.5-.3.1-.1v-1l-.2-.1-.4-.3-.4-.2-.2-.1-.6-.2-.6-.2-1-.3-.3-.1-.5-.1-1.2-.2-1.2-.2-.2-.1-.2-.1-.3-.2-1.7-1.9-.1-.2-.1-.2-.1-.3v-.5l.2-.5.1-.3.3-.6.2-.3.2-.1.4-.2.2-.1.2-.1.2-.3.2-.4.2-.6.1-.3.2-.5.1-.3.6-1.3.3-.6.1-.1.2-.2.2-.2.6-.3.6-.2.5-.1.2-.1.3-.1v-.4l-.1-.2-.7-1-.8-.7v-.5l.3-.2,1.7-1.5,2.1-1.5.5-.3,1.6-.8,1.8-.9.6-.3.2-.2.5-.4.1-.1.1-.3.1-.2v-.5l.2-.4.1-.2v-.2h0ZM367.2,53.9l.2.2.1.1.1.1v.1l.1.2.2,1.4h-.3l-.2-1.5-.1-.2v-.1l-.1-.1v-.2l-.3-.1Zm109.7,80.7h.1l-.2.4-.1.1h0l.2-.4v-.1h-.4l-.2-.3h0Z" />
    </g>

</svg>