<svg id="brasil" xmlns="http://www.w3.org/2000/svg" viewBox="0 0 459.17 474.44">
    <style>
        /* Estilos base para todas as regiões */
        .regiao {
            cursor: pointer;
            stroke: #FFFFFF; /* Borda branca para todas as regiões */
            stroke-width: 0.5;
            transition: fill 0.3s ease-in-out;
        }

        /* Cores base de cada região por ID */
        #regiao_nordeste { fill: #dd7800; }
        #regiao_norte { fill: #009912; }
        #regiao_centro-oeste { fill: #9cc100; }
        #regiao_sudeste { fill: #e53c3c; }
        #regiao_sul { fill: #009ccc; }

        /* Estilos de HOVER (ao passar o mouse) */
        .regiao:hover {
            opacity: 0.8; /* Levemente mais opaco no hover */
            fill: #FFD700 !important; /* Amarelo dourado para hover */
        }
    </style>

    <g id="regiao_nordeste" class="regiao">
        <path d="M459 155.78a.43.43 0 0 0-.15-.33c-4.25-43-8-23.42-25.84-32-1.54.46-1.61-1.36-2.71-1-10.69-7.66-19.39-18.91-32-23.54a.9.9 0 0 0-1-.1c-1.39-.48-2.93-.13-4.37-.48a3.93 3.93 0 0 1-3 .68c-.1.09-.3.09-.39.19s-.32.23-.39 0c-1-.43-2.36.42-3.49.19-.68.06-1.74-.34-2.29.31a.34.34 0 0 0-.14 0c-.49-1.22-2.4-.57-3.49-.87-1-.07-1.87-2-3-1.7.51-1.06-2.32-.75-2.79-.63-.26-.87-1.45-.35-2.13-.58a.64.64 0 0 0-1-.1c0 .1-.1.1-.2.2-.3-.46-.75.16-1.16.1-.53.1-1.05-.53-1.55-.2-.33.26-1.57-1.61-2.43-1.65 0-.17-.36-.12-.48 0-1.84-.58-3.49-2.07-5.44-2.42-2.82.4-5.46 1.21-8.24 1.74-.84-.27-1.85-.29-2.72-.48-.74.18-1.7 1-2.23.19a1.24 1.24 0 0 0 .29-.77.5.5 0 0 0 .2-.49c-.1-.1-.1-.19-.2-.19-4.25-1.38-6.81-10.63-11.06-8.83 0-.14 0-.26-.09-.39a52.64 52.64 0 0 1-8.7-3.35.4.4 0 0 1 0 .15.47.47 0 0 1-.1.68.87.87 0 0 1 .19 1.55c.25.27 0 .58-.29.68a1.62 1.62 0 0 1 .1 1.84c.13.42-.13 1.27-.68 1.26a1.7 1.7 0 0 1-1.26.3v.19l.1-.1a1 1 0 0 1 1 1.46c.11 1.23-.61 2.44-.78 3.59-.53.12-.52.8-1 .87a.1.1 0 0 1-.1.1.53.53 0 0 1-.48.29c0 .19-.1.39-.1.58.68.5-.59 1.3.1 2 .27.42-.37.75-.78.68a.69.69 0 0 1-.19.38c.24.66-1.11.48-1.07.78-.12.3-.29.43-.58.39l-.29.29.1.1a.36.36 0 0 1 .19.09c0 .1.1.2.1.29s.29.1.38.49c.14 0 .22.3.2.39.22.37-.15.59-.49.58a.46.46 0 0 1-.29.19v.1c-.09.1-.09.19-.19.19s0 .27-.1.39l.1.1c0 .29 0 .62-.29.78-.18.44-.1.92-.39 1.26h-.1c-.09.09-.09.19-.19.29s-.06.26-.2.39-.09.09-.09.19l-.1.1c0 .28 0 .41-.29.48-.1.1-.19.2-.29.2-.19.26 0 .82-.49.87a.82.82 0 0 1-.77.29.32.32 0 0 1-.29.29l-.1.1v.39a.28.28 0 0 1 0 .38.49.49 0 0 1-.19.49c-.08.32-.46.38-.68.68a6.19 6.19 0 0 1-3.59 6c-.41.48.24 1.37-.49 1.55a1.4 1.4 0 0 1-.87 1.26c-.94 1.25-1.59 4.34-3.68 3.91a3.85 3.85 0 0 1-.3.27 1 1 0 0 0-.4-.09c-2.46 2.31-5.56 4.26-8.13 6.49 1.65-.73 2.72.92 4.36 1 2-.66 2.66-.89 3.2 1.36a3.12 3.12 0 0 1 2.52 1c2.5.28 1.46 2.95 2 4.36.82 1.68-.21 3.8.87 5.53-.08 1.19-.63 2.35-.38 3.4-1.62 2.21-.22 5.32-2.14 7.27a1.34 1.34 0 0 1-1.55.87 9.72 9.72 0 0 0 .78 1c1.14-1 3.24.84 1.65 1.85a1.38 1.38 0 0 1 .38 1 .54.54 0 0 1 .68.29c.1 0 .1.1.1.19l.29.29v.2c.1.09.1.09.1.19.43.14 1 .35.87.87.1.1.19.1.19.2a.57.57 0 0 1 .1.39c.2 0 .29.09.39.29v-.1a2.19 2.19 0 0 1 .19.58.37.37 0 0 1 .1.29 2.57 2.57 0 0 1 1 1.07c.13 0 .29 0 .29.19.35.15.13.46.29.68a1.51 1.51 0 0 1 .58.78c.28 0 .45-.5.78-.68v-.1c.1 0 .19-.09.29-.09s.29-.2.39-.29c.32.13.55 0 .87 0 2-1.75 5.4.4 3.79 2.91a.75.75 0 0 1 .19.48c-.1.1-.19.29-.29.39.12 1.56-1.41 1.35-2.43 1.65a1 1 0 0 1-1 .48 1 1 0 0 1-.58 1.17 1.11 1.11 0 0 1-.58 1.26.59.59 0 0 1-.1.39c.3.1.46.7.1.87s-.27.17-.19.39c.39.7.06 1.84-.78 1.84a.91.91 0 0 1-.49 1 .42.42 0 0 1-.09.48c-.1 0-.1.1-.2.1s-.09.2-.09.29c.64.11 2.29-.57 1.94.68a.3.3 0 0 1 .19.1c.25 0 .74.47.68.77.55.2.37 1 .19 1.46h.1a2.67 2.67 0 0 1 .78 1 1.31 1.31 0 0 1 1.35.19c.05.2.2.39 0 .59.75.12 1.1.37 1 1 .3.14.48.62.1.77-.5.35-.64 1.26-1.16 1.65a1 1 0 0 1 1 .49c.42 0 .93.22.87.68.18.07.07.1.1.29s.23.39.09.48c0 .31.18.59 0 .88a2.28 2.28 0 0 0 1 1.65c.15 1.38 1.34.25 2 .58.87 1.2 2.42-1.36 2.43 1 .63-.09 1.4-.42 1.94 0 .87.32.38-1.34 1.35-1.17.54-.09.69 1.36.39 1.07a1.74 1.74 0 0 1-1.38 1.62c.08.25 0 .67-.36.61v.2c-.81.21-1.35 1.17-2.14 1.27a2 2 0 0 1-1.72 1 .73.73 0 0 1-.43.93 1.37 1.37 0 0 1 0 .34c.17.39-.38.76-.69.87a.23.23 0 0 0 .11.11l-.18.16a1.08 1.08 0 0 1-.41.92v.18c-1.86 1-1.19 3.37-3.28 4 .07.47.84.37.76 1 .44 2.05 2.9.65 4 2.14.76-.11 1.92.28 1.45 1.06-.66.79-1.74.16-2.52.1v.05a3 3 0 0 1 .39.14 2.55 2.55 0 0 0-.39 0 1.08 1.08 0 0 1-.39.86c.08.19.18.52 0 .68a.75.75 0 0 1-.29.58.09.09 0 0 0-.09.09 2.07 2.07 0 0 1 1.06.2.64.64 0 0 1 1.17.39c-.36 1.13-1.82.49-2.39 1.33a.91.91 0 0 0 .45.12 1.92 1.92 0 0 0-.57.24.65.65 0 0 1 .08.34.92.92 0 0 1 0 1.26v.2a.52.52 0 0 1 .2.77v.2c.42 0 .63.39.38.68a.89.89 0 0 1 .49.77.58.58 0 0 1 .48.88c1.11-.53 1.75.94.68 1.36-.42-.05-.95.07-1.06.48.12.45.71.91 0 1.16.25.44-.06 1-.1 1.36.23.33.3.75-.1 1v.39h1.26c1.25-.9 2.58.49.63.92a2.48 2.48 0 0 1-1.69.92c-.39 0-.51.53-.78.78a2.24 2.24 0 0 1 0 1.65c.23.16.19.44.19.68a.21.21 0 0 1 .2.19c2.56-1.64 4.46 0 .77 1.55.57.38-.12.81-.09 1.26 1.49.51.46 1.25-.2 1.85a.77.77 0 0 1 .2.58.83.83 0 0 1 .19.68c-.1.1-.19.29-.39.29.47.52.11 1-.09 1.45a1.11 1.11 0 0 1 .38 1.56v.29a.5.5 0 0 1 .39.48 1 1 0 0 1 1.17.58c.13-.15.22-.08.38-.09a.75.75 0 0 1 .3.68c.09 0 .09 0 .19.09a.53.53 0 0 1 .48.29c.57 0 .19.72.68.88.58.45 0 .26.78 1.36-.21.39-.52 1-1.16 1 0 .14.12.33.09.48a.7.7 0 0 1 .2.58l-.1.1c0 .19 0 .39-.1.48 0 .26 0 .82-.29 1a1.91 1.91 0 0 1-.19 1.85.79.79 0 0 1-.19.77c1.36 1-.2 2.13-.39 3.2h.09l.1-.09a1 1 0 0 1 1-.68.35.35 0 0 0 .19.1c.49.49 1.06-.58 1.75-.3.1-.09.29-.09.39-.19s-.09-.1-.19-.19c-.23-.33.19-.77.58-.78.27-.49 1-1.42 1.56-.87h1.35c.65-.42 1.13-.82 1.85-1.26a.52.52 0 0 1 .58-.39 1.25 1.25 0 0 1 1.45-.58c.58.07.68-.53 1-.88.74-.36 1.27-.7 1.94-1.06a.76.76 0 0 1 .49-.88c-.17-.38.19-.59.48-.68 1.26-.15 1.1-1.08 2-1.16.95-.84 2.13-1 3.2-1.55.23-.48 1.08-.23 1.55-.29a.37.37 0 0 1 .68.09h.59c0-.2.42 0 .48.1a.35.35 0 0 1 .29.1c.49 0 1-.22 1.36.19.26 0 .66-.07.78.29 0-.13.19-.09.29-.09s.29.19.38.29h.1c1.12.82-1.18 2.6-.68 4 .5.44 1.37.13 1.75.68.68.28 1.48.19 2 .78 1.65-1.94 5.62-2 7.37-.29.87.33 1.32 1 2 1.45h.1c.25.28.66.34.87.59.23-.21.62-.06.78.09a.1.1 0 0 1 .1.1c.42.57 1.58.63 1.65 1.45a3.23 3.23 0 0 1 1.65.59c.27 0 .5-.25.77-.2.51-.37 1.2.43 1.46.88a1.67 1.67 0 0 1 1.45 0c2.85-2.18 4.95 2.48 7.18 4.07.77.59-.07 3.71 1.36 2.91 1.34 1.15 3.39-2.12 4.07-.58.1 0 .1 0 .2-.1 0-.9 1.18-.42 1.45.1.55-.52 1-.34 1.46.39.43-.07.63.33.77.67a.34.34 0 0 1 .29.1c.46-.3 1.29-.53 1.56.2.09.19.09.29.58.29.68.06 1.76-.55 1.94.48a.49.49 0 0 1 .48.39c.1 0 .1.1.2.1l.09.09.1-.09c0-.17.36-.12.49 0v.09c.09 0 .19.1.29.2c0 .39 0 .72.38.87h.2a.35.35 0 0 0 .19.1c.44-.28 1.38 0 1 .58.42.37 1.13 1.44.39 1.65a1 1 0 0 1-.48 1c.05.38 0 1-.39 1.07a.58.58 0 0 1-.68.38c-.6.62-.55 1.83-1.46 1.75l-.48.49c.41 1.13-.71 1-1.36.77-.4.57-.21 1.39-.48 2a.87.87 0 0 1 .67.29c.1 0 .1.1.1.19a.61.61 0 0 1-.1.88c-.07.38-.28.75-.77.68a.53.53 0 0 1-.78-.2 1.55 1.55 0 0 1-1.16 0c-.11.3-.12.63-.39.87-.65.39-.19 1.21-.48 1.85v.09c.56.32.09.72.09 1.17a.4.4 0 0 1 0 .77c-.49.05-.37.53-.39 1 1.1.13 1.25 1.1 1.56 1.75a.49.49 0 0 1 .77.49c1.48.19.67.64 1.46 1.35 1.18.23 1.61 2.37.48 2.91a.56.56 0 0 1 .2.68 47.41 47.41 0 0 1 6.3 4.17c-.07.15-.12.3-.19.45a.46.46 0 0 0 .19 0c1.23-.71 1.05-2.39 2-3.49 1.06-2.95 2.68-1.56 3.39-3.3.52-.61 1.53-1.39 1.36-2.23a11.92 11.92 0 0 1 .2-9.12c.93-14.08-2.17-29.27 1.94-43.17-.12-1 .49-1.48 1.35-2 3.8-5.09 9.56-8.56 13.78-13.29.12 0 .1-.32.19-.39-.18-1.59 3.13-6.37 1.54-6.77 2.24-5.73 7.85-8.54 11.63-12.8 8.49-10.75 20.96-20.04 19.26-35.26Z"/>
    </g>

    <g id="regiao_norte" class="regiao">
        <path d="M154.62 230.28v-.1a1.49 1.49 0 0 1 .68-.87c.15-.58 1.13-.15 1.35-.68.46-.71 1.32-.34 1.75-1-.14-1.31.61-2.39 1.26-3.49-.38-.68.27-1.18.68-1.65s.4-1 1.16-.87c.73-1.34-.27-3.27.88-4.37a1.14 1.14 0 0 1 .87-.87 1.35 1.35 0 0 1 1.36-.68 1.25 1.25 0 0 1 .58-1.26c-.6-.58-1.91-1.1-1.36-2.23.09-.73-1.24-1.11-.87-2-.22-.17-.2-.36-.2-.58-.09 0-.09-.1-.09-.1-2.86-.58-1.62-5.43.68-6.4v-.78a1.27 1.27 0 0 1-.49-.87 1 1 0 0 1-.1-.87c-.24 0-.18-.3-.19-.49-.3 0-.76 0-.87-.29-.22 0-.49.08-.68-.1-.29.06-.75.27-1 0a.74.74 0 0 1-.68-.38c-.16.86-1.3.39-1.46-.29-.26 0-.42-.27-.38-.49-1-.7-15.19.95-12.71-1.07a3.62 3.62 0 0 1 .29-2.13.1.1 0 0 1 .1-.1v-.39c-.3-.49.26-1.15.09-1.74.22-.32-.16-.8-.09-1.17s.26-.82.19-.77a.1.1 0 0 1-.1-.1c-.28-.18-.25-.47-.29-.77a1.79 1.79 0 0 1-.68-2.14c-1.16-1 1.14-3 .59-4.46-.44 0-.37-.65-.1-.78-1 .23-.73-1 .1-.87a.47.47 0 0 1 .19-.49c0-.36-.1-.68-.1-1-.29-.19-.58-.38-.48-.67-.54-.32-.45-.84 0-1.17-.69-.5-1.09 0-.78-1.26-.73-.7.45-1.25 1.07-1.16a3.34 3.34 0 0 1 .58-3.59c-4-4.5 32.49-.13 36.57-2.14-1.56.5-.4-4.62.49-5.23a4.67 4.67 0 0 1 .38-2.72c-1.92-3.57-.71-3 1.07-5.92-.37-1.11.07-3.36 1.36-3.3 2.89 1 3.12 6.16 4.36 8.35a1.28 1.28 0 0 1 .78 1.26c1.14.3.93 1.61.49 2.42a.9.9 0 0 1 0 1c.09.6.83 1.18.29 1.75a.59.59 0 0 1 .19.77 2.1 2.1 0 0 1 .29 1.17c.52-.37 1 .27 1.46.39.46-.06.65.42.68.77.11.66.25.23.58.49.74.58 1.2.1 1.84.58.68 1.1 2.27 1.68 1.75 3.3 1.26.73 3.65 0 3.29 2.52 25.44 1.11 51.25 4.25 76.83 5.43.86.32-.55 2.4-.68 3.11a1.69 1.69 0 0 0-.87 1.74c.18 1.32-1 2.45-1.26 3.49 0 .2-.22.47-.39.49.1.73-.38 1.17-.87 1.65a1.89 1.89 0 0 1-.2 2.13c.07.46.22.91-.19 1.26a2.87 2.87 0 0 1-.39 2.53c.49 1.69-2.34 4.1-.33 5.08a1.47 1.47 0 0 1-.15 1.8c-.57 0 .14 1 .09 1.36.51.12.85.79.39 1.16.35.66-.6.54-.29 1.27a3.39 3.39 0 0 1-.1 1.64c.74.08.52 1.1.49 1.56s.58 1.48.09 2h-.09c0 .1-.1.29-.1.39s-.1.29-.19.49c.09.09.09.19.09.38l-.19.2c.36.09.44.33.39.68.28.25.24.79.29 1.16.25 0 .54.19.48.49h.3c.09-.2.09-.39.19-.58-.13-.2-.16-.27 0-.49a.63.63 0 0 1 .48-.68c-.09-.19-.09-.39.1-.48a.1.1 0 0 1 .1-.1l.1-.1a3.27 3.27 0 0 1 1-1.36 3.14 3.14 0 0 1 1.45-1.06.21.21 0 0 1 .19-.2.44.44 0 0 1 .49-.39c1.09-1 .85.81 0 1.36 0 .1-.1.2-.1.29.64.13.06.88-.29 1a.36.36 0 0 1-.19.49c-.2.22-.05.54-.39.68-.43 1.73-.1.93.78 1.84 3.32.14 6.23 3.27 9.5 4.37-.35-2.18 1.13-4.06 2.72-5.34.56-.61.63.31.87.58a.76.76 0 0 1 .29.68.82.82 0 0 1 .58.29.35.35 0 0 0 .1.2 6.41 6.41 0 0 1 .87-1.46v-.1a.63.63 0 0 1 1.07.39c.1.1.29.2.29.29a3.84 3.84 0 0 1 .68.59c.36.12.27.67.29 1a1 1 0 0 1 1.17.68.81.81 0 0 1 .46.67c.13 0 .13.1.1.16a.62.62 0 0 1 .09.39c.2-.41.56-.25.88-.2.71.25.21 1.15.48 1.65a.1.1 0 0 1 .1.1c.25.06.42-.11.58-.29h.2c.18-.25.42-.19.67-.2s.2-.09.2-.19a.51.51 0 0 1 .51-.17c1.6-1.08 2.12-.78 1.75 1.16.1 0 .1-.1.19-.1a.48.48 0 0 1 .88-.39.32.32 0 0 1 .29.3c.22 0 .58 0 .58.29.16-.15.31-.09.49-.1s.29.1.38.29c.79-.47 1.56 1 2.14 1.55a1.35 1.35 0 0 0 .29-.39c-.25-.38-.47-1.16-.1-1.55-.22-.2-.19-.47-.19-.77-.23-.09-.05-.62.19-.59-.06-1.05 2-.79 1.65.39.38-.08 1.28-.2 1 .49a.75.75 0 0 1 .49.19c.36-.29.75.07 1.06.1.11-.13.16-.09.29-.1a1 1 0 0 1 1.46-.58.85.85 0 0 1 .87-.39 1.09 1.09 0 0 1 .68-.29 5.13 5.13 0 0 1 1.94-1.26c1.2-1.58 3.11-.78 4.66-1 .26-.46.21-2.34 1.06-1.55v.09c.6.19.53 1.06.49 1.6a2.52 2.52 0 0 0 .29-.82 2.59 2.59 0 0 1-.1.87c.77-.14 2.89-1.25 2.86.05 1.95-.43.62-1.82-.63-.92h-1.26v-.39c.4-.22.33-.64.1-1 0-.38.35-.92.1-1.36.71-.25.12-.71 0-1.16.11-.41.64-.53 1.06-.49 1.07-.41.43-1.88-.68-1.35a.58.58 0 0 0-.48-.88.89.89 0 0 0-.49-.77c.25-.29 0-.68-.38-.68v-.2a.52.52 0 0 0-.2-.77v-.2a.92.92 0 0 0 0-1.26.78.78 0 0 0-.09-.38.1.1 0 0 0-.1-.1c.57-1.07 2.17-.36 2.62-1.55a.64.64 0 0 0-1.17-.39 2.07 2.07 0 0 0-1.06-.2.09.09 0 0 1 .09-.09.75.75 0 0 0 .29-.58c.18-.16.08-.49 0-.68a1.16 1.16 0 0 0 .39-1.07c.78.06 1.86.69 2.52-.1.47-.78-.69-1.17-1.45-1.06-1.08-1.49-3.54-.09-4-2.14a.64.64 0 0 0-.58-.68c-.81-.79.9-1 1.36-1.55.05-1.77 2-2.63 2.22-4.18a.79.79 0 0 0 .59-1.15.83.83 0 0 0 .39-1.27 2 2 0 0 0 2-1.06c.7-.09 1.2-1.11 1.84-1.17.39.09.56-.29.46-.61.2-.67 1.51-.51 1.38-1.62.35.23.09-1.35-.58-1.06-.78.11-.3 1.45-1.16 1.16-.54-.42-1.31-.09-1.94 0 .05-1.48-.82-1-1.65-.58-.44 0-.69-.48-1.07-.49-.67.22-1.73.49-1.75-.48a2.28 2.28 0 0 1-1-1.65c.18-.29 0-.57 0-.88.14-.09.07-.36-.09-.48s.08-.22-.1-.29c.06-.46-.45-.72-.87-.68v-.19a1 1 0 0 0-1-.49c.52-.39.66-1.3 1.16-1.65.38-.15.2-.63-.1-.77.13-.6-.22-.85-1-1 .2-.2.05-.39 0-.59a1.31 1.31 0 0 0-1.35-.19 2.67 2.67 0 0 0-.78-1h-.1c.18-.44.36-1.26-.19-1.46.06-.3-.43-.73-.68-.77a.3.3 0 0 0-.19-.1c.35-1.25-1.3-.57-1.94-.68 0-.09.09-.19.09-.29s.1-.1.2-.1a.42.42 0 0 0 .09-.48.91.91 0 0 0 .49-1c.84 0 1.17-1.14.78-1.84-.08-.22-.26-.2.19-.39s.2-.77-.1-.87a.59.59 0 0 0 .1-.39 1.11 1.11 0 0 0 .58-1.26 1 1 0 0 0 .58-1.17 1 1 0 0 0 1-.48c1-.3 2.55-.09 2.43-1.65.1-.1.19-.29.29-.39a.75.75 0 0 0-.19-.48c1.61-2.51-1.75-4.66-3.79-2.91-.32 0-.55.13-.87 0-.1.09-.29.19-.39.29s-.19.09-.29.09v.1c-.33.18-.5.69-.78.68a1.51 1.51 0 0 0-.58-.78c-.16-.22.06-.53-.29-.68 0-.14-.16-.21-.29-.19a2.57 2.57 0 0 0-1-1.07.37.37 0 0 0-.1-.29 2.19 2.19 0 0 0-.19-.58v.1c-.1-.2-.19-.29-.39-.29a.57.57 0 0 0-.1-.39c0-.1-.09-.1-.19-.2.1-.52-.44-.73-.87-.87 0-.1 0-.1-.1-.19v-.2l-.29-.29c0-.09 0-.19-.1-.19a.54.54 0 0 0-.68-.29 1.42 1.42 0 0 0-.38-1c1.59-1-.51-2.89-1.65-1.85a8.69 8.69 0 0 1-.78-1c1.44.29 1.29-1 2-1.45 1.22-1.93.16-4.77 1.65-6.69-.25-1.05.3-2.21.38-3.4-1.08-1.73-.05-3.85-.87-5.53-.57-1.41.46-4.08-2-4.36a3.12 3.12 0 0 0-2.52-1c-.52-2.22-1.28-2-3.2-1.36-1.64 0-2.71-1.7-4.36-1 2.81-2.09 6-5 8.73-6.7 1.82.52 3-2.16 3.49-3.58.37-.46 1.27-.77 1.16-1.56.73-.18.08-1.07.49-1.55a6.19 6.19 0 0 0 3.59-6c.22-.3.6-.36.68-.68a.49.49 0 0 0 .19-.49.28.28 0 0 0 0-.38v-.39l.1-.1a.32.32 0 0 0 .29-.29.82.82 0 0 0 .77-.29c.48-.05.3-.61.49-.87.1 0 .19-.1.29-.2.28-.07.29-.2.29-.48l.1-.1c0-.1.09-.1.09-.19s.22-.23.2-.39.1-.2.19-.29h.1c.29-.34.21-.81.39-1.26.31-.16.3-.49.29-.78l-.1-.1c.13-.12.09-.25.1-.39s.1-.09.19-.19v-.1a.46.46 0 0 0 .29-.19c.34 0 .71-.21.49-.58 0-.09-.06-.4-.2-.39-.09-.39-.29-.49-.38-.49s-.1-.19-.1-.29a.36.36 0 0 0-.19-.09l-.1-.1.29-.29c.74.11.22-.63 1.07-.58.2-.08.42-.09.58-.29v-.3a.69.69 0 0 0 .19-.38c.41.07 1-.26.78-.68-.69-.74.58-1.54-.1-2 0-.19.1-.39.1-.58a.53.53 0 0 0 .48-.29.1.1 0 0 0 .1-.1c.45-.07.44-.76 1-.87.17-1.15.89-2.36.78-3.59a1 1 0 0 0-1-1.46l-.1.1v-.19a1.7 1.7 0 0 0 1.26-.3c.55 0 .81-.84.68-1.26a1.62 1.62 0 0 0-.1-1.84c.29-.1.54-.41.29-.68a.87.87 0 0 0-.19-1.55.47.47 0 0 0 .1-.68c-7.68-5-19.05-4.37-27.26-9.12.38-.65-1.47-1.41-1.75-1.74a17.24 17.24 0 0 0-2.12-1.38c-2.19.09-4.66-2-7-2.81 0-.57-.74-.72-1.17-.87-.52-.48-.77-1.38-1.35-1.75-1.18 0-2-1-2.82-1.45-.54 0-1.14.4-1.65.09-.15-.17-.69 0-.77-.19-.11-1.16.4-3.27-.88-4.37a2.24 2.24 0 0 0 .59-1.06.44.44 0 0 0 .09-.49c.47-.27.57-.88.78-1.36 1.44-3.38 3-11.39-3.1-11-.75-2.31-2-6.25-4.95-4.26-1.06-1.08-.41-3.41-1.75-4.08-.28-1-.5-3.11-1.36-3.49a42.93 42.93 0 0 1-1.74-13.1c-1.54-.36-.89-1.76-1.65-2.91-1.15-1.58-2.53-3.64-3.88-3.59-1.75.34-.61 4.12-2 4.85a2.2 2.2 0 0 0-1.55 1.85c-.4.27-.72.95-1.26 1.06-.32 0-.3.49-.29.68-1.41 1.46-2.11 4-3.3 5.73v.09a1.12 1.12 0 0 0-1.55.88.75.75 0 0 0-.39.58.41.41 0 0 0 0 .68c.16.59-.44 1.12-.49 1.74-.22.17-.2.36-.19.59-.81.31-.86 1.52-1.26 2.23-.21.58-1 1.25-.39 1.84a.73.73 0 0 0-.19.49c-.88 2-3.06 2.2-4 3.88-.29 0-.4.23-.58.38 0 0-.1 0-.1-.09-.16-.15-.3-.09-.48-.1-.55-.79-1.46-.42-2.23-.29.46-.45 0-.84-.39-1.07V36a.54.54 0 0 0-.39-.19c-.18-.64-1.29-.73-1.36 0-.1 0-.1.1-.19.1s-.29.09-.39.19a.68.68 0 0 0-.58.19.31.31 0 0 1-.1.2h-.48a1.63 1.63 0 0 0-1-.29c-.17-.39-.6-.21-.88-.39a.43.43 0 0 0-.1-.39.09.09 0 0 0-.09-.1c-.59-.5-1.5.2-1.85.68a.59.59 0 0 0-.58.29 6.15 6.15 0 0 1-7.95-.67c-.36 0-.65.12-.68-.39.22-1.09-1.32-1.44-2.23-.78-.23-1.23-1.63-2.73-2.62-1.45a1.29 1.29 0 0 0-1.84.38c-.89-.43-1.42.48-1.75 1.07a2.22 2.22 0 0 0-1.94-.1 5.21 5.21 0 0 0-1.94.2c-.84-1.32-2.6-.15-3.49.48-.1.1-.2.2-.1.39.36 1-.22 1.88-.29 2.72.19.26.45.38.49.87a.47.47 0 0 0 .38.19 1.35 1.35 0 0 0 .29.39c-.09 0-.19 0-.19.1-.31.28.07.56 0 .87 0 .08 0 .52.1.58-.22.2-.55.24-.78.39a3.41 3.41 0 0 1-2-.87c-.09 0-.19 0-.19.1-.24 0-.55 0-.68.19l-.77-.58c-.27 0-.69-.22-1 0-3.83 2.58-9.36.31-13.67 2.72-3.78 1.51-7.9 3.54-11.45 5.14-.29-.29-.56-.21-.87 0-.79-.24-2-.26-1.84.87 0 0-.41-.06-.39.1a1.29 1.29 0 0 1-.58.09c-.18-.17-.24-.39-.49-.48.3-1.47-3.6-1.27-4.56-2.23-2.08-1-2.91-3.29-4.75-4.27 0-.1.09-.1.09-.2a.59.59 0 0 0-.29-1.06h.2a.87.87 0 0 0-.49-.1c-1.79-9-5-10.25-1.26-20.76 2.09-1.54 2.08-5.88 1.55-8a.49.49 0 0 0 0-.68 8.21 8.21 0 0 0-.68-2.14l-.29.3.2-.3c-.1-.09-.1-.09-.2-.09-.18-.29-.5-.14-.77-.1.09-.37-.6-.37-.68-.1a.36.36 0 0 0-.39-.38c-.21-.19-.4-.11-.58.09a.62.62 0 0 1-.39-.09h-.19c-.13-.26-.54-.26-.78-.1a4.65 4.65 0 0 0 1.46-1.94c-.23-1.18.38-2.09.48-3.2-.47-1.51-3-3.65-4.46-3.2a1.05 1.05 0 0 0-1.26.09c-.49-.31-.89-.15-1.46-.09-1.09-1-2 .74-1.45 1.65-.26.51.75 1.62.48 1.84.08.35-.91.33-.68.77 0 .41-.69.75-.87 1.07-2.78 4.75-9.72 8.6-15.33 9.7a11.91 11.91 0 0 0-8.24 3.2c-.84.08-2.16.3-2.62 1.07 0 .09-.3-.72-.58-.68-.1 0-.2 0-.2-.1-1.94-.54-3.59-2-5.53-2.32l-.09.09v-.09a.57.57 0 0 0-.58-.2c-1.36-.27-3.49-1.18-4.66-.1-1.49-1.43-4-1-5.43-2.71-.42-.3-.77.13-1.26.1s-1.07-.67-1.75-1.56c-2.31-1.64-2.81 1.39-.87 2.33 1.19 3.55 5.16 3.87 6.3 7-1.46 1-.32 3-.29 4.26 4.64 5.16 0 11.43 9.41 9.12a2.74 2.74 0 0 0 .19 2.14c-.54 0-.11.61-.38.77a.68.68 0 0 0-.78.1 1.35 1.35 0 0 0-1.84.58c-.38.26-1.12.27-1.26.87-.16 0-.26.06-.39.2-.23 0-.41 0-.58.19-1.36-1.48-2.5 3.82-3.4 4.85a1.25 1.25 0 0 0-.58.1c-.62.83-1.68 1.25-2.13 2.13h.29a34.94 34.94 0 0 1-9.25 4.68c-.44.08-.24.81-.58 1.07-.2-.16-.22-.08-.39-.1-1.09-.84-2.29 1.17-2.23 2.13-.26.1 0 .51-.19.59.11.32-.73.24-.88.48-.5-.49.48-.86.49-1.36a.2.2 0 0 0 .19-.19.43.43 0 0 0 0-.49c.13-.17.17-.55-.1-.58 0-.1-.09-.19-.19-.29a43.16 43.16 0 0 0-5.63.49c-.09.09-.09.29-.19.38s-.1.2-.1.29c-.37.09-1.46-.26-1.35.39a.7.7 0 0 0-.39.2c-4.37.41-6.46-7-10.87-4.66-.31-2.74.76-5.49-1-7.95-.39-.44-1.7 0-1.65-.78-.2-4.9-1.85-5.32-4.26-1.36-2.24-.84-2.39 1.11-3.79 2.23-.09 0-.19 0-.77-.68-.29-.22-.51.08-.78-.38-.49-2.35-3.31.57-2.13 1.65a.6.6 0 0 0 .09.38c-6.69 1-21.34-2.61-18.43 8.83.4.3.87-.11 1.07-.39h.1c0 .1.09.2.09.29s.4.32.59.1c.61 0 .85-.32 1.45 0a2 2 0 0 1 1.65.39c.58-.65 1.35-.53 1.94.19a.63.63 0 0 0 .39.68c0 .35 0 .71.39.87-.21.29 0 .82.09 1.07-.66.13-.69.87-.09 1.17-.26 0-.64.2-.59.48h-.38c.07-.48-.46-.64-.78-.29-.14 0-.26 0-.39.1-1-1.64-1.87-1.78-2.91-.2a.94.94 0 0 0-1.55.29 1 1 0 0 0-.68.39c-2.72 0-.69 10.42-.29 12.42a8.61 8.61 0 0 0 2.13 1.45.74.74 0 0 0 .2.49 1.21 1.21 0 0 0 .29 1c-2 2.73 6.18 7.1 1.36 10.57-2.66 9.35-3.22 26.09-6.79 34-3 2.49-5.4-.69-8.25-1.36a14.66 14.66 0 0 1-8.83 4.08C15 120.62 7.69 131.9 7.46 143.17a.77.77 0 0 0-.58.68c-.67.3-1.89-.12-2.13.87-.08 0-.33 0-.29.1-2.19 2-5.22 5.31-3.5 8.25 0 0-.09.09-.48.09-1 1.09-.35 4.79.68 5.82.84 5.36 6 9.28 8.24 14.17 3 7.71 3.95 3.2 7.67 7.37a.38.38 0 0 0 .58.09c.48 6.16 12.59 5.44 16 2.82a1.51 1.51 0 0 0 .39-.29c.58-.15.84-.66 1.17-1.07.53-.23 1.19-.46 1.45-1.07a.51.51 0 0 0 .39-.19v-.1c.58-.44.88-.76 1.45-1.26v.1c-.09 0-.19.09-.29.19v.1c-.27.19-1 .57-.58 1-.34.93.87 1.21.49 2-1.46.87-1.27 4.17-1.07 7.37-1.68 10.91 9.59 5.09 15.81 7.47a.6.6 0 0 0 .68 0c.43 0 .67.23 1.07.19.29.19.64.06 1 .1 3.88.82 8.24-.53 11.64-2.52a.21.21 0 0 0 .19-.2.59.59 0 0 0 .1-.68c.1-.44.55-.3.68-.58 5.73-1.83 10.85-6.83 16.49-9.21 1.75.15 3.54-.81 5.33-1l.1-.1h.39a.49.49 0 0 0 .77 0c.29.32 1.37.33 1.46-.2.17 0 .34 0 .48-.09 0 .41.7.49.88.19a.59.59 0 0 0 .77-.1l.2.1a.49.49 0 0 0 .77.29v.1c.1.1.1.1.2.1.06.28.79.3 1 .19.33 0 .72-.28.48-.58.41.07.68-.43.68-.78a7.6 7.6 0 0 0 .68-.58 8.06 8.06 0 0 1 1.01 1.68c-1.25 2.63.59 5.9-.2 8.83 0 .93-.52 2.27 0 3.1.55.42.35 1.19.68 1.75a.77.77 0 0 0-.29 1.06c-1.11.89.05 4.63.68 5.73.12.68.85 2.66 1.65 2.33a.09.09 0 0 0 .1.09 5 5 0 0 0 3.1 3.59c0 .54.8.75 1.07 1.07.09 0 .09 0 .19.1s.1.09.1.09c.68.49 1.45.88 2.23 1.36 2.41.95 5.27 3.11 7.86 3 0-.1.09-.1.09-.2a.52.52 0 0 0 .78-.19c1.55-.18 2.52 1.24 3.78 1.65a.8.8 0 0 0 .49.48c.37.71 2.09 1.29 2.71.78v-.1a.71.71 0 0 0 .39-.19h.2a.34.34 0 0 0 .29.1c0 .09 0 .19.09.19l.1.1v.28c.38.38.39 0 .68.87a.21.21 0 0 0 .19.2c3.25.86 6.57 3.41 9.51 4.07l.1.1c0 .25.46.56.58.29a.37.37 0 0 0 .29.09c1.77 3.39 7.8 3.81 11.54 4.18.25.13 1.14.23 1.17-.2.13 0 .24.13.39.1a.49.49 0 0 0 .77.39c.11.13.16.09.29.09a6.44 6.44 0 0 0 2.52 1.85c.16.14.31.08.49.09a.24.24 0 0 1 0-.08c-.15-.39-.14-.53.1-.76Z"/>
        <path fill="#e53c3c" d="M396.06 283a.56.56 0 0 0-.2-.68c1.12-.53.71-2.68-.48-2.91-.79-.71 0-1.16-1.46-1.35a.49.49 0 0 0-.77-.49c-.31-.65-.46-1.62-1.56-1.75 0-.44-.1-.91.39-1a.4.4 0 0 0 0-.77c0-.45.47-.86-.09-1.17v-.09c.29-.64-.17-1.46.48-1.85.27-.24.28-.57.39-.87a1.55 1.55 0 0 0 1.16 0 .53.53 0 0 0 .78.2c.49.07.7-.3.77-.68a.61.61 0 0 0 .1-.88c0-.09 0-.19-.1-.19a.87.87 0 0 0-.67-.29c.27-.65.08-1.47.48-2 .65.22 1.77.36 1.36-.77l.48-.49c.91.08.86-1.13 1.46-1.75a.58.58 0 0 0 .68-.38c.39-.1.44-.69.39-1.07a1 1 0 0 0 .48-1c.74-.21 0-1.27-.39-1.65.41-.59-.53-.86-1-.58a.35.35 0 0 1-.19-.1h-.2c-.37-.15-.42-.48-.38-.87-.1-.1-.2-.2-.29-.2v-.09c-.13-.12-.45-.17-.49 0l-.1.09-.09-.09c-.1 0-.1-.1-.2-.1a.49.49 0 0 0-.48-.39c-.18-1-1.26-.42-1.94-.48-.49 0-.49-.1-.58-.29-.27-.73-1.1-.5-1.56-.2a.34.34 0 0 0-.29-.1c-.14-.34-.34-.74-.77-.67-.46-.73-.91-.91-1.46-.39-.27-.52-1.48-1-1.45-.1-.1.1-.1.1-.2.1-.67-1.54-2.73 1.73-4.07.58-1.43.79-.59-2.32-1.36-2.91-2.23-1.59-4.34-6.25-7.18-4.07a1.67 1.67 0 0 0-1.45 0c-.26-.46-1-1.25-1.46-.88-.27 0-.5.17-.77.2a3.23 3.23 0 0 0-1.65-.59c-.07-.82-1.23-.88-1.65-1.45a.1.1 0 0 0-.1-.1c-.16-.15-.55-.3-.78-.09-.21-.25-.62-.31-.87-.59h-.1c-.71-.41-1.16-1.12-2-1.45-1.75-1.73-5.72-1.65-7.37.29-.56-.59-1.36-.5-2-.78-.37-.55-1.25-.24-1.75-.68-.5-1.37 1.8-3.15.68-4h-.1c-.09-.1-.29-.2-.38-.29s-.3 0-.29.09c-.12-.36-.52-.29-.78-.29-.39-.41-.87-.23-1.36-.19a.35.35 0 0 0-.29-.1c-.06-.14-.43-.3-.48-.1h-.59a.37.37 0 0 0-.68-.09c-.47.06-1.32-.19-1.55.29-1.07.56-2.25.71-3.2 1.55-.94.08-.78 1-2 1.16-.29.09-.65.3-.48.68a.76.76 0 0 0-.49.88c-.64.48-1.65.68-2.13 1.35a.8.8 0 0 1-.78.59 1.25 1.25 0 0 0-1.45.58.52.52 0 0 0-.58.39c-.72.44-1.2.84-1.85 1.26h-1.43c-.58-.55-1.29.38-1.56.87-.39 0-.81.45-.58.78-.1.09-.19.09-.19.19s-.29.1-.39.19c-.69-.28-1.26.79-1.75.3a.35.35 0 0 1-.19-.1 1 1 0 0 0-1 .68l-.1.09h-.09c.19-1.07 1.75-2.2.38-3.2-.37-1.06-1-.67-1.55 0-.1 0-.29 0-.29-.09s-.22-.08-.39-.1l-.29.29c-.31-.12-.65-.33-1-.1h-.19c.53-.86-2.16-2.92-2.82-2.62-.2.72-1.48 1.78-.19 2.24-.2.41-.4 1.09 0 1.45a.6.6 0 0 0 0 .58c-.93.9-2.09-.69-3.2-.58-.84-.09-2.08 1-1.07 1.65-.38.63-1 1.84 0 1.94-.06.42.37.31.58.48v.1c-.27.11-.22.26-.19.49-1.11.71-1.41 2.89.19 3.2a3.45 3.45 0 0 0 .59 1.74 1.33 1.33 0 0 0 0 .88 12.11 12.11 0 0 1-3.01.75 1 1 0 0 0-1.26 0v.1c-.19.1-.39.19-.39.39-.18.15-.36.44-.58.48a.33.33 0 0 0-.48 0c-.45 0-.45.65-.49 1a.48.48 0 0 0-.29.59c-.38.48.12 1 .1 1.45a4.66 4.66 0 0 0-.78 1.46.67.67 0 0 0-.39.87 1.13 1.13 0 0 0 .1 1.84c-.07.31.17.43.49.39 0 .25.3.19.48.19a.5.5 0 0 0 .39.2l.19.19c0 .1 0 .2.1.2a.37.37 0 0 0 .29.09.78.78 0 0 0 .19.49.83.83 0 0 0 .2.87c.11.42.15.81.29 1.26 0 .22 0 .5.29.49 0 .09.1.19.19.29s0 .29.2.29v.1c-.25-.08-.5.24-.49.38-.24.16-.55 0-.68.39-.24.11-.42.24-.38.49a.64.64 0 0 0-.59.19c-.35.07-.28.38-.29.68-.12.09-.38.1-.38.29a.1.1 0 0 0-.1.1c-.1.09-.2.19-.2.29s-.19.19-.19.29a.29.29 0 0 0 0 .39c-.1 0-.1.09-.19.19-.2-.28-.82-.29-.78.2-.1.09-.1.19-.19.29v.19c-.1.1-.2.29-.1.39a.29.29 0 0 0 0 .39.52.52 0 0 0 .29.77c.1.49.19.78.49.78h-.1c.16.15.3.08.48.1.79-.58 2.16.24 1.65 1.16a1.3 1.3 0 0 0-.58 1.16.71.71 0 0 0-.19.39c-.46.67.19 1.7.38 2.33-.14.1 0 .56.2.58v.1a.9.9 0 0 0-.78.48c-.09.1-.29.2-.39.29a.48.48 0 0 0-.38.2v.1a.81.81 0 0 0-.59.38c-.09 0-.09 0-.19.1a.31.31 0 0 1-.19-.1c-.31 0-.39.23-.59.39a.21.21 0 0 0-.19.2c-.17.19-.38.27-.39.58-.22.17-.2.36-.19.58-.2.11-.39.25-.39.48a.51.51 0 0 0-.78.2v.1c-.09 0-.09.09-.09.19-.31-.26-.88.05-1 .39a.46.46 0 0 0-.29.19c0 .1-.1.1-.1.2-.21 0-.52-.09-.58.19.06-.32-.3-.44-.59-.39a.92.92 0 0 0-1.06-.19c-.1 0-.2 0-.2-.1h-.09c-.14-.5-.49-.57-1-.58 0-.12-.22-.21-.29-.29-.43-.07-1-.24-1.36.29h-.58a.89.89 0 0 0-1-.1c-.19-.15-.47-.08-.68-.1-.53-.86-1.55 0-2.33-.09a1.8 1.8 0 0 0-1.07.19c-.51-.62-2-.73-2.33.2-.3 0-.54.24-.68.48a.09.09 0 0 1-.09-.1.74.74 0 0 0-1.07.1c-.72-.07-1.17.4-.68.78-.34.35-.6.73-1 1.06-.48 0-.58.39-.77.68a2.47 2.47 0 0 1-.1.29 1.75 1.75 0 0 1-.68-1.35c-.21-.71-1.52-.63-1.55.19-.39 0-1.13-.11-1.07.48a.88.88 0 0 0-.68.3c-.29 0-.63 0-.77.38-.37 0-.8-.66-1.07-.29-.51.32-1.28-.4-1.84 0s-.21.77-1.17.68c-2.72-.47-2.68 2.27-4.27 3.2-.5.45.26 1.66-.48 2.14-.34.47-1.94-.19-1.75.77a1.66 1.66 0 0 0-1 1 3.16 3.16 0 0 0-1.26 2.53c-.89-.34-1.21.45-.78 1.35a.55.55 0 0 0-.58.49c-.85 1.24-.53 2.68-.09 4A2.88 2.88 0 0 0 269 309c-.76 3.3-2.65 1.59-4.07 3.3-2.14 3.1-3.69 2.62-3 6.59a1 1 0 0 1-1.16.49c-.88.48-.49 2.13-1.85 1.94-.48.77.68 1.84 0 2.72-.58.29-.48 1.06-1 1.45-.38.87-1.94 0-1.74 1.16 1.74 1.36-1.07 2-1.07 3.4-1.45.68-1.45 2.23-2.52 3.39-2.2 2.27-5.76 3.4-8.15 5.45l.1.08c.8-.74 1.79-1.3 2.71-.38a1.55 1.55 0 0 1 1.46.19c.89-.23 2-.85 2.72.1.71-.48 1.47.1 2.23 0 0 0 0-.1.09-.1a.73.73 0 0 1 1.17.29h.08c-.1-3.29 3.28-.32 4.76-.29a.9.9 0 0 1 1.06.58c.68-.35 1.31.29 2 .29.87-.72 1.9-.28 3-.19 1.48 2 5.32.48 5.72 3.49.6.21.52-.71 1.17-.68.61.33 1.44-.18 1.84.49a1.75 1.75 0 0 1 .58.09c.34-.81 1.2-.45 1.65 0a.32.32 0 0 0 .19-.09 2.65 2.65 0 0 1 1.36.29 6 6 0 0 0 1.07-.29c0-.13.19-.09.29-.1a.88.88 0 0 1 .58-.29c0-.1.1 0 .2 0 .56-.4 1 .49.87 1 .41.14 1.17.4.78 1v.1a1.24 1.24 0 0 1 1 .29.09.09 0 0 1 .09.09c.41 0 1-.09 1.07.49-.1 0 0 .36.19.29.53 0 .34.56.59.87a2.67 2.67 0 0 1 .38 1.55.31.31 0 0 1 .29.3c.1.09.2.29.1.38.37.24.35.87-.19.88 0 .11.1.4-.09.28l-.11.1c.41.68-.27 1.29.39 1.84a.89.89 0 0 1 .39.87c.09.07 0 .19 0 .29-.34.34.07.92-.47 1.17v.09c.1 0 .2.2.3.29a.58.58 0 0 1 .58.3c.09 0 .09.09.09.19a.35.35 0 0 1 .1.29c.13.11.09.16.1.29a.35.35 0 0 1 .1.2c.09.09.19.19.19.29.56.83 1.8 1 1.41 2.18a1.39 1.39 0 0 1 .53.82c.67.23 1.34.62.95 1.15.16.11.19.23-.17.31v.06c0 .19-.16.36-.21.51h.15a4.62 4.62 0 0 0-.39 1.07.35.35 0 0 0-.16 0c0 .19 0 .55-.23.64 0 .58-.09.92.58 1 .23-.38 1-.37 1.27-.2a.74.74 0 0 1 .48.1c0-.69.87-.7 1.16-.39 0 .1.1.2.1.29.3.23.8 0 1.07 0a.82.82 0 0 1 1.26.2c.12-.27.33.07.58 0a.43.43 0 0 1 .78.09.75.75 0 0 1 1.26.2c0 .25.39.13.39.39.84.05.39 1 0 1.35 0 .1-.1.2-.2.29.45.32-.3 1-.09 1.46-.09.22-.05.56-.3.68l.3.29c.09 0 .09.1.09.1.44-1 1.5-1.82 2.33-.59h.1a.32.32 0 0 1 .19-.09c.21-.7 1.22-.77 1.26 0 .42.14.16 1.16.59 1.36a.55.55 0 0 1 .18.57.89.89 0 0 0 0 .68c10.35-13.68 22-19.35 38.22-24 .07.72 3.32-.28 3.2-.88a.44.44 0 0 0 .1-.58v-.19a.48.48 0 0 1 .38-.2.1.1 0 0 0 .1.1c.55.24 1.28-.56 1.84-.68.66.36.57-.24.78-.48v-.1h.1c-.1.19 0 .29 0 .48.16.26.52.19.77.1.13.12.45.17.49 0 .07.7 2.26-.15 2.52-.39a.78.78 0 0 0 .78-.38 1.08 1.08 0 0 1 .09-.3h.29a.64.64 0 0 1 .39-.09.7.7 0 0 0 1.07.19c.1 0 .1-.1.19-.19a.78.78 0 0 0 .49-.1h.1c2.09.62 4.78-.59 7-.39a.5.5 0 0 0 .48-.39c4.13.83 9.61.37 13.78 1.56.1-.1.1-.2.1-.39.17-.15.3-.4.09-.58a.32.32 0 0 0-.38-.29.64.64 0 0 0 .58-.78c.19-.18.47-.32.58-.58.19 0 .54 0 .48-.29a.48.48 0 0 0 .1-.68.5.5 0 0 0-.87-.2c-.1 0-.2.1-.29.1a1.48 1.48 0 0 1-.2-1.94c3.2-3.68 5.39-3.78 9.8-5.62a23.72 23.72 0 0 0 .87-6.7c-.66-.6 1.07-2.07 1.17-3v-.29l-.29-.29a25.45 25.45 0 0 0 2.13-4.65c.19-.1.19-.49.49-.59 3.53-5.55 5.21-13.25 11.73-16.2 1.58-4-1.69-9.09.68-13.58a47.41 47.41 0 0 0-6.34-4.16Z"/>
    </g>
    
    <g id="regiao_sudeste" class="regiao">
        <path d="M396.06 283a.56.56 0 0 0-.2-.68c1.12-.53.71-2.68-.48-2.91-.79-.71 0-1.16-1.46-1.35a.49.49 0 0 0-.77-.49c-.31-.65-.46-1.62-1.56-1.75 0-.44-.1-.91.39-1a.4.4 0 0 0 0-.77c0-.45.47-.86-.09-1.17v-.09c.29-.64-.17-1.46.48-1.85.27-.24.28-.57.39-.87a1.55 1.55 0 0 0 1.16 0 .53.53 0 0 0 .78.2c.49.07.7-.3.77-.68a.61.61 0 0 0 .1-.88c0-.09 0-.19-.1-.19a.87.87 0 0 0-.67-.29c.27-.65.08-1.47.48-2 .65.22 1.77.36 1.36-.77l.48-.49c.91.08.86-1.13 1.46-1.75a.58.58 0 0 0 .68-.38c.39-.1.44-.69.39-1.07a1 1 0 0 0 .48-1c.74-.21 0-1.27-.39-1.65.41-.59-.53-.86-1-.58a.35.35 0 0 1-.19-.1h-.2c-.37-.15-.42-.48-.38-.87-.1-.1-.2-.2-.29-.2v-.09c-.13-.12-.45-.17-.49 0l-.1.09-.09-.09c-.1 0-.1-.1-.2-.1a.49.49 0 0 0-.48-.39c-.18-1-1.26-.42-1.94-.48-.49 0-.49-.1-.58-.29-.27-.73-1.1-.5-1.56-.2a.34.34 0 0 0-.29-.1c-.14-.34-.34-.74-.77-.67-.46-.73-.91-.91-1.46-.39-.27-.52-1.48-1-1.45-.1-.1.1-.1.1-.2.1-.67-1.54-2.73 1.73-4.07.58-1.43.79-.59-2.32-1.36-2.91-2.23-1.59-4.34-6.25-7.18-4.07a1.67 1.67 0 0 0-1.45 0c-.26-.46-1-1.25-1.46-.88-.27 0-.5.17-.77.2a3.23 3.23 0 0 0-1.65-.59c-.07-.82-1.23-.88-1.65-1.45a.1.1 0 0 0-.1-.1c-.16-.15-.55-.3-.78-.09-.21-.25-.62-.31-.87-.59h-.1c-.71-.41-1.16-1.12-2-1.45-1.75-1.73-5.72-1.65-7.37.29-.56-.59-1.36-.5-2-.78-.37-.55-1.25-.24-1.75-.68-.5-1.37 1.8-3.15.68-4h-.1c-.09-.1-.29-.2-.38-.29s-.3 0-.29.09c-.12-.36-.52-.29-.78-.29-.39-.41-.87-.23-1.36-.19a.35.35 0 0 0-.29-.1c-.06-.14-.43-.3-.48-.1h-.59a.37.37 0 0 0-.68-.09c-.47.06-1.32-.19-1.55.29-1.07.56-2.25.71-3.2 1.55-.94.08-.78 1-2 1.16-.29.09-.65.3-.48.68a.76.76 0 0 0-.49.88c-.64.48-1.65.68-2.13 1.35a.8.8 0 0 1-.78.59 1.25 1.25 0 0 0-1.45.58.52.52 0 0 0-.58.39c-.72.44-1.2.84-1.85 1.26h-1.43c-.58-.55-1.29.38-1.56.87-.39 0-.81.45-.58.78-.1.09-.19.09-.19.19s-.29.1-.39.19c-.69-.28-1.26.79-1.75.3a.35.35 0 0 1-.19-.1 1 1 0 0 0-1 .68l-.1.09h-.09c.19-1.07 1.75-2.2.38-3.2-.37-1.06-1-.67-1.55 0-.1 0-.29 0-.29-.09s-.22-.08-.39-.1l-.29.29c-.31-.12-.65-.33-1-.1h-.19c.53-.86-2.16-2.92-2.82-2.62-.2.72-1.48 1.78-.19 2.24-.2.41-.4 1.09 0 1.45a.6.6 0 0 0 0 .58c-.93.9-2.09-.69-3.2-.58-.84-.09-2.08 1-1.07 1.65-.38.63-1 1.84 0 1.94-.06.42.37.31.58.48v.1c-.27.11-.22.26-.19.49-1.11.71-1.41 2.89.19 3.2a3.45 3.45 0 0 0 .59 1.74 1.33 1.33 0 0 0 0 .88 12.11 12.11 0 0 1-3.01.75 1 1 0 0 0-1.26 0v.1c-.19.1-.39.19-.39.39-.18.15-.36.44-.58.48a.33.33 0 0 0-.48 0c-.45 0-.45.65-.49 1a.48.48 0 0 0-.29.59c-.38.48.12 1 .1 1.45a4.66 4.66 0 0 0-.78 1.46.67.67 0 0 0-.39.87 1.13 1.13 0 0 0 .1 1.84c-.07.31.17.43.49.39 0 .25.3.19.48.19a.5.5 0 0 0 .39.2l.19.19c0 .1 0 .2.1.2a.37.37 0 0 0 .29.09.78.78 0 0 0 .19.49.83.83 0 0 0 .2.87c.11.42.15.81.29 1.26 0 .22 0 .5.29.49 0 .09.1.19.19.29s0 .29.2.29v.1c-.25-.08-.5.24-.49.38-.24.16-.55 0-.68.39-.24.11-.42.24-.38.49a.64.64 0 0 0-.59.19c-.35.07-.28.38-.29.68-.12.09-.38.1-.38.29a.1.1 0 0 0-.1.1c-.1.09-.2.19-.2.29s-.19.19-.19.29a.29.29 0 0 0 0 .39c-.1 0-.1.09-.19.19-.2-.28-.82-.29-.78.2-.1.09-.1.19-.19.29v.19c-.1.1-.2.29-.1.39a.29.29 0 0 0 0 .39.52.52 0 0 0 .29.77c.1.49.19.78.49.78h-.1c.16.15.3.08.48.1.79-.58 2.16.24 1.65 1.16a1.3 1.3 0 0 0-.58 1.16.71.71 0 0 0-.19.39c-.46.67.19 1.7.38 2.33-.14.1 0 .56.2.58v.1a.9.9 0 0 0-.78.48c-.09.1-.29.2-.39.29a.48.48 0 0 0-.38.2v.1a.81.81 0 0 0-.59.38c-.09 0-.09 0-.19.1a.31.31 0 0 1-.19-.1c-.31 0-.39.23-.59.39a.21.21 0 0 0-.19.2c-.17.19-.38.27-.39.58-.22.17-.2.36-.19.58-.2.11-.39.25-.39.48a.51.51 0 0 0-.78.2v.1c-.09 0-.09.09-.09.19-.31-.26-.88.05-1 .39a.46.46 0 0 0-.29.19c0 .1-.1.1-.1.2-.21 0-.52-.09-.58.19.06-.32-.3-.44-.59-.39a.92.92 0 0 0-1.06-.19c-.1 0-.2 0-.2-.1h-.09c-.14-.5-.49-.57-1-.58 0-.12-.22-.21-.29-.29-.43-.07-1-.24-1.36.29h-.58a.89.89 0 0 0-1-.1c-.19-.15-.47-.08-.68-.1-.53-.86-1.55 0-2.33-.09a1.8 1.8 0 0 0-1.07.19c-.51-.62-2-.73-2.33.2-.3 0-.54.24-.68.48a.09.09 0 0 1-.09-.1.74.74 0 0 0-1.07.1c-.72-.07-1.17.4-.68.78-.34.35-.6.73-1 1.06-.48 0-.58.39-.77.68a2.47 2.47 0 0 1-.1.29 1.75 1.75 0 0 1-.68-1.35c-.21-.71-1.52-.63-1.55.19-.39 0-1.13-.11-1.07.48a.88.88 0 0 0-.68.3c-.29 0-.63 0-.77.38-.37 0-.8-.66-1.07-.29-.51.32-1.28-.4-1.84 0s-.21.77-1.17.68c-2.72-.47-2.68 2.27-4.27 3.2-.5.45.26 1.66-.48 2.14-.34.47-1.94-.19-1.75.77a1.66 1.66 0 0 0-1 1 3.16 3.16 0 0 0-1.26 2.53c-.89-.34-1.21.45-.78 1.35a.55.55 0 0 0-.58.49c-.85 1.24-.53 2.68-.09 4A2.88 2.88 0 0 0 269 309c-.76 3.3-2.65 1.59-4.07 3.3-2.14 3.1-3.69 2.62-3 6.59a1 1 0 0 1-1.16.49c-.88.48-.49 2.13-1.85 1.94-.48.77.68 1.84 0 2.72-.58.29-.48 1.06-1 1.45-.38.87-1.94 0-1.74 1.16 1.74 1.36-1.07 2-1.07 3.4-1.45.68-1.45 2.23-2.52 3.39-2.2 2.27-5.76 3.4-8.15 5.45l.1.08c.8-.74 1.79-1.3 2.71-.38a1.55 1.55 0 0 1 1.46.19c.89-.23 2-.85 2.72.1.71-.48 1.47.1 2.23 0 0 0 0-.1.09-.1a.73.73 0 0 1 1.17.29h.08c-.1-3.29 3.28-.32 4.76-.29a.9.9 0 0 1 1.06.58c.68-.35 1.31.29 2 .29.87-.72 1.9-.28 3-.19 1.48 2 5.32.48 5.72 3.49.6.21.52-.71 1.17-.68.61.33 1.44-.18 1.84.49a1.75 1.75 0 0 1 .58.09c.34-.81 1.2-.45 1.65 0a.32.32 0 0 0 .19-.09 2.65 2.65 0 0 1 1.36.29 6 6 0 0 0 1.07-.29c0-.13.19-.09.29-.1a.88.88 0 0 1 .58-.29c0-.1.1 0 .2 0 .56-.4 1 .49.87 1 .41.14 1.17.4.78 1v.1a1.24 1.24 0 0 1 1 .29.09.09 0 0 1 .09.09c.41 0 1-.09 1.07.49-.1 0 0 .36.19.29.53 0 .34.56.59.87a2.67 2.67 0 0 1 .38 1.55.31.31 0 0 1 .29.3c.1.09.2.29.1.38.37.24.35.87-.19.88 0 .11.1.4-.09.28l-.11.1c.41.68-.27 1.29.39 1.84a.89.89 0 0 1 .39.87c.09.07 0 .19 0 .29-.34.34.07.92-.47 1.17v.09c.1 0 .2.2.3.29a.58.58 0 0 1 .58.3c.09 0 .09.09.09.19a.35.35 0 0 1 .1.29c.13.11.09.16.1.29a.35.35 0 0 1 .1.2c.09.09.19.19.19.29.56.83 1.8 1 1.41 2.18a1.39 1.39 0 0 1 .53.82c.67.23 1.34.62.95 1.15.16.11.19.23-.17.31v.06c0 .19-.16.36-.21.51h.15a4.62 4.62 0 0 0-.39 1.07.35.35 0 0 0-.16 0c0 .19 0 .55-.23.64 0 .58-.09.92.58 1 .23-.38 1-.37 1.27-.2a.74.74 0 0 1 .48.1c0-.69.87-.7 1.16-.39 0 .1.1.2.1.29.3.23.8 0 1.07 0a.82.82 0 0 1 1.26.2c.12-.27.33.07.58 0a.43.43 0 0 1 .78.09.75.75 0 0 1 1.26.2c0 .25.39.13.39.39.84.05.39 1 0 1.35 0 .1-.1.2-.2.29.45.32-.3 1-.09 1.46-.09.22-.05.56-.3.68l.3.29c.09 0 .09.1.09.1.44-1 1.5-1.82 2.33-.59h.1a.32.32 0 0 1 .19-.09c.21-.7 1.22-.77 1.26 0 .42.14.16 1.16.59 1.36a.55.55 0 0 1 .18.57.89.89 0 0 0 0 .68c10.35-13.68 22-19.35 38.22-24 .07.72 3.32-.28 3.2-.88a.44.44 0 0 0 .1-.58v-.19a.48.48 0 0 1 .38-.2.1.1 0 0 0 .1.1c.55.24 1.28-.56 1.84-.68.66.36.57-.24.78-.48v-.1h.1c-.1.19 0 .29 0 .48.16.26.52.19.77.1.13.12.45.17.49 0 .07.7 2.26-.15 2.52-.39a.78.78 0 0 0 .78-.38 1.08 1.08 0 0 1 .09-.3h.29a.64.64 0 0 1 .39-.09.7.7 0 0 0 1.07.19c.1 0 .1-.1.19-.19a.78.78 0 0 0 .49-.1h.1c2.09.62 4.78-.59 7-.39a.5.5 0 0 0 .48-.39c4.13.83 9.61.37 13.78 1.56.1-.1.1-.2.1-.39.17-.15.3-.4.09-.58a.32.32 0 0 0-.38-.29.64.64 0 0 0 .58-.78c.19-.18.47-.32.58-.58.19 0 .54 0 .48-.29a.48.48 0 0 0 .1-.68.5.5 0 0 0-.87-.2c-.1 0-.2.1-.29.1a1.48 1.48 0 0 1-.2-1.94c3.2-3.68 5.39-3.78 9.8-5.62a23.72 23.72 0 0 0 .87-6.7c-.66-.6 1.07-2.07 1.17-3v-.29l-.29-.29a25.45 25.45 0 0 0 2.13-4.65c.19-.1.19-.49.49-.59 3.53-5.55 5.21-13.25 11.73-16.2 1.58-4-1.69-9.09.68-13.58a47.41 47.41 0 0 0-6.34-4.16Z"/>
    </g>

    <g id="regiao_sul" class="regiao">
        <path d="M302.44 369.88c.13-.55-.57-.72-.48-1.37-.17-.28 0-.51-.29-.58 0-.77-1.05-.7-1.26 0a.32.32 0 0 0-.19.09h-.1c-.83-1.23-1.89-.41-2.33.59 0 0 0-.1-.09-.1l-.3-.29c.32-.22.27-.71.3-1.07s.43-.66.19-1a.1.1 0 0 0-.1-.1c.1-.09.2-.19.2-.29.39-.37.84-1.3 0-1.35 0-.26-.39-.14-.39-.39a.75.75 0 0 0-1.26-.2.43.43 0 0 0-.78-.09c-.25.07-.46-.27-.58 0a.82.82 0 0 0-1.26-.2c-.27 0-.77.23-1.07 0 0-.09-.1-.19-.1-.29-.29-.31-1.16-.3-1.16.39a.74.74 0 0 0-.48-.1c-.31-.17-1-.18-1.27.2-.71-.05-.56-.49-.58-1.07a.66.66 0 0 0 .2-.68c.35-.13.33-.69.43-1s.33-.45.15-.67c.83-.46.16-1.13-.68-1.36a1.54 1.54 0 0 0-.58-.87c.51-1.12-.86-1.31-1.36-2.13 0-.1-.1-.2-.19-.29a.35.35 0 0 0-.1-.2c0-.13 0-.18-.1-.29a.35.35 0 0 0-.1-.29c0-.1 0-.19-.09-.19a.58.58 0 0 0-.58-.3c-.1-.09-.2-.29-.3-.29v-.09c.46-.24.2-.74.39-1.07.09-.09.2-.29.1-.39a.89.89 0 0 0-.39-.87c-.66-.55 0-1.16-.39-1.85a.43.43 0 0 0 .2-.38c.54 0 .56-.64.19-.88.1-.09 0-.29-.1-.38a.31.31 0 0 0-.29-.3 2.67 2.67 0 0 0-.38-1.55c-.25-.31-.06-.88-.59-.87-.18.07-.29-.26-.19-.29 0-.58-.66-.48-1.07-.49a.09.09 0 0 0-.09-.09 1.24 1.24 0 0 0-1-.29v-.1c.39-.57-.37-.83-.78-1 .11-.48-.31-1.37-.87-1-.1 0-.2-.1-.2 0a.88.88 0 0 0-.58.29c-.1 0-.29 0-.29.1a6 6 0 0 1-1.07.29 2.65 2.65 0 0 0-1.36-.29.32.32 0 0 1-.19.09c-.45-.45-1.31-.81-1.65 0a2.05 2.05 0 0 0-.58-.09c-.4-.67-1.23-.16-1.84-.49-.65 0-.57.89-1.17.68-.4-3-4.24-1.49-5.72-3.49-1.11-.08-2.14-.53-3 .19-.73 0-1.36-.64-2-.29a.9.9 0 0 0-1.06-.58c-1.47 0-4.87-3-4.76.29h-.09a.73.73 0 0 0-1.17-.29c-.09 0-.09.1-.09.1-.76.1-1.52-.48-2.23 0-.75-.95-1.83-.33-2.72-.1a1.55 1.55 0 0 0-1.46-.19c-.92-.92-1.9-.36-2.71.38-.79-.75-1.58 1.53-2.72 1.46-6.44 2.05-2.89 6-7 8.05-.73.31-1.62.42-1.65 1.36 0 1.56-1.15 3-1 4.65-1.67 2.88-4.46 1.16-2.14 5.73-1.2 1.24-.43 3.2-1.16 4.65-.18 1.49-1.29 3.44-.78 4.95-1.71 1.71-.93 7.53 1.94 5.43a.1.1 0 0 0 .1.1.53.53 0 0 0 .87.1c.18.19.73.08.88-.1.12.6.87.81 1.06.19.18 0 .33.05.49-.09.28.23.52 1.32 1 .68 0 .09.1.19.1.29l.09.09c0 .2 0 .39.2.49 0 .1.09.1.09.19 4.61 3.25 2.45 9.35 1.75 13.58 0 .18-.05.34.1.49a.41.41 0 0 0 .09.29c-.19 0-.2.34-.29.39s-.2.23-.19.39c-.1 0-.1.09-.19.09l-.1.1c-.2 0-.27 0-.39.19-.1 0-.1.1-.19.1a.29.29 0 0 0 0 .39v.19c-.1.1-.1.2-.2.29a.65.65 0 0 0-1 .29c-.29-.15-.88-.16-.77.3-.86-.16-.72 1.51-1.75 1.26l-.1-.1c-.69-.07-1.14.67-1.26 1.26a2 2 0 0 0-.58.39c-.26-.35-.59-.18-.78.1-.09 0-.09.09-.09.19s-.2 0-.2.1a116.16 116.16 0 0 0-23.28 20.95c-3.45 3.41-11.8 10.24-7.76 11.83l.1-.09c.23.36.72.05 1 .29.11 0 .38.06.39-.1a.53.53 0 0 1 .77.19c0 .1.1.3.1.3 4.63 2.19 9.68 6.18 13.78 9.11.22-.11.19-.36.19-.58l.1-.1h.29c0 .46.63.61.77.88 0 .37.33.4.59.48-.39.46.31.95.77.88a.56.56 0 0 0 .29.58c.68 1.19 2.79 1.62 4.08 2.33 1.51 1 2.95 2.2 4.85 2.23.1.26.48.46.77.58.71 2.07 3.11 3.51 4.76 4.66v.09a.64.64 0 0 0 1.16 0c.1.1.19.1.39.1.08.54 1 .81 1.36 1.07.1.62.71.82 1.26 1 0 .22 0 .56.19.68 0 .09.1.09.1.09 0 .33.26.58.48.78a.87.87 0 0 0 .29.68c.07.3.23.63.29 1 .38.37 1.43 1.25 1.75 1.65.1 0 .1.09.19.09v.29c.22.41.86 1.29 1.36 1 .46 0 .75.74 1.17.39a6.58 6.58 0 0 1 1.84 1.17c-1 .08-1.2 1.41-2.23 1.55-.52.08-.8 1-.1 1-4.14 1.17-2.46 5.52-2.81 8.73-.19.93 1.32.3 1.26.87-.06.36.36.37.58.49 14.44-6.79 8.28-14.93 19-22.41 19.51-8.34 18-32 35.8-41.32 0-.1.1-.1.1-.2a.61.61 0 0 0 .09-.77c1.91-6.1 1.21-13.11 1.36-19.31-.07-.28.18-1.43-.19-1.55-.87-1.06.86-5.23.87-7.08-.66-2.28.79-5.9 3-6.89.2-.42.64-.67.68-1.07.64-.8.09-2.5 1.26-3.29 1.07.34.33-.22.59-.68Z"/>
    </g>

    <g id="regiao_centro-oeste" class="regiao">
        <path d="M232.22 354.44c.91-8.65 2.73-3.72 4.75-8.43.7-3.21 1.37-4.25 4.85-5.63 1.14 0 1.82-2 2.62-1.54 2.4-2 5.95-3.18 8.15-5.45 1.07-1.16 1.07-2.71 2.52-3.39 0-1.36 2.81-2 1.07-3.4-.2-1.16 1.36-.29 1.74-1.16.49-.39.39-1.16 1-1.45.68-.88-.48-1.95 0-2.72 1.36.19 1-1.46 1.85-1.94a1 1 0 0 0 1.16-.49c-.68-4 .87-3.49 3-6.59 1.41-1.7 3.32 0 4.07-3.3a2.88 2.88 0 0 1-.09-2.13c-.44-1.3-.76-2.74.09-4a.55.55 0 0 1 .58-.49c-.43-.9-.11-1.69.78-1.35a3.16 3.16 0 0 1 1.26-2.53 1.66 1.66 0 0 1 1-1c-.19-1 1.41-.31 1.75-.77.74-.48 0-1.69.48-2.14 1.6-.94 1.55-3.66 4.27-3.2 1 .09.75-.36 1.17-.68s1.33.32 1.84 0c.27-.37.71.32 1.07.29.14-.38.48-.39.77-.38a.88.88 0 0 1 .68-.3c-.06-.59.68-.47 1.07-.48a.82.82 0 0 1 1.55-.19 1.57 1.57 0 0 0 .69 1.31.84.84 0 0 0 .09-.25c.19-.29.29-.68.77-.68.37-.33.63-.71 1-1.06-.49-.38 0-.85.68-.78a.74.74 0 0 1 1.07-.1.09.09 0 0 0 .09.1c.14-.24.38-.53.68-.48.3-.93 1.82-.82 2.33-.2a1.8 1.8 0 0 1 1.07-.19c.78.07 1.81-.77 2.33.09.21 0 .49-.05.68.1a.89.89 0 0 1 1 .1h.58c.32-.53.93-.36 1.36-.29l.19.16v-.06h.29v.09a.73.73 0 0 0 .68.2.84.84 0 0 0 .49.52 1 1 0 0 1 .93.23.33.33 0 0 0 .13-.07c.19.08.53.17.49.41.08-.23.37-.12.56-.14 0-.1.1-.1.1-.2a.46.46 0 0 1 .29-.19c.09-.34.66-.65 1-.39 0-.1 0-.19.09-.19v-.1a.51.51 0 0 1 .78-.2c0-.23.19-.37.39-.48 0-.22 0-.42.19-.58 0-.31.22-.39.39-.58a.21.21 0 0 1 .19-.2c.2-.16.28-.38.59-.39a.31.31 0 0 0 .19.1c.1-.1.1-.1.19-.1a.81.81 0 0 1 .59-.38v-.1a.48.48 0 0 1 .38-.2c.1-.09.3-.19.39-.29a.9.9 0 0 1 .78-.48v-.1c-.23 0-.34-.48-.2-.58-.19-.63-.84-1.66-.38-2.33a.71.71 0 0 1 .19-.39 1.3 1.3 0 0 1 .58-1.16c.1 0 .1-.19.1-.29a1.1 1.1 0 0 0-1.75-.87c-.18 0-.32.05-.48-.1h.1c-.3 0-.39-.29-.49-.78a.52.52 0 0 1-.29-.77.29.29 0 0 1 0-.39c-.1-.1 0-.29.1-.39v-.19c.09-.1.09-.2.19-.29 0-.49.58-.48.78-.2.09-.1.09-.19.19-.19a.29.29 0 0 1 0-.39c0-.1.1-.19.19-.29s.1-.2.2-.29a.1.1 0 0 1 .1-.1c0-.19.26-.2.38-.29 0-.3-.06-.61.29-.68a.64.64 0 0 1 .59-.19c0-.25.14-.38.38-.49.13-.36.44-.23.68-.39 0-.14.24-.46.49-.38v-.1c-.15 0-.22-.16-.2-.29s-.19-.2-.19-.29c-.29 0-.3-.27-.29-.49-.14-.45-.18-.84-.29-1.26a.83.83 0 0 1-.2-.87.78.78 0 0 1-.19-.49.37.37 0 0 1-.29-.09c-.1 0-.1-.1-.1-.2l-.19-.19a.5.5 0 0 1-.39-.2c-.18 0-.46.06-.48-.19-.32 0-.56-.08-.49-.39a1.13 1.13 0 0 1-.1-1.84.67.67 0 0 1 .39-.87 4.46 4.46 0 0 1 .78-1.46c0-.49-.48-1-.1-1.45a.48.48 0 0 1 .29-.59c0-.32 0-1 .49-1a.33.33 0 0 1 .48 0c.22 0 .4-.33.58-.48 0-.2.2-.29.39-.39V258a1 1 0 0 1 1.26 0 12.11 12.11 0 0 0 3.11-.77 1.33 1.33 0 0 1 0-.88 3.45 3.45 0 0 1-.59-1.74c-1.6-.31-1.3-2.49-.19-3.2 0-.23-.08-.38.19-.49v-.1c-.21-.17-.64-.07-.58-.48-1-.1-.38-1.31 0-1.94-1-.67.23-1.74 1.07-1.65 1.11-.11 2.27 1.48 3.2.58a.6.6 0 0 1 0-.58c-.4-.36-.2-1 0-1.45-1.29-.46 0-1.52.19-2.24.66-.3 3.35 1.75 2.82 2.62h.19c.32-.23.66 0 1 .1l.29-.29c.17 0 .26-.06.39.1s.19.09.29.09c.54-.67 1.18-1 1.55 0a.79.79 0 0 0 .19-.77 1.91 1.91 0 0 0 .19-1.85c.31-.15.31-.71.29-1 .12-.09.1-.29.1-.48l.1-.1a.7.7 0 0 0-.2-.58c0-.14-.08-.34-.09-.48.64 0 .95-.58 1.16-1-.74-1.1-.2-.91-.78-1.36-.49-.16-.11-.84-.68-.88a.53.53 0 0 0-.48-.29c-.1-.09-.1-.09-.19-.09a.75.75 0 0 0-.3-.68c-.16 0-.25-.06-.38.09a1 1 0 0 0-1.17-.58.5.5 0 0 0-.39-.48v-.29a1.11 1.11 0 0 0-.38-1.56c.2-.42.57-.93.09-1.45.2 0 .29-.19.39-.29a.83.83 0 0 0-.19-.68.77.77 0 0 0-.2-.58c.66-.6 1.69-1.34.2-1.85 0-.45.66-.88.09-1.26 3.7-1.58 1.78-3.19-.77-1.55a.21.21 0 0 0-.2-.19c0-.24 0-.52-.19-.68a2.24 2.24 0 0 0 0-1.65c.39-1 2.52-.93 2.52-1.94-.68-.95-2.14.19-3.1.19 0-.55.13-1.44-.49-1.65v-.09c-.85-.79-.8 1.09-1.06 1.55-1.55.19-3.46-.61-4.66 1a5.13 5.13 0 0 0-1.94 1.26 1.09 1.09 0 0 0-.68.29.85.85 0 0 0-.87.39 1 1 0 0 0-1.46.58c-.13 0-.18 0-.29.1-.31 0-.7-.39-1.06-.1a.75.75 0 0 0-.49-.19c.31-.69-.59-.57-1-.49.35-1.18-1.71-1.44-1.65-.39-.24 0-.42.5-.19.59 0 .3 0 .57.19.77-.37.39-.15 1.16.1 1.55a1.35 1.35 0 0 1-.29.39c-.58-.58-1.35-2-2.14-1.55-.09-.19-.29-.19-.38-.29s-.33 0-.49.1c0-.29-.36-.31-.58-.29a.32.32 0 0 0-.29-.3.48.48 0 0 0-.88.39c-.09 0-.09.1-.19.1.38-1.94-.15-2.24-1.75-1.16a.51.51 0 0 0-.48.19c0 .1-.1.1-.2.19s-.49-.05-.67.2h-.2c-.16.18-.33.35-.58.29a.1.1 0 0 0-.1-.1c-.27-.5.23-1.4-.48-1.65-.32 0-.68-.21-.88.2a.62.62 0 0 0-.09-.39s-.09-.1-.1-.1c-.07-.33-.15-.64-.48-.77a1 1 0 0 0-1.17-.68c0-.3.07-.85-.29-1a3.84 3.84 0 0 0-.68-.59c0-.09-.19-.19-.29-.29a.63.63 0 0 0-1.07-.39v.1a6.41 6.41 0 0 0-.87 1.46.35.35 0 0 1-.1-.2.82.82 0 0 0-.58-.29.73.73 0 0 0-.29-.68c-.24-.27-.31-1.19-.87-.58-1.59 1.28-3.07 3.16-2.72 5.34-3.27-1.1-6.18-4.23-9.5-4.37-.89-.91-1.21-.12-.78-1.84.34-.14.19-.46.39-.68a.36.36 0 0 0 .19-.49c.35-.09.93-.84.29-1 0-.09.1-.19.1-.29.85-.55 1.09-2.37 0-1.36a.44.44 0 0 0-.49.39.21.21 0 0 0-.19.2c-.37.32-1,.25-1.16.77l-.29.3c-.43.11-.43.68-.78 1-.14.12-.22.22-.19.38l-.1.1a.1.1 0 0 0-.1.1c-.19.09-.19.29-.1.48a.63.63 0 0 0-.48.68c-.16.22-.13.29 0 .49-.1.19-.1.38-.19.58h-.3c.06-.3-.23-.49-.48-.49-.05-.37 0-.91-.29-1.16 0-.35 0-.59-.39-.68l.19-.2c0-.19 0-.29-.09-.38.09-.2.09-.39.19-.49s.1-.29.1-.39h.09c.49-.55 0-1.48-.09-2s.25-1.48-.49-1.56a3.39 3.39 0 0 0 .1-1.64c-.31-.73.64-.61.29-1.27.46-.37.12-1-.39-1.16.05-.38-.66-1.34-.09-1.36a1.47 1.47 0 0 0 .15-1.8c-2-.95.82-3.4.33-5.08a2.87 2.87 0 0 0 .39-2.53c.41-.35.26-.8.19-1.26a1.89 1.89 0 0 0 .2-2.13c.49-.48 1-.92.87-1.65.17 0 .43-.29.39-.49-.14-.57.87-1.16.87-1.84.7-.9-.06-2.68 1.07-3.2.35-.38 1.66-3.24.87-3.3-25.57-1.18-51.4-4.32-76.83-5.43.35-2.51-2-1.78-3.29-2.52.52-1.62-1.07-2.2-1.75-3.3-.73-.35-1.4-.28-2.23-.68-.2 0-.2-.77-.39-1-.56-.17-1.29-.9-1.94-.58a2.1 2.1 0 0 0-.29-1.17.59.59 0 0 0-.19-.77c.54-.57-.2-1.15-.29-1.75a.9.9 0 0 0 0-1c.44-.81.65-2.13-.49-2.42a1.28 1.28 0 0 0-.78-1.26c-1.23-2.18-1.48-7.34-4.36-8.35-1.29-.06-1.73 2.19-1.36 3.3-1.79 2.91-3 2.35-1.07 5.92a4.66 4.66 0 0 0-.38 2.72c-.88.59-2.05 5.74-.49 5.23-4 2-40.74-2.34-36.57 2.14a3.32 3.32 0 0 0-.58 3.59c-.62-.09-1.8.46-1.07 1.16-.31 1.3.09.76.78 1.26-.45.32-.54.85 0 1.17-.1.29.19.48.48.67 0 .29.12.61.1 1a.47.47 0 0 0-.19.49c-.83-.13-1.07 1.1-.1.87-.27.12-.34.79.1.78.55 1.48-1.75 3.5-.59 4.46a1.79 1.79 0 0 0 .68 2.14c0 .3 0 .59.29.77s-.08.4-.09.87s.31.85.09 1.17c.17.59-.39 1.25-.09 1.74v.39a.1.1 0 0 0-.1.1 3.62 3.62 0 0 0-.29 2.13c-2.49 2 11.67.37 12.71 1.07 0 .22.12.54.38.49.16.68 1.3 1.15 1.46.29a.74.74 0 0 0 .68.38c.22.27.68.06 1 0 .19.18.46.08.68.1.11.34.57.29.87.29 0 .19 0 .46.19.49a1 1 0 0 0 .1.87 1.27 1.27 0 0 0 .49.87v.78c-2.3 1-3.54 5.83-.68 6.4 0 0 0 .1.09.1 0 .22 0 .41.2.58-.37.93 1 1.3.87 2-.55 1.13.76 1.65 1.36 2.23a1.25 1.25 0 0 0-.58 1.26 1.35 1.35 0 0 0-1.36.68 1.14 1.14 0 0 0-.87.87c-1.15 1.1-.15 3-.88 4.37-.76-.1-.89.3-1.16.87s-1.05 1-.68 1.65c-.62 1.12-1.41 2.17-1.26 3.49a1.38 1.38 0 0 1-1 .49c-.53-.07-.71.63-1.16.77-.28 0-.92 0-1 .39a1.49 1.49 0 0 0-.68.87v.1c-.38.24-.13 1.13.38 1.16a.65.65 0 0 0 .68.3.33.33 0 0 0 .2.09c.31-.11.38.47.68.49a.36.36 0 0 0 .29.09c.05.48-.1 1.22.48 1.36 0 .2.2.39.29.49s0 .45.29.48c0 .23-.28.76-.48.78-.56.08-.19.86-.29 1.26.71 2.81 6.07 11.93-.1 11.06 8.65 15.89-6.07 16.06 25.71 14.94.21.09.08.58-.1.77-.84.65.34 1.41-.87 2.23-1.84 1.26 0 2.52.68 3.88 1.53 2.7 2.86 5.48 4.56 8 .74-.26 1-.53 1.64.29a2.72 2.72 0 0 0 .59 1.94.2.2 0 0 0 .19.19l.1.1c-.08.31-.09.5.19.68h.1c-.74.57 1.08 2.77 1.36 3.78-.26.5.45.82.87 1.07-1.9 2.36-3.14 6.56-2.52 9.51a8 8 0 0 0-.88.87c-.24 2.7-4.32 10-1 11.06.22.07-1.13.44-1.64 1a4.41 4.41 0 0 1-.59 1.55 26.07 26.07 0 0 0 2.23 6.6c3 4.35-3.49 17.88 2.43 17.07.14.13.46.09.58.09 6.35.61 15.7-3.62 20.86 2.14l.09.1c.37.2.69 1.19 1.17 1.16 2.25 3.73 3.46 8.24 2.62 11.93.26 3.63 4.5 8 7.85 6.31.52 0 1.08-.47 1.56-.59.26.15 1.11.12 1.06-.38a1.14 1.14 0 0 0 .78.29.65.65 0 0 0 .68.39c1.39.22 1.14 1.31 2.33 1.55a1.2 1.2 0 0 0 0 .32c.77-.64 2.28-1.01 2.5-2.09Z"/>
    </g>
</svg>