<svg id="mapa-geral" xmlns="http://www.w3.org/2000/svg" viewBox="0 0 1072.9 711.41">
    <style>
      .regiao { cursor: pointer; transition: opacity 0.2s ease-in-out; }
      .regiao:hover { opacity: 0.7; }

      /* Cores de cada região */
      #regiao_01 { fill: #f18637; }
      #regiao_02 { fill: #fecc2c; }
      #regiao_03 { fill: #a13a8e; }
      #regiao_04 { fill: #29addd; }
      #regiao_05 { fill: #5ca67b; }
      #regiao_06 { fill: #bc1f2b; }
      #regiao_07 { fill: #d1af6c; }
      #regiao_08 { fill: #93d5f5; }
      #regiao_09 { fill: #c4d179; }
      #regiao_10 { fill: #f2929e; }
      #regiao_11 { fill: #a88aac; }
      #regiao_12 { fill: #82bb26; }
      #regiao_capital { fill: #7d806a; }
    </style>

    <g id="regiao_12" class="regiao">
    <path d="M1062.72,173.29h5l5.21-8.79-1.74-8.47,1.75-8.74-5.42-3.56-.27-1.51-4.78,1.43-1.91-10.12-5-1.65-5.38,3.08-10.07-9.08-6.62-.95-3.65,3.53-5.18-1.68-1.87,3.25-3.45.06L1019,132l-4.85-.12-1.28-1.94-3.45,3.45.22-1.57h-3.87l-.28-.27-4.8-4.88L999,128.3v-1.46l-5.2-1.93-3.58,5.26L987,128.34l-.39,2.25-.8-1H984.2l-2.57-2.66h0l-.57-.56,0,0h-2.79L977.1,125l-1.09-.74-.48-1.16h-3.78a9.1,9.1,0,0,0-.49-1,5.4,5.4,0,0,0-.49-.75.87.87,0,0,0-.59-.38h-6l-2-.93h-1.29l-2.2-1.7h0l-1-.72H954l-.24,1.17-2.93.27-4.36.29-.28.92-3.48.19-1.48.74-2.2-.09-1.48-.28-3.57-.48-.66,6.59-6.79,5.52-1.23,4.3-5.42.49L915,141.6l-13.75,9.33-.19-.6v.74h0l0,.06v3l-10.37,3.42-.12,5.09L884,159l-.3,3.63L878.82,159,872,162.76l-3.37,3.18-3.46-1.48,0,0-3,1.8c-3.89,2.34-4.49,2.73-5.49,3.29a53.79,53.79,0,0,1-6.5,3.1l-.06,0,0,.05-.93,2.8,0,.08.07.05,17.54,14.72-8.55,1.31h-.06l-.28.05h0L836,196.73l1.69,2.59-1.47,6.11-12.64,10.69v6.51l-8.26-.12-10,5.51v39.67h1.38l-1.38,2.92v3.67L801.62,276l-1.69,5.33-3.57,3.48,5.2,13.87,3.75,5.08,12.1,1.8L817,302l2.07-.08v3.09l1.37,1.36,11.79,2.44,12-3.44,2.22,3.43h21.82l-2.89,5.06L865.21,324l0,0a11.22,11.22,0,0,1,.56,1.17,6.48,6.48,0,0,1,.56,2.25,1.22,1.22,0,0,1-.92,1.37l-.09,0-.13,5.5-11.42,9.34-.85-.61-3.45,1.47,3.41,3.66-1.48,3.33,5.27,10.3h3.36l4.87-5.61,5.64-4.29,6.67,3.57,3.64-.13,1-.21q-4.87,6.81-9.73,13.63l-.11.15.18,0,32.37,8.61L909.8,381q2.48,4.92,4.94,9.84l-5,3.59-.07,0,0,.09c.6,1.75,1.19,3.5,1.79,5.26v0l.05,0,3.13,1.73v1.83l.17-.07,15.55-6.4,5.94-1.92,30.79-8.44,26.57-7.36L1015.1,371h0l11.76-7.56h0l.39-.25h0l7.11-5.15,16.56-9.12,13.26-7.47,5.06-12-1.5-13.81L1066,306l-.37,0-9.91-40.57,1.5-22.65,1.49-9.12v0a5,5,0,0,0-3-3.9,10.49,10.49,0,0,0-4.37-.84,15,15,0,0,0-2.15.15l-7.15-16-.24-10.48,13.63-15.73ZM953.14,194.67h0v0Zm72.58,91.18Zm0,0Zm-4.92,79.34h0l-2.28-1.19Zm-32.79-8,.92,1.58-1-1.61Zm20.46,8.93a1.7,1.7,0,0,1-.82.74Z"/>
  </g>
  <g id="regiao_11" class="regiao">
    <polygon points="671.57 303.86 664.8 298.34 667.45 295.59 667.81 295.21 667.88 295.14 666.51 293.15 668.14 291.4 659.84 282.85 663.92 279.59 660.93 279.59 628.36 294.89 630.09 296.9 621.73 298.35 604.77 303.67 569.12 322.19 547.96 327.41 539.39 336.17 524.22 342.87 517.26 348.07 515.81 348.11 514.4 347.09 514.33 347.18 512.21 349.61 513.27 351.2 512.23 362.09 523.55 362.09 522.1 366.08 527.27 375.49 516.08 379.16 510.43 379.16 502.27 396.05 506.74 394.79 511.86 401.65 508.89 409.63 510.22 413.46 514.72 415.07 510.53 418.17 511.93 420.37 503.72 423.31 501.77 427.08 507.01 428.92 508.69 432.16 505.48 432.16 510.29 435.76 505.26 438.95 507.02 442.47 505.47 445.88 506.81 445.88 505.23 452.48 508.58 459.32 508.62 462.54 510.35 466.2 515.43 464.7 522.34 467.96 532.41 461.35 539.03 462.83 544.79 462.83 549.74 461.3 549.74 456.27 554.95 454.41 554.95 452.56 566.92 449.38 565.23 445.99 568.54 443.97 568.54 442.19 576.3 443.91 576.77 444.02 576.82 444.03 589.33 435.52 589.33 430.38 592.7 428.47 589.37 425.14 594.57 418.34 593 415.25 593 411.32 604.66 404.68 604.66 399.66 608.33 397.99 608.33 396.48 611.05 396.48 611.49 396.48 611.59 396.48 613.37 389.59 620.19 393.21 627.11 387.79 633.61 387.79 637.28 386.05 635.72 382.42 632 382.42 630.23 377.39 621.73 377.39 620.32 375.36 623.53 368.77 628.46 367.2 623.42 365.13 622.2 363.53 625.06 360.44 632.28 356.8 628.84 351.58 633.83 351.8 634.09 346.45 630.14 346.45 635.7 338.01 642.37 338.01 646.21 335.74 647.86 332.8 644.48 332.8 646.24 330.87 644.39 329.2 651.24 323.84 649.24 318.61 651.25 316.07 649.3 313.78 660.55 307.73 671.57 303.86"/>
  </g>
  <g id="regiao_10" class="regiao">
    <path d="M380.1,438.53l-3.41-9.47-1.42,1.25,1.65-6.61,43.29-10.07L406.35,399l-10.83-44.07-6.26,3.6-12.09.09-1.9-3.72-3.45,3.65-10.28,3.41-1.5-1.45-3.6-1.89-1.73-5.35H352.8L351,358.58l-3.48-.14v1.76l-1.39,1.59-.13-3.22-6.77-1.79L334,358.61l-1.57,3-1.71,1.93L329,358.34l-7.09,1.93-6.84,5.18-8.21-5h1.39L306.89,355,284.62,365.2l-9,.09L274,368.8l-25.63,8.66-.06,1.62-6.77,3.42-7-3.56-3.27,3.57-8.73-.12L217.79,389l-.12-3.05-4.44-.08L212,389.36l-3.42,0,.18,6.82-3.21-.12-1.71,1.71L200.24,396l-.06,5.29H193.3l-3.49,3.62.23.05,8.24,1.64-1.66,5,5.23,3.55V422l-3.24,1.53,3.24,3.6v1.75l7.25,1.91,1.32-1.88,5.73-.19,17.91-7.94v1.43l-10.22,8.36L219,442.67l22.16,6.77L222.59,465l1.2.73h0l.13,0a4.29,4.29,0,0,1,3.63,4v0l5.42,5.43,3.41-3.53,6.65,8.57H265.5l13.77,3.48,1.83-3.28V477l3.37.14,5.06,3.23,3.34-1.67,3.18,3.23-5,3.39v3.55h8.63L303.2,494l1,7-.16.12.15.2.05,0,.42,2.85-7,1.94-1.26,4.9-10.56,5.33,7,5.06-.05,5.07,8.17,1.7h3.83l1.72,1.53h3.67l1.61-3.3,8.64-10.1v-3.73L332.53,516l1.64-6.71,7.32-7.08h0l9.37-8.82,10.38-16.1,1.92,4.85,5.21-20.79,1.68-1.59,3.44,1.68,3.45-3.55.19-3.42,2.21-1.17,1.13-.71-3.5-4.44,4.94-7.16Z"/>
  </g>
  <g id="regiao_09" class="regiao">
      <path data-name="regiao_09" d="m339.33 543.51 1.85-8.32-3.26-10.4 2.71-3.45.64-3.44-2.1-2.1-3.5 1.99-3.18-1.83-12.34-3.81v3.97l-8.6 10.07-1.56 3.18h-3.41l-1.72-1.53h-3.96l-13.76 10.76-.95 8.9 6.49 2.94-6.79 6.37-10.07 3.35-3.53 5.58-7.05 1.53 1.56 1.75-8.43 9.32v2.65l-6.7-.45-5.06-6.56-3.43 1.85-1.87-3.26-10.19 6.45-3.14-1.66-10.33 1.77-7.2-5.05-6.23 4.67-5.65 5.59-1.51-.04-3.66 8.61-3.04-1.68-7.02 1.72-6.67-5.07 1.62-12.19h-3.46l-3.21-6.75-9.03.14-3.3 3.17-1.45-3.36h-1.47l-1.93 1.32v-2.87h-2.26l-13.27 5.09-10.57-1.78-5.2 5.21-8.31 4.82-3.31-4.53v-3.9l-1.63-3.36h-3.65l-10.3 6.83-3.42 5h-2.05l-4.57-1.68-10.5 1.78-7.26 7.35-9.88 1.03-3.34 5.37-6.84-1.62-8.93 3.62-1.42 2.94-1.84 6.72-10.18.34.12 3.28-3.67 1.88 3.54 3.68-3.44 10.45-1.82 1.42 1.77 1.9-3.71 6.56 1.85 3.45-1.73 1.73 1.49 5.34-1.47 1.6v1.49l-1.62 1.73.03 5.18-13.73 5.01L0 666.58l1.68 3.54-1.66 3.51v1.63l1.71.19 1.86 4.93 9.99 1.74-1.69 1.78 5.03 5.13-1.35 1.88 6.6-1.84 5.04 5.13 1.87 10.09 4.79 1.6 3.82 4.01 7.11 1.51-1.68-1.94h1.83l4.63-4.94 5.15 2.05 3.37-3.55-.05 3.03 3.92.13-.06-1.52 1.67 1.5 3.19-3.31 3.34 1.34-2.07 4.13 3.94-3.8 1.76 3.52 3.04-.12-1.64 3.46 7.05-1.55 7.04-6.98-1.67-3.48 3.07-3.56h3.61l3.17-4.91 3.58-.17 1.84 3.62 1.83-1.97-10.54-8.94-1.57 3.72-8.68-1.77-1.56-1.44 3.71-3.58 3.15-6.88-10.51 1.54-.13 3.83-4.87 3.02-3.41 7.06-5.11 1.64 1.56 3.25-2.94-1.66 8.37-11.82 1.82-5.35-5.17 1.89-.06-1.75-3.59-.06-3.11 3.42-3.31.3-4.44 1.14 2.41-1.37.19-1.7 1.3-1.55 2.09-.18 3.45-1.76-1.8-.15.16-2.96 2.8 1.79 2.93-1.55-.99 1.51 3.35 1.68 1.82-5.2 1.94.07-3.4-3.73h-3.53v-3.49l-3.64 1.72-1.67 5.06h-1.57l-6.95 7.26H48l.31-5.45-3.47-3.17 5.06-3.62-3.09-1.74 4.72-3.19-3.16-3.54 4.87-3.58-1.6-3.28 3.46-1.79-3.42-1.68 3.18-13.4h1.97l-.32-1.85 3.62-3.35 5.21 1.81v-3.59l3.03 1.78 5.04-1.65.27 1.57 6.8-1.65-1.91 5.35 10.91-7.18 9.54-3.38 5.71 1.73 6.72-6.76 1.75 1.62 3.32-1.51v3.48l1.74-1.88 3.45 3.43 3.7-2.11-3.94-.26-1.11-1.44 3.31-3.27 3.53-1.83-5.06-1.65 3.03-3.14-1.48-3.57 3.2-1.72-.13-1.62 3.21-1.71-.12 1.51 5.56.26 3.04 1.78-1.77 3.53 11.41-7.28-5.95-1.9-1.5 1.66.05-1.31 3.49-1.74-1.49-1.65 1.27-.07 1.92 1.9 1.57-3.59 3.14 1.87 3.48-.06-1.86 3.34 1.33.05-3 1.49 1.7 3.3-1.49-.09-.11 2.15 7.41-1.71 2.49.17-3.28 3.1.27 3.36-5.3-.37.09 3.55-4.95.28-5.24 5.24 5.37 5.19 9.69-6.39 2.06-2.11 1.67 1.53-1.8 5.02 2.18.1 3.11-3.43 1.87 2.11 1.75-5.33 3.45 1.89 3.04-3.79 4.97 5.34 1.88-.18-.09 1.65-3.22 1.66-4.86 7.05 5.15 1.74 8.82-5.1 2.72 1.76-1.38 3.51 3.63-2.19v-1.27l3.28 1.45-1.47-3.45 3.21-1.6 1.51.09 1.98 1.59 6.6-1.51 6.94-5.62 1.86-4.65 3.44-2.14 1.52-3.52-1.29-5.06 9.89-4.88 1.36 3.38-1.6 1.56 1.63 1.86-5.21 5.16h7.41l-.09-5.07h3.36l.26-1.93 5.28-5.02 10.04-1.58 3.09-2.02 10.21 1.59-.13 3.61 1.75.13.19 3.42 7.28-3.42 3.23-.13-1.6-1.71 3.34-3.55-5.33-.07-2.11.62-1.77.1 4.24-2.49 1.55-2.85 5.07-1.95 5.75 1.88-6.1 3.17 3.92 3.71 6.6-3.73.12-1.56h1.43v1.74l5.4-.13v-4.81l12.08-4.09 1.67-4.73 19.08-1.67 1.52-3.46 4.69-1.48 7.03-5.53-4.92-20.28z"/>
      <path d="m54.73 652.78-1.58 1.59v3.88l3.65-3.51-1.97-2.05-.1.09zm18.38 21.03 4.61-2.27 4.87-3.08-2.14-1.86-.08.08-7.26 7.13zm36.42-51.17v-.31l.07-.05-.07-.1-.06-.11-5.18 3.3v1.94l3.66-1.68 1.69-2.92-.11-.07zm22.22-17.54v2.08l2.09-2.21h-2.09v.13zm14.13 16.95h-5.25l-1.77-1.77-.09.09-3.76 3.71 8.7-.19 1.84 5.2 2.07 2.07-1.84-5.46h1.75l-1.65-3.65zm86.9-12.19-.15.12-4.72 3.56 3.4 1.8 3.27-1.88-1.2-1.31-.6-2.29zm30.67-1.75-5.12 3.62 2.03 3.75 3.46-7.63-.37.26zm1.22 8.28 5.75 4.8 3.84 2.76 1.31 1.63-1.32 3.24-3.38 1.45-9.8-2.96-5.55-5.36-7.08 1.8-.02.05-1.81 3.71-1.8-.73-2.94 3.52-4.05 2.06 1.8 5.21 5.22 1.9 11.04-3.48 16.26-2.86 20.89-3.86v-2.07l-11.93-3.46-16.43-7.35zm-53.96 34.76-6.52 3.16 1.38-3.01-1.27-1.81 4.67-3.18-1.74-1.93-4.66 1.62-5.43 5.05-1.74-1.65.19-5h-6.87l-3.05-3.23.98-.06 4.21-2.15h-5.54l-.36-1.51-6-3-.66-.46 2.14-1.83-4.8 2.09 2.27.32-1.53 2.86-5.91 1.74 2.69.35 1.24 1.25-3.66 1.96-3.37 1.12-1.59.53 1.64.24-2.91 4.68-3.37-1.51.1-5.23-3.61 1.6.18 5.08-3.81.19v2.14l-1.24 2.84-3.85-1.65-.05.03-10.35 5.27 1.78 4.06 3.38-2.28v4.14l5.02-2.19-3.1 8.21 3.12 1.74-1.68 1.67h3.92l4.95-11.48 3.46-2.01 8.48 1.47 1.48 1.71-1.91 2.29 5.49-2.11v1.76l-1.82 1.54 1.91 2.01 12.13-3.36 2.99 1.5 3.83-1.87-1.42-1.75 1.64-1.43h3.17l3.26-3.16 5.51-.19 4.46 1.43-3.32 4.11 10.61-3.7 1.87-3.75-5.04-.29-1.97-4.98zm-13.67 20.17 4.13 4.72v-4.92h-4.31l.18.2z" data-name="regiao_09"/>
  </g>
  <g id="regiao_08" class="regiao">
    <path d="M910,394.55l5.11-3.65L910,380.81l-5.31-3.5h0l-32.13-8.56,9.86-13.8-5.07.26-6.74-3.62-5.79,4.4-4.81,5.56-7.91.37-11.61,4.76L833,358.31l-3.73-.13-5-5-2-.25-3.1-1.39-4.92,4.73-8.71-1.74-.05.07-2,3.5-4.9,1.7,1.5,10.83-3.24,3.06-3.15-2.05-12.52,9.16L763.82,384l-1.33,5.86v4.46l-7.33,1.58h-5.6l-4,1.69-7.25,7.44L735,406l-8.48,7.17-1.85,3.4-3.35,1.74-1.88,3.56-3.52,3.4,14.07,7,1.52,6.58-1.54,1.6-.13,2.21,1.64,1.58L728.23,449l5.27,2-.25,5.13h5.32l3.09-1.85,7,1.88,1.75-5.3L754,451l1.86-1.67,5.2-.09-1.86,8.56h4.27l4.25-1.57,3.68,1.64-.19-3.42h.1l.37.3h0l3.95.94,3.1.47,5.73-1.56-3,3.08,1.57,3.51-3.26,1.58,1.73,4,10.22,9.76-.18,6.86,3.93,8.64,3.63-7,4.74-1.46,3.5,1.84,10.54-13.86h5l3.82-4.24,3-6.09,4.59-4.55,4-4.18h0l13.45-8.21.32-3.72-1.84-1.77,1.8-3,22.13-15.68,40.79-16.8.08,0v-1.88l-3.25-1.78Z"/>
  </g>
  <g id="regiao_06" class="regiao">
    <path d="m510.59 379.41 5.61-.03 11.43-3.75-5.25-9.57 1.53-4.22h-11.4l1.01-10.7-1.07-1.64-.99-.19-.03-.01-6.32 2.38 1.71 5.16-8.18 6.65-3.63.06-1.67-1.71-7.15.1-4.99 1.5-3.37 5.18-5.15-8.4 5.34-5.06 1.7-3.21.2-5.31-7.54 1.42-3.27-3.46-8.3 3.39-1.99-1.56-3.22 1.67-6.96-6.84-16.85 3.44-5.42-5.13-3.93 1.78-3.17-1.78-23.97 15.45.02.09 10.81 43.97 13.48 14.21.14.19-43.03 10.02-1.89 7.53 1.75-1.54 3.29 9.16 1.73 2.36-4.93 7.17 3.31 4.52-3.1 1.64-.18 3.47-3.26 3.34-3.44-1.67-1.86 1.76-5.03 20.11-1.81-4.59-10.34 16.21-13.73 12.93 9.09 8.92-.19-9.13 8.54-5.01 1.61-3.41 5.13-.09 1.63-3.29 1.61 1.69 1.95-1.75 8.59-.1 5.37-5.18 4.63-3.41 2.05 1.74 6.48-4.98 7.22 3.41h3.17l7.06-1.74 1.45-3.62 2.14 1.94 10.08-1.57 8.43-12.24 21.86 12.17-1.64 2.95-2.62-1.57h-2.35l-5.37 10.12 2.13 3.78 8.43-3.02 8.73-.39 18.65-8.8 3.62 1.87 10.36-8.67-1.6-4.93 4.95-1.9 5.11-6.97 1.45 1.91 3.89-2.04-.04-3.33-3.34-6.82 1.64-6.81h-1.27l1.44-3.17-1.72-3.42 4.97-3.15-4.59-3.59 3.15.12-1.93-3.71-5.06-1.77 1.77-3.43 8.42-3.01-1.45-2.27 4.38-3.23-4.82-1.74-1.27-3.62 2.99-8.03-5.31-7.11-4.09 1.16 3.17-6.57 4.68-9.68z"/>
  </g>
  <g id="regiao_07" class="regiao">
    <path d="M930,117.58l.1-3H930l-5.31.28L921.68,113l-.24.39-1.78,2.76-2.94-1.29-5.13,0-.42-.55-1.61-3.27-.06.07h0l-3,3v-.85l.08-1.61-3.58-2.22-2.17-3.31-.29.07-6.42,1.38-3.35-3.15h-8.48l.2-1.31,0,0v0l-1.55-2-.09-.5-.17-1.45-.08,0v-.09l-3.53,1.89L872,95.93l0,0v0l-3.74,1.56v1.59l-1.39,0h-1.53l-.09-2.84h.1l3.68-.34-4.65-2.25-1.58-.5-2.37-.83,4.87-6.52h0l0,0-2.36-2.46-.93-1V79.15l.92.49,2.24,1.24,0-2,0-.35-1.69-4.63,3.28-3.11.2-.18h0l.07-.07L863.51,67l2.66-4,.85-1.29h0v0l-1.63-8.56-2.89-3-1.09-1.14v-.06L860,44.44h2.23l1.32.07,0-.07h0l.63-2.49,1.16-4.32-.07-.05h0l-.1-.09L863.57,36l3.49-7-3.63-1.72-.09,0h0l-5,3.11,1.09-10,.56-5.08h0V15.2l-5.16-2.5L850,10.31l.23-.17-10.61,2,.18-.25,1.36-1.67h-5.3l-.06-3.4V6.67l-1.07-.3-3.79-1.31-.26-.83L829.56.06h-.17l0-.06L823.7.06h-.09l-8.43,10.13-.66-.17-5.81-1.51,0,.05h0L805.2,19.29l3.33,1.65-.17.17-8.06,7.83,0,0-.07.07,1.53,2.06.07.09-3.47,4.88-2,7-3.41,1.77,0,0h0l0,.11,1.23,2.69L783,44.75l-12.31,3h-8.36l-5.88,3.66.06.1,0,0,.88,1.65h-3.56l-.16.13h0l-1,.74-5.52,4.16v1.47l3,3.9,15.73,8.54v3.16h-5.46v0h0l0,2v1.77l-4.58,4.58-.13.47L755.2,86l-2.28.64-.8.21-1.69,5.41h-7.25l-1.38,7.08-6.95,8.46,0,0,0,.1-.06.06-1.76,5h-.48l-1.29-.07.73,1.57,2.72,5.89-.1.36-1.22,4.54.08,0v.06l2.92,1.44L735.17,129l-.53,1,0,0,0,0,1.7,4-9.91,8-.68,2.87-1,3.81-1.37,3-.38.77v0l3.43,5.32-1.89,1.55,0,0-.08.07,1.76,1.52-1.61,3.35-1.73,2.3-3.68,4.88,3.37,1.69v1.35l-2.76,1-2.09.76-1.56-.81-2.09-1.15-1.65,3.67,0,0v.12h0v3.69l-3.82,8.58,2.73,1.65,2.58,1.59v1.49h0l.06,0,4.82,3.44-.75,1-.52.67-1.78.58-3.49,1,0,.19h0l-1.44,6.69,0,.17h-6.62V214l-.66,1.14-1.52,2.43-5.1-.06.07.13h-.06l1.83,3.74L697,222.52l-3.71,2.38-2.07,2.73-.31.39,0,.1-.26.34-3,5.33-.85,1.51h0l0,0,4.5,1.69-.81.59-3.69,2.56.07.09h0l1.14,1.36.36.45h0l0,0,5-1.39,1.58,6.52h0l0,.08,10.42-3.25,2.11,2,2.83,2.72.35,3.93,2-1.84,1.41,1.33,1.51,3.88-1.57,5h1.32l0,0,.11-.07h.14l4.36-3.05,2.73-1.86L731,279l12.89,21.67h5l.05-.06H749l.43-.71,1-1.39-1.59-3.38,2.33.5,4,2.67,1.36-2,.82-1.13,0,0,0,0-3.19-3.73,3.09.52,3.12-4.78.59.39,1.5,1.09,0-.07.1.07.77-2.15L764,285l7.2.18h.13l.39-.13,1.15-.28,0-.08.18-.06-2.2-3.08,4-3.16,1.21,1.75.7-1.25,2.69-4.48,5.21,1.54v0l.08,0-1.82-3.51,10.61-6.58.41.56.87,1.49.18-.09.21.27,7.1-3.58,3.24,3.36v-.45l.06.06V228.17l9.59-5.16,8.64.18v-7.05l12.67-10.32,1.32-6.52-1.52-2.4,22-4.93,9-1.5-17.92-15,.85-2.55,1.77-.84,4.36-1.86,9.07-5.36.07,0,2.74,1.46.22-.19.22.1,2.57-2.43,1-.88,4-2.24,2.51-1.38,5,3.72.1.07h0v-.24l.29-3.47,6.65,3.67v-.22l0,0,.25-5.08,10.25-3.48-.06-3.06,18.79-13.79,5.48-.53,1.16-4.36,6.77-5.34.69-6.79Zm-205,144.25,6.45,17.33,3.39,5.86-3.66-6.15Zm80.18,5.43-.78-.81.78.74Z"/>
</g>
  <g id="regiao_05" class="regiao">
    <path d="m865.71 313.9 2.94-5.18-21.8-.13-2.31-3.49-12.35 3.49-11.64-2.41-1.16-1.28-.09-3.1h-2.69l.51 3.37-11.7-1.69-3.59-5-5.09-13.48 3.46-3.69 1.67-5.19 3.6-1.64v-3.64l1.67-3.48-1.56.2-3.27-3.56-7.43 3.62-1.31-2.34-11.05 7.06 1.68 3.28-4.88-1.52-3.3 5.53-1.08-1.63-4.39 3.51 2 3.08-1.34.39-7.3-.32-1.55 3.61-2-1.52-3.05 4.84-4-.6 3.67 4-1.88 2.89-3.69-2.46-3-.61 1.81 3.65-1.28 2h-4.84l-12.81-21.53-3.75-10.33-4.64-12.9v-.08l-7.2 5.12-9.7 4.91-6.54 3.28-5.76-.93-3-.54h-.31l-5.53 1.84-1 1.13-2.19 2.45-18.61 6.89h0l-3.64 3.07 7.41 7.63.83.91-1.19 1.4-.33.36h0l0,.06 1.06 1.43.33.48-3.13 3.25 6.63 5.4-3 1.05-7.2 2.49-4.35 2.24L649,313.63l-.14.08h0l.12.11 1.8 2-1.38 2.33-.47.7v.06l.41 1 1.45 3.9-2.52 2-4.25 3.23.06.05-.11.09 1.76 1.58-1.89 2.28h3.47l-1.4 2.56-2.76 1.63-.91.52h-6.71v.05l-5.78 8.77h.25l-.08.12h3.82l-.11 4.84-5.21-.19 3.53 5.36L625,360.1l-3.16,3.41v.07l-.06.06 1 1.16.4.53h.08v.07l2.12.82 2.22.92-2.59.82-1.88.58-3.13 6.85 1.51 2.22h8.52l1.67 5 3.86.09 1.29 3.17-.57.32-2.71 1.29H627l-6.73 5.25-7.19-3.73-1.69 7.2h-3.35v1.64l-2.28 1-1.35.52v5.13l-4.27 2.51-7.46 4.08.06 4.29 1.41 2.94-5 6.72-.1.12 2.61 2.61.59.64-.43.28-2.73 1.54v5.17l-12.31 8.37-8.48-1.88v1.95l-3.39 2.07 1.66 3.31-11.86 3.15v1.87l-5.22 1.87v5l-4.73 1.46H539l-2.46 1.63-.48 3.74 5.08 6.81 3.3 1.7-.08 1.83-1.6 1.65 1.75 5.72 6.79 8.09-4.89 6.59-5 1.5-2 5.52 3.35 5.17-1.82 5.49 15.64-5.18 15.78-.06 11.48 13.62 14.77-7.18 1.31-1.4v-3.3l10.08-2.14 8.78 5.33 8.58-6.94 6.38-3.07-10.06-21.34 5.17-4.07 1.52-9.82 3.33-.87.15-5.25h3.36v-3.5h4.2l6.7-5 3-.18 8.35 3.74 5.28-3.63 13.76-2.88 3.77-.8h5.14l1.09-1.44 4.23 3.67 1.86-2.13.82 1.88 4.25-3.44 2.45 1.76 10.46-5.19-3.28-3.37 8.68-7 8.45-1.44v-1.8l5.33 3.52-1.5-7-13.92-6.9 3.11-3 2-3.76 3.31-1.66 1.87-3.42 8.62-7.23 3.17-.75 7.36-7.45 4.14-1.75 5.08.06 7.75-1.7-.07-4.74 1.29-5.56 17.07-3.1 12.6-9.14 3.26 2.05 3.43-3.23-1.49-10.82 4.88-1.56 2-3.6 8.67 1.72 4.88-4.67 3 1.4 2 .18 4.82 4.88 3.84.18 7.44 8.52 11.64-4.77 5-.34-5.24-10.46 1.51-3.36-3.27-3.51 3-1.26.79.52.07.05 11.6-9.45.12-5.48a1.31 1.31 0 0 0 .48-.24 1.8 1.8 0 0 0 .56-1.44 8.38 8.38 0 0 0-1.1-3.54Zm-205.88-31.06.09-.06 2.06 2.27Z"/>
  </g>
  <g id="regiao_04" class="regiao">
    <path d="M301.23,527.9,293,526.19l0-5-6.77-4.9,10.29-5.19,1.25-4.88,7.12-2-1.37-9.37-.14-1v0l-3.64-5.29h-8.51v-3.16l5.15-3.5-3.52-3.56-3.37,1.68-5-3.19-3.7-.15v3.45l-1.71,3.29L265.53,480H243.19l-6.75-8.7L233,474.87l-5.18-5.18a6.08,6.08,0,0,0-.59-1.92,4.11,4.11,0,0,0-3.24-2.29l-1-.53,18.69-15.61-22.34-6.83,4.69-11.76,10.26-8.39v-1.93L216.1,428.5l-5.81.19L209,430.53l-6.9-1.81v-1.65L199,423.64l3.08-1.45V415l-5.19-3.52,1.7-5.08L190,404.66l-3,1.78-3.83-.1-5,5.12-3.45-.09-1.92-1.44-1.49,1.76-1.73-7.83-.14,2.64L162.79,405l-8.2,4.69-.27-1.57-3.47,1.63-7.27-1.68L137,413.26,135.41,410l-7.15-1.88-10.17.22-1.73,6.7-1.68-.12L96.09,429l-2-.26-1.7-1.7-5.23,1.68-4.93-3.35L75.11,427,61.79,442.45l-1.66-1.71H49.59l-5-3.58-5.16,3.61-5.36,0L22,446.22l0,0-1.37,3.51,15.57,1.31,2.94,3.31,7.4,12.21-2,3,3.36,5.5-1.53,3.56h5.25l3,3.32,5.13,3.49-3.51,7.12,5.44-3.66,4.89,3.35-1.48,10,3.36,3.74,3.72-1.77,3,3.6,2-3.36,5,4.84,3.72-6.88,3,3.38,3.75-1.31,4.69,3.07-1.57,3.24L98.11,513v-1.82l3.06.26,1.63,3.07,3.58-3.58,3.2-6.51,5.16,3.22L125,502.77l8.72,1.63L130.28,499l5.07-3.17,8,1.51-3.25,1.81,3.49,1.84v5.17l3.75-.2-1.43-3.44,3.06-3h.87L161,502.75l3.42,3.42,3.46-3.65,5.36,3.51,6.57-1.48,1.59,3,3.44-1.49,1.73,3.18,5.06,3.32-1.69,3.84,5.54,1.89,3.16,6.68-4.73,3.12,1.5,2L192,533.58h-5.17v4.47h-6.64l-3.78,5.43.11,1.64h-3.29l-1.91,3.32v5.46l4.88,1.81-1.57,1.57-3.51,1.83-3.26,6.74-3.14,1.49,0-1.56L161,564l-4.92,5.16h1.56l1.52,3.54,3.5-3.35,8.76-.14,3.21,6.75H178l-1.62,12.22,6.91,5.06,7-1.72,3.2,1.76,3.7-8.7,1.58,0,5.4-5.52,6.25-4.69,7.14,5,10.34-1.77,3.2,1.69,10.09-6.39,1.86,3.25,3.46-1.87,5,6.48,7.08.48V579l8.51-10-1.42-1.6,6.73-1.45,3.54-5.6L286,557l7.11-6.67-6.67-3,.92-8.61Z"/>
  </g>
  <g id="regiao_03" class="regiao">
      <path d="m788.12 608.69-1.39 3.19h5.64l3.17-3.51-1.78-3.6-5.64 3.92zm2-7.11v2.06l2.11-2.02-2.11-.17v.13zm3.53-20.63h-2.44l.12.19 2.32 3.83v-4.02zm10.2-6.88-.97 1.57-.9.15h-.05l-.65.94 1.03 1 .76-1.51 2.72-.06v-2.15h-1.91l-.03.06z" data-name="regiao_03"/>
      <path d="m822.84 543.35 1.75-1.9-3.77-1.59-1.75 4.89-6.86.25v3.35h-3.56l-5-3.68-3.41-6.5h-4.67l-3.72-5-3.22-27.61 1.84-3.68c.15-.21.53-.91 1-1.89 1.51-2.91 4.08-8.09 4.08-8.09v-.05l-3.83-8.41.18-6.92-10.26-9.79-1.62-3.78 3.26-1.58-1.59-3.57 3.5-3.61-6.85 1.73-7.19-1.7-.2 3.31-3.3-1.52-4.32 1.59h-3.91l1.86-8.57-5.61.1-1.86 1.67-3.73-.16-1.73 5.26-6.73-1.9-3 1.83h-5.06l.24-5.05-5.15-2 3.2-4.67-1.71-1.65.12-2 1.62-1.69-5.56-3.75v2.08l-8.32 1.46-8.88 7.19 3.23 3.32-10 5.11-2.62-1.88-4 3.32-1-1.9-1.9 2.29-4.35-3.73-1.1 1.54h-5l-17.73 3.74-5.18 3.51-8.34-3.52h-3l-6.71 5H637v3.53h-3.42v5.25l-3.46.92-1.62 9.9-5.13 4.13 10.17 21.14-6.23 3.06-8.76 6.78-8.65-5.07-10.33 2v3.4l-1.31 1.41-14.54 7.27.12.12 10 10.34 4.16.13 1.36 9.88 3.74 2-3.69 7 8.39 1.23-3.11 3.59.13 3.09 3.14 2.18-4.35 3.32 7.91.63.12 2.74h-4l-9.76-.25-1.88-1.57-3.48-.13-5-3.38-5.09 3.11-2.71-1.47-9.36 1.62-13.27 5.08h-10.54l-19 6.74V586l-18.75 15.51v1.63l3.59 1.92h.05l5.13-1.48 14.87 1 6.44.47 17.05-2 27.73-3 12.43-.18 3.62 2.28 3.57-5.65 11.11-1.85 74.23.13h21.17l53.9 4.62 7.5.84 8.61 3.32.62 2.11 2.87 1.37 1.83 3.52 1.94-3.73-3.13-.2-.15-3.15 1.45.09.16-1.63 3.34 1.77 2-4.06-3.12.14 2-2.43-6 3.88-1.6-1.34 1.67-3.35-3.5-.16v-3.11l1.58-10.47 3.07-3.3 3.3 1.58 5.71-5.24-1.64-5.28 4.84-8.25 6.8-3.26 3.56 1.73.24-3.91 4.8-4.71 5.15 1.5 1.62-3 1.89 2.94.22-.12-1.85-4.66 3.36 1.33.4-2.1 2.82-3.08Zm-56 50.17-2.65 2.88-17.54-1.86-.25-4-2 1.47-.06 1.91-6.52-1.19-2.34-1a6.09 6.09 0 0 1 0-.61 2.86 2.86 0 0 1 .67-2.12h.05v-.11a2.06 2.06 0 0 0-.07-.58.84.84 0 0 0-.13-.31.46.46 0 0 0-.35-.17 1.23 1.23 0 0 0-.75.41l-1.44 2.78-4.09.18-1.87-.28a9 9 0 0 1-.87-.66c-.45-.38-.87-.88-.86-1.17v-2.2l.83-1.31v-.06a.89.89 0 0 0-.76-.39 1.64 1.64 0 0 0-.94.35 11.69 11.69 0 0 0-1.29 3l-.73 1.76h-.06a3.67 3.67 0 0 1-1.28.25 2.68 2.68 0 0 1-1.39-.38l-1.85-.88-5.24-.38-1.35-4.5 11.64-9.94 1.61 3.27 3.5-1.61 6.72 3.48v.08h.11l.14.08v-.11l6.87-1.82 5.32 5.41 6.57 3 10.54 7 8.12.05Z" data-name="regiao_03"/>
  </g>
  <g id="regiao_02" class="regiao">
    <path d="m611.55 569.45-7.3-.59 4.1-3.13-3.32-2.3-.12-2.87 3.35-3.86-8.5-1.25 3.64-6.9-3.84-2.02-1.37-9.97-4.27-.12-9.9-10.28-11.82-13.68h-15.63l-15.15 4.95 1.53-5.03-3.26-5.3 2.01-5.01 4.91-1.58 5.11-6.72-7.03-8.43-1.73-5.4 1.75-1.56v-2.09l-3.31-1.61-5.07-6.91.36-3.34 3.12-1.71-7.45-1.66-10.04 6.6-6.87-3.25-4.97 1.47-1.68-3.56-3.75 1.97-1.53-2-5.26 7.18-5.1 1.95 1.53 4.58.1.41-10.12 8.47-3.58-1.86-18.71 8.83-8.68.32.09.17 8.53 16.88-6.48 8.33-2.07 5.27 3.33 8.5-3.4 1.51 3.32 4.1 17.74-5.41 6.87 1.56 1.43-1.57 1.63-5.11 1.86 1.74v-1.96l3.17.12 2.02-3.36 4.83 3.49 6.96-.19 3.23 1.41-1.6 1.84 3.52 2.07-3.49 1.44 3.61 8.33-10.1 5.41-5.45 6.76v3.61h2.91l-6.35 6.72v3.46l-3.38 5.1-.02-.01-.03.1-.09.13.03.01-1.55 4.36.03-1.31h-3.88l.38.23 3.01 1.81-4.7 1.26 1.63 3.57-3.36 1.73 1.66 3.64 3.57-1.63 1.65 1.58 3.45.25 1.71 3.19-5.02 3.05-3.54-3.67-.14 2.02-3.63 2.12h5.24l.06 1.4 1.84 3.62 14.19 1.43 2.59 1.81v3.73l2.13-1.73 3.26 1.6 5.86-1.71-3.68-1.97v-1.36l18.75-15.51v-3.7l18.76-6.67h10.55l13.29-5.09 9.26-1.6 2.62 1.43 4.63-2.67.54-.37 4.98 3.34 3.47.12 1.86 1.49 14.09.25-.33-3.23z" data-name="regiao_02"/>
    <path d="m483.14 565.56 1.66 1.91h1.96l-1.8-2.11h-2.01l.19.2zm-1.79 8.52 2.03.35-.34-2.38-1.93 1.99.24.04zm5.26-27.16v-4.06L484 545.2l.01.07.58 3.45 2.02-1.8z" data-name="regiao_02"/>
  </g>
  <g id="regiao_01" class="regiao">
    <path d="m457.17 531.59-3.13-8.74 1.91-4.87 6.67-8.72-8.65-17.11-8.57 3.08-1.97-3.48 5.24-9.87h2.13l2.78 1.66 1.89-3.39-22.27-12.4-8.51 12.34-9.85 1.53-2.32-2.1-1.53 3.84-6.91 1.7h-3.09l-7.3-3.45-6.44 4.95-2.05-1.74-4.8 3.54-5.31 5.13-8.59.09-1.84 1.66-1.68-1.78-1.72 3.47-5.14.09-1.65 3.48-8.59 5.05.18 8.66-8.65-8.49-.09.09-3.38 3.38-1.64 6.95 3.37 1.94 3.45-1.97 1.88 1.87-.61 3.26-2.75 3.5 3.29 10.46-1.85 8.31 1.82 8.13h-.01l.04.16.02.09h.01l3.01 11.81-6.87 5.39-4.75 1.5-1.64 3.72 8.67-1.72 4.74 1.67 8.78-.09 1.41-6.83 3.65-1.74 23.65-3.08.31 3.18 5.13 1.57 3.26 3.63 8.94-3.46 3.07-5.39 5.26-1.48 16.92-3.53h7.18l5.06 1.99 4.05-8.07 4.38-5.61 3.85-2.05 3.08-3.27 3.43-.06 1.69-3.18-3.12-3.84 3.07-1.36z"/>
  </g>
  <g id="regiao_capital" class="regiao">
    <path d="m448.58 566.01 8.23-5.14 5.66 1.55 1.51 3.59 6.65-2.27-3.49-1.61-1.45-5.14 6.77-3.16v-3.61l-5.11 1.86.1-1.98-5.11 4.72-10.82-2.98-4.47 6.9-1.95-.28-1.69 2.28.07.08 5.1 5.19zm4.91 5.25 2.08-3.94-7.19-.14.04.16 1.75 7.02 5.19 1.85v-1.89l1.95-1.91-3.24-.1-1.99-3.21 1.28-1.23.13 3.39z" data-name="regiao_capital"/>
    <path d="m467.74 597.94-1.56.12 3.04-3.22-1.75-5.21 3.36-1.49.05-2.02-3.22-1.54-.14-1.86h-10.35l-1.71-1.8 3.73-5.19-8.82 1.71-1.66-8.46-9.32-8.03-.86.63-1.77-2.81-5.04-1.98h-7.25l-16.96 3.54-5.36 1.51-3.07 5.4-8.7 3.37-3.19-3.56-5.04-1.54-.32-3.27-23.95 3.12-3.79 1.8-1.39 6.76-8.54.09-4.76-1.68-8.5 1.69-19.15 1.68-1.69 4.76-12.13 4.11v8.89l11.4 12.89 22.14 17.53-13.75 2.8-24.94.5v2.12l22.92-1.88 5.03-.62 11.53-1.05h20.69l6.34 3.49v3.3h5.61v-3.52l3.17-3.35 15.32-5.06 3.61 1.74v-1.74l4.07-1.88 14.75-3.22h27.39l-6.63-5.59-7.55.25-1.01-1.59 3.06-1.75 8.36 3.56 5.4 6.79 5.15-4.93 8.55-.19 5.21-3.39 8.57 1.54 1.92-1.67-1.78-1.73 1.39-1.47 7.12-3.71v-1.72l3.17-1.49v-3.82l-6.4 3.34z" data-name="regiao_capital"/>
  </g>
</svg>