<?xml version="1.0" encoding="utf-8"?>
<!-- Generator: Adobe Illustrator 26.2.1, SVG Export Plug-In . SVG Version: 6.00 Build 0)  -->
<svg version="1.1" id="regiao_12" xmlns="http://www.w3.org/2000/svg" xmlns:xlink="http://www.w3.org/1999/xlink" x="0px" y="0px"
	 viewBox="0 0 1071.4 709.6" style="enable-background:new 0 0 1071.4 709.6;" xml:space="preserve">
<style type="text/css">
	.st0{fill:#82BB26;stroke:#FFFFFF;stroke-width:0.5;}
</style>
<g id="quissama">
	<path class="st0" d="M750.1,616.1l-6.7-3.5c0,0.6-0.2,1.3-0.2,1.9v5.3l-0.6-0.1l0,0h-0.3l-21.2-3.5l-0.2,0.2
		c-0.7,1.6-1.8,3.4-3.6,3.8h-0.5c-1.2-0.1-2.2-0.7-3-1.5c-1.1-1-2.5-1.9-3.9-2.5c-0.9-0.4-2-0.5-3-0.4h-5.4c-3.4,0-7.6,0.1-11,0.1
		h-1.2c-2,0-5,0-8.7-0.3h-0.5v-0.2l-12.4-20.9l-85.3-46l-35.7-19.2l-2.9,5.2l-1.8,3.6l-7.9,0.9l-0.3,13.9l-4.4-3.2l-3.4-2l-5.7,3.9
		l-6.2,4.5h-0.3l-0.3,0.2l-4.2,1.3l-8.6,2.9l-18.7,24.2l0,0l-0.2,0.3l-26.6-1.9l-24.2-1.5l-25.5,8.9c-8,11.2-16,22.5-24.1,33.7
		l80.1,21.4l0,0l13.1,8.7l0,0l12.4,24.9l0.1,0.2l-0.2,0.2l-12.4,8.9l4.3,12.8l7.8,4.3h0.2v4l38.2-15.8l0,0l14.9-4.8l76.6-21
		l66.1-18.3l53.1-20.6l28.3-18.2l-11.9,0.5l-0.9,2.7l-0.4,1.4l0,0l-0.2,0.6L750.1,616.1z"/>
</g>
<g id="sao_francisco_de_itabapuana">
	<path class="st0" d="M659.8,58.3l1.2,2.7c6.3,2.2,10.5,8.2,10.5,14.9c0,0.8-0.1,1.7-0.2,2.5v0.1l-5.9,4l-7.7,8.7l0.2,10l6.5,9.7
		l-0.3,51.7l-3.7,8.8l-1.2,7.2l-3.4,9.1l-0.2,12.4c0.4,1,1,2,1.8,2.8c1,1.3,2.5,3,4.1,4.8c3.2,3.5,6.9,7.5,9.4,10l2.8,2.8l0,0
		l1.9,9.1l0.5,38.2c2.3,0.5,4.5,1.6,6.3,3.2c2.8,2.1,5.6,4.4,8.1,6.9c5,4.7,9.5,9.4,10,10h21.4l1.5,5l-0.2,23l3,2.5h7.7l8.9,5
		l10.3,12.1l4.8,4.5l-1.4,3.7l0.7,0.9l16.7-16.7l0,0l0.9-0.4c0.5-0.3,1.4-0.8,2.3-1.4c2.6-1.6,5-3.5,7.2-5.7
		c6.5-5.9,10.3-14.3,10.4-23.1V297l25.9-19.7l-17.8-40l-0.6-26.4l34-39.3l18.1-34h12.4l12.7-21.3l-4.3-21l4.3-21.5l-13.4-8.8
		l-0.6-3.4l-11.9,3.6l-4.8-25.5l-11.9-3.9L823,43.7l-25.3-22.8l-16-2.3l-9.1,8.8l-12.8-4.2l-4.6,8l-8.4,0.1l-0.6,4.7l-13-0.3
		l-2.9-4.5l-9.4,9.4l0.7-5h-9.2l0,0l-0.8-0.8l-11.5-11.7l-4.8,4.8v-5.2l-12.1-4.5l-9,13.2l-7.9-4.4l-0.9,5.4l2.3,16.5L659.8,58.3z"
		/>
</g>
<g id="campos_dos_goytacazes">
	<path class="st0" d="M843.8,469.2L843.8,469.2l-3-0.3h-0.6c-2.7-0.1-5.3-0.4-8-0.9l0,0l-1.9-0.2l0,0l-1.7-0.6l0,0
		c-3.9-1.1-7.7-2.5-11.3-4.3l0,0H817h-33l-24.7-15.4l-2.8-9l5.6-19.9v-0.3l0,0V418l0.3-64.7l-6.2-8.3l0.2-0.2l0.2-0.2l-0.9-1.2
		l1.4-3.7l-4.5-4.3l-10.2-12l-8.7-4.8h-7.7l-3.5-2.7l0.2-23.3l-1.3-4.4h-21.2l0,0l-1.7-1.8c-1.1-1.1-2.6-2.7-4.4-4.5
		c-3.7-3.8-7.7-7.3-11.9-10.5c-1.7-1.5-3.8-2.6-6.1-3.1h-0.2h-0.3l-0.5-38.8l-1.8-8.9c-6-5.9-11.7-12.2-17.1-18.7
		c-0.4-0.5-0.7-1.1-1-1.8l0,0l0.2-12.6l3.5-9l1.2-7.2l3.7-8.8l0.2-51.3l-6.5-9.7l-0.2-10.4l8-8.9l5.7-3.9c0-0.2,0-0.3,0-0.5
		c0.8-7.1-3.4-13.8-10.1-16.1l0,0l-1.8-3.4l8.1-9.6l-2.3-16.2l-2.2-2.8h-4l-6.6-6.8l-1.3-1.3h-6.9l-3-3.4l-2.8-1.9l-1.1-2.7h-9.4
		v-0.2c0,0-0.3-0.7-0.7-1.7c-0.5-1-1-1.9-1.7-2.8c-0.4-0.5-0.8-0.7-1-0.7H609l-5-2.3h-3.3l-5.6-4.4l0,0L592.9,0h-8.5l-0.6,2.9
		l-7.8,0.7l0,0l-10.4,0.7l-0.7,2.3l-9,0.5l-3.7,1.8l-5.7-0.2L542.9,8l-8.2-1.1l-1.6,16l-16.9,13.8L513,47.5l-13.7,1.2l-11.9,10.7
		L453,82.9l25.4,79.3l67.2-24.3l0.4-0.2l26.5,29.6l0,0v5.5l0.2,11.7l9.5,6.1l13.4,17.7l4.7,18.1l1.2,4.7l-3.4,3.6l-17.7,19
		l-3.7,24.9l-13.1,4.7l-37.3,42.1l-4.1,4.3l-25.7-28.6l-9.7-10.7l-4,1.5l-7.7,3l-0.7,4.4l-0.6,3.9l-8.4,1.3L452,322.1l-39.2,3.7
		l-2.5,5.3l-3.4,7.5l0,0l-0.3,0.1l-26.3,13.6l-4.3,12l0.5,10.2l0,0l-4.8,7.6l0,0l-9.3,3.2l-13.9,4.7l-2.9,3.8l-3.4,4.4v8.6
		l-17.5-2.1l-13.1-1.6v1.2l-0.4,6.1l-12.4,0.9h-0.7l-14.3,24l-35.1,22.6v7.6l3.1,3.1l29,6l30.3-8.6l5.6,8.6h55l-7.6,13.4l-0.6,24.7
		c1.5,2.7,2.5,5.7,2.8,8.7c0.2,1.7-0.8,3.3-2.5,3.9l-0.3,13.6l-29,23.7l-2.2-1.6l-7.5,3.2l8.2,8.8l-3.7,8.4l12.8,25h7.7l12-13.8
		l14.4-10.9l16.8,9l8.9-0.3l3.7-0.7l25.1-8.8l24.3,1.8l26.5,1.6l18.6-24l0,0l0.2-0.3l8.5-2.7l4.5-1.5l6.6-4.5l6.3-4.4l3.4,2.5l3.4,2
		v-12.7h0.3V538l8.1-0.9l1.7-3l3-5.8l0.2,0.1v-0.1l36.2,19.7l84.9,45.7l0,0l0.3,0.5l1.2,0.6l11.2,19.3l0,0l0.2,1h29.2l7,4.1l3.6-3.3
		c0-0.1,0.1-0.2,0.1-0.3v-0.2h0.3l0.5-0.5l20.7,3.9c0.2-1.5,0.4-3,0.6-4.5v-3.6l7.7,4l0.2-0.7l1.1-3.8h13.3l18.5-13.4l41.3-22.7
		l32.8-18.5l12.4-29.5l-3.7-34.2l-4.1-23.3h-0.3l0,0H861l-6.3,0.8L843.8,469.2z"/>
</g>
<g id="sao_joao_da_barra">
	<path class="st0" d="M762.6,417.8v0.7l-4.7,18.2l1.8,9.7l24.5,14.9l32.1,0.3l0,0l0.9,0.4l11.3,4.3l0,0c1.3,0.3,2.5,0.6,3.6,0.8l0,0
		l8.5,0.9h20.2l-24.6-100.9l3.7-56.5l3.7-22.6c-0.6-4.1-3.2-7.5-7-9.2c-3.4-1.4-7-2.1-10.6-2c-1.3,0-2.6,0.1-3.9,0.2l-1.5,0.2
		l-25.8,19.7c-0.1,20.8-20.5,30.7-21.1,31l-16.7,16.7l5.8,7.8L762.6,417.8z"/>
</g>
<g id="italva">
	<path class="st0" d="M425.4,271.3l-18.6-69.5l-2.5-9.6l28-4.1l7.5,5.8l4.2,3.3l17.2-26.3l14-7l2.8-1.4L453,84.8v5.9l-25.8,8.5
		l-0.3,13.3l-16.7-9.1l-0.8,9.2l-12.7-9.4l-16.6,9.2l-8.6,8.1l-8.7-3.7l-7.5,4.4c-9.7,5.8-11.2,6.8-13.7,8.2
		c-5.2,2.9-10.6,5.5-16.1,7.7l-2.2,6.6l44.5,37.3l-22,3.4l10.5,8.3l33.6,26.5L425.4,271.3z"/>
</g>
<g id="sao_fidelis">
	<polygon class="st0" points="406.5,338 406.5,338 410.4,329.6 412.4,325.3 412.4,325.3 412.4,325.3 451.7,321.5 465.3,303.9 
		473.5,302.7 474.1,298.9 474.7,294.4 481.8,291.7 486.2,290 479.7,287.6 477.7,286.8 482.1,248.5 426.6,273.2 427,274.7 
		426.1,273.4 426,273.5 425.9,273.2 395.7,228.5 389.5,219.5 383.5,214.8 345.1,184.4 291.1,196.6 295,202.6 291.2,218.2 
		259.8,244.8 259.8,261.3 238.8,261 214.3,274.4 214.3,372.2 218.2,372.2 214.3,380.2 214.3,389.6 205.2,393.8 201,406.9 
		192.3,415.4 205.1,449.5 214.2,461.9 243.2,466.2 242.3,457.7 248.4,457.4 283.4,434.8 297.9,410.6 297.9,410.6 297.9,410.6 
		302.9,410.3 310.7,409.7 311.2,402.3 311.2,402.3 311.2,402.2 326.3,404.1 341.7,405.9 341.7,397.9 346.5,391.8 348.3,389.4 
		360.6,385.2 371.5,381.5 376,374.2 375.6,364.1 380,351.8 380,351.8 380.2,351 	"/>
</g>
<g id="cardoso_moreira">
	<polygon class="st0" points="482.8,247.5 482.8,247.5 482,254.9 478.4,286.4 483.9,288.5 487.1,289.7 487.1,289.6 487.2,289.7 
		487.9,290 487.6,290.1 495.4,298.9 522.3,328.8 527.2,323.2 563.2,282.7 576,278.1 579.7,253.4 596.8,235.1 600.7,231 599.5,226.4 
		594.9,208.6 580,190.1 572,184.9 571.8,173.2 571.7,167.5 545.6,138.4 545.6,138.4 478.2,164.1 477.9,163 461.3,171.4 450.5,188 
		443.9,198.1 443.9,198.1 443.9,198.1 436.7,192.5 432,188.7 405,192.7 426.4,272.6 482.8,247.5 	"/>
</g>
</svg>
