<svg id="regiao_02" xmlns="http://www.w3.org/2000/svg" viewBox="0 0 1071.39 709.6">
  <style>
    .bairro {
      fill: #fecc2c; /* Cor base da Região 02 */
      stroke: #FFF;
      stroke-width: 0.5;
      transition: fill 0.2s ease-in-out;
    }
    .bairro:hover {
      fill: #FFD700 !important; /* Destaque amarelo-ouro */
    }
    .bairro.selecionado {
      fill: #E44D26 !important; /* Laranja/vermelho para o bairro selecionado */
    }
  </style>

  <polygon id="tangua" class="bairro" points="594.79 570.38 596.65 571.87 610.37 572.11 610.09 569.37 602.35 568.74 606.69 565.42 603.55 563.25 603.43 560.16 606.54 556.57 598.15 555.34 601.83 548.34 598.1 546.38 596.74 536.49 592.58 536.37 582.75 526.17 581.55 529.47 577.76 539.85 577.76 539.85 577.76 539.85 575.2 539.73 569.59 539.48 567.64 541.61 568.5 543.35 569.12 544.6 570.94 544.41 570.99 549.77 574.66 549.62 574.66 549.62 574.67 549.62 574.35 549.85 567.7 554.8 579.65 554.8 584.67 558.43 584.67 558.43 584.67 558.43 581.33 563.56 591.3 570.26 594.79 570.38"/>
  <polygon id="mage" class="bairro" points="493.69 475.63 493.69 475.64 493.84 476.21 483.47 484.88 479.85 483.01 461.2 491.81 452.87 492.11 461.38 508.95 454.83 517.38 452.81 522.53 456.18 531.16 452.87 532.63 455.88 536.35 473.52 530.97 480.31 532.51 481.61 531.09 483.33 525.65 485.07 527.27 485.07 525.63 488.35 525.75 490.43 522.29 495.41 525.88 502.26 525.7 506.68 519.94 510.76 512.08 508.97 481.13 505.61 477.96 505.61 474.38 497.1 469.42 492.24 471.27 493.69 475.63"/>
  <polygon id="guapimirim" class="bairro" points="522.88 536.17 529.62 531.04 529.34 529.15 529.34 529.15 529.34 529.15 530.63 528.61 532.95 527.64 537.33 521.79 537.92 521 538 519.97 538.21 517.19 539.9 517.19 541.45 512.12 538.18 506.81 540.28 501.57 545.23 499.99 550.17 493.49 543.24 485.17 541.44 479.57 543.23 477.97 543.23 476.15 540.01 474.59 534.84 467.54 535.23 463.99 537.88 462.53 531.18 461.03 521.11 467.65 514.2 464.38 509.12 465.89 507.45 462.37 503.75 464.32 502.3 462.41 497.29 469.24 505.86 474.23 505.86 474.23 505.86 474.23 505.86 477.85 509.21 481.01 509.34 483.3 511.02 512.13 507.49 518.94 506.65 520.55 502.52 525.77 505.94 527.26 504.32 529.14 508 531.3 504.29 532.84 507.79 540.92 514.89 537.74 516.25 537.58 516.25 537.58 521.89 536.93 522.88 536.17"/>
  <polygon id="itaborai" class="bairro" points="570.85 512.41 555.38 512.41 540.1 517.41 540.09 517.44 540.02 517.44 540.02 517.44 538.44 517.44 538.24 520.11 538.16 521.09 533.11 527.85 533.11 527.85 533.11 527.85 532.46 528.12 529.62 529.31 529.89 531.15 529.89 531.15 529.89 531.15 528.97 531.85 521.99 537.17 516.25 537.83 516.25 542.74 529.93 548.07 529.93 548.07 529.93 548.07 530.82 553.03 531.43 556.42 534.86 560.1 536.58 561.94 540.58 561.94 545.42 575.22 555.86 575.22 569.14 570.14 578.5 568.51 581.08 569.92 585.58 567.32 586 567.03 580.93 563.72 580.99 563.63 580.99 563.63 584.33 558.5 579.57 555.05 566.95 555.05 566.95 555.05 566.75 555.05 573.85 549.9 570.74 550.03 570.74 550.03 570.74 550.03 570.69 544.69 568.97 544.87 568.97 544.87 568.97 544.87 567.34 541.56 568.61 540.18 569.49 539.22 575.06 539.47 577.59 539.59 582.56 525.97 570.85 512.41"/>
  <g id="sao_goncalo" class="bairro" data-id="sao_goncalo">
    <polygon data-id="sao_goncalo" class="bairro" points="529.71 548.25 516 542.91 516 537.86 514.96 537.98 512.46 539.1 507.78 541.2 497.63 546.65 492.27 553.3 492.27 556.57 495.51 556.57 488.83 563.64 488.83 567.07 485.46 572.16 502.18 576.38 505.55 577.23 505.55 577.24 505.61 577.25 510.92 582.25 516.19 580.75 516.19 580.75 516.19 580.75 519.71 588.8 521.2 585.73 525.19 584.44 526.34 584.07 526.34 581.96 545.17 575.27 540.41 562.19 536.47 562.19 536.47 562.19 536.47 562.19 534.71 560.31 531.19 556.54 529.71 548.25"/>
    <polygon data-id="sao_goncalo" class="bairro" points="484.99 566.9 483.62 565.29 482.27 565.29 483.68 566.9 484.99 566.9"/>
    <polygon data-id="sao_goncalo" class="bairro" points="483.53 547.92 485.13 546.49 485.13 543.1 483.03 544.98 483.53 547.92"/>
  </g>
  <g id="niteroi" class="bairro" data-id="niteroi">
    <polygon data-id="niteroi" class="bairro" points="483.52 577.48 483.51 577.67 483.38 577.59 478.73 578.84 480.33 582.36 476.98 584.09 478.43 587.28 481.93 585.69 483.63 587.33 487.13 587.58 489.02 591.1 483.62 594.37 480.33 590.97 480.23 592.55 477.28 594.28 481.84 594.28 481.9 595.86 483.66 599.31 497.78 600.74 500.53 602.65 500.53 605.99 502.37 604.49 505.69 606.12 510.87 604.61 507.6 602.86 507.6 601.23 526.34 585.72 526.34 584.33 525.62 584.57 521.38 585.94 520.02 588.74 519.7 589.39 516.05 581.05 512.25 582.13 510.86 582.53 505.43 577.46 492.58 574.22 485.34 572.39 483.52 577.48"/>
    <polygon data-id="niteroi" class="bairro" points="481.63 572.28 480.39 573.56 481.85 573.81 481.63 572.28"/>
    <polygon data-id="niteroi" class="bairro" points="480.59 575.63 483.27 577.24 483.31 575.63 480.59 575.63"/>
  </g>
</svg>