<?xml version="1.0" encoding="utf-8"?>
<!-- Generator: Adobe Illustrator 26.2.1, SVG Export Plug-In . SVG Version: 6.00 Build 0)  -->
<svg version="1.1" id="regiao_11" xmlns="http://www.w3.org/2000/svg" xmlns:xlink="http://www.w3.org/1999/xlink" x="0px" y="0px"
	 viewBox="0 0 1071.4 709.6" style="enable-background:new 0 0 1071.4 709.6;" xml:space="preserve">
<style type="text/css">
	.st0{fill:#A88AAC;stroke:#FFFFFF;stroke-width:0.5;}
</style>
<g id="teresopolis">
	<polygon class="st0" points="575.7,466 588.5,446.1 585.1,442.8 575.3,426.7 569.7,388 569.7,350.5 542.2,355.3 498.3,394.4 
		473,399.6 459.2,414.4 429.8,420.4 414.3,451.7 387.8,451.7 370.7,470.3 330.6,491.4 315.6,510.5 315.8,510.6 299.3,522.8 
		304.7,531.4 272.9,542.7 266.2,555.7 285.4,562.4 292.6,576.4 281.8,576.4 298.8,589.1 279.3,601.4 285.8,614.3 280.4,626.3 
		285.2,626.3 279,652 291.6,677.8 291.7,690 297.8,702.9 316.6,697.3 342.6,709.6 380.5,684.7 405.8,690.3 427.3,690.3 445.2,684.8 
		445.2,665.8 464.9,658.8 464.9,651.7 509.7,639.8 503.4,627.3 516.2,619.5 516.2,612.1 546.7,618.9 548.2,619.2 594.8,587.6 
		594.8,568.1 606.9,561.3 594.6,549 614.4,523.1 608.6,511.8 608.6,496.5 603.5,472.4 	"/>
</g>
<g id="carmo">
	<polygon class="st0" points="647,168.3 628.6,179.7 635.3,187 635.3,192.9 757.3,238.5 770.3,218.8 795.8,218.8 809.9,210.5 
		815.2,201 801.9,201 809.3,192.8 802.2,186.4 828.4,165.9 821,146.3 828.4,136.9 820.7,127.9 864.4,104.5 904.5,90.4 879.4,70 
		890.1,58.8 891.2,57.7 886,50.2 892.1,43.7 860.6,11.3 874.8,0 866.4,0 744.7,57.2 751.5,65.1 718.3,70.8 654.7,90.8 660.7,135.2 	
		"/>
</g>
<g id="sumidouro">
	<polygon class="st0" points="621.3,212.5 627.9,226.2 614.7,238.9 614.7,246.4 608.8,251.9 614.8,258.3 606.5,278.2 577.1,271.8 
		595.8,310.3 569.3,342.5 570.7,350.4 570.6,350.4 570.6,387.9 576.2,426.4 585.9,442.2 589.7,445.9 577.2,465.4 604.3,471.6 
		609.4,495.7 652.7,471 652.7,452 666.5,445.7 666.5,439.7 677.7,439.7 679,439.7 685.9,413.2 712.2,427.1 738.1,406.9 762.7,406.9 
		775.6,400.7 770.3,388.5 756.2,388.5 749.5,369.5 717.6,369.5 711.7,360.9 724.2,335.2 740.8,329.9 723.9,323 718.6,316.1 
		730.1,303.7 756.6,290.4 743.1,270 762.9,270.8 763.8,252.6 748.1,252.6 756.8,239.3 635,193.8 	"/>
</g>
<g id="sao_jose_do_vale_do_rio_preto">
	<polygon class="st0" points="370.1,469.5 387.4,450.8 413.7,450.8 429.1,419.5 458.8,413.5 472.5,398.8 497.8,393.5 541.8,354.4 
		569.6,349.6 568.3,342.9 563.2,343.8 542.1,347.5 532.7,347.5 501.4,363.9 454.1,394.6 445.8,380 453.8,349.4 446,330.4 
		432.3,330.2 414.3,336.3 401.2,322.8 387.6,329.3 362.2,310.7 348.2,310.7 342.7,325.7 362.6,361.9 319.1,376.1 298.2,376.1 
		268.5,437.5 284,433.1 304.1,460 292.8,490.3 297.6,504 314.6,510.1 330,490.6 	"/>
</g>
<g id="sapucaia">
	<polygon class="st0" points="362.5,309.8 387.7,328.2 401.4,321.6 414.6,335.3 432.2,329.2 446.7,329.5 454.8,349.4 446.9,379.8 
		454.5,393.3 501,363.1 532.5,346.6 542,346.6 563,342.8 568.5,341.9 594.7,310.2 575.4,270.4 606,277.1 613.7,258.5 607.4,251.8 
		613.8,246 613.8,238.5 626.8,226 620.3,212.4 634.4,193.1 634.4,187.3 627.1,179.6 646.2,167.6 659.7,135 653.8,91.2 519.7,160.9 
		439.9,180.5 407.6,213.6 350.2,238.9 323.8,258.7 317.7,258.8 312.8,255.3 305.5,263.6 309.3,269.3 305.5,309.8 347.9,309.8 
		347.9,309.8 	"/>
</g>
</svg>
