<svg id="regiao_05" xmlns="http://www.w3.org/2000/svg" viewBox="0 0 1071.39 709.6">
  <style>
    .bairro {
      fill: #5ca67b; /* Cor base da Região 05 */
      stroke: #FFF;
      stroke-width: 0.5;
      transition: fill 0.2s ease-in-out;
    }
    .bairro:hover {
      fill: #FFD700 !important; /* Destaque amarelo-ouro */
    }
    .bairro.selecionado {
      fill: #E44D26 !important; /* Laranja/vermelho para o bairro selecionado */
    }
  </style>

  <polygon id="cantagalo" class="bairro" points="661.96 279.78 658.97 282.41 665.83 289.97 666.91 291.08 665.48 292.63 665.29 292.85 666.2 294.18 666.68 294.82 663.66 297.94 670.34 303.54 670.33 303.54 670.34 303.55 666.66 304.81 659.71 307.23 648.08 313.46 649.83 315.1 649.85 315.06 673.94 349.1 682.19 339.25 699.32 337.58 702.62 333.85 704.23 333.85 704.36 332.62 707.73 332.31 708.63 329.8 708.25 327.07 713.05 313.33 718.58 316.91 716.78 318.51 716.99 320.2 720.26 318.75 723.67 321.91 726.98 314.92 727.06 314.92 728.02 314.92 726.8 313.59 728.83 304.93 737.1 304.93 742.54 300.24 729.81 278.76 726.07 268.38 721.51 255.81 714.72 260.66 704.93 265.55 698.42 268.87 698.39 268.87 698.29 268.87 698.29 268.87 698.26 268.87 697.7 268.87 692.38 267.9 689.42 267.42 683.81 269.22 682.89 270.26 680.74 272.76 661.96 279.78"/>
  <path id="nova_friburgo" class="bairro" d="M714.75,424.93l.31-.3c-2.46-2.19-7-6.44-7-6.44l-14.51,3.42-4,.31-32.89-22.73,1.38-3.26-3.37-5.33-11.51-8.26-5.69-1.74-2.84,1.68,1.49,3.46-.91.43-2.45,1.37-6.81-.06L619,392.9l-6.82-3.63-1.76,6.81,0,.08h-3.27v1.51l0,0v.17l-2.44.94-1.19.55v5h0v.09L599,406.89,591.76,411v3.93l1.58,3.08-5.11,6.69,2.36,2.56.88.89-.78.43-2.59,1.64v4.82l5,1.8.06,5.3h3.54v1.66l3.48,1.56,6.92-1.74,3.4,3.46,8-3.43,8.73-8.54,5.52,1.78,3.27,6.85-1.65,6.47h1.71l-1.39,3.3-5.28,5.65,1.26,1.6h3.59l1.68,1.49h4.19l6.7-5,3.17-.19,8.28,3.71,5.21-3.58,13.8-2.89,3.8-.81,5,0,1.18-1.55,4.24,3.69,2-2.24.85,1.93,4.13-3.35,2.49,1.78,10-5-3.24-3.33,9-7.23,8.3-1.42v-2.05l5.22,3.44-1.35-6.28Z"/>
  <path id="trajano_de_morais" class="bairro" d="M797.35,359.67l-10.11-4.84-14.45-.25-13.27-3.07v-5.28L750.73,348l-1.57-1.85-.25.7v-2.46h-1.67l-4.51-5.07-5.3,1.71-2.26,1.88-8-1.86-3.63,5-2-1.65-2.76,1.36,3,1.85L715,351.49l-2.12,11.87h0l-1,1.24v2.15H715v4.93L707,370.3l4.87,3.29-1.76,3.46h-1.58l-1.94,1.77,3.38,8.26v5.41l13.71,8.62-5,1.54-.31,5.44-11.79,8.15s6.13,5.85,8.72,8.14l2.85-2.66,2-3.79,3.3-1.66,1.86-3.4,8.7-7.29,3.16-.75,7.34-7.44,4.24-1.79,5.1.07,7.52-1.66-.06-4.56,1.33-5.75,17.18-3.12,12.61-9.21,3.25,2,3.19-3Z"/>
  <polygon id="sao_sebastiao_do_alto" class="bairro" points="729.02 305.18 727.08 313.52 728.37 314.92 730.48 315.08 735.78 321.99 728.75 334.16 725.64 334.16 727.19 337.67 727.19 340.76 735.1 342.59 737.31 340.75 742.81 338.98 747.35 344.09 749.16 344.09 749.16 344.21 749.16 345.36 750.79 340.79 760.81 332.51 759.59 328.97 759.19 325.51 762.91 327.31 764.51 325.71 759.28 318.43 766.54 320.34 766.54 314.82 769.98 316.99 781.51 301.9 779.75 300.19 785.1 296.42 785.1 294.67 795.19 284.39 795.32 284.53 798.75 280.87 800.43 275.63 804 274.02 804.04 270.48 805.54 267.36 804.3 267.53 801.02 264.01 793.55 267.65 792.25 265.34 781.61 272.14 783.47 275.75 778.2 274.11 774.8 279.81 773.65 278.05 769.65 281.25 771.7 284.43 770 284.91 762.83 284.61 761.22 288.35 759.18 286.8 756.19 291.55 752.74 291.03 756.05 294.61 753.93 297.87 750.07 295.3 747.6 294.8 749.24 298.12 747.82 300.34 742.81 300.34 737.2 305.18 729.02 305.18"/>
  <polygon id="cachoeiras_de_macacu" class="bairro" points="630.55 461.02 629.08 459.15 634.48 453.38 635.7 450.47 634.05 450.47 635.76 443.78 632.57 437.11 627.3 435.41 618.64 443.87 610.48 447.39 607.05 443.91 600.19 445.64 596.48 443.97 596.48 442.4 592.94 442.4 592.88 437.03 587.99 435.28 575.59 443.72 567.31 441.88 567.31 443.65 564 445.68 565.69 449.06 553.72 452.24 553.72 454.1 548.5 455.96 548.5 460.99 543.55 462.51 537.85 462.51 535.55 464.04 535.1 467.57 540.08 474.25 543.48 476 543.38 478.08 541.82 479.69 543.51 485.23 550.4 493.43 545.33 500.25 540.33 501.73 538.41 507.01 541.76 512.18 540.1 517.26 555.31 512.23 571.25 512.16 582.67 525.73 597.23 518.66 598.43 517.36 598.38 513.96 608.82 511.78 617.54 517.07 626 510.23 632.19 507.25 622.14 485.95 627.39 481.82 628.92 471.94 632.23 471.07 632.39 465.77 635.74 465.77 635.76 462.44 634.17 461.02 630.55 461.02"/>
  <polygon id="macuco" class="bairro" points="706.52 346.08 701.52 358.19 706.38 361.48 712.69 363.05 714.79 351.33 721.3 347.56 718.24 345.69 721.56 344.07 723.44 345.65 726.94 340.82 726.94 337.73 725.26 333.91 728.61 333.91 735.48 322 730.35 315.32 728.3 315.17 728.3 315.17 727.14 315.17 723.75 322.33 720.21 319.04 716.78 320.56 716.52 318.41 718.17 316.94 713.18 313.71 708.51 327.1 708.88 329.83 707.91 332.54 704.59 332.85 704.46 334.1 702.73 334.1 699.53 337.72 702.94 346.08 706.52 346.08"/>
  <polygon id="duas_barras" class="bairro" points="630.76 382.11 634.37 382.11 637.36 380.32 643.14 382.1 659.58 373.6 659.25 372.26 658.24 368.15 658.43 368.23 667.1 371.63 670.13 369.9 679.05 371.97 680.84 373.49 682.92 371.17 683.95 370.02 691.82 367 692.26 366.82 673.95 349.49 673.93 349.51 667.09 339.85 649.97 315.67 648.42 317.96 648.03 318.62 648.37 319.53 650.01 323.52 649.89 323.62 649.91 323.67 647.19 325.73 643.26 328.81 644.87 330.43 644.87 330.43 645 330.55 643.25 332.48 646.62 332.48 644.98 335.43 644.9 335.48 644.86 335.56 642.08 337.14 641.14 337.7 641.11 337.7 640.89 337.82 634.47 337.7 629.18 346.01 632.73 346.01 632.73 346.14 632.86 346.14 632.6 351.35 632.6 351.48 632.47 351.48 627.95 351.48 627.74 351.48 629.61 354.32 631.04 356.49 631.04 356.49 631.04 356.49 631.01 356.51 624.36 359.83 621.02 363.29 621.83 364.33 622.25 364.84 624.21 365.64 624.4 365.72 627.4 366.88 624 367.92 622.29 368.46 619.09 375.05 620.48 377.05 624.5 377.08 629 377.08 630.76 382.11"/>
  <polygon id="cordeiro" class="bairro" points="692.57 366.71 692.6 366.8 692.72 366.92 692.65 366.94 694.42 371.72 701.16 368.26 706.37 371.57 706.27 369.84 706.46 369.96 714.77 371.38 714.77 366.99 711.55 366.99 711.55 364.5 712.57 363.28 706.28 361.71 701.22 358.29 706.15 346.33 702.77 346.33 699.3 337.83 682.32 339.49 674.11 349.29 692.52 366.73 692.57 366.71"/>
  <polygon id="bom_jardim" class="bairro" points="682.75 371.74 680.87 373.84 680.87 373.84 680.87 373.84 680.78 373.76 678.76 372.16 674.97 371.28 670.28 370.19 667.15 371.89 666.9 372.03 658.6 368.57 659.73 373.16 659.87 373.73 659.87 373.73 659.87 373.73 643.39 382.25 654.79 390.43 658.25 395.9 656.9 399.1 689.55 421.67 693.47 421.36 707.72 418.06 706.15 416.19 718.07 407.95 718.38 402.46 723.04 401.03 709.68 392.63 709.68 387.13 706.25 378.75 708.4 376.8 709.92 376.8 711.51 373.68 706.55 370.33 706.64 372.04 701.14 368.55 694.29 372.07 692.42 367.03 684.1 370.23 682.75 371.74"/>
  <path id="santa_maria_madalena" class="bairro" d="M785.34,296.55l-5.2,3.68,1.71,1.64L770,317.32l-3.25-2.05v5.4l-6.9-1.82,5,6.88L763,327.61l-3.47-1.68.34,3,1.27,3.67L751,340.94l-1.74,4.89,1.56,1.85,8.95-1.75v5.38l13.05,3,14.48.25,10.14,4.86,4.87-1.57,2-3.66,8.73,1.72,4.91-4.7,3.09,1.46,2.05.19,4.8,4.87,3.86.18,7.39,8.46,11.53-4.67,4.62-.32-5.12-10.23,1.49-3.32-3.37-3.65,3.49-1.45.05,0,.77.51L864,334l.13-5.58h.14l.1,0a1.15,1.15,0,0,0,.31-.18,1.5,1.5,0,0,0,.47-1.25,8.28,8.28,0,0,0-1.07-3.45l0,0,.19-10,2.76-4.87-21.51-.12-2.28-3.46L831,308.53l-11.79-2.43-1.27-1.42-.09-2.95h-2.15l.51,3.42-12.13-1.75-3.67-5.09-5.14-13.62-9.9,10.08Z"/>
</svg>