<svg id="regiao_09" data-name="regiao 09" xmlns="http://www.w3.org/2000/svg" viewBox="0 0 1071.93 617.79">
    <style>
        .bairro {
            fill: #d1c479; /* Cor base da Região 09 (amarelo esverdeado) */
            stroke: #FFFFFF;
            stroke-width: 0.5;
            transition: fill 0.2s ease-in-out;
        }
        .bairro:hover {
            fill: #FFD700 !important; /* Amarelo dourado para hover */
            cursor: pointer;
        }
        .bairro.selecionado {
            fill: #E44D26 !important; /* Laranja para o item clicado/selecionado */
        }
    </style>

    <g id="seropedica" class="bairro">
        <polygon points="965.85 74.74 950.25 80.94 950.25 98.34 954.25 102.74 945.25 112.14 930.15 118.14 928.55 126.34 942.95 142.34 1030.65 192.44 1035.35 181.94 1050.15 177.24 1071.65 160.34 1056.35 97.24 1062.15 71.34 1051.85 38.64 1060.45 27.64 1062.35 17.44 1056.45 11.64 1045.65 17.74 1035.45 11.84 997.95 0.34 997.95 11.94 970.95 43.54 966.15 53.34 977.55 64.74 965.85 74.74"/>
    </g>
    <g id="itaguai" class="bairro">
        <polygon points="831.35 208.64 854.05 208.64 854.35 238.54 858.55 230.84 874.95 224.54 894.95 231.04 875.25 241.34 886.25 251.74 905.95 240.64 906.45 235.44 912.45 235.44 912.45 240.84 927.75 240.44 927.75 225.64 965.65 212.74 970.85 197.84 1029.55 192.74 942.45 142.94 927.65 126.64 929.55 117.54 944.75 111.54 953.15 102.64 949.45 98.64 949.45 80.44 965.45 74.04 976.45 64.64 965.45 53.84 954.45 53.84 949.05 49.04 937.25 49.04 894.75 82.34 891.85 109.24 912.75 118.64 890.45 139.54 859.15 149.94 848.05 167.44 827.05 172.04 831.45 177.04 804.85 206.44 804.85 214.64 814.55 219.04 831.35 208.64"/>
    </g>
    <g id="mangaratiba" class="bairro">
        <polygon points="784.05 251.84 793.75 245.44 826.65 250.64 826.25 261.84 831.65 262.24 832.25 272.44 854.15 262.14 862.65 261.84 858.35 257.14 868.05 246.84 853.25 246.64 846.65 248.64 837.85 249.04 853.65 239.84 853.25 209.44 831.55 209.44 814.65 219.94 804.35 215.24 782.75 213.74 767.05 193.54 756.25 199.34 750.45 189.24 718.85 209.14 708.95 203.94 676.55 209.44 654.25 193.74 635.25 208.04 617.45 225.64 612.95 225.54 601.35 252.74 592.05 247.64 612.45 315.44 613.05 337.24 617.75 337.54 623.85 342.44 643.95 337.84 665.25 320.54 671.15 305.94 681.85 299.24 686.45 288.74 682.35 272.54 714.55 256.64 719.35 268.44 714.45 273.24 719.55 279.04 704.05 294.34 724.55 294.34 724.25 278.44 734.95 278.44 735.65 272.84 752.55 256.84 784.05 251.84"/>
        <polygon points="723.55 306.04 710.25 316.04 719.45 320.94 728.45 315.74 725.25 312.24 723.55 306.04"/>
        <polygon points="819.15 300.64 804.95 310.74 810.25 320.44 819.15 300.64"/>
        <polygon points="874.85 348.74 828.55 328.14 842.25 339.44 854.25 348.14 858.75 353.74 854.25 364.54 843.15 369.34 812.05 359.94 794.85 343.34 773.55 348.74 767.65 360.84 761.85 358.44 752.95 369.24 740.75 375.34 746.05 390.74 761.75 396.44 796.05 385.54 846.95 376.64 911.65 364.64 911.65 359.44 874.85 348.74"/>
    </g>
    <g id="angra" class="bairro">
        <polygon points="422.95 264.44 433.25 270.54 428.65 279.64 460.55 259.34 443.95 254.04 438.15 260.54 438.45 253.74 448.85 248.64 443.75 243.04 449.75 242.64 455.15 248.04 459.95 237.04 470.35 243.24 482.35 243.04 476.55 253.54 482.45 253.74 471.05 259.44 476.65 270.24 471.35 269.94 471.15 274.84 493.45 269.74 503.05 270.34 491.85 281.04 492.65 292.04 476.05 290.94 476.35 301.94 460.45 302.84 444.85 318.44 460.55 333.64 490.25 314.04 497.25 306.94 503.35 312.64 497.95 327.84 503.35 328.04 513.35 316.94 518.85 323.14 524.15 306.94 535.25 312.94 544.95 300.94 560.75 318.04 567.15 317.44 566.85 323.94 556.55 329.14 542.05 350.24 556.85 355.24 584.55 339.24 593.95 345.34 590.25 354.74 599.25 349.34 599.25 344.64 608.85 348.74 604.65 339.24 615.25 333.94 615.25 332.24 615.15 313.54 594.15 243.84 572.35 249.14 550.85 232.84 555.85 195.14 545.45 195.14 535.35 174.04 507.95 174.44 497.05 184.94 492.35 173.94 488.45 173.94 481.35 178.74 481.35 169.04 475.25 169.04 433.75 184.94 400.85 179.44 384.85 195.54 358.15 210.94 347.25 196.04 347.25 183.74 342.45 173.94 331.75 173.94 299.95 195.04 289.05 210.84 282.05 210.84 267.85 205.64 235.45 211.04 212.75 234.14 211.85 234.24 242.35 262.14 274.25 280.04 282.25 311.64 279.55 338.74 308.95 328.34 326.55 333.64 347.75 312.34 353.45 317.54 364.45 312.54 364.45 322.64 369.05 317.64 379.95 328.54 388.85 323.54 378.75 322.84 374.65 317.54 385.55 306.74 395.05 301.84 379.85 296.84 389.75 286.54 385.05 275.14 395.25 269.74 394.85 264.64 406.55 258.34 406.15 263.74 422.95 264.44"/>
        <polygon points="624.45 509.44 624.45 496.94 613.45 496.94 624.45 509.44"/>
        <polygon points="323.15 358.04 333.25 353.34 338.45 344.44 338.75 344.64 338.75 344.64 338.75 343.64 323.15 353.54 323.15 358.04"/>
        <polygon points="409.05 294.34 412.95 290.14 409.05 290.14 409.05 294.34"/>
        <polygon points="452.05 364.34 456.05 368.34 451.05 353.44 456.35 353.44 451.85 343.54 435.65 343.54 430.45 338.34 420.35 348.24 446.15 347.74 452.05 364.34"/>
        <polygon points="660.65 450.04 654.65 434.84 633.05 445.24 638.15 434.34 633.95 428.34 648.45 418.54 643.95 413.44 630.05 418.34 612.65 434.54 606.45 428.64 606.95 413.44 585.95 413.44 576.15 402.94 570.45 402.94 570.45 402.14 579.65 401.54 589.75 396.44 575.05 396.44 573.85 391.44 555.35 382.24 552.45 380.14 555.95 377.14 548.25 380.54 553.75 381.24 548.25 391.54 533.05 395.94 538.05 396.64 542.85 401.44 530.45 408.14 519.85 411.64 518.05 412.24 521.05 412.74 510.95 428.94 499.35 423.74 499.65 408.04 489.95 412.44 490.55 428.54 478.55 429.14 478.55 435.24 474.35 444.94 461.95 439.64 430.35 455.74 435.25 466.84 446.25 459.44 446.25 472.64 462.55 465.54 452.45 492.34 462.55 497.94 457.85 502.54 467.75 502.54 483.15 466.84 494.45 460.34 521.45 465.04 526.75 471.04 522.25 476.44 537.65 470.54 537.65 477.54 532.35 482.04 537.35 487.34 575.15 476.94 584.45 481.54 595.15 476.34 590.85 471.04 596.75 465.84 606.65 465.84 616.85 456.04 634.55 455.44 649.65 460.24 640.25 471.84 670.55 461.34 675.75 450.94 660.65 450.04"/>
    </g>
    <g id="paraty" class="bairro">
        <polygon points="293.95 532.44 289.15 543.74 261.25 538.04 255.55 532.84 267.65 521.14 276.85 501.04 246.05 505.54 245.65 517.34 230.25 526.84 219.55 549.04 204.15 553.94 209.65 565.54 197.55 558.74 224.15 521.14 229.35 506.04 213.65 511.84 213.45 506.04 203.35 505.84 193.65 516.54 183.05 517.44 163.65 522.44 175.85 515.54 176.45 510.34 180.85 505.04 187.55 504.54 195.75 500.34 192.05 500.04 192.75 488.64 202.25 494.74 213.65 488.64 209.35 495.24 218.25 499.64 223.85 483.74 228.65 483.84 219.55 473.84 208.05 473.84 208.05 463.34 198.05 468.04 192.85 484.14 187.65 484.14 165.85 506.84 148.65 506.84 149.65 489.34 138.35 479.04 153.95 467.84 144.25 462.44 159.35 452.24 149.45 441.14 164.85 429.84 159.75 419.54 169.95 414.24 160.05 409.44 170.25 366.34 176.15 366.34 175.25 361.04 187.15 349.94 202.95 355.44 202.95 343.94 213.25 350.04 229.45 344.74 230.35 349.64 252.25 344.34 246.55 360.24 278.75 339.04 279.55 338.74 281.85 311.54 274.25 280.04 242.05 262.14 211.75 234.24 181.95 237.24 171.45 254.24 149.75 249.14 122.35 260.24 118.05 269.04 112.25 290.34 112.15 290.54 80.55 291.64 80.95 301.54 69.95 307.24 80.65 318.34 69.65 351.64 64.45 355.74 69.85 361.44 58.15 382.04 63.95 392.94 58.45 398.44 63.15 415.14 58.45 420.24 58.45 424.84 53.45 430.34 53.55 446.74 10.35 462.54 0.35 478.54 5.55 489.54 0.25 500.64 0.25 504.94 5.35 505.44 11.15 520.94 43.45 526.54 37.65 532.64 53.35 548.54 50.05 553.14 68.95 547.84 85.25 564.44 90.95 595.74 105.75 600.64 117.65 613.14 137.35 617.34 132.45 611.74 139.55 611.74 154.25 596.14 170.35 602.54 181.85 590.44 181.65 601.14 192.35 601.44 192.05 595.74 198.15 601.14 207.95 590.94 219.65 595.64 214.85 605.24 224.65 595.84 230.35 607.34 240.65 606.94 235.65 617.44 255.95 612.94 277.35 591.74 272.15 580.84 282.35 569.04 293.55 569.04 303.45 553.74 315.55 553.14 321.05 563.94 325.45 559.24 293.95 532.44"/>
        <polygon points="163.25 444.14 163.25 454.14 172.85 444.94 167.75 439.74 163.25 444.14"/>
        <polygon points="238.95 496.74 253.25 487.74 247.95 483.14 228.95 501.74 238.95 496.74"/>
    </g>
</svg>