<svg id="regiao_05" xmlns="http://www.w3.org/2000/svg" viewBox="0 0 1071.39 709.6">
  <style>
    .bairro {
      fill: #5ca67b; /* Cor base da Região 05 */
      stroke: #FFF;
      stroke-width: 0.5;
      transition: fill 0.2s ease-in-out;
    }
    .bairro:hover {
      fill: #FFD700 !important; /* Destaque amarelo-ouro */
    }
    .bairro.selecionado {
      fill: #E44D26 !important; /* Laranja/vermelho para o bairro selecionado */
    }
  </style>

  <g id="cantagalo" class="bairro" data-id="cantagalo">
      <path d="m661.96 279.78-2.99 2.63 6.86 7.56 1.08 1.11-1.43 1.55-.19.22.91 1.33.48.64-3.02 3.12 6.68 5.6h-.01l.01.01-3.68 1.26-6.95 2.42-11.63 6.23 1.75 1.64.02-.04 24.09 34.04 8.25-9.85 17.13-1.67 3.3-3.73h1.61l.13-1.23 3.37-.31.9-2.51-.38-2.73 4.8-13.74 5.53 3.58-1.8 1.6.21 1.69 3.27-1.45 3.41 3.16 3.31-6.99h1.04l-1.22-1.33 2.03-8.66h8.27l5.44-4.69-12.73-21.48-3.74-10.38-4.56-12.57-6.79 4.85-9.79 4.89-6.51 3.32h-.72l-5.32-.97-2.96-.48-5.61 1.8-.92 1.04-2.15 2.5-18.78 7.02z"/>
  </g>
  <g id="nova_friburgo" class="bairro" data-id="nova_friburgo">
      <path d="m714.75 424.93.31-.3c-2.46-2.19-7-6.44-7-6.44l-14.51 3.42-4 .31-32.89-22.73 1.38-3.26-3.37-5.33-11.51-8.26-5.69-1.74-2.84 1.68 1.49 3.46-.91.43-2.45 1.37-6.81-.06-6.95 5.42-6.82-3.63-1.76 6.81v.08h-3.27v1.68l-2.44.94-1.19.55v5.09l-4.52 2.47-7.24 4.11v3.93l1.58 3.08-5.11 6.69 2.36 2.56.88.89-.78.43-2.59 1.64v4.82l5 1.8.06 5.3h3.54v1.66l3.48 1.56 6.92-1.74 3.4 3.46 8-3.43 8.73-8.54 5.52 1.78 3.27 6.85-1.65 6.47h1.71l-1.39 3.3-5.28 5.65 1.26 1.6h3.59l1.68 1.49h4.19l6.7-5 3.17-.19 8.28 3.71 5.21-3.58 13.8-2.89 3.8-.81h5l1.18-1.55 4.24 3.69 2-2.24.85 1.93 4.13-3.35 2.49 1.78 10-5-3.24-3.33 9-7.23 8.3-1.42v-2.05l5.22 3.44-1.35-6.28Z"/>
  </g>
  <g id="trajano_de_morais" class="bairro" data-id="trajano_de_morais">
      <path d="m797.35 359.67-10.11-4.84-14.45-.25-13.27-3.07v-5.28l-8.79 1.77-1.57-1.85-.25.7v-2.46h-1.67l-4.51-5.07-5.3 1.71-2.26 1.88-8-1.86-3.63 5-2-1.65-2.76 1.36 3 1.85-6.78 3.88-2.12 11.87-1 1.24v2.15H715v4.93l-8-1.38 4.87 3.29-1.76 3.46h-1.58l-1.94 1.77 3.38 8.26v5.41l13.71 8.62-5 1.54-.31 5.44-11.79 8.15s6.13 5.85 8.72 8.14l2.85-2.66 2-3.79 3.3-1.66 1.86-3.4 8.7-7.29 3.16-.75 7.34-7.44 4.24-1.79 5.1.07 7.52-1.66-.06-4.56 1.33-5.75 17.18-3.12 12.61-9.21 3.25 2 3.19-3Z"/>
  </g>
  <g id="sao_sebastiao_do_alto" class="bairro" data-id="sao_sebastiao_do_alto">
      <path d="m729.02 305.18-1.94 8.34 1.29 1.4 2.11.16 5.3 6.91-7.03 12.17h-3.11l1.55 3.51v3.09l7.91 1.83 2.21-1.84 5.5-1.77 4.54 5.11h1.81v1.27l1.63-4.57 10.02-8.28-1.22-3.54-.4-3.46 3.72 1.8 1.6-1.6-5.23-7.28 7.26 1.91v-5.52l3.44 2.17 11.53-15.09-1.76-1.71 5.35-3.77v-1.75l10.09-10.28.13.14 3.43-3.66 1.68-5.24 3.57-1.61.04-3.54 1.5-3.12-1.24.17-3.28-3.52-7.47 3.64-1.3-2.31-10.64 6.8 1.86 3.61-5.27-1.64-3.4 5.7-1.15-1.76-4 3.2 2.05 3.18-1.7.48-7.17-.3-1.61 3.74-2.04-1.55-2.99 4.75-3.45-.52 3.31 3.58-2.12 3.26-3.86-2.57-2.47-.5 1.64 3.32-1.42 2.22h-5.01l-5.61 4.84h-8.18zm-98.47 155.84-1.47-1.87 5.4-5.77 1.22-2.91h-1.65l1.71-6.69-3.19-6.67-5.27-1.7-8.66 8.46-8.16 3.52-3.43-3.48-6.86 1.73-3.71-1.67v-1.57h-3.54l-.06-5.37-4.89-1.75-12.4 8.44-8.28-1.84v1.77l-3.31 2.03 1.69 3.38-11.97 3.18v1.86l-5.22 1.86v5.03l-4.95 1.52h-5.7l-2.3 1.53-.45 3.53 4.98 6.68 3.4 1.75-.1 2.08-1.56 1.61 1.69 5.54 6.89 8.2-5.07 6.82-5 1.48-1.92 5.28 3.35 5.17-1.66 5.08 15.21-5.03 15.94-.07 11.42 13.57 14.56-7.07 1.2-1.3-.05-3.4 10.44-2.18 8.72 5.29 8.46-6.84 6.19-2.98-10.05-21.3 5.25-4.13 1.53-9.88 3.31-.87.16-5.3h3.35l.02-3.33-1.59-1.42h-3.62z"/>
  </g>
  <g id="cachoeiras_de_macacu" class="bairro" data-id="cachoeiras_de_macacu">
      <path d="m706.52 346.08-5 12.11 4.86 3.29 6.31 1.57 2.1-11.72 6.51-3.77-3.06-1.87 3.32-1.62 1.88 1.58 3.5-4.83v-3.09l-1.68-3.82h3.35l6.87-11.91-5.13-6.68-2.05-.15h-1.16l-3.39 7.16-3.54-3.29-3.43 1.52-.26-2.15 1.65-1.47-4.99-3.23-4.67 13.39.37 2.73-.97 2.71-3.32.31-.13 1.25h-1.73l-3.2 3.62 3.41 8.36h3.58zm-75.76 36.03h3.61l2.99-1.79 5.78 1.78 16.44-8.5-.33-1.34-1.01-4.11.19.08 8.67 3.4 3.03-1.73 8.92 2.07 1.79 1.52 2.08-2.32 1.03-1.15 7.87-3.02.44-.18-18.31-17.33-.02.02-6.84-9.66-17.12-24.18-1.55 2.29-.39.66.34.91 1.64 3.99-.12.1.02.05-2.72 2.06-3.93 3.08 1.61 1.62.13.12-1.75 1.93h3.37l-1.64 2.95-.08.05-.04.08-2.78 1.58-.94.56h-.03l-.22.12-6.42-.12-5.29 8.31h3.55v.13h.13l-.26 5.21v.13h-4.86l1.87 2.84 1.43 2.17-.03.02-6.65 3.32-3.34 3.46.81 1.04.42.51 1.96.8.19.08 3 1.16-3.4 1.04-1.71.54-3.2 6.59 1.39 2 4.02.03h4.5l1.76 5.03z"/>
  </g>
  <g id="cordeiro" class="bairro" data-id="cordeiro">
      <path d="m692.57 366.71.03.09.12.12-.07.02 1.77 4.78 6.74-3.46 5.21 3.31-.1-1.73.19.12 8.31 1.42v-4.39h-3.22v-2.49l1.02-1.22-6.29-1.57-5.06-3.42 4.93-11.96h-3.38l-3.47-8.5-16.98 1.66-8.21 9.8 18.41 17.44.05-.02z"/>
  </g>
  <g id="bom_jardim" class="bairro" data-id="bom_jardim">
      <path d="m682.75 371.74-1.88 2.1-.09-.08-2.02-1.6-3.79-.88-4.69-1.09-3.13 1.7-.25.14-8.3-3.46 1.13 4.59.14.57-16.48 8.52 11.4 8.18 3.46 5.47-1.35 3.2 32.65 22.57 3.92-.31 14.25-3.3-1.57-1.87 11.92-8.24.31-5.49 4.66-1.43-13.36-8.4v-5.5l-3.43-8.38 2.15-1.95h1.52l1.59-3.12-4.96-3.35.09 1.71-5.5-3.49-6.85 3.52-1.87-5.04-8.32 3.2-1.35 1.51z"/>
  </g>
  <g id="santa_maria_madalena" class="bairro" data-id="santa_maria_madalena">
      <path d="m785.34 296.55-5.2 3.68 1.71 1.64L770 317.32l-3.25-2.05v5.4l-6.9-1.82 5 6.88L763 327.61l-3.47-1.68.34 3 1.27 3.67L751 340.94l-1.74 4.89 1.56 1.85 8.95-1.75v5.38l13.05 3 14.48.25 10.14 4.86 4.87-1.57 2-3.66 8.73 1.72 4.91-4.7 3.09 1.46 2.05.19 4.8 4.87 3.86.18 7.39 8.46 11.53-4.67 4.62-.32-5.12-10.23 1.49-3.32-3.37-3.65 3.49-1.45.05.77.51L864 334l.13-5.58h.24a1.15 1.15 0 0 0 .31-.18 1.5 1.5 0 0 0 .47-1.25 8.28 8.28 0 0 0-1.07-3.45l.19-10 2.76-4.87-21.51-.12-2.28-3.46-12.24 3.44-11.79-2.43-1.27-1.42-.09-2.95h-2.15l.51 3.42-12.13-1.75-3.67-5.09-5.14-13.62-9.9 10.08Z"/>
  </g>
</svg>