<?xml version="1.0" encoding="utf-8"?>
<!-- Generator: Adobe Illustrator 26.2.1, SVG Export Plug-In . SVG Version: 6.00 Build 0)  -->
<svg version="1.1" id="regiao_05" xmlns="http://www.w3.org/2000/svg" xmlns:xlink="http://www.w3.org/1999/xlink" x="0px" y="0px"
	 viewBox="0 0 1071.4 709.6" style="enable-background:new 0 0 1071.4 709.6;" xml:space="preserve">
<style type="text/css">
	.st0{fill:#5CA67B;stroke:#FFFFFF;stroke-width:0.5;}
</style>
<polygon id="cantagalo" class="st0" points="432.9,63 425,69.9 443.1,89.8 445.9,92.7 442.1,96.8 441.6,97.4 444,100.9 445.3,102.6 
	437.4,110.8 454.9,125.5 454.9,125.5 454.9,125.5 445.2,128.8 427,135.2 396.4,151.6 401,155.9 401.1,155.8 464.4,245.3 
	486.1,219.4 531.1,215 539.8,205.2 544,205.2 544.4,201.9 553.2,201.1 555.6,194.5 554.6,187.3 567.2,151.2 581.7,160.6 577,164.8 
	577.6,169.3 586.2,165.5 595.1,173.8 603.8,155.4 604,155.4 606.6,155.4 603.4,151.9 608.7,129.1 630.4,129.1 644.7,116.8 
	611.3,60.3 601.4,33 589.4,0 571.6,12.8 545.9,25.6 528.7,34.3 528.7,34.3 528.4,34.3 528.4,34.3 528.3,34.3 526.8,34.3 512.9,31.8 
	505.1,30.5 490.3,35.3 487.9,38 482.3,44.6 "/>
<path id="nova_friburgo" class="st0" d="M571.7,444.6l0.8-0.8c-6.5-5.8-18.4-16.9-18.4-16.9l-38.1,9l-10.5,0.8L419,376.9l3.6-8.6
	l-8.9-14l-30.3-21.7l-15-4.6l-7.5,4.4l3.9,9.1l-2.4,1.1l-6.4,3.6l-17.9-0.2L320,360.4l-17.9-9.5l-4.6,17.9v0.2h-8.6v4l0,0v0.4
	l-6.4,2.5l-3.1,1.4v13.1l0,0v0.2l-11.9,6.5l-19,10.8v10.3l4.2,8.1L239.1,444l6.2,6.7l2.3,2.3l-2.1,1.1l-6.8,4.3v12.7l13.1,4.7
	l0.2,13.9h9.3v4.4l9.1,4.1l18.2-4.6l8.9,9.1l21-9l23-22.5l14.5,4.7l8.6,18l-4.3,17h4.5l-3.7,8.7l-13.9,14.9l3.3,4.2h9.4l4.4,3.9h11
	l17.6-13.1l8.3-0.5l21.8,9.8l13.7-9.4l36.3-7.6l10-2.1h13.1l3.1-4.1l11.1,9.7l5.3-5.9l2.2,5.1l10.9-8.8l6.5,4.7l26.3-13.1l-8.5-8.8
	l23.7-19l21.8-3.7v-5.4l13.7,9l-3.5-16.5L571.7,444.6z"/>
<path id="trajano_de_morais" class="st0" d="M788.8,273l-26.6-12.7l-38-0.7l-34.9-8.1v-13.9l-23.1,4.7l-4.1-4.9l-0.7,1.8v-6.5h-4.4
	l-11.9-13.3l-13.9,4.5l-5.9,4.9l-21-4.9l-9.5,13.1l-5.3-4.3l-7.3,3.6l7.9,4.9l-17.8,10.2l-5.6,31.2l0,0l-2.6,3.3v5.7h8.2v13l-21-3.6
	l12.8,8.6l-4.6,9.1h-4.2l-5.1,4.7l8.9,21.7v14.2l36,22.7l-13.1,4l-0.8,14.3l-31,21.4c0,0,16.1,15.4,22.9,21.4l7.5-7l5.3-10l8.7-4.4
	l4.9-8.9l22.9-19.2l8.3-2l19.3-19.6l11.1-4.7l13.4,0.2l19.8-4.4l-0.2-12l3.5-15.1l45.2-8.2l33.2-24.2l8.5,5.3l8.4-7.9L788.8,273z"/>
<polygon id="sao_sebastiao_do_alto" class="st0" points="609.2,129.8 604.1,151.7 607.5,155.4 613,155.8 627,174 608.5,206 
	600.3,206 604.4,215.2 604.4,223.3 625.2,228.1 631,223.3 645.4,218.6 657.4,232.1 662.1,232.1 662.1,232.4 662.1,235.4 
	666.4,223.4 692.8,201.6 689.6,192.3 688.5,183.2 698.3,188 702.5,183.8 688.7,164.6 707.8,169.6 707.8,155.1 716.9,160.8 
	747.2,121.2 742.6,116.7 756.6,106.8 756.6,102.2 783.1,75.1 783.5,75.5 792.5,65.9 796.9,52.1 806.3,47.9 806.4,38.6 810.4,30.4 
	807.1,30.8 798.5,21.6 778.8,31.1 775.4,25.1 747.4,42.9 752.3,52.4 738.5,48.1 729.5,63.1 726.5,58.5 716,66.9 721.4,75.2 
	716.9,76.5 698.1,75.7 693.8,85.5 688.5,81.5 680.6,94 671.5,92.6 680.2,102 674.7,110.6 664.5,103.8 658,102.5 662.3,111.2 
	658.6,117.1 645.4,117.1 630.7,129.8 "/>
<polygon id="cachoeiras_de_macacu" class="st0" points="350.3,539.5 346.5,534.6 360.6,519.4 363.9,511.7 359.5,511.7 364,494.2 
	355.6,476.6 341.8,472.2 319,494.4 297.6,503.6 288.5,494.5 270.5,499 260.7,494.7 260.7,490.5 251.4,490.5 251.3,476.4 
	238.4,471.8 205.8,494 184.1,489.2 184.1,493.8 175.4,499.2 179.8,508 148.3,516.4 148.3,521.3 134.6,526.2 134.6,539.4 
	121.6,543.4 106.6,543.4 100.6,547.4 99.4,556.7 112.5,574.3 121.4,578.9 121.2,584.3 117.1,588.6 121.5,603.1 139.6,624.7 
	126.3,642.6 113.1,646.5 108.1,660.4 116.9,674 112.5,687.3 152.5,674.1 194.4,673.9 224.4,709.6 262.7,691 265.9,687.6 
	265.7,678.7 293.2,672.9 316.1,686.8 338.4,668.9 354.6,661 328.2,605 342,594.2 346,568.2 354.7,565.9 355.2,552 364,552 
	364,543.2 359.8,539.5 "/>
<polygon id="macuco" class="st0" points="550,237.3 536.9,269.1 549.7,277.8 566.3,281.9 571.8,251.1 588.9,241.2 580.8,236.3 
	589.6,232 594.5,236.2 603.7,223.5 603.7,215.4 599.3,205.3 608.1,205.3 626.2,174 612.7,156.4 607.3,156.1 607.3,156.1 
	604.2,156.1 595.3,174.9 586,166.2 577,170.2 576.3,164.6 580.7,160.7 567.5,152.2 555.3,187.4 556.2,194.6 553.7,201.7 545,202.5 
	544.6,205.8 540.1,205.8 531.7,215.3 540.6,237.3 "/>
<polygon id="duas_barras" class="st0" points="350.9,332 360.4,332 368.2,327.3 383.4,332 426.6,309.7 425.8,306.1 423.1,295.3 
	423.6,295.5 446.4,304.5 454.4,299.9 477.8,305.4 482.5,309.4 488,303.3 490.7,300.2 511.4,292.3 512.5,291.8 464.4,246.3 
	464.4,246.3 446.4,220.9 401.4,157.4 397.3,163.4 396.3,165.1 397.2,167.5 401.5,178 401.2,178.3 401.2,178.4 394.1,183.8 
	383.7,191.9 388,196.2 388,196.2 388.3,196.5 383.7,201.6 392.6,201.6 388.3,209.3 388,209.4 387.9,209.7 380.6,213.8 378.2,215.3 
	378.1,215.3 377.5,215.6 360.6,215.3 346.7,237.1 356,237.1 356,237.5 356.4,237.5 355.7,251.2 355.7,251.5 355.4,251.5 
	343.5,251.5 342.9,251.5 347.8,259 351.6,264.7 351.6,264.7 351.6,264.7 351.5,264.7 334,273.5 325.3,282.6 327.4,285.3 
	328.5,286.6 333.6,288.7 334.1,288.9 342,292 333.1,294.7 328.6,296.1 320.2,313.5 323.8,318.7 334.4,318.8 346.2,318.8 "/>
<polygon id="cordeiro" class="st0" points="513.4,291.5 513.4,291.8 513.8,292.1 513.6,292.2 518.2,304.7 535.9,295.6 549.6,304.3 
	549.4,299.8 549.9,300.1 571.7,303.8 571.7,292.3 563.3,292.3 563.3,285.7 565.9,282.5 549.4,278.4 536.1,269.4 549.1,238 
	540.2,238 531.1,215.6 486.4,220 464.8,245.8 513.2,291.6 "/>
<polygon id="bom_jardim" class="st0" points="487.5,304.8 482.6,310.3 482.6,310.3 482.6,310.3 482.4,310.1 477.1,305.9 
	467.1,303.6 454.8,300.7 446.5,305.2 445.9,305.5 424.1,296.4 427,308.5 427.4,310 427.4,310 427.4,310 384.1,332.4 414,353.9 
	423.1,368.3 419.6,376.7 505.4,436 515.7,435.2 553.2,426.5 549.1,421.6 580.4,400 581.2,385.5 593.5,381.8 558.3,359.7 
	558.3,345.2 549.3,323.2 555,318.1 559,318.1 563.2,309.9 550.1,301.1 550.4,305.6 535.9,296.4 517.9,305.6 513,292.4 491.1,300.8 
	"/>
<path id="santa_maria_madalena" class="st0" d="M757.2,107.1l-13.7,9.7l4.5,4.3l-31.2,40.6l-8.5-5.4v14.2l-18.1-4.8l13.1,18.1
	l-4.9,4.9l-9.1-4.4l0.9,7.9l3.3,9.6L667,223.8l-4.6,12.9l4.1,4.9l23.5-4.6v14.1l34.3,7.9l38.1,0.7l26.7,12.8l12.8-4.1l5.3-9.6
	l23,4.5l12.9-12.4l8.1,3.8l5.4,0.5l12.6,12.8l10.1,0.5l19.4,22.2l30.3-12.3l12.1-0.8l-13.5-26.9l3.9-8.7l-8.9-9.6l9.2-3.8h0.1l2,1.3
	l30-24.3l0.3-14.7h0.4h0.3c0.3-0.1,0.6-0.3,0.8-0.5c0.9-0.8,1.4-2.1,1.2-3.3c-0.3-3.2-1.2-6.3-2.8-9.1l0,0l0.5-26.3L972,139
	l-56.5-0.3l-6-9.1l-32.2,9l-31-6.4l-3.3-3.7l-0.2-7.8h-5.7l1.3,9l-31.9-4.6l-9.6-13.4l-13.5-35.8l-26,26.5L757.2,107.1z"/>
</svg>
