<svg id="regiao_11" xmlns="http://www.w3.org/2000/svg" viewBox="0 0 1071.39 709.6">
  <style>
    .bairro {
      fill: #a88aac; /* Cor base da Região 11 */
      stroke: #FFF;
      stroke-width: 0.5;
      transition: fill 0.2s ease-in-out;
    }
    .bairro:hover {
      fill: #FFD700 !important;
    }
    .bairro.selecionado {
      fill: #E44D26 !important;
    }
  </style>

  <g id="teresopolis" class="bairro">
    <polygon points="582.81 402.89 586.2 397.61 585.3 396.74 582.7 392.48 581.21 382.24 581.21 372.32 573.94 373.57 562.31 383.93 555.61 385.32 551.98 389.23 544.18 390.81 540.08 399.11 533.08 399.11 528.53 404.02 517.92 409.61 513.95 414.66 514.01 414.68 509.63 417.92 511.08 420.19 502.66 423.2 500.89 426.63 505.95 428.4 507.87 432.1 505 432.1 509.5 435.46 504.35 438.72 506.06 442.15 504.63 445.32 505.9 445.32 504.26 452.13 507.6 458.94 507.63 462.17 509.25 465.59 514.22 464.12 521.09 467.37 531.13 460.77 537.83 462.26 543.52 462.26 548.25 460.81 548.25 455.78 553.47 453.92 553.47 452.05 565.33 448.9 563.67 445.58 567.06 443.51 567.06 441.56 575.13 443.36 575.54 443.45 587.85 435.07 587.85 429.92 591.06 428.1 587.81 424.85 593.04 418 591.51 415 591.51 410.95 590.17 404.58 582.81 402.89"/>
  </g>
  <g id="carmo" class="bairro">
    <polygon points="601.67 324.07 596.8 327.11 598.59 329.02 598.59 330.6 630.89 342.67 634.33 337.45 641.07 337.45 644.8 335.25 646.2 332.73 642.68 332.73 644.65 330.57 642.77 328.88 649.71 323.44 647.73 318.25 649.69 315.76 647.67 313.39 659.22 307.19 669.84 303.46 663.2 298.05 666.03 295.1 666.33 294.8 664.96 292.81 666.56 291.09 658.23 282.51 661.97 279.53 659.75 279.53 627.53 294.67 629.33 296.76 620.56 298.28 603.72 303.56 605.3 315.31 601.67 324.07"/>
  </g>
  <g id="sumidouro" class="bairro">
    <polygon points="594.89 335.79 596.63 339.4 593.13 342.78 593.13 344.76 591.57 346.21 593.15 347.91 590.97 353.17 583.17 351.47 588.12 361.67 581.1 370.19 581.48 372.28 581.46 372.28 581.46 382.22 582.94 392.4 585.5 396.58 586.52 397.57 583.21 402.72 590.38 404.38 591.72 410.74 603.18 404.22 603.18 399.19 606.84 397.51 606.84 395.92 609.82 395.92 610.16 395.92 611.98 388.9 618.93 392.6 625.79 387.23 632.32 387.23 635.73 385.61 634.32 382.36 630.59 382.36 628.82 377.33 620.37 377.33 618.8 375.07 622.12 368.26 626.5 366.86 622.03 365.02 620.64 363.2 623.67 359.93 630.68 356.39 627.13 351 632.36 351.22 632.59 346.39 628.44 346.39 630.75 342.88 598.51 330.83 594.89 335.79"/>
  </g>
  <g id="sao_jose_do_vale_do_rio_preto" class="bairro">
    <polygon points="528.38 403.82 532.97 398.86 539.92 398.86 544.01 390.59 551.85 389 555.48 385.1 562.19 383.7 573.83 373.34 581.19 372.07 580.86 370.3 579.49 370.53 573.9 371.52 571.43 371.52 563.15 375.85 550.63 383.99 548.43 380.11 550.54 372.03 548.48 366.99 544.86 366.93 540.09 368.56 536.62 364.97 533.01 366.7 526.3 361.78 522.58 361.78 521.14 365.74 526.4 375.32 514.88 379.1 509.35 379.1 501.5 395.35 505.6 394.19 510.91 401.3 507.92 409.32 509.19 412.95 513.7 414.57 517.76 409.41 528.38 403.82"/>
  </g>
  <g id="sapucaia" class="bairro">
    <polygon points="526.38 361.53 533.04 366.41 536.67 364.67 540.16 368.28 544.82 366.68 548.65 366.75 550.81 372.01 548.7 380.07 550.72 383.63 563.02 375.64 571.37 371.27 573.88 371.27 579.45 370.28 580.9 370.04 587.83 361.64 582.72 351.11 590.82 352.88 592.86 347.96 591.21 346.19 592.88 344.66 592.88 342.67 596.33 339.35 594.6 335.76 598.34 330.64 598.34 329.12 596.41 327.06 601.47 323.9 605.04 315.27 603.48 303.66 567.97 322.11 546.86 327.32 538.3 336.06 523.12 342.77 516.12 348 514.5 348.05 513.21 347.11 511.29 349.31 512.29 350.82 511.27 361.53 522.5 361.53 522.5 361.53 526.38 361.53"/>
  </g>
</svg>