<svg id="regiao_centro-oeste" data-name="regiao centro-oeste" xmlns="http://www.w3.org/2000/svg" viewBox="0 0 419.48 459.38">
    <style>
        /* Estilos base para todas as regiões (e estados, se for o caso) */
        .regiao, .estado {
            cursor: pointer;
            stroke: #FFFFFF; /* Borda branca para todas as regiões/estados */
            stroke-width: 0.5;
            transition: fill 0.3s ease-in-out;
        }

        /* Cores da Região Centro-Oeste e seus estados (a cor principal da região é aplicada ao grupo) */
        #regiao_centro-oeste { fill: #9cc100; }
        #mato_grosso_do_sul { fill: #9cc100; } /* Cor específica para o estado, se diferente da região */
        #goias { fill: #9cc100; }
        #distrito_federal { fill: #9cc100; }
        #mato_grosso { fill: #9cc100; }

        /* Estilos de HOVER (ao passar o mouse) */
        .regiao:hover, .estado:hover {
            opacity: 0.8; /* Levemente mais opaco no hover */
            fill: #FFD700 !important; /* Amarelo dourado para hover */
        }
    </style>

    <g id="mato_grosso_do_sul" class="estado">
        <path d="M287.36,334.25a6,6,0,0,1-3.53-1.86,8.46,8.46,0,0,0-.7-.57.66.66,0,0,1-.28,0,.87.87,0,0,1-.48-.48,4.15,4.15,0,0,0-2.72-2.67h-.17a2.56,2.56,0,0,1-1.4-.55h0a.89.89,0,0,1-.48-.13,1.51,1.51,0,0,1-.72.18,1.89,1.89,0,0,1-1.12-.4.83.83,0,0,1-.26-.3,1.5,1.5,0,0,1-.68-.66c-.75,0-1.51,0-1.73-.77h-.26a1.16,1.16,0,0,1-.72-.54l-.53-.18h-.13a6.59,6.59,0,0,1-2.19-.5,10.39,10.39,0,0,0-1.23-.4,2.7,2.7,0,0,1-1,.18,6.56,6.56,0,0,1-3.68-1.34,4.79,4.79,0,0,1-1.7-.74,2.77,2.77,0,0,0-.62-.31h-.17a1,1,0,0,1-.64-.24,10.8,10.8,0,0,1-.76-.89c-.37-.46-.61-.77-.92-.86H258a2.06,2.06,0,0,1-.85-.15.89.89,0,0,1-.53.24,1.07,1.07,0,0,1-.74-.46,1,1,0,0,1-.37-.13,1.14,1.14,0,0,1-.29-.29H255a1.15,1.15,0,0,1-1.24-.63,1.83,1.83,0,0,1-.35-.66,3.24,3.24,0,0,1-1.58-1.27l-.13-.19a5.89,5.89,0,0,1-1.75-.42l-.24-.11a1.93,1.93,0,0,1-2.06-.22l-.52-.26a.9.9,0,0,1-.53-.74l-.28-.27a5.08,5.08,0,0,1-1-.92.78.78,0,0,1-.15-.39c0-.66-.53-.92-1.56-1.38l-.94-.48-.5.24a4.7,4.7,0,0,1-2.19.66,3.29,3.29,0,0,1-1.16-.24,10.55,10.55,0,0,1-1.38.11c-3.06,0-6.39-1.45-6.93-4.64a.85.85,0,0,1,.24-.75l.74-.76a4.93,4.93,0,0,0,1.58-2.19.85.85,0,0,1,.83-.66h.35c.92,0,.94-.15,1-.19a.79.79,0,0,1,.24-.46c.29-.29.31-.42.31-.42a8.6,8.6,0,0,0-3.48-.52h-1.07a3.7,3.7,0,0,1-2.19,1.11,2.64,2.64,0,0,1-2.06-1.29.83.83,0,0,1-.17-.68,7.31,7.31,0,0,0-.44-2.82,5,5,0,0,1,0-4.05,2.65,2.65,0,0,1,1.53-1.07,2.88,2.88,0,0,0-.81-1.62,4.32,4.32,0,0,1-.87-1.62,5,5,0,0,0-.27-.92,9.93,9.93,0,0,0-.68-2.19,3.9,3.9,0,0,0-.87-.85,2.19,2.19,0,0,1-1.18-2.19,2.29,2.29,0,0,1,0-2c.05-.16.09-.32.13-.48a.81.81,0,0,0,0-.38,1.94,1.94,0,0,1-.11-.83,1.27,1.27,0,0,1,.15-.85v-.18a4,4,0,0,1,.29-1.13,2.58,2.58,0,0,1,.41-1.73,1.39,1.39,0,0,0,.2-.51v-.15a.54.54,0,0,1,0-.18.48.48,0,0,1,0-.17.81.81,0,0,1,0-.31.88.88,0,0,1-.26-.46.51.51,0,0,1,0-.3.93.93,0,0,1-.13-.35,1.11,1.11,0,0,1,.63-1.14,15,15,0,0,0,1.23-3,.77.77,0,0,1,.5-.55h.15l.16-.41a3.44,3.44,0,0,1,.37-.86.89.89,0,0,1,.41-.33,1,1,0,0,0,.62-.5,2.26,2.26,0,0,1,.15-1.31,2.2,2.2,0,0,0,0-1.14.89.89,0,0,1,.39-.9h.11a2.08,2.08,0,0,0,0-.61.87.87,0,0,1,.59-.87v-.31a.89.89,0,0,1,.11-.53,1.07,1.07,0,0,1,1-.59,1.71,1.71,0,0,1,.59.11.9.9,0,0,1,.44-.46,1.09,1.09,0,0,1,.13-.68.93.93,0,0,1,.7-.48h.26a1.8,1.8,0,0,1,1.09-.74,1.19,1.19,0,0,1,.86-.33,2,2,0,0,1,.94-.68,1.51,1.51,0,0,1,.37-.68,1.77,1.77,0,0,1,.46-1.27.87.87,0,0,1,.11-.41,1.58,1.58,0,0,1,.37-.48,1.19,1.19,0,0,1,.13-.94,1.08,1.08,0,0,1,.83-.44,1.16,1.16,0,0,1,.62-.22.9.9,0,0,1,.33-.7.82.82,0,0,1,.54-.2,1.32,1.32,0,0,1,.59-1.11h0a3.45,3.45,0,0,1-.63-.88,1.66,1.66,0,0,1-1.1-.66,2.65,2.65,0,0,1-.21-2.18,2.22,2.22,0,0,1,.21-1.58,2.63,2.63,0,0,1,1.82-1,1.31,1.31,0,0,0,1.05-.44h0a.54.54,0,0,1,0-.18.83.83,0,0,1,.48-.61.64.64,0,0,0,0-.7,1,1,0,0,1,.11-.85.9.9,0,0,1,.46-.31,1.3,1.3,0,0,1,1.14-.92,1.13,1.13,0,0,1,.48.11,6.1,6.1,0,0,0,.72-.37,4,4,0,0,1,2-.75h.38c.41-.24.63-.72,1-1.51a5.81,5.81,0,0,1,1.44-2.18,3.23,3.23,0,0,0,0-.44,1.58,1.58,0,0,1,1.56-1.6h3.65a13.07,13.07,0,0,0,1.77,0v-.13a1.83,1.83,0,0,1,1-1.12,1.31,1.31,0,0,1,1.25-.87,2.28,2.28,0,0,1,1,.3,15.09,15.09,0,0,1,1.25-1.72,9.77,9.77,0,0,0,1.47-2.19.62.62,0,0,1,.26-.35,5,5,0,0,0-.24-1,2.19,2.19,0,0,1,0-2.08.88.88,0,0,1,.72-.37.57.57,0,0,1,.26,0,.91.91,0,0,1,.33-.44,1.57,1.57,0,0,0,.42-.35,3.5,3.5,0,0,1,.19-1.11,2.62,2.62,0,0,1,.53-1.95h0a2.71,2.71,0,0,1,0-2.45,1,1,0,0,1,.37-.35.85.85,0,0,1-.13-.31,2.44,2.44,0,0,1,.24-1.33.94.94,0,0,0,.13-.4.9.9,0,0,1,.62-1.07,4.59,4.59,0,0,0,2.18-2l.77-1a.92.92,0,0,1,.68-.3h.13a1.71,1.71,0,0,0,1.29-.59,5.06,5.06,0,0,1,1.51-1,7.1,7.1,0,0,1,2.19-.43,1.62,1.62,0,0,1,1.75,1.33,16.13,16.13,0,0,0,2.19-1.12,2.65,2.65,0,0,1,1.6-1.77,4.07,4.07,0,0,1,.48-1.77,3.27,3.27,0,0,1,1-1.51,11.05,11.05,0,0,1,1.05-4.14,10.39,10.39,0,0,0,1-3.54,11.05,11.05,0,0,1,1.55-9.24c-.15-.89-.15-1.38.17-1.77a1.27,1.27,0,0,1,.81-.37,1.57,1.57,0,0,1,.53,0h.28A.5.5,0,0,0,287,185c.17-.17,0-.72-.33-1.51a4.57,4.57,0,0,1-.44-1.92.74.74,0,0,1,.2-.51c.68-.83.37-2.18,0-3.58a8.69,8.69,0,0,1-.28-2.43.85.85,0,0,1,.76-.79c1,0,1.23-.9,1.58-2.65a7.24,7.24,0,0,1,1.07-3,.8.8,0,0,1,.37-.31c1-.39,1.21-1,1.56-2.19A5.74,5.74,0,0,1,293,163.4a3.51,3.51,0,0,0,.33-2.67.89.89,0,0,1,0-.89,2.2,2.2,0,0,0-.13-1.25,2.52,2.52,0,0,1,.11-2.19,1.28,1.28,0,0,1,.26-.26,1,1,0,0,1,0-.72,1.28,1.28,0,0,1,.89-.86.71.71,0,0,1,.29,0,.69.69,0,0,1,.35,0,4,4,0,0,0,.39-1.48v-.22a6.79,6.79,0,0,0,.42-1.78,6.09,6.09,0,0,1,.59-2.18,1,1,0,0,1-.15-.59,1,1,0,0,1,.22-.55.42.42,0,0,1,0-.31,1.34,1.34,0,0,1,1.05-1.2.78.78,0,0,1,.26-1.07A.64.64,0,0,1,298,145l.24-.13a.48.48,0,0,0,0-.17.85.85,0,0,1,.39-.64,3.17,3.17,0,0,0,.79-1.27l.17-.37a.91.91,0,0,1,.6-.48l.24-.2.13-.24.22-.17v-.11a2.37,2.37,0,0,1,1.59-1,2.24,2.24,0,0,1,1-.68.74.74,0,0,1,.44-.41,1,1,0,0,1,.87-.79.55.55,0,0,1,.31,0c.35-.42.59-.57.94-.57a.92.92,0,0,1,.9.72c.11.64-1,2.19-1.84,3a3.16 3.16,0,0,1-.18.75l.11.1a1.07,1.07,0,0,1,.7.77,1,1,0,0,1-.52.79,1.61,1.61,0,0,1-.77.59h0a.89.89,0,0,1-.37,1.16c-.24.11-.24.15-.31.41a1.77,1.77,0,0,1-.63,1.12,6.11,6.11,0,0,1-.2,1.27c-.33,1.44-.19,1.55.29,1.73a3,3,0,0,1,1.84,1.14h0l.85.17a4.88,4.88,0,0,0,1,.2h.32c3.16.22,6.7,2.47,10.42,4.88a33.32,33.32,0,0,0,8.75,4.51v-.94a4.06,4.06,0,0,0-.17-1.8.86.86,0,0,1,0-.85,29.87,29.87,0,0,0,2.19-3.9l.39-.72a5.61,5.61,0,0,1,2.19-2.73,9.31,9.31,0,0,0,1.49-1.38.93.93,0,0,1,.68-.33h.26a.92.92,0,0,1,.61.79,1,1,0,0,0,.51.85,1.54,1.54,0,0,1,.74,1.12,1.4,1.4,0,0,1,0,.5h.11a1.55,1.55,0,0,1,1.11.39.72.72,0,0,1,.2.29,1.06,1.06,0,0,0,.18.33,12.93,12.93,0,0,0,.74-1.23,7.23,7.23,0,0,1,1.31-1.93.74.74,0,0,1,0-.21,1,1,0,0,1,.84-.49,1.75,1.75,0,0,1,1.46,1.1.41.41,0,0,1,0,.22,1.08,1.08,0,0,1,.64.65,5.2,5.2,0,0,1,.92.7,2.83,2.83,0,0,0,.76.62,1,1,0,0,1,.4.46,4,4,0,0,1,.17,1.24,2.41,2.41,0,0,1,0,.38h.44a2.19,2.19,0,0,1,2.19,1.59,2.05,2.05,0,0,1,.83.77,2.47,2.47,0,0,1,.28.83.8.8,0,0,1,.26.29,1.21,1.21,0,0,1,.18.89,1.07,1.07,0,0,1,1-.65,1.24,1.24,0,0,1,.59.13h.22a1.12,1.12,0,0,1,.72.33c.37.41.3,1,.22,1.64a5.47,5.47,0,0,0,0,.81,1.47,1.47,0,0,0,.17.61.7.7,0,0,1,.13.24h.44a.87.87,0,0,0,.5-.26l.44-.37h.18a.91.91,0,0,1,.57-.42h.74a4.76,4.76,0,0,0,.39-.44.84.84,0,0,1,.79-.5h0a.57.57,0,0,1,.26,0l.35-.24a4.79,4.79,0,0,1,2.3-1h.88a.89.89,0,0,1,.68.31c.28.35.24.61.11,1.6a8,8,0,0,0-.14,1,1,1,0,0,1,0,.35h0v.68a1.63,1.63,0,0,0,.44-.15,1.47,1.47,0,0,1,.2-1.14,1.11,1.11,0,0,1,.77-.35,1.44,1.44,0,0,1,.83.33l.3.17a.86.86,0,0,1,.75.59h.43a.89.89,0,0,1,.86.73,1.51,1.51,0,0,1,.65-.18,1.21,1.21,0,0,1,.38,0h0a1.23,1.23,0,0,1,1,.57h0a1.92,1.92,0,0,1,.74-.18c1.23,0,2.32,1.36,3.37,2.65.27.33.62.75.88,1a3.53,3.53,0,0,0,.59-.92,3.76,3.76,0,0,1-.7-2.32,1.34,1.34,0,0,1,.35-1.14,1.82,1.82,0,0,1-.46-1.53.49.49,0,0,1,0-.24.77.77,0,0,1-.2-.48.84.84,0,0,1,.64-.92h0v-.28c0-.11.24-1.36,1.29-1.36h.52a1.84,1.84,0,0,1,2,1.68h0v.51h.24a4.89,4.89,0,0,0,1.07-.18h.2a.9.9,0,0,1,.72.37.89.89,0,0,1,0,.84,2,2,0,0,1,1,.46h0a1.31,1.31,0,0,1,.74-.22,2.9,2.9,0,0,1,1,.22,2.42,2.42,0,0,0,.7.19,1.05,1.05,0,0,1,.43-.11h.25l.21-.19a1.54,1.54,0,0,1,.35-.84,1.71,1.71,0,0,1,1.34-.54,4.26,4.26,0,0,1,1.36.26,1.55,1.55,0,0,1,1.24-.88h.62a3.94,3.94,0,0,1,1.48-.61,1.38,1.38,0,0,1,.22-.35,1.54,1.54,0,0,1,.83-.35h.11a.93.93,0,0,1,.64-.39c.15,0,.44-.33.63-.53a2.76,2.76,0,0,1,1.67-1.07h.28c1.14-2.19,4.38-2.19,5.73-2.19h4.91a8.68,8.68,0,0,0,.37-1.81c.17-1.14.31-2.19,1.27-2.19h0a.89.89,0,0,1,.7.35l.11.19h0a1,1,0,0,1,.7.35A3.55,3.55,0,0,1,407,153v.7h.35a29.11,29.11,0,0,1,5.36-1.23,1,1,0,0,1,1.14.77c.2.83-.52,1.36-2.95,2.6a.68.68,0,0,1-.4,0h-.37c-.46,0-.57.16-1,.92a7.18,7.18,0,0,1-.56,1,2.2,2.2,0,0,1,.26,1.9.89.89,0,0,0,0,.68h0a.81.81,0,0,1,0,.68,1,1,0,0,1-.33.35.69.69,0,0,1,.24.24,1,1,0,0,1,.18.94,2.8,2.8,0,0,1,0,.41,1.33,1.33,0,0,1,.39.46,15.4,15.4,0,0,1,5.19-1.75,1.22,1.22,0,0,1,1.29.81c.24.77-.18,1.58-3.2,3.72a.47.47,0,0,1-.24.13,7.88,7.88,0,0,0-1.42.55l.31.31a.87.87,0,0,1,0,1.23h0a2.64,2.64,0,0,0-.49,1.23c1.16.48,1.75.83,1.84,1.51s-.48,1.09-.94,1.42a4.67,4.67,0,0,0-1.33,1.25,1,1,0,0,1,.35.81,1.82,1.82,0,0,1,0,.33,1.39,1.39,0,0,1,.52,1.07.85.85,0,0,1,0,.5,1.51,1.51,0,0,1-.83.64c.9.87.35,2,0,2.75-.09.18-.17.37-.24.55a2.71,2.71,0,0,1,1.38,2A2.34,2.34,0,0,1,411,184a1.61,1.61,0,0,1,0,.31,1.55,1.55,0,0,1,0,.43h0a.93.93,0,0,1,.65.4.78.78,0,0,1,.13.63H412a1.09,1.09,0,0,0,.36,0,.77.77,0,0,1,.37,0,.8.8,0,0,1,.43.13,2.16,2.16,0,0,1,.9,1.1.84.84,0,0,1,.46-.13,1.15,1.15,0,0,1,.37,0,1.39,1.39,0,0,1,.73.81,1.2,1.2,0,0,1,0,.65h0a2.61,2.61,0,0,1,.43.31h0a1.28,1.28,0,0,1,1.08.59,1.14,1.14,0,0,1,.94,1,1,1,0,0,0,.76,1.14.84.84,0,0,1,.64.59.93.93,0,0,1-.2.86,2,2,0,0,0-.15.41c-.11.42-.33,1.21-1.05,1.42a1.37,1.37,0,0,1-1.1.51h-.13a2.21,2.21,0,0,1,.31.87,1.61,1.61,0,0,1,0,.31,1.4,1.4,0,0,1,.46,1.29.69.69,0,0,1-.16.29.66.66,0,0,1,0,.28,1.29,1.29,0,0,1-.19.79,2.49,2.49,0,0,1,.11,1.18,1.84,1.84,0,0,1-.59,1.16h0a.7.7,0,0,1,.17.37,2.55,2.55,0,0,1,0,1.1,1.06,1.06,0,0,0,0,.5h0a2.48,2.48,0,0,1-.74,2.19,1.83,1.83,0,0,1-.59,1.94,2,2,0,0,0-.49.51,2.28,2.28,0,0,1-1.37,1h-.2a.85.85,0,0,1-.72-.37h-.2a1.34,1.34,0,0,1-1.14.59,2.82,2.82,0,0,1-1.11-.3,2.5,2.5,0,0,0-.64-.2h0a.81.81,0,0,1-.31,0h0a2.45,2.45,0,0,1-2.18-1.34,1.47,1.47,0,0,1,0-1.09.74.74,0,0,1-.22-.44,2.29,2.29,0,0,1,0-.37h0a20.28,20.28,0,0,0-3.39-2.52,1.43,1.43,0,0,1-1.06.92,4.42,4.42,0,0,0-.15.48h0a2.15,2.15,0,0,1,.46.33l.42.37a.9.9,0,0,1,.26.9,4.67,4.67,0,0,1-.31.81c-.11.24-.41.88-.32,1a1.63,1.63,0,0,1,.13.39,1.27,1.27,0,0,1,.5,1.4.89.89,0,0,1-.15.31h0a2.22,2.22,0,0,1,.5,1.4.87.87,0,0,1-.83.85,2.87,2.87,0,0,0-1,.4,4.77,4.77,0,0,1-2,.59,2.78,2.78,0,0,1-1.43-.4,7.21,7.21,0,0,0-4.37-1.55c-.83,0-1.18.2-1.25.31s0,.41.46,1.07a.88.88,0,0,1,0,1,12.2,12.2,0,0,0-.92,1.93,1.13,1.13,0,0,1,.77.35,1.32,1.32,0,0,1,.28,1,1,1,0,0,1,.24.15,2.47,2.47,0,0,1,1.05,2.19,1.44,1.44,0,0,1-.28.7,1.36,1.36,0,0,1-.66,1.4,1.46,1.46,0,0,1-.39.16c-.75.11-.92.59-1.16,1.84a9.76,9.76,0,0,1-.31,1.18c-.13.52.29.89,1.8,1.53h.24a.84.84,0,0,1,.48,1.1h0c-.24.62,0,1.19.35,2a8.79,8.79,0,0,1,.39,1,4.52,4.52,0,0,1,.24,1.79,2.2,2.2,0,0,0,.24,1.29.89.89,0,0,1-.22,1.12,9.21,9.21,0,0,1-3.83,1.25,7.83,7.83,0,0,0-3.69,1.2.84.84,0,0,1-.62.26h-.24a2.92,2.92,0,0,1-.92-.41h0a.61.61,0,0,1,0,.19,1.11,1.11,0,0,1-.81.55h0a3,3,0,0,1-2.18,1.2,1.73,1.73,0,0,1-.6-.11h0a.79.79,0,0,0-.24,1.09.72.72,0,0,0,.24.25.87.87,0,0,1-.54.52,1.61,1.61,0,0,1-.31.66V241a4.53,4.53,0,0,1,.48,3,.93.93,0,0,1-.35.57,2.75,2.75,0,0,0-.65,1.18,6.53,6.53,0,0,1-1.21,2.19h0a.73.73,0,0,1-.39.26,1,1,0,0,1,0,.68,3.44,3.44,0,0,1-.61,1.05c-.31.37-.33.44-.29.62.11.54.26.63.5.78a1.59,1.59,0,0,1,.66.7,2,2,0,0,1,.66.33,2,2,0,0,1,.85.26,1.14,1.14,0,0,1,.31.27,1.15,1.15,0,0,1,.79.57,1.41,1.41,0,0,1,.74.76,1,1,0,0,1,.83.57.81.81,0,0,1,0,.22,1.55,1.55,0,0,1,.15.7,1,1,0,0,1,.55.46,1.48,1.48,0,0,1,0,1.36.68.68,0,0,1,.13.39h0a1.06,1.06,0,0,1,.22.77.85.85,0,0,1,.59.32.91.91,0,0,1-.11,1.16.64.64,0,0,0-.11.44.83.83,0,0,1,.18.42,1.72,1.72,0,0,1,.48.37,1.1,1.1,0,0,1,.52.74,1.09,1.09,0,0,1,0,.44.67.67,0,0,1,0,.2h0a1.26,1.26,0,0,1,.79.94.82.82,0,0,1-.11.63.86.86,0,0,1-.3,1c-.18.11-.2.15-.22.2a1.55,1.55,0,0,1-.55.56h0a1.15,1.15,0,0,1-.41.38,1,1,0,0,1-.44.35,2.36,2.36,0,0,1-.62.35.86.86,0,0,1-.76.5,1.35,1.35,0,0,1-.59.31,1.32,1.32,0,0,1-.66,1h0a.91.91,0,0,1-.81.48H382a.71.71,0,0,1,0,.29.21.21,0,0,1,0,.11.48.48,0,0,1,0,.17,1.52,1.52,0,0,1-.79.86h0a1.16.16,0,0,1-.15.57,1.35,1.35,0,0,1-.81.43l-.15.2a1.94,1.94,0,0,1,0,.59.87.87,0,0,1-.2,1.12.68.68,0,0,1-.35.17h0a1,1,0,0,1-.7.57.93.93,0,0,1-.35.13h-.26a1.62,1.62,0,0,1-.62,0,1.5,1.5,0,0,1-.26.44.86.86,0,0,1,0,.59,1.57,1.57,0,0,1,0,.53,1.5,1.5,0,0,1,0,.3h.11a.88.88,0,0,1,.33.53v.52a1.55,1.55,0,0,1,.52.24,5,5,0,0,1,1.67-.3,4.52,4.52,0,0,1,4.16,3,1.14,1.14,0,0,1,0,.52,3.59,3.59,0,0,0-.11.72,2.2,2.2,0,0,1-1.16,2.19,3.3,3.3,0,0,1-.38.59,2.86,2.86,0,0,0-.24.42.53.53,0,0,1,0,.57,1.42,1.42,0,0,1-.3.5,1.29,1.29,0,0,1,0,.48,3.24,3.24,0,0,1-.35.53c-.11,0-.11.15,0,.35a1,1,0,0,1,0,.48.51.51,0,0,0,.13.41,1.48,1.48,0,0,1,.3,1,.66.66,0,0,1,.11.2,2.72,2.72,0,0,1,.64,1.62,2,2,0,0,1,.57,1.1,1.2,1.2,0,0,1,.24,1c-.16.79-1,1-1.6,1.23h-.22a.82.82,0,0,1-.33.55,3.75,3.75,0,0,1-.76.48.81.81,0,0,1,0,.22,1,1,0,0,1-.72.59h-.18a.81.81,0,0,1-.31.48,1,1,0,0,1-.57.22h-.52a.85.85,0,0,1-.83.63h0c-.37,0-.4.2-.4.31a.86.86,0,0,1-.83.76h0a.85.85,0,0,1-.7-.37,1.09.109,0,0,1-.46.33,1.29,1.29,0,0,1-.5.75,1.21,1.21,0,0,1,.17,1,1.3,1.3,0,0,1-.85.94.77.77,0,0,1-.37,0h-.2a1.74,1.74,0,0,0-.24.22,5,5,0,0,1-.79.87,1.18,1.18,0,0,1-.54.2h0a1.48,1.48,0,0,1-.42,0,.85.85,0,0,1-.22.5,1.89,1.89,0,0,1-1.38.75,1.26,1.26,0,0,1-.63-.16,1.16,1.16,0,0,1-.29.46,1.23,1.23,0,0,1-.57.31.66.66,0,0,1-.21.44,1.33,1.33,0,0,1-1,.44,3.58,3.58,0,0,1-.73-.11A2,2,0,0,1,365,306a1.25,1.25,0,0,1-.81-.35,1.09,1.09,0,0,1-.24-.48.21.21,0,0,1-.13-.11.84.84,0,0,1-.18-.24,1.12,1.12,0,0,1-.94-.77,1,1,0,0,0-.35-.21,2.18,2.18,0,0,1-.94.24,2.57,2.57,0,0,1-1.23-.35,1.71,1.71,0,0,1-1.26-1.23h0a.81.81,0,0,1-.27-.11h-.11a1.67,1.67,0,0,1-1.35-.52c0-.07-.07-.14-.11-.2h-.46a.84.84,0,0,1,0,.66,1.11,1.11,0,0,1-1.12.56,1.26,1.26,0,0,1-.94-.43h-2a.89.89,0,0,1-.57-.37,2.27,2.27,0,0,0-.92.39.87.87,0,0,1-.52.17,1,1,0,0,1-.44-.11.85.85,0,0,1-.39-.5h-.37a1.52.152,0,0,1-1.47-.81h-.22a5.48,5.48,0,0,0-1.38.29,7.07,7.07,0,0,1-2,.37,5.35,5.35,0,0,1-1,0,1.91,1.91,0,0,0-.68.35,1.87,1.87,0,0,1-1,.39,1.51,1.51,0,0,1-1.34-1.18,5,5,0,0,0-1.57-.44c-.29,0-.57,0-.88.7a1.14,1.14,0,0,1-1.13.86h-.33l-.11.17c-.29.48-.66,1.1-1.36,1.1a1.16,1.16,0,0,1-.57-.18,2.14,2.14,0,0,1-1-.37,5.06,5.06,0,0,1-.83.44.76.76,0,0,1,0,.3,1.17,1.17,0,0,1-.59.81l-.26.11s-.22.33-.33.55a2.18,2.18,0,0,1-1.4,1.42v.11a1.39,1.39,0,0,1-1.25,1h-.11a2.93,2.93,0,0,0-.19.4c-.38.7-.86,1.66-2,1.79h0a.87.87,0,0,1-.57-.22,7.17,7.17,0,0,1-2.61-3.52,2,2,0,0,1-.63.85,1,1,0,0,1-.52.18h-.22a3.76,3.76,0,0,0-.81-.11,1.09,1.09,0,0,0-.44,0h0v.33a.87.87,0,0,1-.81,1.18.76.76,0,0,1-.48-.15.88.88,0,0,0-.46-.16,2.53,2.53,0,0,0-1.1.51.82.82,0,0,1-.5.17,1,1,0,0,1-.35,0v.2a.89.89,0,0,1-.83.61h-.53a2.89,2.89,0,0,1-1.81-.63.41.41,0,0,0-.22,0h-.44a5.91,5.91,0,0,1-.94.13h0a3.61,3.61,0,0,1-1.44-.37l-.57-.22c-.77,2-3.13,2-4.05,2h-2.34c-.81,0-1.23.75-1.84,1.84a4.49,4.49,0,0,1-1.62,2c-.37.16-.57.57-.81,1.08a3.66,3.66,0,0,1-1.64,2,4.56,4.56,0,0,1-1.27,4.48,3.76,3.76,0,0,1-3.24,1.23h0a2,2,0,0,1-1.38,1.14l-.35.15A2.67,2.67,0,0,1,290,327c-.53.33-.77.5-.81.74a10,10,0,0,1-.66,1.86c-.42.9-.44,1,.61,2.19a.9.9,0,0,1,.24.7,1,1,0,0,1-.39.64A2.55,2.55,0,0,1,287.36,334.25Z"/>
    </g>

<g id="goias" class="estado">
        <path d="M196.41,459.38a2.15,2.15,0,0,1-1.49-.55.9.9,0,0,1-.3-.76v-.18a2.68,2.68,0,0,1-1.16-.5,8.06,8.06,0,0,1-1.78-1.86c-.46-.61-.68-.92-2.4-1.31a1.48,1.48,0,0,1-.42,0,1.19,1.19,0,0,1-1.09-.81h0a2.88,2.88,0,0,1-1.49-.38l-.2-.13v.24a.9.9,0,0,1-.22.46,1.64,1.64,0,0,1-1.22.55,2.63,2.63,0,0,1-.79-.15h0a9.92,9.92,0,0,1-1.21.5l-.61.22a1,1,0,0,1-.15.2,1.35,1.35,0,0,1-.85.37,1.73,1.73,0,0,1-.6-.11l-.24.2-.17.15a.86.86,0,0,1-.75.39h-.59c-4.22-.54-8.6-1.09-11.92-5.49a26.07,26.07,0,0,1-4.14-9.23,1.1,1.1,0,0,1,0-.51.77.77,0,0,0,0-.52,1,1,0,0,1,0-.35c1.77-7.51-.52-17.66-5.69-25.24a.79.79,0,0,1-.13-.7v-.41l.2-.2-.11-.52-.13.87h0a.82.82,0,0,1-.7-.33c-.53-.67-1.05-1.31-1.6-1.9a.53.53,0,0,1-.13-.2.83.83,0,0,0-.29-.3.39.39,0,0,1-.17-.14l-.16-.15c-4.66-4.62-10.52-6.69-18.53-6.69A103,103,0,0,0,122.05,405c-2,.26-3.9.5-5.78.7l-2.6.35a55.66,55.66,0,0,1-5.6.59h0a.94.94,0,0,1-.62-.24,1.9,1.9,0,0,1-.37-.52,2.09,2.09,0,0,1-.5,0,1.91,1.91,0,0,1-.94-.24,1.74,1.74,0,0,1-.48.22h0a1,1,0,0,1-.71.39h-.13a5.25,5.25,0,0,1-4-3.22c-1.49-3.92-.35-9.36.74-14.64a42,42,0,0,0,1.29-9.34,40.52,40.52,0,0,0-2.3-11.21.92.92,0,0,1,0-.57l-.19-.21a1.18,1.18,0,0,1-.16-.29c-.5-1.4-1-2.8-1.53-4.2-1-2.69-2.05-5.47-2.89-8.38a5.1,5.1,0,0,0-.28-1.12,1.37,1.37,0,0,1,0-.85,8.43,8.43,0,0,0,1.4-3.55A.86.86,0,0,1,97,348c2.74-.87,3.06-1.37,3.09-1.44a16.31,16.31,0,0,0-1.78-1.2l-1.07-.7a.93.93,0,0,1-.39-.84,103.12,103.12,0,0,1,3.76-16.08c.59-2,1.2-4.07,1.73-6.11a1.68,1.68,0,0,1,.15-.3,9.32,9.32,0,0,1,1.67-1.71,8.78,8.78,0,0,1-.4-4.13c.22-1.23.4-2.37.53-3.51.63-3.21,2.82-11.35,5.58-13.69a7.17,7.17,0,0,1-1.91-1.6,1,1,0,0,1,0-.88,15.53,15.53,0,0,0-1.7-3.59c-1.4-2.51-2.19-3.87-1.58-4.81l.13-.18h-.11a2.79,2.79,0,0,1-.32-.28.88.88,0,0,1-.14-1.12.44.44,0,0,0,.11-.24,1.19,1.19,0,0,0-.22-.33,5.92,5.92,0,0,1-.35-.48,3.23,3.23,0,0,1-1.11-2.36v-.29a1,1,0,0,1-.33-.7,1,1,0,0,1,0-.35,1.07,1.07,0,0,1,0-1.09,1.3,1.3,0,0,1,.94-.5h.37a1.36,1.36,0,0,1,1-.59c1.1,0,1.43,1.27,1.78,2.64a9,9,0,0,0,.37,1.25A1.18,1.18,0,0,1,107,284h0a1.7,1.7,0,0,1,1.37,1.38.88.88,0,0,1,.59.66.48.48,0,0,1,0,.37,1.39,1.39,0,0,1,.46.37,1.78,1.78,0,0,1,1.1,1h.48a1.13,1.13,0,0,1,.9.39h0a1.58,1.58,0,0,1,.68-.46.85.85,0,0,1,.48-.41.81.81,0,0,1,.31,0,1.15,1.15,0,0,1,.85-.4,1.22,1.22,0,0,1,.59.2,2.28,2.28,0,0,1,1.27-.5h.59c.37-.64,1.49-.77,1.49-.77a6.85,6.85,0,0,1,1.49-.2c1,0,1.29-.13,1.57-.74a.84.84,0,0,1,.79-.5h0c.18,0,.31-.27.37-.4a3.32,3.32,0,0,1,1.16-1.33,2.26,2.26,0,0,1,.22-.37,1.37,1.37,0,0,1,0-.75h0a.9.9,0,0,1,.13-1,4.82,4.82,0,0,1,1.89-1.14,4.25,4.25,0,0,0,1-.5,1.35,1.35,0,0,1,0-.49.93.93,0,0,1,.35-.48.38.38,0,0,1,0-.15.86.86,0,0,1,.37-.5,1,1,0,0,1-.26-.48.89.89,0,0,1,.29-.84l.22-.26a1.72,1.72,0,0,1,1.29-.83,2.61,2.61,0,0,1,.46-.59l.13-.15a1.58,1.58,0,0,1,1.68-1.14h1.12a.76.76,0,0,1,.3,0,.63.63,0,0,1,.33.22h0a1,1,0,0,1,.51-.13,1.44,1.44,0,0,1,.57.13,1.7,1.7,0,0,0,.45,0,1,1,0,0,1,.77-.35,1.09,1.09,0,0,1,.44,0l.57-.27a1.17,1.17,0,0,1,.85-.46,3.09,3.09,0,0,1,1.66.75,5.67,5.67,0,0,0,.79-.57,6.68,6.68,0,0,1,1-.72,2,2,0,0,1,.57-.18.93.93,0,0,1,.64.22.81.81,0,0,1,.3-.13,1,1,0,0,1,.75-.72h0a1.31,1.31,0,0,1,1.14-.66h0a1,1,0,0,1,.41,0l.16-.11a.8.8,0,0,1,.28-.65.88.88,0,0,1,.59-.25.77.77,0,0,1,.44.14h0a.81.81,0,0,0,.33-.14,2.63,2.63,0,0,1,1.22-.37,2.36,2.36,0,0,1,.75.13h.61a1.58,1.58,0,0,1,.94.31,2.55,2.55,0,0,0,.5.24.87.87,0,0,1,.48.46,2.43,2.43,0,0,1,.22.92,1.38,1.38,0,0,1,.35.22h.18a1.06,1.06,0,0,1,.7.24h.2a1.16,1.16,0,0,1,.65.2h0a1.13,1.13,0,0,1,.48.11h0a2.14,2.14,0,0,1,1.27.67h.9a1.21,1.21,0,0,1,1.07.75,3.19,3.19,0,0,1,1.21.39h0a2.45,2.45,0,0,0,.52.24.63.63,0,0,1,.55-.28h0a.61.61,0,0,1,.41.15.78.78,0,0,1,.44-.13h.31a.83.83,0,0,1,.72.42c.33.5.42.5.57.5h.33a.88.88,0,0,1,.81.52.93.93,0,0,1,0,.86,2.74,2.74,0,0,0,.72,1.2,1.51,1.51,0,0,0,.74.5.92.92,0,0,1,.55-.19h.2a.76.76,0,0,1,.57.5c.13.26.22.29.72.37a3.07,3.07,0,0,1,.94.27h.2a1.57,1.57,0,0,1,1.22.67h0l.31.14h.55a1.35,1.35,0,0,1,.87.39h0a1.85,1.85,0,0,1,.83.76.78.78,0,0,1,.44.31v.15a2.53,2.53,0,0,1,.81.51,3.58,3.58,0,0,1,.94.41l.26.14a1.42,1.42,0,0,1,1-.42,2.32,2.32,0,0,1,.77.17.92.92,0,0,1,.46-.11,1.19,1.19,0,0,1,.46,0,1.17,1.17,0,0,1,.61-.17h.3a3.23,3.23,0,0,1,1.89-.68,2,2,0,0,1,1.2.37c.88-.11,1.16-.17,1.47-.65A1.07,1.07,0,0,1,182,280l.39-.17.38-.18a1,1,0,0,1,.24-.74,4.39,4.39,0,0,1,2.69-1.21A4.79,4.79,0,0,0,187.35,278a1.7,1.7,0,0,1,.73-.17,1.47,1.47,0,0,1,.85.28.79.79,0,0,1,.55-.19h.17c1.14.32,1.67.52,2,1.48a2.9,2.9,0,0,1,2.54,2.94v.24a.64.64,0,0,1,.32.13,1.08,1.08,0,0,0,.6.2,3.62,3.62,0,0,0,1.44-.55,5.68,5.68,0,0,1,2.74-.9,3.79,3.79,0,0,1,1.37.26v-.21a4.44,4.44,0,0,1,.73-.49v-.28a3.21,3.21,0,0,1,.87-2.3,1,1,0,0,1,.46-.33,14.25,14.25,0,0,0,5.95-4.83c1.19-1.36,1.89-2.19,2.76-2.19a1.19,1.19,0,0,1,.9.39c.74.81.9,2.74,0,12.61a.9.9,0,0,1-.61.74,9.93,9.93,0,0,1-1.51.33,6.68,6.68,0,0,0-2,.52,20.38,20.38,0,0,1-1.07,2,17,17,0,0,0-1.23,2.36h.14a4.37,4.37,0,0,1,3.23,1.58,7.7,7.7,0,0,0,.6.54,1,1,0,0,1,.21.29h1a2.91,2.91,0,0,1,.59,0,2.08,2.08,0,0,1,1.47-.64,3.69,3.69,0,0,1,2.05.86l.62.19a7.25,7.25,0,0,1,1.44.51l.11-.22a1.92,1.92,0,0,1,.92-1.1,1.15,1.15,0,0,1,.37,0,.89.89,0,0,1,.77.44h0a7.23,7.23,0,0,0,1.14,0h1a7.94,7.94,0,0,1,3.2.51.84.84,0,0,1,.48.48l1.68.11c1,0,1.8,0,2,.78a1,1,0,0,1-.35,1.16.94.94,0,0,1-.59.22h0c-.4,0-.55,0-.57.11a15.05,15.05,0,0,0,.42,2.63,9,9,0,0,1,.54,3.17c.22.22.37.31.46.31a5.14,5.14,0,0,0,1.12-.77l.17-.13a.91.91,0,0,1,.42-.2,10.09,10.09,0,0,1,1.44-.17c2,0,4.53.31,5.12,1.71a1.83,1.83,0,0,1-.52,2,2.33,2.33,0,0,1-2.34,1.36h0a7.27,7.27,0,0,1-1.84,2.32l-.33.3a5.06,5.06,0,0,0,5.1,2.78,8.91,8.91,0,0,0,1.36-.11h.15a1.28,1.28,0,0,1,.39,0,1.32,1.32,0,0,0,.64.16,3.51,3.51,0,0,0,1.4-.46,7.41,7.41,0,0,1,1.09-.46h.27a.82.82,0,0,1,.5.15,6.47,6.47,0,0,0,1.07.57,3.77,3.77,0,0,1,2.5,2.47,7.49,7.49,0,0,0,.61.51,3.1,3.1,0,0,1,.94,1h.15a.92.92,0,0,0,.27.16,1.29,1.29,0,0,0,.41-.16,1.09,1.09,0,0,1,.39-.11h.27l.65.22a4.24,4.24,0,0,0,1.14.33h.31a.83.83,0,0,1,.48.15,3.46,3.46,0,0,1,.74.79,1.82,1.82,0,0,0,.68.64h.29c.52,0,.85.35,1,1a.67.67,0,0,1,.37.27,2.07,2.07,0,0,1,1,.32,1.13,1.13,0,0,1,.59.31h.35a4.08,4.08,0,0,1,.77.11,2.62,2.62,0,0,0,.56,0h.35a.81.81,0,0,1,.66.31,7.24,7.24,0,0,0,4.38,2.8.84.84,0,0,1,.61.57l1.25.37a11.16,11.16,0,0,1,1.25.37,2.1,2.1,0,0,1,.89-.2,4.09,4.09,0,0,1,1.64.44,3.63,3.63,0,0,0,.84.29h.32a.9.9,0,0,1,.66.26h.31a1.78,1.78,0,0,1,1.42.72h0a2.22,2.22,0,0,1,1,.63h0a2.67,2.67,0,0,1,1.95,1c.13.13.37.4.46.4a2.89,2.89,0,0,1,.72,0,9,9,0,0,1,3.79,1.38l1.11.56a1.27,1.27,0,0,1,.27.18,3.48,3.48,0,0,1,.89,1.64h0a12.1,12.1,0,0,1,1.06.83v.11a2.9,2.9,0,0,1,1.13.92,1,1,0,0,1-.17,1.45l-.22.13c.66,1,1.25,2,.81,2.78a1.25,1.25,0,0,1-1.2.65h-.55a8.47,8.47,0,0,0-.44,1,6.65,6.65,0,0,1-.61,1.33,9.23,9.23,0,0,0,.48,3.9c.15.61.33,1.22.46,1.86a.66.66,0,0,1,0,.28,7.17,7.17,0,0,1-.18,1.9c-.28,3.86-.74,9.7-6.56,9.7h-.44c-2.06.37-3.39,2.34-4.84,4.38a14.39,14.39,0,0,1-3.85,4.37c-1.11,1.12-.94,2.63-.7,4.38a9.43,9.43,0,0,1,0,3.59.9.9,0,0,1-.59.61c-2.62.83-2.73,1.09-3,1.75a8.14,8.14,0,0,1-1.49,2.5,1,1,0,0,1-.33.24,4.16,4.16,0,0,0-1.47.76,5,5,0,0,0,.35,1c.16.39.33.87.53,1.47a.79.79,0,0,1,0,.43,12.53,12.53,0,0,1-4.38,7.27.84.84,0,0,1-.44.13h-.13a8.34,8.34,0,0,0-1.11-.11,1,1,0,0,0-.53,0l.53,1.18a12.62,12.62,0,0,1,.65,2,.53.53,0,0,1,0,.35,5,5,0,0,1-3,3.33,7,7,0,0,1-3.22,4c-.48.79-.88,1.62-1.31,2.5a11.55,11.55,0,0,1-4.23,5.51,26.56,26.56,0,0,1-3.89,2.19,16,16,0,0,0-6,4.12.78.78,0,0,1-.41.3c-2.87,1-6,2.19-6.57,5.1a.71.71,0,0,1-.15.37,9.19,9.19,0,0,1-5.76,3.35l-.72.51a24.39,24.39,0,0,1-4.92,2.86,6,6,0,0,0-2,5.6.86.86,0,0,1-.13.64,24.19,24.19,0,0,0-1.53,2.78c-1.4,2.82-2.85,5.73-7.49,6.23a5.73,5.73,0,0,0-1.09,3.11,10.33,10.33,0,0,1-.86,3.13,13.72,13.72,0,0,0-.74,3.52,13.61,13.61,0,0,1-.85,4,1,1,0,0,1-.38.44,11.08,11.08,0,0,0-1.2.87A6.87,6.87,0,0,1,196.41,459.38Z" fill="#9cc100" fill-rule="evenodd"/>
</g>

<g id="distrito_federal" class="estado">
        <path d="M362.7,240a59.13,59.13,0,0,1-6.87-.24.87.87,0,0,1-.81-.87,4.89,4.89,0,0,1,.42-1.69,4.55,4.55,0,0,1,.24-.77c-.64-.3-.66-1.24-.68-2a4.73,4.73,0,0,0-.11-1.24.81.81,0,0,1,0-.68,4.94,4.94,0,0,1,1.14-1.31c.22-.22.57-.57.76-.81h-.19a.88.88,0,0,1-.72-.92,8.65,8.65,0,0,1,.65-2.39,4.72,4.72,0,0,0,.46-2.93.88.88,0,0,1,.2-.81.9.9,0,0,1,.65-.28H358a19.93,19.93,0,0,0,3,.19c1.67,0,3.55-.13,5.37-.26s3.83-.26,5.64-.26c2.82,0,6.35.26,8.34,2.38a.94.94,0,0,0,.5.24,1.53,1.53,0,0,1,1.29.79,1.57,1.57,0,0,1-.19,1.44,2.48,2.48,0,0,1,0,.86.91.91,0,0,1,.37.92,3.17,3.17,0,0,0,0,.87,6.76,6.76,0,0,1,0,.9.85.85,0,0,1-.22.42,6.33,6.33,0,0,1-1.05,1.79v.15a2.27,2.27,0,0,1,0,1,2.62,2.62,0,0,1,0,1.66,2,2,0,0,0,0,.92,3,3,0,0,1,1.71,1.57.9.9,0,0,1-.13.81.84.84,0,0,1-.71.35h-3.21c-2.54,0-5.17,0-7.81.14S365.29,240,362.7,240Z" fill-rule="evenodd"/>
    </g>

<g id="mato_grosso" class="estado">
        <path d="M227.07,294.57a7,7,0,0,1-3.33-1.11,5,5,0,0,0-1.22-.15,11.4,11.4,0,0,0-1.93.21h-.39a1,1,0,0,1-.42-.1L219,293a.38.38,0,0,0,0,.15,1.69,1.69,0,0,1-1.56,1.14,3.56,3.56,0,0,1-1.55-.48,2.83,2.83,0,0,1-.66-.31H215a1.07,1.07,0,0,1-.79-.31,2.15,2.15,0,0,0-.68-.59h0a1,1,0,0,0-.74.62.86.86,0,0,1-.79.48h0a.91.91,0,0,1-.79-.46h-.3a3.64,3.64,0,0,0-.66,0h-.42a.87.87,0,0,1-.59-.24,6.08,6.08,0,0,1-.81-.94c-.32-.42-.48-.62-.65-.64a.86.86,0,0,1-.66-.37l-.37-.22h-.22a4.15,4.15,0,0,1-1.05.2,1.1,1.1,0,0,1-1.18-1,1,1,0,0,1,.13-.62,8.44,8.44,0,0,1,2.43-5.1c.39-1.55,2.19-1.73,3.43-1.86h.7a90.13,90.13,0,0,0,.29-10.13l-.9,1.07a17,17,0,0,1-6.56,5.45,1.52,1.52,0,0,0-.4,1.18v.46a.76.76,0,0,1-.13.44,3.68,3.68,0,0,0-.35.65c-.26.53-.63,1.3-1.57,1.3a2.71,2.71,0,0,1-.75-.16,2,2,0,0,0-.76-.15,4.07,4.07,0,0,0-1.91.68,4.79,4.79,0,0,1-2.19.76,2.66,2.66,0,0,1-1.29-.33c-1.18,0-1.33-1.26-1.38-1.77,0-.87-.17-1.38-1.53-1.49a.84.84,0,0,1-.76-.63,3.54,3.54,0,0,0-.22-.57l-.46-.17a1.52,1.52,0,0,1-.66.15,1.54,1.54,0,0,1-.81-.24,7.34,7.34,0,0,1-2.19.68,3.14,3.14,0,0,0-1.51.52,1.83,1.83,0,0,1-1.38,1.47h-.15a3.37,3.37,0,0,1-2.65,1.2h-.43a.93.93,0,0,1-.73-.35h0a1.43,1.43,0,0,0-.85.24.81.81,0,0,1-.53.59h-.32a1,1,0,0,1-.49-.13.86.86,0,0,1-.39,0h-.92a2.73,2.73,0,0,1-.85-.17l-.16.19a.82.82,0,0,1-.76.46.69.69,0,0,1-.35,0c-.48-.22-.79-.39-1-.52a2.29,2.29,0,0,0-.79-.33.92.92,0,0,1-.57-.39l-.3-.14a1.45,1.45,0,0,1-.92-.72,3,3,0,0,1-.22-.28h0a.94.94,0,0,1-.46-.13,1.26,1.26,0,0,1-.24-.22h-.75c-.32,0-.74-.16-.94-.83h-.17a.81.81,0,0,1-.5-.14h-.31a2.92,2.92,0,0,1-1.88-.8h-.24c-1.34,0-2.63-1.54-3-2.65a3.8,3.8,0,0,1-.15-.51,2.43,2.43,0,0,1-.57-.35H160a1.07,1.07,0,0,1-.7-.28h0a1.62,1.62,0,0,1-.44,0,1.77,1.77,0,0,1-.46,0,2.74,2.74,0,0,1-1.31-.42,2.77,2.77,0,0,0-.46-.22.9.9,0,0,1-.4,0,1,1,0,0,1-.92-.63h-.15a1,1,0,0,1-.57-.33,1.6,1.6,0,0,1-.3-.13.85.85,0,0,1-.2-.17,1.48,1.48,0,0,1-.42,0,.9.9,0,0,1-.54-.22.7.7,0,0,1-.29-.13,1.38,1.38,0,0,1-.52.17h-.11a.87.87,0,0,1-.83-.59v-.13a1.48,1.48,0,0,1-.55-.22h-.37a.84.84,0,0,1-.55-.44,2.34,2.34,0,0,1-.31-1.16h0l-.37-.2h-.61a.77.77,0,0,1-.46-.13H148a1,1,0,0,0-.39.16,2.29,2.29,0,0,1-1.08.37,2.39,2.39,0,0,1-1.57.9.86.86,0,0,1-.4.46,1.13,1.13,0,0,1-.37.1,1.43,1.43,0,0,1-.15.27,1.07,1.07,0,0,1-.88.46l-.61.48a1.87,1.87,0,0,1-.92.28,1.09,1.09,0,0,1-.61-.15l-.13.17a1.7,1.7,0,0,1-1.23.73h0a1.23,1.23,0,0,1-.85.37,1.19,1.19,0,0,1-.7-.29v-.1a.75.75,0,0,1-.35-.22h-.2a2.63,2.63,0,0,1-1.51.48h-.15a1.53,1.53,0,0,1-1,.3,3.05,3.05,0,0,1-.74,0,.86.86,0,0,1-.46.24h-.55a1,1,0,0,1-.57-.19c-.5-.44-.74-.46-.81-.46a7,7,0,0,0-1.07,1,.86.86,0,0,1-.11.52,1.09,1.09,0,0,1-.9.51h0a1,1,0,0,1,0,.74h0a.92.92,0,0,1,0,.57,1.15,1.15,0,0,1-.56.59,4.55,4.55,0,0,1-1.32,2,.83.83,0,0,1-.61.26,1,1,0,0,1-.42,0,2.88,2.88,0,0,0-.89.57h0a.93.93,0,0,1,.26.33c.22.57-.15,1.05-.53,1.46a2.92,2.92,0,0,1-1.09,1.34c-.42.31-.46.35-.44.66a.86.86,0,0,1-.35.78.82.82,0,0,1-.52.18.92.92,0,0,1-.33,0,3.78,3.78,0,0,0-.42.44,2.45,2.45,0,0,1-.85.78.65.65,0,0,1-.39,0h-.31a1.06,1.06,0,0,0-.5,0,5.08,5.08,0,0,0-1.4.25,1.29,1.29,0,0,1-.16.41,1.22,1.22,0,0,1-1,.42h0a1,1,0,0,1-.54.17h-1s-.18,0-.46.33a.85.85,0,0,1-1.18.13h-.13c-.13,0-.31,0-.59.33a1,1,0,0,1-.42.22c-.11.13-.21.27-.31.41-.26.4-.59.92-1.2.92s-.94-.48-1.12-1a1.85,1.85,0,0,1-1.59-1l-.24-.26a1.06,1.06,0,0,1-.7-.46,1.31,1.31,0,0,1-1.14-.87,1.13,1.13,0,0,1,0-.77c0-.17,0-.31-.15-.39h-.29a1.37,1.37,0,0,1-.9-.35,1.27,1.27,0,0,1-.57-.53,1.49,1.49,0,0,1,.16-1.44c-.11-.37-.24-.7-.37-1a12.81,12.81,0,0,1-.55-1.69,4.14,4.14,0,0,1-2.76-1.36c-.52-.5-.85-.76-1.29-.76a2.71,2.71,0,0,0-1.29.46.84.84,0,0,1-.44.13h-.24a.84.84,0,0,1-.55-.44c-.3-.61-.63-1.22-1-1.81l-1.38-2.41c-2.56-4.38-5.08-8.75-7.55-13.37a22.45,22.45,0,0,0-3.35-4.58.86.86,0,0,1-.22-.78,7.19,7.19,0,0,1,1.1-2.63l.13-.17.61-.55c1.45-1.27,1.45-1.27,1.36-1.88a16,16,0,0,1,0-2.19.83.83,0,0,1,.63-.81,1.88,1.88,0,0,0,.42-1.51c0-.29-.15-.29-.24-.29h-.13a15.27,15.27,0,0,1-7.79,1.36c-3.42,0-7.36-.33-11.16-.66-3.35-.26-6.57-.54-8.93-.54h-1.8c-2.73.15-5,.22-7,.22-13,0-13.5-3.05-13.52-9.92a33.58,33.58,0,0,0-7.71-22.93.88.88,0,0,1,.18-1.23.9.9,0,0,1,.52-.17h.27A8.41,8.41,0,0,0,34,213a2.78,2.78,0,0,0,2.36-1c1.84-2.4.31-8.47-.37-11.07a3.38,3.38,0,0,1-1.25-2.69,5.73,5.73,0,0,0-.17-.92,2.17,2.17,0,0,1-.75-1c-.21-.78-.43-1.51-.65-2.18a.81.81,0,0,1,0-.22v-.18A47.29,47.29,0,0,0,31,187.94a.8.8,0,0,1,0-.57,3.66,3.66,0,0,0,.11-1.36.87.87,0,0,1,.74-.92c.42,0,.92-1.11,1.12-1.57l.11-.22a1.12,1.12,0,0,1-.61-.75.77.77,0,0,1,0-.37,1.68,1.68,0,0,1-.73-1.12,1,1,0,0,1-.43-.28.93.93,0,0,1-.38-1.27v0h0a.73.73,0,0,1-.3-.39.94.94,0,0,1,0-.62.72.72,0,0,1,0-.54h0a1.3,1.3,0,0,1-.64-.2h0a.87.87,0,0,1-.74-.42c-.37-.61-.53-.61-1-.65a1,1,0,0,1-.55-.27h-.59a1.23,1.23,0,0,1-1-.57h0c-1.09,0-1.35-1.83-1.35-1.86a.9.9,0,0,1,.52-.83.38.38,0,0,1,0-.15,3.5,3.5,0,0,1,1.53-2,1.54,1.54,0,0,1,.27-.46,1.89,1.89,0,0,1,1.44-.48h.37c.31,0,.59-.46.81-.72a2.37,2.37,0,0,1,1.77-1.2h.2l.57-.22c.55-.16.77-.24.88-.51a1,1,0,0,1,.46-.43v-.44a1.4,1.4,0,0,1,.19-1.42,3,3,0,0,1,.16-1.3v-.46a.88.88,0,0,1,.37-.61,5.08,5.08,0,0,0,.61-1.18,9.53,9.53,0,0,1,1.29-2.39,2.46,2.46,0,0,1-.13-1.26,2.41,2.41,0,0,1,1.12-1.6,3.2,3.2,0,0,1,.63-.83,1.5,1.5,0,0,0,.46-.77v-.22a2.21,2.21,0,0,1,1.86-.92,1.77,1.77,0,0,0,.46,0h0a1.28,1.28,0,0,0,0-.39.67.67,0,0,1,.18-.46,4.89,4.89,0,0,0,.43-3.44,8,8,0,0,1,.35-4,1.33,1.33,0,0,1,0-.74,1.72,1.72,0,0,1,.88-.86,2.59,2.59,0,0,1,1.92-1.9c.75-.88,1.45-1.62,2.48-1.62a2.36,2.36,0,0,1,.65,0,4.62,4.62,0,0,0,.11-.63,3,3,0,0,1,.75-1.82,2.3,2.3,0,0,0,.61-.5l-1.07-.81c-1.07-.81-2.87-2.19-1.88-4.07.19-.64-.2-1.1-.9-1.8a2.56,2.56,0,0,1-1.07-2.47,1.19,1.19,0,0,1,0-.53.84.84,0,0,1-.35-.65,1.1,1.1,0,0,1,0-.57,1.11,1.11,0,0,0-.14-.29h-.39A2.34,2.34,0,0,1,41.3,125h0a.87.87,0,0,1-.57-.9,8.75,8.75,0,0,0-.24-2,10.12,10.12,0,0,1,.13-5.82.93.93,0,0,1,.26-.33,9.56,9.56,0,0,0,.68-.76,16,16,0,0,1,3.74-3.55,1.37,1.37,0,0,0,0-.85,4.31,4.31,0,0,1,0-.88l-.28-.26a2.3,2.3,0,0,1-1-1.71,1.72,1.72,0,0,1-.18-1.86,1.31,1.31,0,0,1-.37-.5,1.47,1.47,0,0,1,0-.66h-.42a1.19,1.19,0,0,0-.41.11,1.76,1.76,0,0,1-.86-.13,1.19,1.19,0,0,1-.37-.54h-.3l-.75.1h0a.94.94,0,0,1-.63-.26h-.2a2.84,2.84,0,0,1-.92.18,1.8,1.8,0,0,1-1-.33h-.15a1.45,1.45,0,0,1-1.38-.85.61.61,0,0,0,0,.19,1.32,1.32,0,0,1-1.12.81,1.3,1.3,0,0,1-.67-.19,1.82,1.82,0,0,1-1.62-1.49h0a.89.89,0,0,1-.68-.31.88.88,0,0,1-.16-.85,14.94,14.94,0,0,0-4.37-.4c-1.75,0-3.68,0-5.32.13-1.25,0-2.36.11-3.13.11a5,5,0,0,1-1.27-.11H8.8a17.73,17.73,0,0,1-5.8-.48.84.84,0,0,1-.48-1,.92.92,0,0,1,.7-.63,2.61,2.61,0,0,0,0-1.18A7.79,7.79,0,0,1,4,94a.93.93,0,0,1,.26-.33,1.21,1.21,0,0,1,0-.88A.89.89,0,0,1,4,92a1.34,1.34,0,0,1,.17-.79,4,4,0,0,0,.18-1.75.86.86,0,0,1,0-.59,1.69,1.69,0,0,0,0-1.23,6.67,6.67,0,0,1-.13-1.27,2,2,0,0,1,0-.35c.39-.89.39-1.16.37-1.22a.61.61,0,0,1-.26-.31,1.15,1.15,0,0,1-.42-.37,2.41,2.41,0,0,1-.33-1v-.24a1.83,1.83,0,0,1-1.29-1.66,1.43,1.43,0,0,0-.37-.88.77.77,0,0,1-.26-.59A2.79,2.79,0,0,1,2,78.17l-.4-.2a.83.83,0,0,1-.5-.85,11.3,11.3,0,0,1,1.25-4.05,7.24,7.24,0,0,0,.92-4.22,2,2,0,0,1,0-.49,2.54,2.54,0,0,0,0-.39,1,1,0,0,1-.66-.72.83.83,0,0,1,.26-.86c.13-.1.16-.17.16-.19H2.46a.77.77,0,0,1-.7-.29,1,1,0,0,1,0-1.13,1.33,1.33,0,0,1,1.31-.57h.26a1.06,1.06,0,0,1,.22-.84l.11-.13v-.17a9.17,9.17,0,0,0-.26-1.88c-.62-.33-1.25-.77-1.12-1.49a2.7,2.7,0,0,1-.92-1.14.91.91,0,0,1,.35-1s.46-.3.4-.5a.79.79,0,0,0-.75-.42H1.23a1,1,0,0,1-1-.74,3.39,3.39,0,0,1,.19-1.55v-.16A.88.88,0,0,1,0,53.59a1.42,1.42,0,0,1,.28-1.16,3.34,3.34,0,0,1,2.36-.94h.24a3,3,0,0,0-.7-1.66A.91.91,0,0,1,2,49.26,10.18,10.18,0,0,1,4.18,43.5a5.8,5.8,0,0,1-1.24-2.64.89.89,0,0,1,.76-1,150.54,150.54,0,0,1,17.51-.74c6.15,0,12.87.15,20,.3,7.44.16,15.12.33,22.43.33a222.51,222.51,0,0,0,23.09-.94,1.54,1.54,0,0,0,.19-.17H86a.87.87,0,0,1-.68-.31.85.85,0,0,1-.16-.81l.11-.42a6.55,6.55,0,0,0,.29-4.9.89.89,0,0,1,.15-1A6.55,6.55,0,0,0,86.88,29a7.23,7.23,0,0,1,1.29-2.19,5.23,5.23,0,0,1,0-2,2.77,2.77,0,0,0,0-1.51.86.86,0,0,1,0-.9L88.5,22c.4-.5.57-.7.57-1.24a14,14,0,0,0-1-2c-.94-1.8-2-3.66-1.38-5.19a2.54,2.54,0,0,1,1.47-1.47,7.19,7.19,0,0,0,1.2-2,8.25,8.25,0,0,1,1.77-2.67V7.07a6.55,6.55,0,0,1,0-3.92C91.89,1,92.92,0,94.21,0c3.77,0,7.05,10.07,7.44,12.54a10.58,10.58,0,0,1,1.25,3.39A7.79,7.79,0,0,0,104.1,19a3.37,3.37,0,0,1,1.65,2.49,3.54,3.54,0,0,1,.11.44c.76.33,2.18,1,2,2.54a5.58,5.58,0,0,1-.52,1.73,7.16,7.16,0,0,0-.35,1,2,2,0,0,1,0,2.19c.17.42.31.81.44,1.16a2.45,2.45,0,0,0,.52,1.16.87.87,0,0,1,.31,1l-.33.7a1.27,1.27,0,0,1,.53.42,1.75,1.75,0,0,1,.11,1.4h0a3,3,0,0,1,.7,2.29v.29a2,2,0,0,1,.72-.13,3.18,3.18,0,0,1,1.68.61,2.33,2.33,0,0,0,.9.39h.22a.92.92,0,0,1,.83.42,4.05,4.05,0,0,1,.46,1.36c.17.94.26,1,.5,1h.42a.73.73,0,0,1,.48.15c.9.59,1.23.59,1.4.59h.62a4.2,4.2,0,0,1,1.81.44.67.67,0,0,1,.35.26,18.05,18.05,0,0,0,1.58,1.69c1.51,1.46,3.19,3.13,2.34,5.73a4.43,4.43,0,0,0,2.82.77c1.69,0,4,.22,4.62,3v.68a8.85 8.85,0,0,0,0,1h.2c24.62.72,50.64,3,75.78,5.17,21.29,1.86,43.33,3.78,64.45,4.74,6.06.44,14,1,21.36,1.43l11.49.74a.88.88,0,0,1,.74.5.92.92,0,0,1,0,.88,9.55,9.55,0,0,0-1.2,2.87,12.62,12.62,0,0,1-1.12,2.9.79.79,0,0,1-.37.35c-1.34.64-1.47,1.66-1.53,3.44a8,8,0,0,1-.86,3.78,3.52,3.52,0,0,1-1,2.19c-.61.77-1,1.27-.79,2a.83.83,0,0,1-.15.76.89.89,0,0,1-.63.36V88a2.5,2.5,0,0,1-.42,1.68A3.69,3.69,0,0,1,295.76,91l-.52.46a4.36,4.36,0,0,1-.49,4.88,3.15,3.15,0,0,0,.11.44,2.18,2.18,0,0,1-.39,2.45,6.15,6.15,0,0,1-.83,5.6,8.37,8.37,0,0,1-1.23,5.39c-.22.41-.43.87-.68,1.4-.83,3.48-.1,3.85.53,4.18,1.31.68,1.88,1.6,.94,4.22a.85.85,0,0,1-.5.53c-.64.24-.72.26-.24,1.53a7,7,0,0,1,.43,1.57,1.71,1.71,0,0,1,1.25,2,.91.91,0,0,1-.46.59,1.64,1.64,0,0,1,0,1.07.91.91,0,0,1-.39.53c-.53.33-.53.48-.22,1.42a5.47,5.47,0,0,1,.26.9,1.13,1.13,0,0,1,0,.26,7.4,7.4,0,0,1-.22,1.36,12.4,12.4,0,0,0-.22,1.38,1.42,1.42,0,0,1,.81.54,1.36,1.36,0,0,1,.22.92,1.81,1.81,0,0,1,0,1.69,1,1,0,0,0-.11.39,4.48,4.48,0,0,0,.22,1,7.81,7.81,0,0,1,.33,3.11.9.9,0,0,1-.48.64h-.26a3.34,3.34,0,0,1-.27.81,8.47,8.47,0,0,1-.37,1.18,1,1,0,0,1,.26.94.93.93,0,0,1-.32.5l.37.13a.88.88,0,0,1,.5.55,1.87,1.87,0,0,1,0,.94.87.87,0,0,1,.4.57,5.52,5.52,0,0,0,.13,1.29v.7a1.06,1.06,0,0,1,1.09.59,1.09,1.09,0,0,1,0,.44h.33a1.6,1.6,0,0,1,1.31.48,1.28,1.28,0,0,1,.29.94,5.44,5.44,0,0,1-1,4,1.31,1.31,0,0,1-.63.68h0a1.4,1.4,0,0,1-.77,1.36,4.73,4.73,0,0,1,.13,1.35,4.51,4.51,0,0,0,0,.9.89.89,0,0,1,0,.68,1.42,1.42,0,0,1,.29,1.14,8.31,8.31,0,0,1-1.8,4.18,3.54,3.54,0,0,0-.46,1.18,3.73,3.73,0,0,1-2.19,3,7.86,7.86,0,0,0-.61,2.18c-.31,1.45-.68,3.2-2.19,3.83a2.84,2.84,0,0,0,.16,1.14,19.71,19.71,0,0,1,.3,3.07v.63a4.35,4.35,0,0,0,.33,3.61.81.81,0,0,1,0,.61c-.31,1.64-1.31,2-2.08,2h-.13a5.64,5.64,0,0,1-1,2.65,6.16,6.16,0,0,0-.72,1.51,4.31,4.31,0,0,1-.24,2.19c-.28,1-.3,1.27.11,1.66a.69.69,0,0,1,.24.4,6.53,6.53,0,0,1-.74,4.37,6.53,6.53,0,0,0-.66,2.19,3,3,0,0,1-.52,1.29,3.11,3.11,0,0,0-.22.4.79.79,0,0,1,.33.65.86.86,0,0,1-.27.68,3.13,3.13,0,0,0-1.07,2,1.16,1.16,0,0,1,.24.72c0,.76-.74,1.18-1.55,1.53a5.22,5.22,0,0,1-4.09,2.82,2,2,0,0,1-1.65-.76,1.28,1.28,0,0,1-.17-.42v-.2l-.29.22-.45.38a.84.84,0,0,1-.53.17.81.81,0,0,1-.61-.24,2.28,2.28,0,0,1-.72.63,1.67,1.67,0,0,1-1.58.79h-.31a8.67,8.67,0,0,1-3.15,3.07,2.63,2.63,0,0,1-.22.65v.27a1.37,1.37,0,0,1,.33,1.24,1.46,1.46,0,0,1-.94,1,5.82,5.82,0,0,0,.2.68,4.84,4.84,0,0,1,.19.65.85.85,0,0,1-.24.75,2.77,2.77,0,0,0-.48,2.18,1.5,1.5,0,0,1-.81,1.56.65.65,0,0,1,0,.39,1.13,1.13,0,0,1-.89,1.25,5.8,5.8,0,0,1-1.93,4.77,9.15,9.15,0,0,0-1.38,2,.9.9,0,0,1-.48.48h-.33a1,1,0,0,1-.35,0,4.8,4.8,0,0,0-.83-.29,2.37,2.37,0,0,1-.83.68,3,3,0,0,1-3,1.55,16.09,16.09,0,0,1-1.84-.13c-.51,0-1-.11-1.42-.11a1.3,1.3,0,0,0-.62,0l-.44.92a39.27,39.27,0,0,1-2.36,4.2.86.86,0,0,1-.72.4h-.09a5,5,0,0,0-1.31.48,12,12,0,0,1-1.34.53,1.7,1.7,0,0,1-1.07.35.94.94,0,0,1-.46.54,2.67 2.67,0,0,0,0,.4,3.05,3.05,0,0,1,0,.74.63.63,0,0,1-.11.35,1,1,0,0,1-.45,1.42,1,1,0,0,1-.44.11.89.89,0,0,1-.53-.13,3.42,3.42,0,0,1-1.55.5h-.51v.33a3.12,3.12,0,0,1-.11.86,1,1,0,0,1,.24.57,1.2,1.2,0,0,1,.84.5,1.15,1.15,0,0,1,.17.41,2,2,0,0,1,.42.53.9.9,0,0,1,.63.79.92.92,0,0,1-.2.61,1.23,1.23,0,0,1-.5,1.16,1.06,1.06,0,0,1,0,.61,2,2,0,0,1-.2.31,1.59,1.59,0,0,1-.85.7,1.28,1.28,0,0,1-1,.9.87.87,0,0,1-.17.22h0a1,1,0,0,1,0,.85,1.08,1.08,0,0,1-.53.41.82.82,0,0,1-.59.46,3.21,3.21,0,0,1,0,.62.79.79,0,0,1-.37.54.34.34,0,0,1-.2,0,1.32,1.32,0,0,1-1,1.12h-.22a.88.88,0,0,1-.42.59.73.73,0,0,1-.46.13h-.33a1.82 1.82,0,0,1-.56.22,10,10,0,0,0-.79.81h0a.91.91,0,0,1-.18.55.93.93,0,0,1-.28.28.89.89,0,0,1-.59.48l-.22.11a1.25,1.25,0,0,1-.75.22h-.3a1.5,1.5,0,0,1-.53.86,2.71,2.71,0,0,1-.48,1.48,3.52,3.52,0,0,1-.24,1.29v.2a.76.76,0,0,1,.15.26c.29.75-.54,1.58-.56,1.6a.85.85,0,0,1-.25.13,2,2,0,0,1-.78.59,1.22,1.22,0,0,1,0,.27,2.38,2.38,0,0,1-1,1.48,12.57,12.57,0,0,1-1.27,2.94.79.79,0,0,1,0,.48,1.16,1.16,0,0,1,.16.85.89.89,0,0,1,.15.57.81.81,0,0,1,0,.22,1.3,1.3,0,0,1-.2.61.59.59,0,0,1-.15.2c0,.2-.17.37-.24.52a.92.92,0,0,0-.17.86.89.89,0,0,1-.22.9,2.78,2.78,0,0,0-.11.5.81.81,0,0,1,0,.31h0a.75.75,0,0,1-.11.76.81.81,0,0,1,0,.22,2.47,2.47,0,0,1-.2,1.9,5.8,5.8,0,0,1,0,.59,2.33,2.33,0,0,0,.31,1.27c1.64.55,2.19,2.7,2.6,4.38v.46a4.53,4.53,0,0,1,1.38,4.38,2.18,2.18,0,0,1-2.47,1.47Z" fill-rule="evenodd"/>
</g>

    </svg>