<?xml version="1.0" encoding="utf-8"?>
<!-- Generator: Adobe Illustrator 26.2.1, SVG Export Plug-In . SVG Version: 6.00 Build 0)  -->
<svg version="1.1" id="regiao_08" xmlns="http://www.w3.org/2000/svg" xmlns:xlink="http://www.w3.org/1999/xlink" x="0px" y="0px"
	 viewBox="0 0 1071.4 709.6" style="enable-background:new 0 0 1071.4 709.6;" xml:space="preserve">
<style type="text/css">
	.st0{fill:#93D5F5;stroke:#FFFFFF;stroke-width:0.5;}
</style>
<path id="conceicao_de_macabu" class="st0" d="M545.4,282.7l16,32.6l31.4-7.9l25.6-90.2l7.2-4.8L644,200l-8.8-49.8l0,0l52.9,28.3
	l20.9,11.1l99.3-87.6l46.4-64.9l-22.2,1.2l-32-17.2l-27.1,20.6l-23.4,27l-38.4,1.8L655,93.7l-35.9-40.4l-17.9-0.6l-24-24l-9.6-1.2
	L553.2,21l-23.5,22.6L488,35.3l-9.6,16.8l-23,8l7.1,51.7l-16.1,15.3v31.3h25.3l23.7,16.6l4.8-2.5l12.2-6.4l0,0v16.6l5,0.4l12,1.1
	l0,0l-6.2,12.2l-1.4,3h14.9l-24,50.6l6.2,2.1l17.3,5.6l0,0v17.3l0,0l-6,1.2L545.4,282.7z"/>
<path id="carapebus" class="st0" d="M987.9,225.8l24.5-17.5l-24-47.3l-25.1-16.6l-154.8-41.2l-98.9,87.3l83.5,102.3v23l24,32.3
	l195.3-80.4v-7.5l-15.4-8.5L987.9,225.8z"/>
<path id="macae" class="st0" d="M791.9,316.4v-22.9l-83.5-102.4l-72.1-38.4l8.8,48.1l0,0l-25.8,17.4l-6.6,23.2l-19.2,67.3l-24.8,6.2
	l-8.2,2.1l-16.2-33.1l-5.8-2.5l-12.4-5.3l0,0l6.7-1.3l2.2-0.4v-15.4l-24-7.8l0,0l23.7-50.2h-14.8l7.5-15.3l-4.8-0.4l-11.4-1l0,0
	v-15.7l-15.9,8.4l-24-16.8h-25.8v-32.5l-14.4-9.6l-59.7,43.7l-83,15.1l-6.2,27.3v22.2l-36.2,7.9h-26.8l-18.6,8l-35.1,36l-16.1,4.5
	l-40.4,34.1l-9,16.5l-16.1,8.4l-8.9,16.9L59,373.6l66.6,33.2l7.6,32.8l-7.4,7.6l-0.6,9.6l8.2,7.9L118,487.2l24.7,9.6l-1.2,24.3h24
	l15-9l32.8,8.8l8.3-25.2l17.9,0.8l8.9-8.1l26.9-0.4l-8.9,41.2h18.8l20.7-7.7l16.3,7.3l-0.8-14.4H321l0.5-0.5v-0.4l51.5-49.3
	l32.8,15.7l47.3-15.6l24,6.2l4.1-11l5.9-16.5l2.2,28.5l38.4,9l40.3,21.9l5.8,0.5l11.1,0.8l9-16.7l41.2,9.6l8.1,7.5l64.4-39.3
	l1.4-16.7l-9.1-8.7l9.2-15.5l106.1-75.2l-24-32.3L791.9,316.4z"/>
<polygon id="rio_das_ostras" class="st0" points="568.2,503.4 567.8,503.4 526.6,481.4 488.5,472.5 488.5,472.4 488.4,472.3 
	486.3,449.9 482.6,459.7 478.3,471.9 453.3,465.5 405.8,481.2 373.3,465.6 323.8,513 325.6,514.4 344.3,518.9 358.9,521.1 
	390.4,512.5 373.5,529.9 381.2,547 365.5,554.7 373.3,572.8 422.6,619.9 421.7,653.1 439.4,692.1 456,660.3 479.8,653 496.1,661.6 
	546.5,595.4 570.4,595.4 588.4,575.5 602.7,546.2 624.9,524.2 643,505.1 633.4,497.4 595.3,488.4 586.3,505 574.3,504 568.4,503.6 
	"/>
</svg>
