<?xml version="1.0" encoding="utf-8"?>
<!-- Generator: Adobe Illustrator 26.2.1, SVG Export Plug-In . SVG Version: 6.00 Build 0)  -->
<svg version="1.1" id="regiao_10" xmlns="http://www.w3.org/2000/svg" xmlns:xlink="http://www.w3.org/1999/xlink" x="0px" y="0px"
	 viewBox="0 0 1071.4 709.6" style="enable-background:new 0 0 1071.4 709.6;" xml:space="preserve">
<style type="text/css">
	.st0{fill:#F2929E;stroke:#FFFFFF;stroke-width:0.5;}
</style>
<path id="barra_do_pirai" class="st0" d="M507.3,523.8l6.2-11.8l7.1-63.1h6.1l0.4-12.4l-20.2-14.4l26.9-35.4L506,345.9l-6.3-7.3
	l-13.8,0.5v-7.5l-11.3-0.4l-24.6,22l-13.2-0.5v13h-6.5l-0.5-19.2l-13.5,6.2l19.3-48.4l-18.4-13.6l-27.3,13.9L355.5,325L327,360.6
	l-7.1-15.7l12.1-7.1v-12.7h-19.7l-6.8-14.1l-7.2,7.7l-7.1-34.1h-40.8l-21.7-12.6v5.8l-41.4,33.9L168.5,359l90.1,27.6l-75.4,63
	l3.4,2.1c2.5,0.3,4.9,1.1,7.1,2.5c5.1,3.2,8.4,8.6,8.9,14.6l20.9,20.9l13.8-14.3l27.4,35.1h90l54.9,13.9l6.9-12.3v-14.8l14.9,0.6
	l20.2,12.9l13.6-6.8l14.2,14.4l-20.7,14.1v12.7H486l6.7-14.3L507.3,523.8z"/>
<polygon id="valenca" class="st0" points="292,283.4 298.9,316.4 305.8,309 313,323.9 333.2,323.9 333.2,338.2 321.3,345.2 
	327.3,358.5 354.9,324 389.5,303.5 417.4,289.3 437,303.7 418.2,350.5 430.8,344.7 431.3,364.5 435.8,364.5 435.8,351.5 449.7,352 
	474.2,329.9 486.9,330.5 486.9,338 500.2,337.4 506.8,345.2 534.6,385.8 553.5,367.8 553.5,350.7 588.3,364.8 596.7,339 
	616.1,338.7 616.1,317.7 631.3,317.7 623.5,296.8 635.7,289.9 658.5,290.3 678.4,276.4 693.4,275.6 712.7,256 705.5,256 
	713.3,248.6 706.3,234.3 707.1,234.3 711.9,234.3 685.3,220.5 699.5,214.5 685.9,208.8 691.9,186.5 673.5,186.5 657.3,165.4 
	644.5,165.4 637.9,159.2 637.1,137.8 616.2,123.7 631.2,111 637.1,55.4 624.3,35 617.4,42.7 610.2,20.8 582.7,28.3 554.7,49.5 
	517.9,27 525.8,27 520.9,7.7 432,48.3 396.1,48.6 389.8,62.6 286.6,97.4 286.4,103.9 258,118.2 230.2,104 217.2,118.1 182,117.6 
	161.2,146.2 160.7,132 144.4,131.7 139.6,145.7 126.1,145.9 126.9,173.5 113.3,173 106.2,180.1 92.3,173 92,193.7 63.7,193.7 
	51.2,206.7 84.7,213.4 77.9,233.8 98.8,248.1 98.8,277.2 86.4,283 98.8,296.8 98.8,303.5 126.6,310.8 131.8,303.4 155.3,302.7 
	228.8,270.1 228.8,270.6 250.7,283.4 "/>
<polygon id="mendes" class="st0" points="574.6,557.8 575.6,545.2 594.4,537.5 569.1,491 527,449.7 521.6,449.7 514.5,512.1 
	508.1,524.4 493.4,531.5 487.1,545.1 493,545.1 507.6,566.5 511.7,594.3 561,557.8 "/>
<polygon id="paracambi" class="st0" points="485,616.2 480,635.9 438.5,656.9 465.8,676.6 465.6,696.7 497.6,703.4 513.3,703.4 
	520.3,709.6 534.1,709.6 540.3,696.7 575.1,656.1 575.1,640.1 624.3,654.5 630.7,628.1 660.5,599.3 698.1,563.9 700,560.9 
	679.3,518.9 665.9,566.6 624.6,587.4 596.1,573.5 609.2,553.1 603,546.2 583.5,558.8 575.5,558.8 575.6,557.8 575.1,557.8 
	575.1,558.8 561.3,558.8 511.8,595.4 513.7,608.3 "/>
<polygon id="engenheiro_paulo_de_frontin" class="st0" points="720.6,442.3 570.3,491 595.8,538 576.6,546 575.6,557.8 583.2,557.8 
	603.2,545 610.5,553 597.6,573.1 624.6,586.3 665,565.9 679.1,516.1 700.7,560 740.4,498.4 734.1,449.6 "/>
<polygon id="vassouras" class="st0" points="859.8,180.1 845.7,180.1 830.2,214.4 797.2,201.3 782.2,243.3 742.6,235.3 714.2,255.8 
	693.8,276.6 678.8,277.4 658.9,291.3 635.9,290.9 624.8,297.3 632.8,318.7 617.1,318.7 617.1,339.7 597.4,340 588.9,366.2 
	554.5,352.2 554.5,368.2 534.9,386.9 508.4,421.7 528.1,435.9 527.7,449.1 569.7,490.1 720.7,441.2 735,448.9 741.4,498.3 
	748.3,515.8 768.7,434.7 776.2,427.6 790,434.4 803.2,420.9 803.9,406.9 813.4,401.9 816.9,399.6 803,382.1 823,353.1 816,343.6 
	802.7,306.7 795.7,312.9 803.2,282.4 976.8,242.1 921.9,184 921,180.4 885.5,200.5 "/>
<polygon id="rio_das_flores" class="st0" points="632.1,111.5 617.8,123.6 638.2,137.2 638.9,158.7 644.9,164.4 657.8,164.4 
	674,185.5 693.1,185.5 687.1,208.2 702.1,214.5 687.7,220.6 716,235.3 708,235.3 714.5,248.8 708,255 713.7,255 742.3,234.3 
	781.6,242.1 796.6,199.9 829.7,213.1 845,179.1 860.2,179.1 885.6,199.3 920.8,179.3 878.4,7.2 854.2,21.2 804.5,21.6 797.1,7.3 
	784,21.1 741.8,35.2 735.4,29 720.6,21.3 713.7,0 707.5,0 700.4,21.6 686.6,21.1 686.6,27.5 679.1,36.1 678.5,21.3 652.2,14.4 
	631.7,21.5 625.6,33.5 625,34.2 638.2,55.1 "/>
</svg>
