<?xml version="1.0" encoding="utf-8"?>
<!-- Generator: Adobe Illustrator 26.2.1, SVG Export Plug-In . SVG Version: 6.00 Build 0)  -->
<svg version="1.1" id="regiao_09" xmlns="http://www.w3.org/2000/svg" xmlns:xlink="http://www.w3.org/1999/xlink" x="0px" y="0px"
	 viewBox="0 0 1071.4 709.6" style="enable-background:new 0 0 1071.4 709.6;" xml:space="preserve">
<style type="text/css">
	.st0{fill:#C4D179;stroke:#FFFFFF;stroke-width:0.5;}
</style>
<g id="seropedica">
	<polygon class="st0" points="965.6,136.5 950,142.7 950,160.1 954,164.5 945,173.9 929.9,179.9 928.3,188.1 942.7,204.1 
		1030.4,254.2 1035.1,243.7 1049.9,239 1071.4,222.1 1056.1,159 1061.9,133.1 1051.6,100.4 1060.2,89.4 1062.1,79.2 1056.2,73.4 
		1045.4,79.5 1035.2,73.6 997.7,62.1 997.7,73.7 970.7,105.3 965.9,115.1 977.3,126.5 	"/>
</g>
<g id="itaguai">
	<polygon class="st0" points="831.1,270.4 853.8,270.4 854.1,300.3 858.3,292.6 874.7,286.3 894.7,292.8 875,303.1 886,313.5 
		905.7,302.4 906.2,297.2 912.2,297.2 912.2,302.6 927.5,302.2 927.5,287.4 965.4,274.5 970.6,259.6 1029.3,254.5 942.2,204.7 
		927.4,188.4 929.3,179.3 944.5,173.3 952.9,164.4 949.2,160.4 949.2,142.2 965.2,135.8 976.2,126.4 965.2,115.6 954.2,115.6 
		948.8,110.8 937,110.8 894.5,144.1 891.6,171 912.5,180.4 890.2,201.3 858.9,211.7 847.8,229.2 826.8,233.8 831.2,238.8 
		804.6,268.2 804.6,276.4 814.3,280.8 	"/>
</g>
<g id="mangaratiba">
	<polygon class="st0" points="783.8,313.6 793.5,307.2 826.4,312.4 826,323.6 831.4,324 832,334.2 853.9,323.9 862.4,323.6 
		858.1,318.9 867.8,308.6 853,308.4 846.4,310.4 837.6,310.8 853.4,301.6 853,271.2 831.3,271.2 814.4,281.7 804.1,277 782.5,275.5 
		766.8,255.3 756,261.1 750.2,251 718.6,270.9 708.7,265.7 676.3,271.2 654,255.5 635,269.8 617.2,287.4 612.7,287.3 601.1,314.5 
		591.8,309.4 612.2,377.2 612.8,399 617.5,399.3 623.6,404.2 643.7,399.6 665,382.3 670.9,367.7 681.6,361 686.2,350.5 682.1,334.3 
		714.3,318.4 719.1,330.2 714.2,335 719.3,340.8 703.8,356.1 724.3,356.1 724,340.2 734.7,340.2 735.4,334.6 752.3,318.6 	"/>
	<polygon class="st0" points="723.3,367.8 710,377.8 719.2,382.7 728.2,377.5 725,374 	"/>
	<polygon class="st0" points="818.9,362.4 804.7,372.5 810,382.2 	"/>
	<polygon class="st0" points="874.6,410.5 828.3,389.9 842,401.2 854,409.9 858.5,415.5 854,426.3 842.9,431.1 811.8,421.7 
		794.6,405.1 773.3,410.5 767.4,422.6 761.6,420.2 752.7,431 740.5,437.1 745.8,452.5 761.5,458.2 795.8,447.3 846.7,438.4 
		911.4,426.4 911.4,421.2 	"/>
</g>
<g id="angra">
	<polygon class="st0" points="422.7,326.2 433,332.3 428.4,341.4 460.3,321.1 443.7,315.8 437.9,322.3 438.2,315.5 448.6,310.4 
		443.5,304.8 449.5,304.4 454.9,309.8 459.7,298.8 470.1,305 482.1,304.8 476.3,315.3 482.2,315.5 470.8,321.2 476.4,332 
		471.1,331.7 470.9,336.6 493.2,331.5 502.8,332.1 491.6,342.8 492.4,353.8 475.8,352.7 476.1,363.7 460.2,364.6 444.6,380.2 
		460.3,395.4 490,375.8 497,368.7 503.1,374.4 497.7,389.6 503.1,389.8 513.1,378.7 518.6,384.9 523.9,368.7 535,374.7 544.7,362.7 
		560.5,379.8 566.9,379.2 566.6,385.7 556.3,390.9 541.8,412 556.6,417 584.3,401 593.7,407.1 590,416.5 599,411.1 599,406.4 
		608.6,410.5 604.4,401 615,395.7 615,394 614.9,375.3 593.9,305.6 572.1,310.9 550.6,294.6 555.6,256.9 545.2,256.9 535.1,235.8 
		507.7,236.2 496.8,246.7 492.1,235.7 488.2,235.7 481.1,240.5 481.1,230.8 475,230.8 433.5,246.7 400.6,241.2 384.6,257.3 
		357.9,272.7 347,257.8 347,245.5 342.2,235.7 331.5,235.7 299.7,256.8 288.8,272.6 281.8,272.6 267.6,267.4 235.2,272.8 
		212.5,295.9 211.6,296 242.1,323.9 274,341.8 282,373.4 279.3,400.5 308.7,390.1 326.3,395.4 347.5,374.1 353.2,379.3 364.2,374.3 
		364.2,384.4 368.8,379.4 379.7,390.3 388.6,385.3 378.5,384.6 374.4,379.3 385.3,368.5 394.8,363.6 379.6,358.6 389.5,348.3 
		384.8,336.9 395,331.5 394.6,326.4 406.3,320.1 405.9,325.5 	"/>
	<polygon class="st0" points="624.2,571.2 624.2,558.7 613.2,558.7 	"/>
	<polygon class="st0" points="322.9,419.8 333,415.1 338.2,406.2 338.5,406.4 338.5,406.4 338.5,405.4 322.9,415.3 	"/>
	<polygon class="st0" points="408.8,356.1 412.7,351.9 408.8,351.9 	"/>
	<polygon class="st0" points="451.8,426.1 455.8,430.1 450.8,415.2 456.1,415.2 451.6,405.3 435.4,405.3 430.2,400.1 420.1,410 
		445.9,409.5 	"/>
	<polygon class="st0" points="660.4,511.8 654.4,496.6 632.8,507 637.9,496.1 633.7,490.1 648.2,480.3 643.7,475.2 629.8,480.1 
		612.4,496.3 606.2,490.4 606.7,475.2 585.7,475.2 575.9,464.7 570.2,464.7 570.2,463.9 579.4,463.3 589.5,458.2 574.8,458.2 
		573.6,453.2 555.1,444 552.2,441.9 555.7,438.9 548,442.3 553.5,443 548,453.3 532.8,457.7 537.8,458.4 542.6,463.2 530.2,469.9 
		519.6,473.4 517.8,474 520.8,474.5 510.7,490.7 499.1,485.5 499.4,469.8 489.7,474.2 490.3,490.3 478.3,490.9 478.3,497 
		474.1,506.7 461.7,501.4 430.1,517.5 435,528.6 446,521.2 446,534.4 462.3,527.3 452.2,554.1 462.3,559.7 457.6,564.3 467.5,564.3 
		482.9,528.6 494.2,522.1 521.2,526.8 526.5,532.8 522,538.2 537.4,532.3 537.4,539.3 532.1,543.8 537.1,549.1 574.9,538.7 
		584.2,543.3 594.9,538.1 590.6,532.8 596.5,527.6 606.4,527.6 616.6,517.8 634.3,517.2 649.4,522 640,533.6 670.3,523.1 
		675.5,512.7 	"/>
</g>
<g id="paraty">
	<polygon class="st0" points="293.7,594.2 288.9,605.5 261,599.8 255.3,594.6 267.4,582.9 276.6,562.8 245.8,567.3 245.4,579.1 
		230,588.6 219.3,610.8 203.9,615.7 209.4,627.3 197.3,620.5 223.9,582.9 229.1,567.8 213.4,573.6 213.2,567.8 203.1,567.6 
		193.4,578.3 182.8,579.2 163.4,584.2 175.6,577.3 176.2,572.1 180.6,566.8 187.3,566.3 195.5,562.1 191.8,561.8 192.5,550.4 
		202,556.5 213.4,550.4 209.1,557 218,561.4 223.6,545.5 228.4,545.6 219.3,535.6 207.8,535.6 207.8,525.1 197.8,529.8 192.6,545.9 
		187.4,545.9 165.6,568.6 148.4,568.6 149.4,551.1 138.1,540.8 153.7,529.6 144,524.2 159.1,514 149.2,502.9 164.6,491.6 
		159.5,481.3 169.7,476 159.8,471.2 170,428.1 175.9,428.1 175,422.8 186.9,411.7 202.7,417.2 202.7,405.7 213,411.8 229.2,406.5 
		230.1,411.4 252,406.1 246.3,422 278.5,400.8 279.3,400.5 281.6,373.3 274,341.8 241.8,323.9 211.5,296 181.7,299 171.2,316 
		149.5,310.9 122.1,322 117.8,330.8 112,352.1 111.9,352.3 80.3,353.4 80.7,363.3 69.7,369 80.4,380.1 69.4,413.4 64.2,417.5 
		69.6,423.2 57.9,443.8 63.7,454.7 58.2,460.2 62.9,476.9 58.2,482 58.2,486.6 53.2,492.1 53.3,508.5 10.1,524.3 0.1,540.3 
		5.3,551.3 0,562.4 0,566.7 5.1,567.2 10.9,582.7 43.2,588.3 37.4,594.4 53.1,610.3 49.8,614.9 68.7,609.6 85,626.2 90.7,657.5 
		105.5,662.4 117.4,674.9 137.1,679.1 132.2,673.5 139.3,673.5 154,657.9 170.1,664.3 181.6,652.2 181.4,662.9 192.1,663.2 
		191.8,657.5 197.9,662.9 207.7,652.7 219.4,657.4 214.6,667 224.4,657.6 230.1,669.1 240.4,668.7 235.4,679.2 255.7,674.7 
		277.1,653.5 271.9,642.6 282.1,630.8 293.3,630.8 303.2,615.5 315.3,614.9 320.8,625.7 325.2,621 	"/>
	<polygon class="st0" points="163,505.9 163,515.9 172.6,506.7 167.5,501.5 	"/>
	<polygon class="st0" points="238.7,558.5 253,549.5 247.7,544.9 228.7,563.5 	"/>
</g>
</svg>
