<svg id="regiao_10" xmlns="http://www.w3.org/2000/svg" viewBox="0 0 1071.39 709.6">
  <style>
    .bairro {
      fill: #f2929e; /* Cor base da Região 10 */
      stroke: #FFF;
      stroke-width: 0.5;
      transition: fill 0.2s ease-in-out;
    }
    .bairro:hover {
      fill: #FFD700 !important;
    }
    .bairro.selecionado {
      fill: #E44D26 !important;
    }
  </style>

  <path id="barra_do_pirai" class="bairro" d="M302.13,483l1.53-2.92,1.77-15.64h1.51l.09-3.07-5-3.57,6.66-8.78-6.89-10.1-1.57-1.81-3.43.12v-1.87l-2.8-.11-6.09,5.46-3.27-.12v3.22h-1.61l-.12-4.77-3.34,1.54,4.79-12-4.57-3.37-6.76,3.44-8.54,5.07-7.06,8.84-1.75-3.89,3-1.76v-3.16H253.8l-1.69-3.5-1.78,1.9-1.77-8.45H238.45l-5.37-3.13V422l-10.26,8.4-4.68,11.76L240.48,449l-18.69,15.62.84.51a4.24,4.24,0,0,1,1.76.61,4.76,4.76,0,0,1,2.2,3.61l5.19,5.19L235.2,471,242,479.7H264.3l13.61,3.44,1.71-3.05v-3.68l3.7.15,5,3.19,3.37-1.69,3.52,3.57-5.14,3.49v3.16h6.78l1.66-3.55Z"/>
  <polygon id="valenca" class="bairro" points="248.76 423.41 250.47 431.59 252.17 429.77 253.96 433.46 258.97 433.46 258.97 437.01 256.02 438.73 257.51 442.04 264.34 433.49 272.93 428.39 279.83 424.88 284.69 428.46 280.05 440.05 283.17 438.61 283.29 443.52 284.41 443.52 284.41 440.29 287.84 440.42 293.93 434.95 297.07 435.08 297.07 436.94 300.36 436.81 302.01 438.73 308.89 448.79 313.58 444.33 313.58 440.11 322.19 443.6 324.29 437.19 329.1 437.13 329.1 431.91 332.86 431.91 330.93 426.75 333.94 425.02 339.61 425.12 344.54 421.67 348.25 421.49 353.04 416.62 351.25 416.62 353.18 414.79 351.46 411.25 351.66 411.25 352.83 411.25 346.25 407.82 349.76 406.34 346.39 404.93 347.87 399.39 343.31 399.39 339.31 394.18 336.13 394.18 334.5 392.62 334.31 387.32 329.11 383.82 332.83 380.68 334.31 366.9 331.12 361.84 329.42 363.76 327.62 358.33 320.81 360.19 313.87 365.44 304.76 359.86 306.72 359.86 305.49 355.07 283.45 365.13 274.56 365.22 272.99 368.69 247.42 377.32 247.36 378.93 240.34 382.46 233.43 378.94 230.22 382.45 221.5 382.33 216.34 389.42 216.2 385.89 212.17 385.82 210.99 389.29 207.64 389.34 207.83 396.17 204.46 396.04 202.7 397.81 199.26 396.06 199.19 401.19 192.17 401.19 189.08 404.4 197.37 406.06 195.68 411.13 200.87 414.66 200.87 421.88 197.79 423.33 200.87 426.75 200.87 428.4 207.77 430.22 209.06 428.38 214.87 428.19 233.08 420.12 233.08 420.24 238.52 423.41 248.76 423.41"/>
  <polygon id="mendes" class="bairro" points="318.81 491.43 319.05 488.32 323.71 486.41 317.45 474.88 307.01 464.65 305.66 464.65 303.9 480.11 302.32 483.15 298.69 484.92 297.12 488.28 298.57 488.28 302.2 493.58 303.21 500.48 315.44 491.43 318.81 491.43"/>
  <polygon id="paracambi" class="bairro" points="296.6 505.92 295.35 510.79 285.06 515.99 291.83 520.88 291.78 525.87 299.72 527.52 303.62 527.52 305.35 529.06 308.76 529.06 310.31 525.87 318.92 515.81 318.92 511.84 331.12 515.39 332.71 508.87 340.09 501.73 349.43 492.94 349.9 492.21 344.77 481.79 341.43 493.61 331.21 498.77 324.14 495.33 327.39 490.27 325.85 488.57 321.01 491.68 319.04 491.68 319.06 491.43 318.92 491.43 318.92 491.68 315.52 491.68 303.25 500.76 303.71 503.95 296.6 505.92"/>
  <polygon id="engenheiro_paulo_de_frontin" class="bairro" points="355 462.8 317.74 474.87 324.06 486.53 319.29 488.5 319.06 491.43 320.93 491.43 325.89 488.25 327.7 490.24 324.5 495.23 331.21 498.5 341.22 493.44 344.71 481.09 350.06 491.97 359.91 476.7 358.34 464.61 355 462.8"/>
  <polygon id="vassouras" class="bairro" points="389.51 397.81 386 397.81 382.17 406.32 373.99 403.06 370.27 413.47 360.44 411.5 353.42 416.58 348.36 421.73 344.63 421.92 339.69 425.37 334 425.27 331.24 426.86 333.22 432.16 329.35 432.16 329.35 437.38 324.47 437.44 322.35 443.93 313.83 440.48 313.83 444.44 308.96 449.07 302.4 457.71 307.29 461.21 307.19 464.48 317.59 474.66 355.02 462.53 358.57 464.45 360.16 476.69 361.87 481.03 366.91 460.93 368.77 459.17 372.21 460.84 375.46 457.49 375.65 454.02 377.99 452.79 378.87 452.23 375.43 447.87 380.37 440.7 378.64 438.33 375.35 429.18 373.6 430.72 375.48 423.18 418.49 413.17 404.89 398.77 404.67 397.88 395.87 402.86 389.51 397.81"/>
  <polygon id="rio_das_flores" class="bairro" points="333.07 380.8 329.52 383.8 334.56 387.19 334.75 392.51 336.23 393.93 339.43 393.93 343.44 399.14 348.19 399.14 346.69 404.78 350.4 406.34 346.83 407.84 353.85 411.5 351.86 411.5 353.49 414.84 351.88 416.37 353.29 416.37 360.38 411.24 370.11 413.18 373.84 402.73 382.04 406 385.84 397.56 389.6 397.56 395.89 402.56 404.61 397.62 394.12 354.96 388.1 358.43 375.79 358.52 373.97 354.98 370.72 358.41 360.24 361.89 358.66 360.36 355 358.44 353.29 353.17 351.75 353.17 349.98 358.53 346.57 358.39 346.57 359.98 344.7 362.11 344.56 358.45 338.04 356.73 332.97 358.5 331.44 361.48 331.29 361.65 334.57 366.84 333.07 380.8"/>
</svg>