<svg id="regiao_11" data-name="regiao 11" xmlns="http://www.w3.org/2000/svg" viewBox="0 0 638.3 709.6">
    <style>
        .bairro {
            fill: #a88aac; /* Cor base da Região 11 (lilás/roxo claro) */
            stroke: #FFFFFF;
            stroke-width: 0.5;
            transition: fill 0.2s ease-in-out;
        }
        .bairro:hover {
            fill: #FFD700 !important; /* Amarelo dourado para hover */
            cursor: pointer;
        }
        .bairro.selecionado {
            fill: #E44D26 !important; /* Laranja para o item clicado/selecionado */
        }
    </style>

    <g id="teresopolis" class="bairro">
        <polygon points="309.5 466 322.3 446.1 318.9 442.8 309.1 426.7 303.5 388 303.5 350.5 276 355.3 232.1 394.4 206.8 399.6 193 414.4 163.6 420.4 148.1 451.7 121.6 451.7 104.5 470.3 64.4 491.4 49.4 510.5 49.6 510.6 33.1 522.8 38.5 531.4 6.7 542.7 0 555.7 19.2 562.4 26.4 576.4 15.6 576.4 32.6 589.1 13.1 601.4 19.6 614.3 14.2 626.3 19 626.3 12.8 652 25.4 677.8 25.5 690 31.6 702.9 50.4 697.3 76.4 709.6 114.3 684.7 139.6 690.3 161.1 690.3 179 684.8 179 665.8 198.7 658.8 198.7 651.7 243.5 639.8 237.2 627.3 250 619.5 250 612.1 280.5 618.9 282 619.2 328.6 587.6 328.6 568.1 340.7 561.3 328.4 549 348.2 523.1 342.4 511.8 342.4 496.5 337.3 472.4 309.5 466"/>
    </g>
    <g id="carmo" class="bairro">
        <polygon points="380.8 168.3 362.4 179.7 369.1 187 369.1 192.9 491.1 238.5 504.1 218.8 529.6 218.8 543.7 210.5 549 201 535.7 201 543.1 192.8 536 186.4 562.2 165.9 554.8 146.3 562.2 136.9 554.5 127.9 598.2 104.5 638.3 90.4 613.2 70 623.9 58.8 625 57.7 619.8 50.2 625.9 43.7 594.4 11.3 608.6 0 600.2 0 478.5 57.2 485.3 65.1 452.1 70.8 388.5 90.8 394.5 135.2 380.8 168.3"/>
    </g>
    <g id="sumidouro" class="bairro">
        <polygon points="355.1 212.5 361.7 226.2 348.5 238.9 348.5 246.4 342.6 251.9 348.6 258.3 340.3 278.2 310.9 271.8 329.6 310.3 303.1 342.5 304.5 350.4 304.4 350.4 304.4 387.9 310 426.4 319.7 442.2 323.5 445.9 311 465.4 338.1 471.6 343.2 495.7 386.5 471 386.5 452 400.3 445.7 400.3 439.7 411.5 439.7 412.8 439.7 419.7 413.2 446 427.1 471.9 406.9 496.5 406.9 509.4 400.7 504.1 388.5 490 388.5 483.3 369.5 451.4 369.5 445.5 360.9 458 335.2 474.6 329.9 457.7 323 452.4 316.1 463.9 303.7 490.4 290.4 476.9 270 496.7 270.8 497.6 252.6 481.9 252.6 490.6 239.3 368.8 193.8 355.1 212.5"/>
    </g>
    <g id="sao_jose_do_vale_do_rio_preto" class="bairro">
        <polygon points="103.9 469.5 121.2 450.8 147.5 450.8 162.9 419.5 192.6 413.5 206.3 398.8 231.6 393.5 275.6 354.4 303.4 349.6 302.1 342.9 297 343.8 275.9 347.5 266.5 347.5 235.2 363.9 187.9 394.6 179.6 380 187.6 349.4 179.8 330.4 166.1 330.2 148.1 336.3 135 322.8 121.4 329.3 96 310.7 82 310.7 76.5 325.7 96.4 361.9 52.9 376.1 32 376.1 2.3 437.5 17.8 433.1 37.9 460 26.6 490.3 31.4 504 48.4 510.1 63.8 490.6 103.9 469.5"/>
    </g>
    <g id="sapucaia" class="bairro">
        <polygon points="96.3 309.8 121.5 328.2 135.2 321.6 148.4 335.3 166 329.2 180.5 329.5 188.6 349.4 180.7 379.8 188.3 393.3 234.8 363.1 266.3 346.6 275.8 346.6 296.8 342.8 302.3 341.9 328.5 310.2 309.2 270.4 339.8 277.1 347.5 258.5 341.2 251.8 347.6 246 347.6 238.5 360.6 226 354.1 212.4 368.2 193.1 368.2 187.3 360.9 179.6 380 167.6 393.5 135 387.6 91.2 253.5 160.9 173.7 180.5 141.4 213.6 84 238.9 57.6 258.7 51.5 258.8 46.6 255.3 39.3 263.6 43.1 269.3 39.3 309.8 81.7 309.8 81.7 309.8 96.3 309.8"/>
    </g>
</svg>