<?xml version="1.0" encoding="utf-8"?>
<!-- Generator: Adobe Illustrator 26.2.1, SVG Export Plug-In . SVG Version: 6.00 Build 0)  -->
<svg version="1.1" id="regiao_05" xmlns="http://www.w3.org/2000/svg" xmlns:xlink="http://www.w3.org/1999/xlink" x="0px" y="0px"
	 viewBox="0 0 1071.4 709.6" style="enable-background:new 0 0 1071.4 709.6;" xml:space="preserve">
<style type="text/css">
	.st0{fill:#5CA67B;stroke:#FFFFFF;stroke-width:0.5;}
</style>
<g id="cantagalo">
	<path class="st0" d="M493.4,63l-7.9,6.9l18,19.9l2.8,2.9l-3.8,4.1l-0.5,0.6l2.4,3.5l1.3,1.7l-7.9,8.2l17.6,14.7h0l0,0l-9.7,3.3
		l-18.3,6.4l-30.6,16.4l4.6,4.3l0.1-0.1l63.3,89.5l21.7-25.9l45-4.4l8.7-9.8h4.2l0.3-3.2l8.9-0.8l2.4-6.6l-1-7.2l12.6-36.1l14.5,9.4
		l-4.7,4.2l0.6,4.4l8.6-3.8l9,8.3l8.7-18.4h2.7l-3.2-3.5l5.3-22.8H691l14.3-12.3l-33.5-56.5L662,33L650,0l-17.9,12.8l-25.7,12.9
		l-17.1,8.7h-1.9l-14-2.6l-7.8-1.3l-14.7,4.7l-2.4,2.7l-5.7,6.6L493.4,63L493.4,63z"/>
</g>
<g id="nova_friburgo">
	<path class="st0" d="M632.2,444.6l0.8-0.8c-6.5-5.8-18.4-16.9-18.4-16.9l-38.1,9l-10.5,0.8l-86.5-59.8l3.6-8.6l-8.9-14L444,332.6
		l-15-4.6l-7.5,4.4l3.9,9.1l-2.4,1.1l-6.4,3.6l-17.9-0.2l-18.3,14.2l-17.9-9.5l-4.6,17.9v0.2h-8.6v4.4l-6.4,2.5l-3.1,1.4v13.4
		l-11.9,6.5l-19,10.8v10.3l4.2,8.1L299.6,444l6.2,6.7l2.3,2.3l-2.1,1.1l-6.8,4.3v12.7l13.1,4.7l0.2,13.9h9.3v4.4l9.1,4.1l18.2-4.6
		l8.9,9.1l21-9l23-22.5l14.5,4.7l8.6,18l-4.3,17h4.5l-3.7,8.7l-13.9,14.9l3.3,4.2h9.4l4.4,3.9h11l17.6-13.1l8.3-0.5l21.8,9.8
		l13.7-9.4l36.3-7.6l10-2.1h13.1l3.1-4.1l11.1,9.7l5.3-5.9l2.2,5.1l10.9-8.8l6.5,4.7l26.3-13.1l-8.5-8.8l23.7-19l21.8-3.7v-5.4
		l13.7,9l-3.5-16.5L632.2,444.6z"/>
</g>
<g id="trajano_de_morais">
	<path class="st0" d="M849.3,273l-26.6-12.7l-38-0.7l-34.9-8.1v-13.9l-23.1,4.7l-4.1-4.9l-0.7,1.8v-6.5h-4.4l-11.9-13.3l-13.9,4.5
		l-5.9,4.9l-21-4.9l-9.5,13.1l-5.3-4.3l-7.3,3.6l7.9,4.9l-17.8,10.2l-5.6,31.2l-2.6,3.3v5.7h8.2v13l-21-3.6l12.8,8.6l-4.6,9.1h-4.2
		l-5.1,4.7l8.9,21.7v14.2l36,22.7l-13.1,4l-0.8,14.3l-31,21.4c0,0,16.1,15.4,22.9,21.4l7.5-7l5.3-10l8.7-4.4l4.9-8.9l22.9-19.2
		l8.3-2l19.3-19.6l11.1-4.7l13.4,0.2l19.8-4.4l-0.2-12l3.5-15.1l45.2-8.2l33.2-24.2l8.5,5.3l8.4-7.9L849.3,273z"/>
</g>
<g id="sao_sebastiao_do_alto">
	<path class="st0" d="M669.7,129.8l-5.1,21.9l3.4,3.7l5.5,0.4l13.9,18.2L669,206h-8.2l4.1,9.2v8.1l20.8,4.8l5.8-4.8l14.5-4.7
		l11.9,13.4h4.8v3.3l4.3-12l26.3-21.8l-3.2-9.3l-1.1-9.1l9.8,4.7l4.2-4.2l-13.7-19.1l19.1,5v-14.5l9,5.7l30.3-39.7l-4.6-4.5
		l14.1-9.9v-4.6l26.5-27l0.3,0.4l9-9.6l4.4-13.8l9.4-4.2l0.1-9.3l3.9-8.2l-3.3,0.4l-8.6-9.3l-19.6,9.6l-3.4-6.1l-28,17.9l4.9,9.5
		L799,48.1l-8.9,15l-3-4.6l-10.5,8.4l5.4,8.4l-4.5,1.3l-18.8-0.8l-4.2,9.8l-5.4-4.1L741.1,94l-9.1-1.4l8.7,9.4l-5.6,8.6l-10.1-6.8
		l-6.5-1.3l4.3,8.7l-3.7,5.8H706l-14.7,12.7L669.7,129.8L669.7,129.8z M410.8,539.5l-3.9-4.9l14.2-15.2l3.2-7.7H420l4.5-17.6
		l-8.4-17.5l-13.9-4.5l-22.8,22.2l-21.5,9.3l-9-9.1l-18,4.5l-9.8-4.4v-4.1H312l-0.2-14.1l-12.9-4.6L266.4,494l-21.8-4.8v4.7
		l-8.7,5.3l4.4,8.9l-31.5,8.4v4.9l-13.7,4.9v13.2l-13,4h-15l-6,4l-1.2,9.3l13.1,17.6l8.9,4.6l-0.3,5.5l-4.1,4.2l4.4,14.6l18.1,21.6
		l-13.3,17.9l-13.1,3.9l-5,13.9l8.8,13.6l-4.4,13.4l40-13.2l41.9-0.2l30,35.7l38.3-18.6l3.2-3.4l-0.1-8.9l27.4-5.7l22.9,13.9
		l22.2-18l16.3-7.8l-26.4-56l13.8-10.9l4-26l8.7-2.3l0.4-13.9h8.8l0.1-8.8l-4.2-3.7L410.8,539.5L410.8,539.5z"/>
</g>
<g id="cachoeiras_de_macacu">
	<path class="st0" d="M610.6,237.3l-13.1,31.8l12.8,8.6l16.6,4.1l5.5-30.8l17.1-9.9l-8-4.9l8.7-4.3l4.9,4.2l9.2-12.7v-8.1l-4.4-10
		h8.8l18.1-31.3l-13.5-17.6l-5.4-0.4h-3l-8.9,18.8l-9.3-8.6l-9,4l-0.7-5.7l4.3-3.9l-13.1-8.5l-12.3,35.2l1,7.2l-2.5,7.1l-8.7,0.8
		l-0.3,3.3h-4.5l-8.4,9.5l9,22H610.6L610.6,237.3z M411.4,332h9.5l7.9-4.7l15.2,4.7l43.2-22.3l-0.9-3.5l-2.7-10.8l0.5,0.2l22.8,8.9
		l8-4.5l23.4,5.4l4.7,4l5.5-6.1l2.7-3l20.7-7.9l1.2-0.5l-48.1-45.6l-0.1,0.1l-18-25.4l-45-63.6l-4.1,6l-1,1.7l0.9,2.4L462,178
		l-0.3,0.3l0.1,0.1l-7.2,5.4l-10.3,8.1l4.2,4.3l0.3,0.3l-4.6,5.1h8.9l-4.3,7.8l-0.2,0.1l-0.1,0.2l-7.3,4.2l-2.5,1.5h-0.1l-0.6,0.3
		l-16.9-0.3l-13.9,21.8h9.3v0.3h0.3l-0.7,13.7v0.3h-12.8l4.9,7.5l3.8,5.7l-0.1,0.1l-17.5,8.7l-8.8,9.1l2.1,2.7l1.1,1.3l5.2,2.1
		l0.5,0.2l7.9,3l-8.9,2.7l-4.5,1.4l-8.4,17.3l3.7,5.3l10.6,0.1h11.8L411.4,332L411.4,332z"/>
</g>
<g id="cordeiro">
	<path class="st0" d="M573.9,291.5l0.1,0.2l0.3,0.3l-0.2,0.1l4.7,12.6l17.7-9.1l13.7,8.7l-0.3-4.5l0.5,0.3l21.8,3.7v-11.5h-8.5v-6.5
		l2.7-3.2l-16.5-4.1l-13.3-9l13-31.4h-8.9l-9.1-22.3l-44.6,4.4l-21.6,25.8l48.4,45.8L573.9,291.5L573.9,291.5z"/>
</g>
<g id="bom_jardim">
	<path class="st0" d="M548.1,304.8l-4.9,5.5l-0.2-0.2l-5.3-4.2l-10-2.3l-12.3-2.9l-8.2,4.5l-0.7,0.4l-21.8-9.1l3,12.1l0.4,1.5
		l-43.3,22.4l30,21.5l9.1,14.4l-3.5,8.4l85.8,59.3l10.3-0.8l37.5-8.7l-4.1-4.9l31.3-21.7l0.8-14.4l12.3-3.8l-35.1-22.1v-14.5l-9-22
		l5.7-5.1h4l4.2-8.2l-13-8.8l0.2,4.5l-14.5-9.2l-18,9.3l-4.9-13.2l-21.9,8.4L548.1,304.8L548.1,304.8z"/>
</g>
</svg>
