<svg id="regiao_05" xmlns="http://www.w3.org/2000/svg" data-name="regiao 05" viewBox="0 0 872.52 709.6">
  <style>
    .bairro {
      fill: #5ba57c; /* Cor base da Região 05 */
      stroke: #FFFFFF;
      stroke-width: 0.5;
      transition: fill 0.2s ease-in-out;
    }
    .bairro:hover {
      fill: #FFD700 !important; /* Amarelo dourado para hover */
      cursor: pointer;
    }
    .bairro.selecionado {
      fill: #E44D26 !important; /* Laranja para o item clicado/selecionado */
    }
  </style>

  <g id="cantagalo" class="bairro">
    <polygon points="333.5 63.02 325.64 69.94 343.67 89.82 346.51 92.75 342.74 96.8 342.26 97.38 344.66 100.87 345.92 102.57 337.97 110.76 355.52 125.48 355.52 125.49 355.54 125.5 345.87 128.84 327.59 135.19 297.02 151.56 301.61 155.87 301.66 155.78 365.01 245.26 386.69 219.38 431.73 214.97 440.38 205.17 444.64 205.17 444.96 201.93 453.83 201.11 456.19 194.53 455.21 187.35 467.81 151.24 482.36 160.63 477.63 164.84 478.17 169.28 486.77 165.46 495.74 173.79 504.45 155.4 504.65 155.4 507.17 155.4 503.97 151.91 509.29 129.14 531.05 129.14 545.35 116.81 511.87 60.34 502.05 33.06 490.05 0 472.19 12.76 446.48 25.61 429.35 34.34 429.28 34.34 429.02 34.34 429 34.35 428.93 34.34 427.45 34.34 413.48 31.8 405.69 30.52 390.95 35.27 388.53 37.99 382.88 44.57 333.5 63.02"/>
  </g>
  <g id="nova_friburgo" class="bairro">
    <path d="M472.28,444.63l.82-.8c-6.48-5.76-18.5-16.93-18.5-16.93l-38.17,9-10.58.82-86.47-59.77,3.63-8.57-8.85-14-30.25-21.71-15-4.59-7.46,4.42,3.93,9.09L263,342.72l-6.42,3.59-17.93-.16-18.18,14.26-17.94-9.53-4.63,17.89,0,.22h-8.58v4l-.08,0v.47l-6.41,2.46-3.14,1.44v13.19h0v.26L168,397.18,149,408v10.33l4.14,8.11L139.68,444l6.19,6.74,2.32,2.32-2,1.16-6.82,4.29v12.69L152.54,476l.17,13.93H162v4.36l9.17,4.11,18.18-4.59,8.95,9.11,20.95-9,22.94-22.45,14.52,4.67,8.59,18-4.33,17h4.48l-3.64,8.66-13.88,14.85,3.32,4.22h9.43l4.4,3.92h11l17.61-13,8.34-.51L323.83,539l13.69-9.4L373.81,522l10-2.14,13.25-.08,3.09-4.06,11.16,9.68,5.13-5.89,2.24,5.09,10.88-8.82,6.53,4.69,26.34-13.06-8.51-8.74,23.52-19,21.84-3.72v-5.39l13.71,9L509.43,463Z"/>
  </g>
  <g id="trajano_de_morais" class="bairro">
    <path d="M689.44,273.05l-26.59-12.73-38-.65L590,251.61V237.72l-23.13,4.53-4.12-4.86-.65,1.82v-6.46H557.7l-11.87-13.33L531.9,223.9l-5.95,5L504.79,224l-9.54,13.16-5.16-4.33-7.27,3.56,8,4.87L473,251.56l-5.58,31.19-.14,0L464.52,286v5.67H473v13l-21.2-3.6,12.81,8.65L460,318.74h-4.16l-5.11,4.65,8.9,21.71v14.25l36,22.63L482.45,386l-.81,14.3-31,21.42s16.14,15.38,22.94,21.4l7.48-7,5.29-10,8.68-4.37,4.88-8.93,22.87-19.19,8.3-2,19.32-19.56,11.14-4.7,13.41,.16,19.77-4.34-.16-12,3.48-15.1L643.21,328l33.16-24.19,8.54,5.36,8.38-7.9Z"/>
  </g>
  <g id="sao_sebastiao_do_alto" class="bairro">
    <polygon points="509.81 129.79 504.69 151.72 508.08 155.42 513.64 155.82 527.57 173.98 509.09 205.99 500.92 205.99 504.98 215.22 504.98 223.35 525.78 228.15 531.58 223.32 546.04 218.66 558 232.09 562.75 232.09 562.75 232.42 562.75 235.42 567.03 223.42 593.36 201.64 590.16 192.35 589.11 183.24 598.9 187.97 603.11 183.76 589.35 164.65 608.43 169.67 608.43 155.14 617.49 160.84 647.8 121.18 643.16 116.7 657.22 106.78 657.22 102.16 683.74 75.14 684.11 75.5 693.11 65.9 697.53 52.13 706.9 47.87 707.02 38.59 710.95 30.38 707.71 30.81 699.08 21.57 679.44 31.14 676.03 25.05 648.06 42.94 652.93 52.43 639.09 48.11 630.14 63.1 627.12 58.48 616.62 66.88 622 75.24 617.53 76.52 598.69 75.71 594.45 85.56 589.1 81.48 581.22 93.97 572.15 92.61 580.86 102.02 575.28 110.59 565.14 103.83 558.64 102.51 562.96 111.25 559.21 117.07 546.06 117.07 531.29 129.79 509.81 129.79"/>
  </g>
  <g id="cachoeiras_de_macacu" class="bairro">
    <polygon points="250.94 539.5 247.07 534.59 261.26 519.41 264.47 511.76 260.14 511.76 264.62 494.17 256.25 476.62 242.38 472.16 219.63 494.42 198.16 503.67 189.15 494.5 171.12 499.06 161.35 494.68 161.35 490.55 152.06 490.55 151.89 476.42 139.05 471.82 106.44 494 84.67 489.17 84.67 493.84 75.96 499.16 80.41 508.06 48.94 516.42 48.94 521.29 35.23 526.19 35.23 539.42 22.23 543.42 7.23 543.42 1.19 547.44 0 556.71 13.09 574.28 22.02 578.87 21.77 584.35 17.65 588.58 22.1 603.14 40.22 624.7 26.9 642.62 13.74 646.52 8.71 660.4 17.52 673.98 13.15 687.34 53.12 674.11 95.02 673.94 125.06 709.6 163.32 691.02 166.49 687.61 166.37 678.66 193.8 672.95 216.72 686.85 238.97 668.85 255.23 661.02 228.82 605.04 242.63 594.18 246.64 568.2 255.34 565.93 255.75 551.98 264.56 551.98 264.64 543.24 260.44 539.5 250.94 539.5"/>
  </g>
  <g id="macuco" class="bairro">
    <polygon points="450.65 237.32 437.51 269.17 450.29 277.8 466.87 281.95 472.38 251.14 489.49 241.22 481.46 236.3 490.18 232.03 495.13 236.19 504.33 223.5 504.33 215.36 499.91 205.34 508.71 205.34 526.78 174.03 513.3 156.46 507.9 156.06 507.9 156.06 504.86 156.06 495.95 174.88 486.64 166.24 477.62 170.25 476.94 164.58 481.27 160.71 468.16 152.24 455.88 187.42 456.86 194.6 454.31 201.73 445.56 202.54 445.24 205.83 440.68 205.83 432.27 215.35 441.24 237.32 450.65 237.32"/>
  </g>
  <g id="duas_barras" class="bairro">
    <polygon points="251.49 332.03 260.96 332.03 268.84 327.35 284.03 332.01 327.24 309.67 326.38 306.16 323.72 295.34 324.23 295.55 347.01 304.5 354.98 299.95 378.44 305.38 383.15 309.39 388.62 303.28 391.31 300.26 412 292.31 413.17 291.86 365.01 246.28 364.96 246.34 346.98 220.93 301.98 157.38 297.9 163.41 296.88 165.14 297.76 167.52 302.08 178.03 301.77 178.27 301.83 178.41 294.68 183.83 284.34 191.93 288.58 196.18 288.57 196.18 288.93 196.5 284.31 201.58 293.18 201.58 288.87 209.33 288.65 209.46 288.54 209.66 281.25 213.82 278.76 215.29 278.68 215.29 278.1 215.62 261.23 215.29 247.33 237.15 256.65 237.15 256.65 237.48 256.99 237.48 256.32 251.18 256.31 251.53 255.98 251.52 244.08 251.52 243.55 251.52 248.47 258.98 252.23 264.69 252.23 264.69 252.23 264.69 252.13 264.74 234.65 273.48 225.89 282.56 227.99 285.31 229.12 286.64 234.25 288.74 234.77 288.95 242.64 292.02 233.7 294.73 229.22 296.16 220.8 313.49 224.46 318.74 235.04 318.81 246.84 318.81 251.49 332.03"/>
  </g>
  <g id="cordeiro" class="bairro">
    <polygon points="413.97 291.55 414.05 291.79 414.38 292.1 414.19 292.17 418.85 304.73 436.55 295.64 450.25 304.33 450 299.78 450.49 300.11 472.35 303.82 472.35 292.31 463.87 292.31 463.87 285.74 466.54 282.54 450.02 278.41 436.7 269.42 449.67 237.97 440.8 237.97 431.67 215.64 387.02 220.01 365.44 245.77 413.85 291.6 413.97 291.55"/>
  </g>
  <g id="bom_jardim" class="bairro">
    <polygon points="388.14 304.79 383.22 310.3 383.22 310.29 383.21 310.3 382.98 310.11 377.66 305.88 367.72 303.57 355.39 300.72 347.15 305.18 346.49 305.56 324.67 296.45 327.63 308.51 328 310.02 328 310.02 328 310.02 284.69 332.4 314.65 353.91 323.75 368.31 320.19 376.7 406.03 436.04 416.33 435.24 453.8 426.55 449.68 421.63 481.01 399.98 481.83 385.55 494.08 381.78 458.97 359.71 458.97 345.24 449.93 323.22 455.58 318.08 459.58 318.08 463.77 309.87 450.73 301.06 450.97 305.57 436.52 296.4 418.49 305.65 413.58 292.41 391.69 300.82 388.14 304.79"/>
  </g>
  <g id="santa_maria_madalena" class="bairro">
    <path d="M657.87,107.12l-13.68,9.66,4.49,4.33-31,40.61-8.56-5.39v14.19L591,165.75l13,18.08L599,188.76l-9.13-4.41.9,7.86,3.33,9.65-26.54,21.95L563,236.67l4.11,4.85,23.54-4.6v14.17L625,259l38,.65,26.67,12.77,12.8-4.11,5.32-9.64,23,4.54,12.89-12.35,8.15,3.82,5.36.49L769.78,268l10.13.49,19.44,22.24,30.3-12.29,12.16-.83L828.34,250.7l3.93-8.71-8.86-9.61,9.16-3.8.15.1,2,1.33,29.88-24.34.33-14.66.29,0,.08,0,.27-.07a2.78,2.78,0,0,0,.83-.47,3.91,3.91,0,0,0,1.23-3.27c0-1.9-.69-4.79-2.83-9.08l0-.07.49-26.27,7.27-12.8L816,138.6l-6-9.08-32.15,9.09-31-6.4-3.34-3.72-.24-7.75h-5.66l1.36,9L707,125.12l-9.65-13.37-13.5-35.82-26,26.5Z"/>
  </g>
</svg>