<svg id="regiao_09" xmlns="http://www.w3.org/2000/svg" viewBox="0 0 1071.39 709.6">
  <style>
    .bairro {
      fill: #c4d179; /* Cor base da Região 09 */
      stroke: #FFF;
      stroke-width: 0.5;
      transition: fill 0.2s ease-in-out;
    }
    .bairro:hover {
      fill: #FFD700 !important; /* Destaque amarelo-ouro */
    }
    .bairro.selecionado {
      fill: #E44D26 !important; /* Laranja/vermelho para o bairro selecionado */
    }
  </style>

  <g id="seropedica" class="bairro">
    <polygon points="308.9 535.98 303.91 537.98 303.91 543.55 305.19 544.94 302.3 547.96 297.49 549.87 296.96 552.5 301.56 557.62 329.63 573.65 331.12 570.28 335.87 568.78 342.74 563.38 337.85 543.2 339.69 534.89 336.41 524.43 339.16 520.92 339.76 517.67 337.89 515.79 334.44 517.77 331.16 515.88 319.17 512.18 319.17 515.9 310.52 526.01 308.99 529.16 312.65 532.78 308.9 535.98"/>
  </g>
  <g id="itaguai" class="bairro">
    <polygon points="265.88 578.82 273.12 578.82 273.24 588.4 274.58 585.92 279.82 583.9 286.22 586 279.91 589.28 283.44 592.62 289.75 589.05 289.88 587.39 291.8 587.39 291.8 589.12 296.7 589 296.7 584.26 308.83 580.15 310.51 575.38 329.28 573.74 301.4 557.82 296.69 552.58 297.27 549.69 302.15 547.75 304.85 544.93 303.66 543.65 303.66 537.81 308.77 535.76 312.28 532.76 308.78 529.31 305.25 529.31 303.53 527.77 299.75 527.77 286.14 538.42 285.23 547.03 291.9 550.05 284.79 556.71 274.75 560.06 271.21 565.65 264.48 567.11 265.9 568.71 257.38 578.13 257.38 580.73 260.51 582.16 265.88 578.82"/>
  </g>
  <g id="mangaratiba" class="bairro">
    <polygon points="250.73 592.65 253.85 590.61 264.37 592.25 264.25 595.84 265.97 595.96 266.16 599.24 273.15 595.95 275.88 595.84 274.5 594.35 277.61 591.05 272.88 590.99 270.78 591.61 267.95 591.76 272.99 588.81 272.87 579.07 265.95 579.07 260.53 582.44 257.23 580.93 250.31 580.47 245.31 573.99 241.85 575.86 239.99 572.61 229.89 579 226.7 577.31 216.36 579.08 209.22 574.07 203.15 578.63 197.44 584.28 195.99 584.24 192.29 592.95 189.32 591.31 195.84 613 196.03 619.98 197.54 620.07 199.48 621.64 205.91 620.17 212.75 614.62 214.61 609.96 218.06 607.82 219.51 604.45 218.2 599.27 228.51 594.18 230.04 597.97 228.48 599.48 230.11 601.34 225.16 606.24 231.72 606.24 231.62 601.16 235.02 601.16 235.26 599.37 240.66 594.24 250.73 592.65"/>
    <polygon points="231.4 609.98 227.14 613.19 230.07 614.74 232.95 613.08 231.92 611.97 231.4 609.98"/>
    <polygon points="261.98 608.27 257.42 611.49 259.11 614.6 261.98 608.27"/>
    <polygon points="279.78 623.66 264.98 617.04 269.35 620.68 273.2 623.45 274.63 625.23 273.21 628.69 269.65 630.22 259.71 627.22 254.21 621.91 247.38 623.65 245.5 627.52 243.65 626.76 240.8 630.19 236.9 632.17 238.58 637.07 243.62 638.89 254.59 635.43 270.86 632.57 291.55 628.74 291.55 627.08 279.78 623.66"/>
  </g>
  <g id="angra" class="bairro">
    <polygon points="135.22 596.69 138.51 598.63 137.04 601.55 147.24 595.05 141.95 593.36 140.1 595.42 140.18 593.26 143.51 591.61 141.89 589.82 143.79 589.7 145.53 591.43 147.07 587.91 150.39 589.89 154.23 589.83 152.36 593.19 154.26 593.26 150.62 595.07 152.4 598.53 150.72 598.44 150.64 600.01 157.76 598.36 160.86 598.57 157.25 601.98 157.53 605.51 152.22 605.14 152.31 608.66 147.21 608.95 142.22 613.94 147.26 618.81 156.76 612.54 158.98 610.28 160.94 612.09 159.2 616.95 160.93 617.03 164.15 613.48 165.91 615.47 167.61 610.27 171.14 612.2 174.24 608.35 179.32 613.81 181.36 613.62 181.26 615.7 177.96 617.39 173.33 624.12 178.05 625.72 186.91 620.59 189.93 622.55 188.74 625.56 191.63 623.83 191.63 622.32 194.68 623.66 193.36 620.59 196.74 618.9 196.73 618.37 196.7 612.37 189.99 590.08 183.02 591.78 176.14 586.56 177.74 574.5 174.4 574.5 171.19 567.75 162.43 567.89 158.94 571.24 157.41 567.71 156.18 567.71 153.92 569.25 153.92 566.15 151.96 566.15 138.67 571.25 128.16 569.48 123.03 574.62 114.49 579.57 111 574.79 111 570.87 109.47 567.71 106.05 567.71 95.86 574.47 92.39 579.53 90.16 579.53 85.61 577.86 75.25 579.61 67.99 586.97 67.69 587 77.45 595.94 87.66 601.67 90.21 611.77 89.36 620.43 98.74 617.12 104.39 618.83 111.17 612 112.98 613.67 116.5 612.07 116.5 615.3 117.98 613.7 121.48 617.19 124.3 615.58 121.07 615.37 119.76 613.65 123.25 610.21 126.29 608.63 121.42 607.05 124.6 603.74 123.1 600.11 126.36 598.36 126.23 596.74 129.98 594.73 129.85 596.45 135.22 596.69"/>
    <polygon points="199.69 675.06 199.69 671.05 196.18 671.05 199.69 675.06"/>
    <polygon points="103.31 626.61 106.54 625.12 108.19 622.27 108.3 622.33 108.3 622.33 108.3 622.01 103.31 625.19 103.31 626.61"/>
    <polygon points="130.77 606.24 132.03 604.91 130.77 604.91 130.77 606.24"/>
    <polygon points="144.53 628.64 145.81 629.92 144.2 625.14 145.91 625.14 144.48 621.99 139.3 621.99 137.63 620.32 134.4 623.5 142.65 623.32 144.53 628.64"/>
    <polygon points="211.27 656.06 209.34 651.18 202.44 654.53 204.05 651.02 202.71 649.11 207.36 645.96 205.92 644.35 201.47 645.9 195.91 651.08 193.92 649.19 194.1 644.33 187.38 644.33 184.22 640.98 182.41 640.98 182.4 640.73 185.35 640.55 188.59 638.9 183.89 638.9 183.51 637.31 177.59 634.36 176.66 633.7 177.78 632.74 175.32 633.81 177.06 634.05 175.32 637.33 170.44 638.76 172.04 638.97 173.59 640.51 169.61 642.65 166.22 643.78 165.63 643.97 166.6 644.11 163.37 649.3 159.66 647.64 159.75 642.63 156.65 644.01 156.84 649.17 153.02 649.36 153.02 651.31 151.66 654.43 147.69 652.73 137.6 657.86 139.17 661.43 142.69 659.06 142.69 663.29 147.9 661.01 144.67 669.57 147.89 671.37 146.4 672.85 149.56 672.85 154.47 661.44 158.09 659.35 166.74 660.85 168.42 662.78 166.99 664.49 171.92 662.6 171.92 664.84 170.21 666.28 171.83 667.99 183.91 664.65 186.88 666.13 190.31 664.46 188.94 662.77 190.83 661.12 193.99 661.12 197.25 657.96 202.91 657.77 207.76 659.32 204.75 663.03 214.44 659.65 216.1 656.33 211.27 656.06"/>
  </g>
  <g id="paraty" class="bairro">
    <polygon points="93.95 682.42 92.43 686.02 83.48 684.19 81.68 682.53 85.55 678.79 88.48 672.38 78.63 673.82 78.51 677.57 73.58 680.63 70.16 687.72 65.22 689.3 67 693.01 63.12 690.82 71.63 678.81 73.28 673.98 68.28 675.81 68.21 673.96 64.97 673.9 61.88 677.31 58.49 677.62 52.26 679.22 56.18 676.99 56.36 675.34 57.78 673.65 59.92 673.47 62.55 672.13 61.37 672.03 61.58 668.4 64.61 670.34 68.27 668.41 66.9 670.5 69.75 671.92 71.53 666.82 73.07 666.87 70.14 663.66 66.47 663.66 66.47 660.32 63.28 661.82 61.6 666.95 59.95 666.95 52.99 674.21 47.47 674.21 47.79 668.61 44.18 665.32 49.17 661.75 46.06 660.01 50.89 656.75 47.73 653.21 52.66 649.59 51.04 646.29 54.28 644.61 51.12 643.06 54.39 629.27 56.27 629.27 55.97 627.58 59.8 624.04 64.83 625.78 64.83 622.11 68.13 624.05 73.33 622.35 73.62 623.94 80.6 622.24 78.79 627.32 89.1 620.53 89.34 620.45 90.1 611.74 87.64 601.67 77.35 595.94 67.67 587 58.13 587.99 54.77 593.42 47.83 591.78 39.07 595.33 37.7 598.16 35.84 604.95 35.81 605.03 25.7 605.38 25.82 608.56 22.3 610.36 25.71 613.91 22.2 624.57 20.54 625.87 22.25 627.7 18.51 634.3 20.39 637.8 18.63 639.55 20.12 644.89 18.62 646.52 18.62 648 17.01 649.74 17.04 654.99 3.22 660.04 0.02 665.16 1.69 668.68 0 672.25 0 673.6 1.64 673.78 3.5 678.72 13.81 680.52 11.96 682.46 16.98 687.57 15.92 689.04 21.98 687.35 27.18 692.64 29.03 702.66 33.74 704.23 37.55 708.23 43.85 709.57 42.3 707.79 44.57 707.79 49.25 702.8 54.4 704.85 58.1 700.95 58.03 704.38 61.44 704.49 61.37 702.66 63.3 704.39 66.44 701.12 70.18 702.63 68.65 705.7 71.78 702.68 73.62 706.36 76.91 706.23 75.32 709.6 81.8 708.17 88.66 701.37 86.99 697.9 90.25 694.13 93.84 694.13 97 689.23 100.87 689.04 102.62 692.49 104.03 690.98 93.95 682.42"/>
    <polygon points="52.16 654.16 52.16 657.35 55.21 654.42 53.59 652.74 52.16 654.16"/>
    <polygon points="76.37 671 80.94 668.12 79.23 666.63 73.16 672.58 76.37 671"/>
  </g>
</svg>