<svg id="regiao_08" xmlns="http://www.w3.org/2000/svg" viewBox="0 0 1071.39 709.6">
  <style>
    .bairro {
      fill: #93d5f5; /* Cor base da Região 08 */
      stroke: #FFF;
      stroke-width: 0.5;
      transition: fill 0.2s ease-in-out;
    }
    .bairro:hover {
      fill: #FFD700 !important;
    }
    .bairro.selecionado {
      fill: #E44D26 !important;
    }
  </style>

  <path id="conceicao_de_macabu" class="bairro" d="M816.34,406l3.33,6.78,6.54-1.64,5.33-18.78,1.5-1,3.8-2.57L835,378.43h0l11,5.89,4.34,2.32L871,368.41l9.65-13.51-4.62.24-6.66-3.58-5.64,4.29-4.86,5.62-8,.37-11.73,4.81-7.47-8.41-3.72-.12-5-5-2-.25-3-1.34-4.89,4.71-8.67-1.74-2,3.5-4.78,1.66,1.48,10.76-3.36,3.18v6.52H801l4.94,3.45,1-.53,2.53-1.33h0v3.45l1.05.09,2.49.22h0L811.73,388l-.3.62h3.1l-5,10.54,1.3.43,3.61,1.17h0v3.61h0l-1.25.25Z"/>
  <path id="carapebus" class="bairro" d="M908.42,394.15l5.09-3.64-5-9.84-5.22-3.45-32.21-8.58L850.5,386.81l17.37,21.29v4.78l5,6.72,40.64-16.74V401.3l-3.21-1.76Z"/>
  <path id="macae" class="bairro" d="M867.62,413v-4.77l-17.37-21.3-15-8,1.83,10h0l-5.37,3.62-1.37,4.82-4,14-5.16,1.29-1.71.43-3.38-6.88-1.21-.52-2.59-1.11h0l1.39-.28.45-.09V401l-5-1.63h0l4.94-10.44H811l1.56-3.18-1-.09-2.38-.21h0v-3.26l-3.3,1.74-5-3.5h-5.36v-6.76l-3-2-12.43,9.09-17.27,3.15-1.28,5.68v4.62L754,395.85h-5.57l-3.87,1.66L737.25,405l-3.36.94-8.4,7.1-1.87,3.43-3.35,1.74-1.86,3.52-3.3,3.18,13.86,6.9,1.58,6.82L729,440.22l-.12,2,1.71,1.64-3.2,4.68,5.15,2-.25,5.05h5l3.12-1.87,6.83,1.84,1.73-5.25,3.73.16,1.86-1.68,5.6-.09-1.86,8.57h3.92l4.31-1.6,3.4,1.52-.17-3h-.12l.11-.1V454l10.72-10.25,6.83,3.27,9.85-3.25,5,1.29.86-2.28,1.23-3.43.45,5.94,8,1.88,8.39,4.56,1.21.1,2.32.16,1.87-3.48,8.57,2,1.69,1.57,13.4-8.17.3-3.48-1.89-1.82,1.92-3.22,22.08-15.64-5-6.72Z"/>
  <polygon id="rio_das_ostras" class="bairro" points="821.07 451.93 821 451.93 812.42 447.35 804.49 445.5 804.49 445.46 804.47 445.45 804.04 440.78 803.27 442.83 802.36 445.36 797.17 444.04 787.28 447.3 780.52 444.06 770.21 453.91 770.59 454.22 774.47 455.14 777.51 455.6 784.07 453.81 780.55 457.43 782.15 461 778.89 462.59 780.51 466.37 790.77 476.16 790.59 483.08 794.28 491.2 797.73 484.58 802.67 483.06 806.06 484.85 816.56 471.06 821.54 471.06 825.27 466.93 828.25 460.82 832.87 456.25 836.64 452.27 834.65 450.67 826.71 448.8 824.85 452.26 822.34 452.04 821.12 451.96 821.07 451.93"/>
</svg>