<?xml version="1.0" encoding="utf-8"?>
<!-- Generator: Adobe Illustrator 26.2.1, SVG Export Plug-In . SVG Version: 6.00 Build 0)  -->
<svg version="1.1" id="regiao_07" xmlns="http://www.w3.org/2000/svg" xmlns:xlink="http://www.w3.org/1999/xlink" x="0px" y="0px"
	 viewBox="0 0 1071.4 709.6" style="enable-background:new 0 0 1071.4 709.6;" xml:space="preserve">
<style type="text/css">
	.st0{fill:#D1AF6C;stroke:#FFFFFF;stroke-width:0.5;}
</style>
<polygon id="itaperuna" class="st0" points="751.2,343.6 751.2,332.1 729.8,319 734.6,319.5 731.6,315.8 719.4,311.4 702.2,320.2 
	690.1,305.5 686.6,295.7 674,295.7 678.1,287.8 670.6,283.2 678.1,271 674.4,266.7 674.4,263.1 658.3,263.1 649.8,267.1 649.8,251 
	625.2,246.8 625.2,227.4 605.2,234.6 616.3,221.4 601.3,206.8 580.9,219.5 578.4,226.6 565.8,230.1 561,239.3 549.8,238.7 
	553.6,243.2 549.6,242.8 545,250.6 540.1,255.1 511.8,239.1 511.8,231.4 492.9,234.9 488.2,238.7 480.3,239 476.4,226.3 
	487.7,206.5 480.4,202 472,202 464,178.8 444.6,174.5 444.6,177.9 444.6,177.9 444.6,178 431.7,178 431.7,182.2 431.8,186.5 
	431.7,186.5 431.7,186.5 431.4,186.8 420.8,197.5 420.6,198.4 419.3,203.1 419.2,203.1 419.1,203.2 413.5,204.7 412,205.2 
	407.9,217.9 407.9,218.1 407.9,218.1 407.8,218.1 390.8,218.1 387.7,234.4 371,254.7 382.8,266 386.9,254.4 396,254.4 391.2,259.6 
	391.8,265.7 399,259 415.9,258.3 419.9,262.6 415.8,263.3 411.9,270.3 419.7,278.2 415.3,282.6 423.3,290.4 427,286.7 431.2,270.2 
	439.2,278.4 443.8,265.6 468.6,270.8 460.8,277.9 464.7,279.4 468.3,294.6 460.7,302.4 476.2,311.4 460,315.3 455.6,324.5 
	447.6,328 448.2,346.9 440.2,351.2 448.4,360.7 440.8,364.1 443.9,372.8 436.1,376.6 436.1,380.4 449.5,384.3 476.6,375.3 
	480.3,367.6 488.2,363.6 496.1,363.6 503.8,359.8 503.8,356.1 512.7,352.2 540.8,355.5 548.7,343.3 561.3,347.6 570.1,343.3 
	581.6,347.6 602.2,339.3 618.4,364.6 618.4,364.6 643.3,407.4 647.3,405.7 658.5,400.4 678.7,388.2 679.3,388.5 679.3,388.5 
	679.8,388.7 686.4,391.5 692.7,386.3 694.9,384.2 704.8,378.8 710.9,375.3 711,375.4 711.1,375.3 722.5,383.9 722.7,375 
	723.3,375.3 723.3,375.3 723.9,375.7 739,383.5 739.2,371.9 763.7,363.8 763.7,356.9 763.7,356.7 763.7,356.7 763.7,348.2 "/>
<path id="miracema" class="st0" d="M318.1,421l16.9,16.6l31,20.2l53.1,3l8.2-16.6l16.8,0.4l16.2-12.2c6.7-11.8,13.3-23.6,19.9-35.5
	l-8.4-8.4l-0.1-0.1l4.7-12.4l-26.8,8.9l-14-4.1v-4.2l-13.5-5l-11.1-10.2v-9.5l-3.2,4.4l-5.1-4.9l-11.6,8.9l-19.8-3.9l-19.6,16l0,0
	l-4.5,3.7l3.6,3.4l0.1,0.1v0.2l-3.7,7.9l-0.2,0.2l0,0l-4.1,5.5l-8.1,10.9l7.3,4h0.1l0,0l0,0v3.9l-6.9,2.5l-5.4,2l-3.8-2.1l-4.3-2.4
	L318.1,421z"/>
<polygon id="bom_jesus_de_itabapoana" class="st0" points="739.2,247.1 718.7,247.1 718.7,247.1 718.6,247.1 719.2,243.5 
	715.5,238.8 715.4,237.5 714.9,235 707,239 706.8,239.1 694.7,226.9 686.7,230.2 687,234.2 686.6,234.2 686.6,234.3 682.7,234.3 
	678.4,234.4 678.2,226.5 679.1,226.4 685.2,225.7 675.9,221.3 672.9,220.2 666.4,218.1 666.5,218 666.4,218 678.2,202.3 673,196.7 
	670.6,194.1 670.5,185.3 673.7,187.1 678.1,189.3 678.3,185.9 678.3,185.5 674.1,174 674.2,173.9 674.1,173.7 682.3,166.3 
	674.3,157.9 674.1,157.7 674.1,157.7 674.1,157.7 678.8,150.6 682.5,145 682.5,144.9 678.6,124.9 670.4,116.3 669.4,115.2 
	669.4,115.2 665.7,103.8 665.8,103.8 665.7,103.5 671.9,103.8 674.6,103.8 676.1,98.3 678.6,88.3 674.1,84.8 674.4,84.3 682.2,68.1 
	674.5,64.3 662.4,72.1 662.4,72.2 654.4,72.2 617.6,116 622.3,126.3 629.9,128.5 626.4,144.9 626.4,144.9 602.5,190.3 594.6,190.3 
	594.2,196.7 601.2,196.7 601.7,206.3 617.1,221.3 607,233.3 625.8,226.5 625.8,246.3 650.4,250.5 650.4,266.1 658.1,262.5 
	675,262.5 675,266.5 678.8,271 671.4,283 678.9,287.6 675,295.1 687,295.1 690.6,305.2 702.3,319.5 719.4,310.7 731.9,315.3 
	736,320.2 732.4,319.9 751.7,331.8 751.7,343.2 764.3,347.8 764.3,356.3 808.6,323.8 821.3,322.6 824,312.5 839.9,299.9 
	841.5,284.4 831.6,277.9 831.6,277.7 831.6,277.7 831.6,277.5 831.6,270.9 819.6,271.6 812.6,267.6 812.3,267.9 808.1,274.9 
	800.6,271.7 788.4,271.7 788.3,271.7 788.3,271.7 788.2,271.7 788.1,271.6 787,270.3 783.5,263.3 775.9,271.1 776.1,267.3 
	776.1,263.8 767.8,258.7 762.9,251.2 762.7,251.3 747.4,254.9 "/>
<polygon id="santo_antonio_de_padua" class="st0" points="341.6,604.2 341.9,604.1 341.9,604.1 342.3,604 342.6,603.8 342.6,603.9 
	357.2,599.4 370.2,595.5 379,597.7 370.3,587.3 370.3,579.3 386,572.6 386.8,572.2 389.7,554.7 407,542.3 424.1,542.3 431.3,542.3 
	459.5,506.7 459.5,493.4 500.1,468.9 491.5,460.5 500.2,453.6 496.5,433 492.4,429 480.8,436.4 460.5,432.9 444.3,445.2 
	427.6,444.8 419.5,461.3 365.8,458.3 334.6,438 318.1,421.7 318.1,429.9 309.3,449.4 315.3,453.1 321.8,457 321.6,460.5 
	333.5,468.8 333.4,468.9 333.5,468.9 331.3,471.8 330,473.5 329.9,473.6 329.7,473.8 325.5,475 317.5,477.6 314.2,492.9 
	313.9,494.1 298.4,494.1 298.7,505.3 296.7,508.5 293.1,514.7 281.7,514.7 285.9,523.1 281.4,526 272.9,531.6 267.8,538.1 
	267,539.1 259.5,552.4 257.8,555.5 268.9,559.6 265.9,561.8 257.9,567.6 260.2,570.4 260.8,571.1 273.1,567.6 276.7,583.3 
	301.1,575.8 306.4,580.8 313.4,587.5 314.3,595.1 318,591.6 318.2,591.8 318.4,591.6 321.9,595.3 322.2,595.6 325.8,604.6 
	322.4,616 324.6,616 335.1,608.9 341.7,604.3 "/>
<polygon id="itaocara" class="st0" points="496.6,567.8 493,567.2 480.1,559.3 472.1,564 416.1,607.5 379.8,598.5 369.4,596.3 
	348.9,602.6 342.8,604.4 363.3,659.3 392.4,709.6 403.6,709.6 404.6,708.2 406.6,705 402.4,696.3 409.7,697.7 418.7,703.5 
	421.4,699.8 423,697.4 413.7,687.3 423.3,688.6 430.7,677.5 430.8,677.6 430.9,677.5 432.7,678.8 435.7,680.8 437.5,676.6 
	439,672.5 456.5,673.2 457.6,672.9 459.5,672.3 454.9,665.3 454.8,665.1 454.8,665.1 454.8,665.1 455,664.9 465.1,656.6 
	465.3,656.9 465.4,656.8 468,660.6 469.2,658.6 475.4,647.5 487.2,650.9 483.6,643.7 483.4,643.4 483.7,643.3 509.5,626.8 
	510.8,629.1 512.9,632 529.8,623.8 530.2,624.2 530.4,624 537.1,630.4 537.1,539.3 "/>
<polygon id="varre-sai" class="st0" points="561.5,73.1 561.5,88.9 573.4,105.3 553.6,109.2 549.8,121.6 557.1,128.5 580.5,136.3 
	588.5,120.9 618.5,129.4 615,137 625.9,144.5 629.2,128.9 621.9,126.8 616.9,115.9 654.1,71.6 661.9,71.6 664.5,47.5 665.8,35.7 
	653.8,29.7 642.2,24.1 642.2,24.1 580.8,69 "/>
<polygon id="porciuncula" class="st0" points="495.8,161.5 495.8,129 509.3,124.5 528,128.4 528,112.2 537,120.8 544.4,108.6 
	553.4,108.6 572.4,104.9 560.9,89 560.9,72.6 580.5,68.4 640.8,24.4 616.9,29.1 617,28.9 616.8,28.9 618.3,27.1 620.5,24.1 
	608.9,24.2 608.9,24.1 608.7,24.1 608.7,15.6 606.6,14.9 597.4,12.3 596.6,9.4 593.7,0 580.8,0 561.1,24.1 560.8,24 560.8,24 
	558.8,23.5 545.6,20.2 537.9,44.5 546,48.5 545.9,48.6 545.9,48.6 544.7,49.8 526.2,67.9 529.4,72.5 529.8,73.1 521.5,84.7 
	516.5,101.5 516.4,101.6 508.8,105.6 512.4,113 484.6,105.8 455.7,112.7 455.5,112.7 455.5,112.7 435.9,112.7 422.7,121.3 
	425.1,125.6 424.8,125.6 424.9,125.7 424.4,125.7 423.6,125.7 415.3,125.9 413,127.6 400.4,137.4 400.4,140.4 407.8,149.4 
	444.6,169.3 444.6,169.4 453.8,169.4 "/>
<polygon id="cambuci" class="st0" points="590.6,375.8 581.6,388.5 561.7,400.4 565.1,408.5 528.7,432.8 516.8,457.2 501,469 
	501,469 460.1,493.8 460.1,506.9 431.6,542.9 424.1,542.9 424.1,545.9 439.8,558.9 448.1,558.9 455.8,563.1 472.3,563.1 
	472.3,563.2 480.2,558.7 493.2,566.6 496.5,567.2 537.7,538.2 537.7,538.3 560.4,526.1 580.3,526.6 580.3,510.2 610.4,485.7 
	613.4,470.8 609.5,464.6 662.3,452.7 682.4,449.4 640.7,414.4 642.9,407.9 617.9,364.9 "/>
<polygon id="laje_de_muriae" class="st0" points="390.8,359.8 402.6,350.7 407.6,355.5 411.4,350.2 411.4,361.1 422.3,371.1 
	435.8,376.1 443.1,372.5 440.1,363.7 447.4,360.5 439.3,351 447.6,346.6 446.9,327.6 455.2,324.1 459.6,314.8 474.6,311.2 
	459.8,302.5 467.6,294.5 464.2,279.8 459.7,278.1 467.3,271.1 444.2,266.3 439.5,279.5 431.6,271.3 427.5,287 423.3,291.2 
	414.5,282.7 418.9,278.2 411.2,270.4 415.4,262.8 418.7,262.2 415.6,259 399.3,259.6 391.3,267 390.6,259.4 394.6,255 387.3,255 
	383.1,267.1 370.8,255.2 366.7,266.9 366.5,266.9 366.5,267 365,266.9 362.9,266.9 364,269.2 370.7,283.7 370.7,283.7 370.7,283.7 
	370.5,284.7 367.9,295.2 374.6,298.6 374.9,298.7 374.8,298.7 375,298.8 371.9,304.5 370.8,306.7 375,316.4 351.3,335.7 
	349.6,342.1 347.5,351.2 344,358.3 343.3,359.9 351.3,372.1 371,355.9 "/>
<polygon id="aperibe" class="st0" points="448,559.5 439.5,559.5 423.6,546.2 423.6,542.9 407.1,542.9 390.3,555.1 387.3,572.6 
	387.2,572.7 386.2,573.1 370.9,579.8 370.9,587.1 380,597.9 415.9,606.9 471.4,563.7 455.7,563.7 "/>
<path id="sao_joao_de_uba" class="st0" d="M528.2,432.4l36.1-24.1l-3.4-8.1l20.3-12.1l9-12.7l27.3-11L601.9,340l-20.4,8.2l-11.4-4.3
	l-8.8,4.3l-12.4-4.2l-7.9,12.2l-28.4-3.4l-8.4,3.7v3.7l-8,4.1h-7.9l-7.6,3.9l-3.7,7.6l-4.7,12.6l8.5,8.5l0.1,0.1v0.2l-19.8,35.3
	l19.7,3.5l11.8-7.6l4.7,4.4l3.8,21.3l-8.5,6.7l8.2,7.9l15.8-11.8L528.2,432.4z"/>
<polygon id="natividade" class="st0" points="593.6,197.3 594.1,189.7 602.1,189.7 625.7,145.1 614.2,137.2 617.7,129.8 
	588.8,121.6 580.8,137 556.8,129 549.1,121.8 553,109.2 544.7,109.2 537.2,121.7 528.6,113.6 528.6,129.1 509.4,125.1 496.4,129.4 
	496.4,162 453.9,170 444.6,170 444.6,173.9 464.5,178.2 472.4,201.4 480.6,201.4 488.5,206.3 477.1,226.4 480.7,238.4 488,238.1 
	492.6,234.3 512.4,230.7 512.4,238.8 540,254.3 544.5,250.2 549.3,242.2 549.5,242.2 552.2,242.4 548.5,238.1 560.7,238.7 
	565.4,229.6 578,226.1 580.4,219.1 601.1,206.2 600.7,197.3 "/>
</svg>
