<?xml version="1.0" encoding="utf-8"?>
<!-- Generator: Adobe Illustrator 26.2.1, SVG Export Plug-In . SVG Version: 6.00 Build 0)  -->
<svg version="1.1" id="regiao_02" xmlns="http://www.w3.org/2000/svg" xmlns:xlink="http://www.w3.org/1999/xlink" x="0px" y="0px"
	 viewBox="0 0 1071.4 709.6" style="enable-background:new 0 0 1071.4 709.6;" xml:space="preserve">
<style type="text/css">
	.st0{fill:#FECC2C;stroke:#FFFFFF;stroke-width:0.5;}
</style>
<polygon id="tangua" class="st0" points="840.7,534.8 849.8,542.1 916.9,543.3 915.5,529.9 877.7,526.8 898.9,510.5 883.5,499.9 
	882.9,484.8 898.2,467.3 857.1,461.2 875.1,427 856.9,417.4 850.2,369.1 829.9,368.5 781.8,318.6 775.9,334.7 757.4,385.5 
	757.4,385.5 757.4,385.5 744.9,384.9 717.4,383.7 707.9,394.1 712.1,402.6 715.1,408.7 724,407.8 724.3,434 742.2,433.3 
	742.2,433.3 742.3,433.3 740.7,434.4 708.2,458.6 766.6,458.6 791.2,476.4 791.2,476.4 791.2,476.4 774.9,501.4 823.6,534.2 "/>
<polygon id="mage" class="st0" points="346.2,71.4 346.2,71.5 347,74.2 296.2,116.6 278.5,107.5 187.3,150.5 146.6,152 188.2,234.4 
	156.2,275.6 146.3,300.8 162.8,343 146.6,350.2 161.3,368.4 247.6,342.1 280.8,349.6 287.1,342.6 295.6,316 304.1,324 304.1,315.9 
	320.1,316.5 330.3,299.6 354.6,317.2 388.1,316.3 409.8,288.1 429.7,249.7 421,98.3 404.5,82.8 404.5,65.3 362.9,41 339.1,50.1 "/>
<polygon id="guapimirim" class="st0" points="489,367.5 522,342.4 520.6,333.2 520.6,333.2 520.6,333.2 526.9,330.5 538.2,325.8 
	559.7,297.2 562.5,293.3 562.9,288.3 564,274.7 572.2,274.7 579.8,249.9 563.8,223.9 574.1,198.3 598.3,190.5 622.5,158.8 
	588.6,118.1 579.8,90.7 588.5,82.8 588.5,73.9 572.8,66.3 547.5,31.8 549.4,14.5 562.4,7.3 529.6,0 480.3,32.4 446.5,16.4 
	421.7,23.8 413.5,6.6 395.4,16.1 388.3,6.7 363.8,40.2 405.8,64.6 405.8,64.6 405.8,64.6 405.8,82.3 422.1,97.7 422.8,108.9 
	431,249.9 413.7,283.2 409.6,291.1 389.4,316.6 406.1,323.9 398.2,333.1 416.2,343.7 398.1,351.2 415.2,390.7 449.9,375.2 
	456.6,374.4 456.6,374.4 484.1,371.2 "/>
<polygon id="itaborai" class="st0" points="723.6,251.3 647.9,251.3 573.2,275.7 573.2,275.9 572.8,275.9 572.8,275.9 565.1,275.9 
	564.1,288.9 563.7,293.7 539,326.8 539,326.8 539,326.8 535.8,328.1 522,333.9 523.3,342.9 523.3,342.9 523.3,342.9 518.8,346.4 
	484.6,372.4 456.6,375.6 456.6,399.6 523.5,425.7 523.5,425.7 523.5,425.7 527.8,449.9 530.8,466.5 547.6,484.5 556,493.5 
	575.6,493.5 599.2,558.5 650.3,558.5 715.2,533.6 761,525.7 773.6,532.6 795.6,519.8 797.7,518.4 772.9,502.2 773.2,501.8 
	773.2,501.8 789.5,476.7 766.2,459.8 704.5,459.8 704.5,459.8 703.5,459.8 738.3,434.6 723.1,435.3 723.1,435.3 723.1,435.3 
	722.8,409.2 714.4,410 714.4,410 714.4,410 706.4,393.9 712.6,387.1 716.9,382.4 744.2,383.6 756.6,384.2 780.9,317.6 "/>
<g id="sao_goncalo">
	<polygon class="st0" points="522.4,426.6 455.3,400.5 455.3,375.8 450.3,376.3 438,381.8 415.1,392.1 365.5,418.7 339.3,451.3 
		339.3,467.3 355.1,467.3 322.5,501.8 322.5,518.6 306,543.5 387.8,564.1 404.2,568.3 404.2,568.4 404.5,568.4 430.5,592.9 
		456.3,585.5 456.3,585.5 456.3,585.5 473.5,624.9 480.8,609.9 500.3,603.6 505.9,601.8 505.9,591.4 598,558.7 574.7,494.7 
		555.5,494.7 555.5,494.7 555.5,494.7 546.8,485.6 529.6,467.1 	"/>
	<polygon class="st0" points="303.7,517.8 297,509.9 290.4,509.9 297.3,517.8 	"/>
	<polygon class="st0" points="296.5,425 304.4,418 304.4,401.4 294.1,410.6 	"/>
</g>
<g id="niteroi">
	<polygon class="st0" points="296.5,569.5 296.4,570.5 295.8,570.1 273.1,576.2 280.9,593.4 264.5,601.9 271.6,617.5 288.7,609.7 
		297,617.7 314.1,618.9 323.4,636.1 297,652.1 280.9,635.5 280.4,643.2 266,651.7 288.3,651.7 288.6,659.4 297.2,676.3 366.2,683.3 
		379.7,692.6 379.7,709 388.7,701.6 404.9,709.6 430.3,702.2 414.3,693.7 414.3,685.7 505.9,609.8 505.9,603 502.4,604.2 
		481.7,610.9 475,624.6 473.4,627.8 455.6,587 437,592.3 430.2,594.2 403.6,569.4 340.8,553.6 305.4,544.6 	"/>
	<polygon class="st0" points="287.2,544.1 281.2,550.4 288.3,551.6 	"/>
	<polygon class="st0" points="282.2,560.5 295.3,568.4 295.5,560.5 	"/>
</g>
</svg>
