<?xml version="1.0" encoding="utf-8"?>
<!-- Generator: Adobe Illustrator 26.2.1, SVG Export Plug-In . SVG Version: 6.00 Build 0)  -->
<svg version="1.1" id="regiao_04" xmlns="http://www.w3.org/2000/svg" xmlns:xlink="http://www.w3.org/1999/xlink" x="0px" y="0px"
	 viewBox="0 0 1071.4 709.6" style="enable-background:new 0 0 1071.4 709.6;" xml:space="preserve">
<style type="text/css">
	.st0{fill:#29ADDD;stroke:#FFFFFF;stroke-width:0.5;}
</style>
<polygon id="quatis" class="st0" points="587.2,93.5 565.7,79 554.5,85.8 554.5,91.3 535.8,91.3 524.1,103.7 499.4,109.9 492.8,127 
	487.1,132.7 487.1,151 510.5,175.2 517.6,169.3 554.4,175.2 525.8,217 566.1,242.3 568.8,249.1 583.9,255.4 589.4,241.4 
	603.2,248.7 603.2,208 619.8,165.6 614.9,156.6 663.2,144.6 657.4,101.5 675,102 675,96.5 663.4,83.7 675,78.2 675,53.5 656.3,40.8 
	662.2,23 633,17.1 622.4,23.5 608.8,23.1 590.9,41.4 577.9,41.1 571.5,36.2 566.2,42.4 566.2,71.2 "/>
<polygon id="itatiaia" class="st0" points="218,276.1 205.4,286 217.9,324.8 230.9,334.5 247,328.1 247,310.9 265.2,298.5 
	252.7,290.6 280.4,266.2 313.6,255.6 320.9,243 343.7,238.3 339.2,231.2 351.9,223.8 345.4,206.5 239.9,171.9 216.7,156.9 
	248,133.9 278.3,139.1 289.8,102.6 284.2,97 265.6,102.9 248,90.9 223.1,96.8 175.6,151.8 218,256.5 "/>
<polygon id="resende" class="st0" points="496.3,339.9 505.5,316.2 499.5,284.4 505.4,274.6 497.1,261.5 474,261.5 455.6,231.3 
	480.4,200.2 472.7,181.1 499.4,187.4 509.6,175.6 486.2,151.3 486.2,132.4 492.1,126.5 498.8,109.1 523.7,102.9 535.4,90.5 
	553.6,90.5 553.6,85.3 565.8,78 581.1,88.3 565.3,71.6 565.3,42.3 560.4,20 560.2,23.9 535.7,18.5 505.6,35.7 504.6,30 493,35.4 
	467.2,29.5 443,48.3 437.2,36 412.2,29.4 376.7,30.2 370.5,54.2 364.1,53.7 297.7,103.9 290.6,102.9 279,140.1 248.2,134.8 
	218.3,156.9 240.3,171.1 346.1,205.7 353,224.2 340.4,231.5 345.2,239 321.5,243.8 314.2,256.3 280.9,267 254.1,290.4 266.9,298.4 
	247.9,311.3 247.9,328.7 230.7,335.5 217.1,325.3 204.4,285.7 217.1,275.7 217.1,256.7 174.7,152 168.7,145.9 131.2,145.9 
	113.8,133.3 95.6,146 76.4,145.9 33.8,165.2 29.4,176.4 84.1,181.1 94.9,193.2 121.7,237.3 114.4,248 126.3,267.5 121.2,279.4 
	139,279.4 150,291.5 168.9,304.3 157.5,327.4 174.7,315.9 193.1,328.5 187.8,364.4 199,377 212.3,370.7 222.8,383.1 229.7,371.2 
	247.6,388.5 261,363.8 272.1,376.4 285.4,371.8 303.2,383.4 297.5,395.1 303.8,400.8 303.8,395.4 316.1,396.4 321.6,406.7 
	333.5,394.9 345.3,370.9 364.1,382.7 400.6,365.5 429.9,370.9 418.3,352.5 437.4,340.5 468.7,346.5 456.4,353.3 467.8,359.3 
	467.8,377.4 479,376.8 474.2,365.2 485.5,354.2 479.4,339.9 "/>
<polygon id="rio_claro" class="st0" points="926.3,536.6 932.7,519.1 905.9,512.4 914.7,510.7 920.7,494.4 932.8,493.1 930.9,464.9 
	902.9,475.8 895.2,464.2 870.7,475.9 870.7,457.2 838.9,436.4 817.2,452.3 798.9,438.9 810,414.8 805.4,408.5 774.6,402.8 
	755.5,415.1 743.7,433.3 743.7,448 737,432.3 742.6,415 729.2,414.6 706,407.6 676,414.9 664.4,445.8 664.5,446 647.7,457 653,464 
	640.2,477.3 622.3,477.3 622.3,493.2 598.1,493.2 585.1,511.9 585.5,518.5 573.4,518.5 566.9,529.7 566.9,548.3 585,555 
	578.3,561.7 565.9,568.1 554.3,592.2 541.6,598.2 541.4,591.8 529.5,586 513.8,602.4 517.9,602.4 523.1,614.4 534.8,603.1 
	567,602.6 578.5,626.7 590.9,626.7 585,670.8 608.9,688.3 634,682.1 644.8,688.1 657.9,657.4 663.7,657.6 682.8,638.1 705.7,620.9 
	731.4,639 768.2,632.6 779.4,638.6 815.8,615.5 822.5,627.2 834.7,620.6 852.8,644 876.7,645.6 876.7,638.2 906.8,602.9 
	901.2,596.6 926.4,591.2 938.7,571.6 919.9,536.6 "/>
<path id="barra_mansa" class="st0" d="M737.4,408.8L737.4,408.8l-6.6-35.7l-6-13.1l5.6-12.5l-5-5.6l11.3-32.3l-6.1-11.2l-42.1,5.3
	l-19-12v-73.8l12.1-18.2l29.9-11.3l14-13h87.6l-77-23.5l17.2-43.1l36.5-29.9v-5.1L726,102.2l-20.5,0.6l-4.7,6.7l-25.5-6.7l-16.8-0.5
	l5.7,42.8l-47.9,11.9l4.5,8.3l-16.7,42.7v42l-14.3-7.6l-5.5,13.9l-16.3-6.7l-2.7-6.9l-40.1-25.2l-21.6,19.8l-9.4-0.4l3.6,23.8
	l8.7,13.6l-6,10.1l6,31.7l-9.5,24.5h-16.3l5.6,13.1h3.1l40,11.7l11.7,11.7l12.2-12.9l19.4,12.7l23.8-5.4l5.6,10.7l12.3-5.3l6.5,11.9
	l18.5,12.1l-5.9,13.5l19.2,6.5l11.2,23.6l11.5-30.5l30.7-7.5l23.3,7.1l6.7,0.2C736,414,737.4,408.8,737.4,408.8z"/>
<polygon id="pirai" class="st0" points="1027.6,456.6 999.5,450.7 999.6,432.6 974.7,414.6 1012.3,395.5 1016.8,378 1042,371.1 
	1037.2,338.4 1036.7,335 1024.1,316.7 993.3,316.7 993.3,304 1011.2,291.9 999.8,280.4 987.9,286.3 969.9,274.8 957.8,274.3 
	957.8,285.9 951.3,298.5 902.4,286.1 860.3,329.8 835.2,319.6 821.9,347.4 780.6,347.4 753.5,361 737.5,408.8 736.2,413.9 
	743.8,414.1 737.9,432.3 742.8,443.6 742.8,433 754.9,414.4 774.4,401.9 805.9,407.7 811.1,414.7 800,438.6 817.2,451.2 
	838.9,435.3 871.6,456.7 871.6,474.6 895.6,463.1 903.2,474.7 931.7,463.7 933.8,493.9 921.3,495.3 915.3,511.5 910.1,512.5 
	933.9,518.5 927,537.5 921.4,537.5 939.5,571.1 974.9,559.3 999.2,536.5 976,526 979.4,494.3 "/>
<polygon id="porto_real" class="st0" points="499.7,188.4 474.1,182.4 481.4,200.4 456.7,231.4 474.5,260.6 496.8,260.6 
	493.3,236.2 503.4,236.7 524.9,216.9 552.8,175.8 517.8,170.2 511,175.9 510.7,175.6 "/>
<polygon id="pinheiral" class="st0" points="780.1,316.9 768.1,317.2 753.9,359.8 780.3,346.6 821.3,346.6 834.7,318.5 860.1,328.7 
	901.2,286.1 822.1,286.1 798.3,255.5 786.7,267.6 786.9,304.2 "/>
<path id="volta_redonda" class="st0" d="M712.2,189.2l-29.9,11.4l-11.8,17.8v72.9l18.3,11.5l42.3-5.3l6.6,12.1l-11.3,32.1l5,5.7
	l-5.7,12.7l5.9,12.8l6,32.6l29.8-89l12-0.4l6.5-12l-0.2-36.4l-19-18.9v-0.2c-0.1-0.7-0.2-1.4-0.4-2c-0.4-1.6-0.9-3.2-1.7-4.6
	c-2.1-4.3-6.2-7.2-11-7.7l0,0l-4.8-2.6l66.1-55.3h-88.9L712.2,189.2z"/>
</svg>
