<svg id="regiao_06" xmlns="http://www.w3.org/2000/svg" data-name="regiao 06" viewBox="0 0 772.04 709.6">
  <style>
    .bairro {
      fill: #bb1f2a; /* Cor base da Região 06 */
      stroke: #FFFFFF;
      stroke-width: 0.5;
      transition: fill 0.2s ease-in-out;
    }
    .bairro:hover {
      fill: #FFD700 !important; /* Amarelo dourado para hover */
      cursor: pointer;
    }
    .bairro.selecionado {
      fill: #E44D26 !important; /* Laranja para o item clicado/selecionado */
    }
  </style>

  <g id="comendador_levy_gasparian" class="bairro">
    <polygon points="342.81 49.66 369.76 69.49 410.37 67.97 417.62 76.32 438.32 54.06 438.32 108.85 489.11 67.52 562.34 48.33 578.09 32.91 578.24 28.81 548.28 34.43 535.07 20.46 501.39 34.21 493.33 27.91 480.16 34.76 451.67 6.77 383.09 20.79 361.17 0 345.33 7.17 333.11 0.34 340.17 51.85 342.81 49.66"/>
  </g>
  <g id="paty_do_alferes" class="bairro">
    <polygon points="153.37 368.14 159.15 363.05 173.01 401.58 180.39 411.66 160.3 440.84 173.65 459 236.73 487.51 236.73 509.55 230.59 514.51 242.87 520.65 264.87 517.15 311.48 494.22 306.11 487.14 319.65 458.91 346.96 458.91 366.95 425.71 409.42 397.15 335.09 300.5 160.1 341.24 153.37 368.14"/>
  </g>
  <g id="petropolis" class="bairro">
    <polygon points="702.66 299.53 697.21 283.96 709.31 251.47 688.46 223.55 671.45 228.36 668.2 230.6 639.71 244.72 618.72 267.22 621.24 285.4 614.02 293.14 599.05 313.27 583.89 299.29 556.37 335.15 543.54 341.31 530 342.35 521.39 328.18 490.48 328.18 464.61 341.37 451.57 335.86 434.18 353.25 410.14 396.43 410.88 397.39 367.71 426.43 347.54 459.92 320.29 459.92 307.29 487.02 312.51 493.89 333.28 493.64 368.31 500.95 391.26 493.3 403.68 509.16 386.1 521.49 388.99 520.74 389.15 520.51 479.81 571 472.1 584.79 460.79 578.02 452.14 578.02 430.81 618.18 438.8 632.34 472.43 620.28 507.91 618.69 584.09 582.76 598.66 590.3 639.82 555.87 633.21 535.53 653.99 527.58 675.39 498.35 681.61 506.51 696.11 498.89 695.99 486.19 682.31 458.33 688.77 431.5 683.33 431.5 689.62 417.62 682.44 403.28 702.2 390.75 682.18 375.11 696.4 375.64 689.57 362.45 668.24 354.99 676.17 339.64 709.62 327.67 703.89 318.71 720.94 306.11 702.66 299.53"/>
  </g>
  <g id="tres_rios" class="bairro">
    <path d="M751,106.68l5.89-16.21H710.84L715,46.14l-3.95-6-3.44-.68-24.54,9.25L690,69.42,655.88,97.16l-15.55.26-6.82-7L605,90.85l-19.84,6L570.8,119,548.57,82.68l22.22-21.07,6.72-12.71L578,34.39,562.86,49.24,489.58,68.45l-51.21,41.67L444.84,143,502,193.56V214.5l32.64-13.4-.24-.46,65,14.08,82.93-40.95v6.48l-8.16,18.37-12,12.46,6.42,16.37c.18.38.48,1.49.89,1.49s1.29-1.38,1.29-1.38l13.37-27.66,19.31-40,23.32-.11L772,145Z"/>
  </g>
  <g id="paraiba_do_sul" class="bairro">
    <polygon points="522 324.49 529.27 285.44 541.86 215.34 535.08 202.02 500.96 216.01 500.96 194.02 443.91 143.53 437.31 109.97 437.31 56.65 417.59 77.84 409.93 69.01 369.45 70.52 342.85 50.95 339.42 53.8 332.07 0.26 236.04 62.15 279.88 240.52 336.48 300.18 336.18 300.25 409.47 395.55 433.36 352.63 451.33 334.65 464.57 340.25 490.23 327.17 521.52 327.17 522 324.49"/>
  </g>
  <g id="areal" class="bairro">
    <polygon points="599.55 215.79 536.26 202.09 542.92 215.18 530.27 285.62 523.03 324.52 522.38 327.56 530.54 341.29 543.27 340.31 555.71 334.34 583.76 297.79 598.91 311.76 613.24 292.49 620.17 285.06 617.64 266.88 639.09 243.9 668.31 229.41 661.04 210.85 673.33 198.05 681.33 180.04 681.33 175.41 599.55 215.79"/>
  </g>
  <g id="miguel_pereira" class="bairro">
    <polygon points="402.22 508.95 390.9 494.5 368.37 502 333.18 494.66 312.38 494.91 265.18 518.13 242.71 521.71 228.72 514.71 235.71 509.06 235.71 488.16 173.34 459.98 160.93 466.55 160.18 480.48 146.14 494.89 132.11 488.07 125.28 494.54 104.08 579.17 96.29 559.43 55.24 623.82 0 675.79 34.48 709.6 33.74 674.36 68.72 653.82 75.42 639.66 96.33 639.28 103.34 625.14 110.19 632.38 117.67 625.64 152.65 625.26 174.25 604.41 193.81 590 202.13 597.07 228.32 576.92 258.06 590.96 270.64 590.96 298.75 584.03 304.99 568.44 314.44 576.97 354.53 570.73 388.11 522.02 380.89 523.9 402.22 508.95"/>
  </g>
</svg>