<?xml version="1.0" encoding="utf-8"?>
<!-- Generator: Adobe Illustrator 26.2.1, SVG Export Plug-In . SVG Version: 6.00 Build 0)  -->
<svg version="1.1" id="regiao_03" xmlns="http://www.w3.org/2000/svg" xmlns:xlink="http://www.w3.org/1999/xlink" x="0px" y="0px"
	 viewBox="0 0 1071.4 709.6" style="enable-background:new 0 0 1071.4 709.6;" xml:space="preserve">
<style type="text/css">
	.st0{fill:#A13A8E;stroke:#FFFFFF;stroke-width:0.5;}
</style>
<polygon id="marica" class="st0" points="300.2,520.1 293.9,515 282.2,514.6 265.5,503.4 248.3,513.9 239,508.8 207.6,514.2 
	162.6,531.4 126.9,531.4 63.4,554 63.4,566.5 0,619 0,623.6 11.4,629.7 28.7,624.7 79.2,628.1 100.9,629.7 158.6,623 252.4,612.7 
	294.8,612.1 306.5,619.5 318.4,600.8 356,594.5 356,573.7 352.5,572.1 340.6,566.9 318.2,566.9 318.2,536.7 318.2,536.7 
	318.2,536.7 318.3,536.6 332.6,520.9 "/>
<polygon id="saquarema" class="st0" points="505.5,492 498.3,497 498.3,497 498.3,497 461.9,491.1 451.4,474 434.7,480.7 
	434.7,480.7 434.7,480.7 422.5,467.7 403.8,478.3 360,503.1 360,511.5 353,516.8 347,521.3 347,520.9 334.6,520.9 319.1,537.1 
	319.1,566.1 340.8,566.1 353.2,571.5 356.9,573.2 356.9,573.2 356.9,573.2 356.9,594.4 606.4,594.8 596.4,573.5 587.3,553.7 
	600.6,503.2 532.6,493.4 "/>
<polygon id="rio_bonito" class="st0" points="532.2,492.5 537.3,425.4 538.9,403.5 518.7,393.2 482.2,399.1 456.2,390.6 456.2,312 
	447.8,309.3 421.8,300.8 400.6,311.2 370.5,334.5 341,317.2 307.1,323.8 307.1,335 302.3,339.8 254,363.9 287.1,398.3 301.6,398.7 
	306.2,432.4 319.2,439.2 306.9,462.6 335.7,466.9 324.3,479.9 324.7,489.6 336,497.4 322.1,508 347.4,510 347.8,519.6 358.8,511.3 
	359.2,511.1 359.2,502.6 422.7,466.6 422.7,466.6 422.7,466.6 434.9,479.7 442.2,476.8 451.8,472.9 462.4,490.3 498.1,496.1 
	505.2,491.1 505.2,491.1 505.2,491.1 "/>
<polygon id="silva_jardim" class="st0" points="539.6,402.9 557.4,409.6 575.1,401.7 576.4,392.3 576.4,391.9 603.1,398.6 
	615.2,386.9 615.2,386.9 616.1,386.1 636.1,381.1 654.3,332.9 660.8,315.7 672,304.6 685.8,304.6 691.7,298 700.6,288.1 
	712.4,291.5 716.7,292.8 729.1,288 728.4,286.8 725.3,281.8 725.3,281.8 725.3,281.8 730.8,277.5 734,274.9 735.6,272.4 
	737.5,269.6 747.2,275 757.3,260.4 770.5,241.2 768.3,239.6 748.1,224.6 714.6,230.9 711.5,226 707.6,219.5 703.8,219.2 
	700.1,218.8 700.1,218.8 700.1,218.8 705.2,203.3 707.4,196.5 693.2,175.2 679.3,161.1 673.6,160.8 668.6,160.5 668.6,160.5 
	668.6,160.5 668.6,125.7 663.2,123.9 653.7,120.8 652.8,120.4 653.1,120.3 645.1,114.6 631,126.1 628,119.9 621.8,127.3 
	607.1,114.7 603.7,119.5 586.5,119.5 526.8,132.1 509,144.2 480.5,132.1 470.6,132.1 447.9,149.1 433.7,149.1 433.7,161.1 
	422.2,161.1 422.2,178.6 410.4,181.8 404.9,215.1 387.8,228.9 422.1,300 442.4,306.6 457,311.4 457,390 462.5,391.8 482.3,398.3 
	516.3,392.8 518.9,392.4 523.1,394.5 539.6,402.9 "/>
<path id="casimiro_de_abreu" class="st0" d="M773.7,237.8l5.7-5.9l2.5-2.6l0,0l13.2,0.8l11,5.3l0.5,0.2v5.2l8.5-5.2l-1.3-2l-2.9-4.6
	l5.7-5.2l7.3,7.3l0.7,4.1l1.2,6.8h9.9l-0.4,0.7l-6.1,9.9l30.1-5.8l0,0h0.3l-0.6,11.3l9.8-4.9l0,0l2.2,5.6l7-4.6l2.9-1.9l0,0l4.2,4.2
	l1.3,1.3v-11.2l19,6.8l11.2-7.1l0,0l-0.3,7.7l11.3-0.9l0.4,4l0.7,6.8l6.2-12.3l0,0l1.7,6.6l3.1,11.7l11.5-11.2l0,0v1l0,0l0.9,20.1
	l1.2-2.2c1-2,2.4-4.7,4-7.6c3-5.9,6.6-13,8.9-17.7c1.3-2.6,2.2-4.5,2.5-5l-12.9-28.3l0.6-23.2l-34.6-33l-5.9-13.5l11-5.4l-5.3-11.8
	l10.2-10.5l-20.3,5.2l-23.7-5.6l-0.7,11.5l-12-5.6l-14.4,5.3h-14.2l6.3-29l-17.6,0.3l-6.3,5.7l-12.4-0.5l-5.9,17.9l-23.7-6.4
	l-10.2,6.1h-18.2l0.8-17.4l-17.8-6.8l11-16.1l-5.6-5.3l0.4-7.5l5-5.2l-16.7-11.2v6.2l-28.6,4.8l-29.1,23.7l11.1,11.4L655,120.3
	l14.5,4.8l0,0v34.6l4.6,0.3l5.7,0.3l0.3,0.3l13.1,12.9l15.3,22.9l0,0l-7,21.7l6.8,0.6l6.8,11.3l16.2-3l16.9-3.2l22.3,16.5l0.5,0.3
	L773.7,237.8z"/>
<polygon id="iguaba_grande" class="st0" points="706.6,466.7 714.2,473.3 718.7,477.2 725.9,502.4 714,513.6 720.5,520.8 
	725.4,526.1 725.4,526.1 725.7,526.4 725.6,526.4 730.8,537 742.3,531.7 765,543.4 765,492.3 752.6,498.1 750.8,480.6 735.6,473.3 
	713,462.4 712.5,462.2 707.1,466.3 "/>
<polygon id="sao_pedro_da_aldeia" class="st0" points="847.7,558.8 845.6,520.5 845.6,520.5 845.6,520.5 860.8,521.7 910,525.7 
	918.9,475.4 920.9,463.8 913.8,441.4 908.7,425.6 860.2,373.3 850.5,361.2 849.9,360.4 823.7,327.7 782.1,370.2 759.5,410.2 
	743.7,438.3 743.5,438.4 713.9,461.9 751.6,480.1 753.3,496.9 765.8,491 765.8,491 765.8,491 765.8,543.6 789.3,537.4 807.6,555.9 
	829.6,566.1 841.4,565.7 "/>
<polygon id="araruama" class="st0" points="724.5,526.3 712.8,513.6 724.9,502.1 720.3,485.9 718,477.7 710.3,470.9 705.3,466.6 
	712.2,461.3 712.4,461.2 712.4,461.2 743,437.7 760,407.6 781.4,369.7 823.2,327 776.5,236.2 771.4,241.4 747.5,276.1 737.8,270.7 
	734.6,275.5 726.5,282 730.3,288.4 730.3,288.4 730.3,288.4 716.7,293.7 700.8,289.1 686.2,305.4 672.3,305.4 661.6,316.2 
	636.7,381.8 636.7,381.8 636.7,381.8 636.6,381.8 615.7,387.7 603.4,399.6 577.2,392.9 576.9,394.5 575.9,402.3 575.9,402.3 
	575.9,402.3 575.7,402.4 558.3,410.9 557.4,410.5 556.6,410.9 539.8,403.9 536.5,446.8 533.1,492.6 548.3,493.4 601.2,502.5 
	601.7,502.5 601.7,502.5 601.7,502.5 588.2,553.7 595.8,570.2 607.3,594.8 678.9,594.8 677.7,582.7 689.3,576.1 684.6,560.4 "/>
<g id="arraial_do_cabo">
	<polygon class="st0" points="945,643.3 940.9,652.7 958.4,652.7 968.4,641.6 963.1,630.8 	"/>
	<path class="st0" d="M679.8,594.9l182.1,15.6l25.5,2.8l29.6,11.4l2.1,7.1l9.6,4.6l5.6,10.8l5.2-10.2l-10.2-0.6l-0.6-12.4l5,0.3
		l0.6-6l11.7,6.2l5.9-11.6l-11,0.5l4.5-5.5L929,618.5l-6.4-5.4l5.4-10.8l-11.3-0.5V591l-44,1.2l-9,9.8l-60.5-6.4l-0.8-12.6l-5.1,3.8
		l-0.2,7l-23.1-4.2l-8.5-3.4v-0.3c0-0.8,0-1.6,0-2.4c-0.3-2.8,0.6-5.5,2.4-7.6l0,0c0-0.9-0.2-1.8-0.6-2.5l-0.5-0.3
		c-0.7,0.2-1.4,0.6-1.9,1.1l-5.1,9.8l-14.4,0.6l-6.8-1l0,0c-1.1-0.7-2.1-1.5-3.1-2.4c-1.6-1.4-3.2-3-3.4-4.6V576l0,0v-7l2.6-4.2
		l-0.3-0.3c-0.4-0.3-0.9-0.5-1.4-0.5c-1,0.1-1.9,0.4-2.6,1l-0.4,0.6c-0.4,0.7-0.8,1.3-1.1,2c-1.1,2.3-2,4.7-2.7,7.1l0,0l-2.6,6.3
		l0,0c-1.6,0.7-3.3,1-5,1c-1.8,0-3.5-0.5-5.1-1.4l-6.1-2.9l-17.8-1.3l-11.3,6.4L679.8,594.9z"/>
	<polygon class="st0" points="956.3,619.6 952,619.2 952,623.7 	"/>
</g>
<g id="armacao_dos_buzios">
	<polygon class="st0" points="1008.9,479.4 1009.6,467.1 1026.5,450.6 1043.7,455.6 1049.6,444.7 1054.4,452.2 1049,438.6 
		1061.2,443.5 1062.4,437.1 1071.4,427.4 1060.5,421.9 1066.3,415.5 1055.5,411 1049.7,427.2 1026.7,428.1 1026.7,439.4 
		1013.6,439.4 996.2,426.7 984.9,405 969.6,405 963.6,414 940.8,448.7 943.6,454.8 946.9,461.9 957.7,471.1 974.4,485 997.6,473.9 	
		"/>
</g>
<g id="cabo_frio">
	<path class="st0" d="M945.2,293.6l6.2-12.4V281c0-0.2,0-0.5,0-0.7c0-0.6,0-1.5-0.2-2.5c0-2-0.2-4.7-0.3-7.4c0-4,0-8,0-9.7
		l-11.2,10.9l0,0l-4.6-17.6l-6.5,12.9l0,0l-1.3-11.9h-11.1h-0.4v-0.6l0.3-6.4l-10.2,6.5l0,0l-18.3-6.8v11.9l0,0l-6.4-6.5l-10.2,6.8
		l0,0L869,254l-10.2,5.2v-0.7l0.3-11l-31.4,6.1l7.1-11.1h-9l-1.3-7.4l-0.7-3.9l-6.5-6.6l-2.2,2l-2.4,2.2l4.3,6.8l-7.1,4.4l-3.4,2.1
		l0,0v-6.2l-10.4-5l-0.5-0.2L783,230l-1.5,1.5l-4.5,3.9l44.6,86.6l2.4,4.6l26.5,33l10.6,13.2l48.4,52.1l12.4,38.6l-11.1,62.8l0,0
		l-64.3-5.2l0.3,5.4l1.8,32.3l0,0v0.6l-6.8,6.8l0,0l0,0l-0.4,0.4h-10.5l34.4,22.9l51.5,0.3l5.3-35.4l11-11.8l11.2,5.3l18.5-16.9
		l-5.5-17.7l16.4-28.1l-27.5-23.1l-2-4.3l-4.4-9.5l29-44l-12.7-16.9L945.2,293.6z"/>
	<polygon class="st0" points="990,534.5 992.1,536.6 994.4,532.1 1003.3,531.9 1003.3,526.3 998.2,526.3 994.8,531.7 994.6,531.7 
		991.6,532.2 	"/>
	<polygon class="st0" points="962.2,559.5 962.2,549.8 956.3,549.8 	"/>
</g>
</svg>
