<?xml version="1.0" encoding="utf-8"?>
<!-- Generator: Adobe Illustrator 26.2.1, SVG Export Plug-In . SVG Version: 6.00 Build 0)  -->
<svg version="1.1" id="regiao_capital" xmlns="http://www.w3.org/2000/svg" xmlns:xlink="http://www.w3.org/1999/xlink" x="0px"
	 y="0px" viewBox="0 0 1071.4 709.6" style="enable-background:new 0 0 1071.4 709.6;" xml:space="preserve">
<style type="text/css">
	.st0{fill:#7D806A;stroke:#FFFFFF;stroke-width:0.5;}
</style>
<g id="rio_de_janeiro">
	<polygon class="st0" points="0,625.5 133,614.6 144.7,613.2 0,616.1 	"/>
	<polygon class="st0" points="1033.5,424.2 1023.1,393.2 1043.2,384.3 1043.5,374.3 1024.7,365.3 1023.9,354.9 963.8,354.9 
		952.5,343 972.9,314.5 923.3,324.1 913.4,273.5 859.9,227.3 854.5,231.3 843.6,213.9 814.6,202.5 772.5,202.5 673,223.3 642.1,232 
		624.1,263.7 579.2,284.1 560.5,263.2 530.9,254.1 529,234.9 388.3,253.3 366,263.8 357.8,303.5 307.7,304.1 279.7,294.2 
		229.7,304.1 117.2,314 107.3,342 36,366.1 36,366.7 36,418.4 103,494.1 233.1,597.1 152.3,613.6 5.8,616.5 5.8,628.9 140.4,617.9 
		170,614.3 237.7,608.1 359.3,608.1 396.6,628.6 396.6,648 429.5,648 429.5,627.3 448.1,607.6 538.2,577.9 559.4,588.1 559.4,577.9 
		583.3,566.8 670,547.9 830.9,547.9 791.9,515.1 747.6,516.5 741.6,507.2 759.6,496.9 808.7,517.8 840.5,557.7 870.7,528.8 
		921,527.7 951.6,507.7 1001.9,516.8 1013.2,507 1002.8,496.8 1010.9,488.2 1052.8,466.4 1052.8,456.3 1071.4,447.5 1071.4,425.1 
		1033.8,444.7 	"/>
	<polygon class="st0" points="962.1,223.4 996.7,232.9 1005.3,253.4 1039.5,241.7 1021.7,233.5 1012.7,201.4 1052.8,182.7 
		1052.8,164.5 1022.7,175.5 1023.2,165.3 995.2,191.1 931.9,173.6 905.7,214.1 894.2,212.4 885.5,224.2 914.2,253.4 	"/>
	<polygon class="st0" points="943.4,283.3 953.8,263.6 913.7,262.9 923.9,303.7 953.1,314.1 953.1,303.7 963.5,293.5 945.8,293 
		933.6,273.3 942.7,264.5 	"/>
</g>
</svg>
