<svg id="regiao_05" xmlns="http://www.w3.org/2000/svg" data-name="regiao 05" viewBox="0 0 711.58 710.6">
  <style>
    .bairro {
      fill: #5ca67b; /* Cor base da Região 05 */
      stroke: #FFF;
      stroke-width: 0.5;
      transition: fill 0.2s ease-in-out;
    }
    .bairro:hover {
      fill: #FFD700 !important;
    }
    .bairro.selecionado {
      fill: #E44D26 !important;
    }
  </style>

  <g id="cantagalo" class="bairro">
    <path d="m333.76 63.39-7.9 6.9 18 19.9 2.8 2.9-3.8 4.1-.5.6 2.4 3.5 1.3 1.7-7.9 8.2 17.6 14.7-9.7 3.3-18.3 6.4-30.6 16.41 4.6 4.3.1-.1 63.3 89.5 21.7-25.9 45-4.4 8.7-9.8h4.2l.3-3.2 8.9-.8 2.4-6.6-1-7.2 12.6-36.1 14.5 9.4-4.7 4.2.6 4.4 8.6-3.8 9 8.3 8.7-18.4h2.7l-3.2-3.5 5.3-22.8h21.9l14.3-12.3-33.5-56.5-9.8-27.3-12-33-17.9 12.8-25.7 12.9-17.1 8.7h-1.9l-14-2.6-7.8-1.3-14.7 4.7-2.4 2.7-5.7 6.6-49.4 18.5Z"/>
  </g>
  <g id="nova_friburgo" class="bairro">
    <path d="m472.56 445 .8-.8c-6.5-5.8-18.4-16.9-18.4-16.9l-38.1 9-10.5.8-86.5-59.8 3.6-8.6-8.9-14-30.2-21.7-15-4.6-7.5 4.4 3.9 9.1-2.4 1.1-6.4 3.6-17.9-.2-18.3 14.2-17.9-9.5-4.6 17.9v.2h-8.6v4.4l-6.4 2.5-3.1 1.4v13.4l-11.9 6.5-19 10.8v10.3l4.2 8.1L140 444.39l6.2 6.7 2.3 2.3-2.1 1.1-6.8 4.3v12.7l13.1 4.7.2 13.9h9.3v4.4l9.1 4.1 18.2-4.6 8.9 9.1 21-9 23-22.5 14.5 4.7 8.6 18-4.3 17h4.5L262 520l-13.9 14.9 3.3 4.2h9.4l4.4 3.9h11l17.6-13.09 8.3-.5 21.8 9.79 13.7-9.4 36.3-7.6 10-2.09H397l3.1-4.1 11.1 9.7 5.3-5.9 2.2 5.1 10.9-8.8 6.5 4.7 26.3-13.1-8.5-8.8 23.7-19 21.8-3.7v-5.4l13.7 9-3.5-16.5Z"/>
  </g>
  <g id="trajano_de_morais" class="bairro">
    <path d="m689.66 273.39-26.6-12.7-38-.7-34.9-8.1V238l-23.1 4.7-4.1-4.9-.7 1.8v-6.5h-4.4L546 219.79l-13.9 4.5-5.9 4.9-21-4.9-9.5 13.1-5.3-4.3-7.3 3.6 7.9 4.9-17.8 10.2-5.6 31.2-2.6 3.3V292h8.2v13l-21-3.6L465 310l-4.6 9.1h-4.2l-5.1 4.7 8.9 21.7v14.2l36 22.7-13.1 4-.8 14.3-31 21.4s16.1 15.4 22.9 21.4l7.5-7 5.3-10 8.7-4.4 4.9-8.9 22.9-19.2 8.3-2 19.3-19.6 11.1-4.7 13.4.2 19.8-4.4-.2-12 3.5-15.1 45.2-8.2 33.2-24.2 8.5 5.3 8.4-7.9Z"/>
  </g>
  <g id="sao_sebastiao_do_alto" class="bairro">
    <path d="m510.06 130.19-5.1 21.9 3.4 3.7 5.5.4 13.9 18.2-18.4 32h-8.2l4.1 9.2v8.1l20.8 4.8 5.8-4.8 14.5-4.7 11.9 13.4h4.8v3.3l4.3-12 26.3-21.8-3.2-9.3-1.1-9.1 9.8 4.7 4.2-4.2-13.7-19.1 19.1 5v-14.5l9 5.7 30.3-39.7-4.6-4.5 14.1-9.9v-4.6l26.5-27 .3.4 9-9.6 4.4-13.8 9.4-4.2.1-9.3 3.9-8.2-3.3.4-8.6-9.3-19.6 9.6-3.4-6.1-28 17.9 4.9 9.5-13.8-4.2-8.9 15-3-4.6-10.46 8.4 5.4 8.4-4.5 1.3-18.8-.8-4.2 9.8-5.4-4.1-8 12.5-9.1-1.4 8.7 9.4-5.6 8.6-10.1-6.8-6.5-1.3 4.3 8.7-3.7 5.8h-13.1l-14.7 12.7-21.6.1Zm-258.9 409.7-3.9-4.9 14.2-15.2 3.2-7.7h-4.3l4.5-17.6-8.4-17.5-13.9-4.5-22.8 22.2-21.5 9.3-9-9.1-18 4.5-9.8-4.4v-4.1h-9.1l-.2-14.1-12.9-4.6-32.5 22.2-21.76-4.8v4.7l-8.7 5.3 4.4 8.9-31.5 8.4v4.9l-13.7 4.9v13.2l-13 4h-15l-6 4-1.2 9.3 13.1 17.6 8.9 4.6-.3 5.5-4.1 4.2 4.4 14.6 18.1 21.6-13.3 17.9-13.1 3.9L9 661l8.8 13.6-4.44 13.4 40-13.2 41.9-.2 30 35.7 38.3-18.6 3.2-3.4-.1-8.9 27.4-5.7 22.9 13.9 22.2-18 16.3-7.8-26.4-56 13.8-10.9 4-26 8.7-2.3.4-13.9h8.8l.1-8.8-4.2-3.7-9.5-.3Z"/>
  </g>
  <g id="cachoeiras_de_macacu" class="bairro">
    <path d="m451 237.69-13.1 31.8 12.8 8.6 16.6 4.1 5.5-30.8 17.1-9.9-8-4.9 8.7-4.3 4.9 4.2 9.2-12.7v-8.1l-4.4-10h8.8l18.1-31.3-13.5-17.6-5.4-.4h-3l-8.9 18.8-9.3-8.6-9 4-.7-5.7 4.3-3.9-13.1-8.5-12.3 35.2 1 7.2-2.5 7.1-8.7.8-.3 3.3h-4.5l-8.4 9.5 9 22h9.1Zm-199.2 94.7h9.5l7.9-4.7 15.2 4.7 43.2-22.3-.9-3.5-2.7-10.8.5.2 22.8 8.9 8-4.5 23.4 5.4 4.7 4 5.5-6.1 2.7-3 20.7-7.9 1.2-.5-48.1-45.6-.1.1-18-25.4-45-63.6-4.1 6-1 1.7.9 2.4 4.3 10.5-.3.3.1.1-7.2 5.4-10.3 8.1 4.2 4.3.3.3-4.6 5.1h8.9l-4.3 7.8-.2.1-.1.2-7.3 4.2-2.5 1.5h-.1l-.6.3-16.9-.3-13.9 21.8h9.3v.3h.3l-.7 13.7v.3h-12.8l4.9 7.5 3.8 5.7-.1.1-17.5 8.7L226 283l2.1 2.7 1.1 1.3 5.2 2.1.5.2 7.9 3-8.9 2.7-4.5 1.4-8.4 17.3 3.7 5.3 10.6.1h11.8l4.7 13.3Z"/>
  </g>
  <g id="macuco" class="bairro">
    <path d="m414.26 291.89.1.2.3.3-.2.1 4.7 12.6 17.7-9.1 13.7 8.7-.3-4.5.5.3 21.8 3.7v-11.5h-8.5v-6.5l2.7-3.2-16.5-4.1-13.3-9 13-31.4h-8.9l-9.1-22.3-44.6 4.4-21.6 25.8 48.4 45.8.1-.3Z"/>
  </g>
  <g id="bom_jardim" class="bairro">
    <path d="m388.46 305.19-4.9 5.5-.2-.2-5.3-4.2-10-2.3-12.3-2.9-8.2 4.5-.7.4-21.8-9.1 3 12.1.4 1.5-43.3 22.4 30 21.5 9.1 14.4-3.5 8.4 85.8 59.3 10.3-.8 37.5-8.7-4.1-4.9 31.3-21.7.8-14.4 12.3-3.8-35.1-22.1v-14.5l-9-22 5.7-5.1h4l4.2-8.2-13-8.8.2 4.5-14.5-9.2-18 9.3-4.9-13.2-21.9 8.4-3.9 3.9Z"/>
  </g>
</svg>