<svg id="regiao_07" data-name="regiao 07" xmlns="http://www.w3.org/2000/svg" viewBox="0 0 583.7 709.6">
    <style>
        .bairro {
            fill: #6c8ed1; /* Cor base da Região 07 (azul) */
            stroke: #FFFFFF;
            stroke-width: 0.5;
            transition: fill 0.2s ease-in-out;
        }
        .bairro:hover {
            fill: #FFD700 !important; /* Amarelo dourado para hover */
            cursor: pointer;
        }
        .bairro.selecionado {
            fill: #E44D26 !important; /* Laranja para o item clicado/selecionado */
        }
    </style>

    <g id="itaperuna" class="bairro">
        <polygon points="493.4 343.6 493.4 332.1 472 319 476.8 319.5 473.8 315.8 461.6 311.4 444.4 320.2 432.3 305.5 428.8 295.7 416.2 295.7 420.3 287.8 412.8 283.2 420.3 271 416.6 266.7 416.6 263.1 400.5 263.1 392 267.1 392 251 367.4 246.8 367.4 227.4 347.4 234.6 358.5 221.4 343.5 206.8 323.1 219.5 320.6 226.6 308 230.1 303.2 239.3 292 238.7 295.8 243.2 291.8 242.8 287.2 250.6 282.3 255.1 254 239.1 254 231.4 235.1 234.9 230.4 238.7 222.5 239 218.6 226.3 229.9 206.5 222.6 202 214.2 202 206.2 178.8 186.8 174.5 186.8 177.9 186.8 177.9 186.8 178 173.9 178 173.9 182.2 174 186.5 173.9 186.5 173.9 186.5 173.6 186.8 163 197.5 162.8 198.4 161.5 203.1 161.4 203.1 161.3 203.2 155.7 204.7 154.2 205.2 150.1 217.9 150.1 218.1 150.1 218.1 150 218.1 133 218.1 129.9 234.4 113.2 254.7 125 266 129.1 254.4 138.2 254.4 133.4 259.6 134 265.7 141.2 259 158.1 258.3 162.1 262.6 158 263.3 154.1 270.3 161.9 278.2 157.5 282.6 165.5 290.4 169.2 286.7 173.4 270.2 181.4 278.4 186 265.6 210.8 270.8 203 277.9 206.9 279.4 210.5 294.6 202.9 302.4 218.4 311.4 202.2 315.3 197.8 324.5 189.8 328 190.4 346.9 182.4 351.2 190.6 360.7 183 364.1 186.1 372.8 178.3 376.6 178.3 380.4 191.7 384.3 218.8 375.3 222.5 367.6 230.4 363.6 238.3 363.6 246 359.8 246 356.1 254.9 352.2 283 355.5 290.9 343.3 303.5 347.6 312.3 343.3 323.8 347.6 344.4 339.3 360.6 364.6 360.6 364.6 385.5 407.4 389.5 405.7 400.7 400.4 420.9 388.2 421.5 388.5 421.5 388.5 422 388.7 428.6 391.5 434.9 386.3 437.1 384.2 447 378.8 453.1 375.3 453.2 375.4 453.3 375.3 464.7 383.9 464.9 375 465.5 375.3 465.5 375.3 466.1 375.7 481.2 383.5 481.4 371.9 505.9 363.8 505.9 356.9 505.9 356.7 505.9 356.7 505.9 348.2 493.4 343.6"/>
    </g>
    <g id="miracema" class="bairro">
        <path d="M60.3,421l16.9,16.6,31,20.2,53.1,3,8.2-16.6,16.8.4,16.2-12.2c6.7-11.8,13.3-23.6,19.9-35.5l-8.4-8.4-.1-.1,4.7-12.4-26.8,8.9-14-4.1v-4.2l-13.5-5-11.1-10.2v-9.5l-3.2,4.4-5.1-4.9-11.6,8.9-19.8-3.9-19.6,16h0l-4.5,3.7,3.6,3.4.1.1v.2l-3.7,7.9-.2.2h0l-4.1,5.5L77,404.3l7.3,4h.1v3.9l-6.9,2.5-5.4,2-3.8-2.1L64,412.2Z"/>
    </g>
    <g id="bom_jesus_de_itabapoana" class="bairro">
        <polygon points="481.4 247.1 460.9 247.1 460.9 247.1 460.8 247.1 461.4 243.5 457.7 238.8 457.6 237.5 457.1 235 449.2 239 449 239.1 436.9 226.9 428.9 230.2 429.2 234.2 428.8 234.2 428.8 234.3 424.9 234.3 420.6 234.4 420.4 226.5 421.3 226.4 427.4 225.7 418.1 221.3 415.1 220.2 408.6 218.1 408.7 218 408.6 218 420.4 202.3 415.2 196.7 412.8 194.1 412.7 185.3 415.9 187.1 420.3 189.3 420.5 185.9 420.5 185.5 416.3 174 416.4 173.9 416.3 173.7 424.5 166.3 416.5 157.9 416.3 157.7 416.3 157.7 416.3 157.7 421 150.6 424.7 145 424.7 144.9 420.8 124.9 412.6 116.3 411.6 115.2 411.6 115.2 407.9 103.8 408 103.8 407.9 103.5 414.1 103.8 416.8 103.8 418.3 98.3 420.8 88.3 416.3 84.8 416.6 84.3 424.4 68.1 416.7 64.3 404.6 72.1 404.6 72.2 396.6 72.2 359.8 116 364.5 126.3 372.1 128.5 368.6 144.9 368.6 144.9 344.7 190.3 336.8 190.3 336.4 196.7 343.4 196.7 343.9 206.3 359.3 221.3 349.2 233.3 368 226.5 368 246.3 392.6 250.5 392.6 266.1 400.3 262.5 417.2 262.5 417.2 266.5 421 271 413.6 283 421.1 287.6 417.2 295.1 429.2 295.1 432.8 305.2 444.5 319.5 461.6 310.7 474.1 315.3 478.2 320.2 474.6 319.9 493.9 331.8 493.9 343.2 506.5 347.8 506.5 356.3 550.8 323.8 563.5 322.6 566.2 312.5 582.1 299.9 583.7 284.4 573.8 277.9 573.8 277.7 573.8 277.7 573.8 277.5 573.8 270.9 561.8 271.6 554.8 267.6 554.5 267.9 550.3 274.9 542.8 271.7 530.6 271.7 530.5 271.7 530.5 271.7 530.4 271.7 530.3 271.6 529.2 270.3 525.7 263.3 518.1 271.1 518.3 267.3 518.3 263.8 510 258.7 505.1 251.2 504.9 251.3 489.6 254.9 481.4 247.1"/>
    </g>
    <g id="santo_antonio_de_padua" class="bairro">
        <polygon points="83.8 604.2 84.1 604.1 84.1 604.1 84.5 604 84.8 603.8 84.8 603.9 99.4 599.4 112.4 595.5 121.2 597.7 112.5 587.3 112.5 579.3 128.2 572.6 129 572.2 131.9 554.7 149.2 542.3 166.3 542.3 173.5 542.3 201.7 506.7 201.7 493.4 242.3 468.9 233.7 460.5 242.4 453.6 238.7 433 234.6 429 223 436.4 202.7 432.9 186.5 445.2 169.8 444.8 161.7 461.3 108 458.3 76.8 438 60.3 421.7 60.3 429.9 51.5 449.4 57.5 453.1 64 457 63.8 460.5 75.7 468.8 75.6 468.9 75.7 468.9 73.5 471.8 72.2 473.5 72.1 473.6 71.9 473.8 67.7 475 59.7 477.6 56.4 492.9 56.1 494.1 40.6 494.1 40.9 505.3 38.9 508.5 35.3 514.7 23.9 514.7 28.1 523.1 23.6 526 15.1 531.6 10 538.1 9.2 539.1 1.7 552.4 0 555.5 11.1 559.6 8.1 561.8 0.1 567.6 2.4 570.4 3 571.1 15.3 567.6 18.9 583.3 43.3 575.8 48.6 580.8 55.6 587.5 56.5 595.1 60.2 591.6 60.4 591.8 60.6 591.6 64.1 595.3 64.4 595.6 68 604.6 64.6 616 66.8 616 77.3 608.9 83.9 604.3 83.8 604.2"/>
    </g>
    <g id="itaocara" class="bairro">
        <polygon points="238.8 567.8 235.2 567.2 222.3 559.3 214.3 564 158.3 607.5 122 598.5 111.6 596.3 91.1 602.6 85 604.4 105.5 659.3 134.6 709.6 145.8 709.6 146.8 708.2 148.8 705 144.6 696.3 151.9 697.7 160.9 703.5 163.6 699.8 165.2 697.4 155.9 687.3 165.5 688.6 172.9 677.5 173 677.6 173.1 677.5 174.9 678.8 177.9 680.8 179.7 676.6 181.2 672.5 198.7 673.2 199.8 672.9 201.7 672.3 197.1 665.3 197 665.1 197 665.1 197 665.1 197.2 664.9 207.3 656.6 207.5 656.9 207.6 656.8 210.2 660.6 211.4 658.6 217.6 647.5 229.4 650.9 225.8 643.7 225.6 643.4 225.9 643.3 251.7 626.8 253 629.1 255.1 632 272 623.8 272.4 624.2 272.6 624 279.3 630.4 279.3 539.3 238.8 567.8"/>
    </g>
    <g id="varre-sai" class="bairro">
        <polygon points="303.7 73.1 303.7 88.9 315.6 105.3 295.8 109.2 292 121.6 299.3 128.5 322.7 136.3 330.7 120.9 360.7 129.4 357.2 137 368.1 144.5 371.4 128.9 364.1 126.8 359.1 115.9 396.3 71.6 404.1 71.6 406.7 47.5 408 35.7 396 29.7 384.4 24.1 384.4 24.1 323 69 303.7 73.1"/>
    </g>
    <g id="porciuncula" class="bairro">
        <polygon points="238 161.5 238 129 251.5 124.5 270.2 128.4 270.2 112.2 279.2 120.8 286.6 108.6 295.6 108.6 314.6 104.9 303.1 89 303.1 72.6 322.7 68.4 383 24.4 359.1 29.1 359.2 28.9 359 28.9 360.5 27.1 362.7 24.1 351.1 24.2 351.1 24.1 350.9 24.1 350.9 15.6 348.8 14.9 339.6 12.3 338.8 9.4 335.9 0 323 0 303.3 24.1 303 24 303 24 301 23.5 287.8 20.2 280.1 44.5 288.2 48.5 288.1 48.6 288.1 48.6 286.9 49.8 268.4 67.9 271.6 72.5 272 73.1 263.7 84.7 258.7 101.5 258.6 101.6 251 105.6 254.6 113 226.8 105.8 197.9 112.7 197.7 112.7 197.7 112.7 178.1 112.7 164.9 121.3 167.3 125.6 167 125.6 167.1 125.7 166.6 125.7 165.8 125.7 157.5 125.9 155.2 127.6 142.6 137.4 142.6 140.4 150 149.4 186.8 169.3 186.8 169.4 196 169.4 238 161.5"/>
    </g>
    <g id="cambuci" class="bairro">
        <polygon points="332.8 375.8 323.8 388.5 303.9 400.4 307.3 408.5 270.9 432.8 259 457.2 243.2 469 243.2 469 202.3 493.8 202.3 506.9 173.8 542.9 166.3 542.9 166.3 545.9 182 558.9 190.3 558.9 198 563.1 214.5 563.1 214.5 563.2 222.4 558.7 235.4 566.6 238.7 567.2 279.9 538.2 279.9 538.3 302.6 526.1 322.5 526.6 322.5 510.2 352.6 485.7 355.6 470.8 351.7 464.6 404.5 452.7 424.6 449.4 382.9 414.4 385.1 407.9 360.1 364.9 332.8 375.8"/>
    </g>
    <g id="laje_de_muriae" class="bairro">
        <polygon points="133 359.8 144.8 350.7 149.8 355.5 153.6 350.2 153.6 361.1 164.5 371.1 178 376.1 185.3 372.5 182.3 363.7 189.6 360.5 181.5 351 189.8 346.6 189.1 327.6 197.4 324.1 201.8 314.8 216.8 311.2 202 302.5 209.8 294.5 206.4 279.8 201.9 278.1 209.5 271.1 186.4 266.3 181.7 279.5 173.8 271.3 169.7 287 165.5 291.2 156.7 282.7 161.1 278.2 153.4 270.4 157.6 262.8 160.9 262.2 157.8 259 141.5 259.6 133.5 267 132.8 259.4 136.8 255 129.5 255 125.3 267.1 113 255.2 108.9 266.9 108.7 266.9 108.7 267 107.2 266.9 105.1 266.9 106.2 269.2 112.9 283.7 112.9 283.7 112.9 283.7 112.7 284.7 110.1 295.2 116.8 298.6 117.1 298.7 117 298.7 117.2 298.8 114.1 304.5 113 306.7 117.2 316.4 93.5 335.7 91.8 342.1 89.7 351.2 86.2 358.3 85.5 359.9 93.5 372.1 113.2 355.9 133 359.8"/>
    </g>
    <g id="aperibe" class="bairro">
        <polygon points="190.2 559.5 181.7 559.5 165.8 546.2 165.8 542.9 149.3 542.9 132.5 555.1 129.5 572.6 129.4 572.7 128.4 573.1 113.1 579.8 113.1 587.1 122.2 597.9 158.1 606.9 213.6 563.7 197.9 563.7 190.2 559.5"/>
    </g>
    <g id="sao_joao_de_uba" class="bairro">
        <path d="M270.4,432.4l36.1-24.1-3.4-8.1,20.3-12.1,9-12.7,27.3-11L344.1,340l-20.4,8.2-11.4-4.3-8.8,4.3L291.1,344l-7.9,12.2-28.4-3.4-8.4,3.7v3.7l-8,4.1h-7.9l-7.6,3.9-3.7,7.6-4.7,12.6,8.5,8.5.1.1v.2l-19.8,35.3L223,436l11.8-7.6,4.7,4.4,3.8,21.3-8.5,6.7,8.2,7.9,15.8-11.8Z"/>
    </g>
    <g id="natividade" class="bairro">
        <polygon points="335.8 197.3 336.3 189.7 344.3 189.7 367.9 145.1 356.4 137.2 359.9 129.8 331 121.6 323 137 299 129 291.3 121.8 295.2 109.2 286.9 109.2 279.4 121.7 270.8 113.6 270.8 129.1 251.6 125.1 238.6 129.4 238.6 162 196.1 170 186.8 170 186.8 173.9 206.7 178.2 214.6 201.4 222.8 201.4 230.7 206.3 219.3 226.4 222.9 238.4 230.2 238.1 234.8 234.3 254.6 230.7 254.6 238.8 282.2 254.3 286.7 250.2 291.5 242.2 291.7 242.2 294.4 242.4 290.7 238.1 302.9 238.7 307.6 229.6 320.2 226.1 322.6 219.1 343.3 206.2 342.9 197.3 335.8 197.3"/>
    </g>
</svg>