<svg id="regiao_04" xmlns="http://www.w3.org/2000/svg" viewBox="0 0 1071.39 709.6">
  <style>
    .bairro {
      fill: #29addd; /* Cor base da Região 04 */
      stroke: #FFF;
      stroke-width: 0.5;
      transition: fill 0.2s ease-in-out;
    }
    .bairro:hover {
      fill: #FFD700 !important; /* Destaque amarelo-ouro */
    }
    .bairro.selecionado {
      fill: #E44D26 !important; /* Laranja/vermelho para o bairro selecionado */
    }
  </style>

  <polygon id="quatis" class="bairro" points="176.04 426.01 170.02 421.95 166.86 423.85 166.86 425.4 161.63 425.4 158.36 428.86 151.44 430.59 149.59 435.4 147.99 436.99 147.99 442.1 154.53 448.88 156.52 447.24 166.83 448.89 158.84 460.61 170.13 467.7 170.87 469.6 175.11 471.35 176.66 467.43 180.51 469.49 180.51 458.08 185.16 446.2 183.8 443.69 197.32 440.32 195.7 428.25 200.62 428.37 200.62 426.85 197.38 423.25 200.62 421.72 200.62 414.79 195.39 411.23 197.05 406.25 188.85 404.61 185.89 406.38 182.09 406.28 177.06 411.4 173.43 411.31 171.63 409.96 170.15 411.69 170.15 419.76 176.04 426.01"/>
  <polygon id="itatiaia" class="bairro" points="72.58 477.16 69.07 479.93 72.56 490.8 76.2 493.53 80.71 491.72 80.71 486.9 85.82 483.43 82.31 481.21 90.08 474.38 99.37 471.41 101.42 467.89 107.82 466.58 106.54 464.58 110.1 462.52 108.3 457.65 78.73 447.98 72.24 443.77 80.99 437.31 89.5 438.79 92.7 428.54 91.14 426.97 85.94 428.64 81 425.28 74.02 426.94 60.71 442.35 72.58 471.67 72.58 477.16"/>
  <polygon id="resende" class="bairro" points="150.57 495.03 153.14 488.4 151.46 479.49 153.12 476.73 150.78 473.06 144.32 473.06 139.15 464.61 146.11 455.91 143.94 450.54 151.42 452.32 154.28 448.99 147.74 442.2 147.74 436.89 149.38 435.26 151.25 430.38 158.23 428.64 161.52 425.15 166.61 425.15 166.61 423.71 170.03 421.65 174.31 424.54 169.9 419.86 169.9 411.66 168.52 405.42 168.47 406.5 161.6 404.99 153.18 409.8 152.89 408.2 149.65 409.73 142.41 408.06 135.63 413.33 134 409.89 127 408.05 117.06 408.27 115.32 414.98 113.52 414.85 94.93 428.91 92.94 428.64 89.67 439.07 81.05 437.57 72.68 443.76 78.84 447.75 108.49 457.45 110.41 462.63 106.89 464.67 108.22 466.76 101.58 468.11 99.54 471.62 90.21 474.6 82.72 481.18 86.28 483.42 80.96 487.03 80.96 491.89 76.16 493.81 72.35 490.95 68.78 479.85 72.33 477.04 72.33 471.72 60.46 442.39 58.79 440.68 48.28 440.68 43.39 437.15 38.31 440.7 32.92 440.68 20.98 446.1 19.76 449.24 35.09 450.54 38.11 453.93 45.61 466.3 43.56 469.28 46.9 474.76 45.46 478.09 50.45 478.09 53.55 481.47 58.84 485.06 55.65 491.53 60.45 488.3 65.61 491.84 64.12 501.91 67.28 505.43 71 503.66 73.93 507.14 75.88 503.8 80.9 508.64 84.63 501.74 87.76 505.25 91.47 503.96 96.45 507.22 94.86 510.49 96.63 512.1 96.63 510.57 100.09 510.87 101.63 513.76 104.94 510.45 108.25 503.73 113.52 507.03 123.74 502.2 131.97 503.73 128.7 498.56 134.06 495.21 142.83 496.87 139.38 498.79 142.59 500.48 142.59 505.55 145.73 505.38 144.37 502.11 147.53 499.04 145.82 495.03 150.57 495.03"/>
  <polygon id="rio_claro" class="bairro" points="271.04 550.15 272.83 545.24 265.33 543.37 267.78 542.9 269.46 538.33 272.86 537.97 272.32 530.06 264.47 533.11 262.33 529.86 255.46 533.15 255.46 527.9 246.56 522.06 240.47 526.53 235.35 522.76 238.46 516.03 237.17 514.26 228.52 512.67 223.18 516.1 219.87 521.2 219.87 525.31 217.99 520.92 219.57 516.07 215.81 515.95 209.31 514 200.9 516.06 197.66 524.7 197.68 524.75 192.98 527.84 194.46 529.8 190.87 533.52 185.85 533.52 185.85 537.98 179.09 537.98 175.43 543.23 175.56 545.06 172.15 545.06 170.34 548.2 170.34 553.41 175.42 555.3 173.54 557.17 170.07 558.98 166.81 565.73 163.25 567.41 163.2 565.62 159.86 563.97 155.47 568.58 156.61 568.58 158.06 571.94 161.36 568.77 170.38 568.63 173.6 575.38 177.06 575.38 175.42 587.73 182.11 592.64 189.13 590.92 192.17 592.6 195.83 583.99 197.47 584.03 202.81 578.57 209.22 573.77 216.42 578.82 226.74 577.05 229.88 578.71 240.08 572.25 241.95 575.52 245.38 573.67 250.43 580.22 257.13 580.67 257.13 578.62 265.56 568.71 264.01 566.95 271.05 565.43 274.52 559.95 269.25 550.15 271.04 550.15"/>
  <path id="barra_mansa" class="bairro" d="M218.11,514.34h0l-1.85-10-1.69-3.67,1.57-3.51-1.39-1.58,3.17-9.05-1.7-3.13-11.79,1.48-5.31-3.35V460.86l3.4-5.09,8.39-3.17,3.93-3.65h24.53l-21.58-6.59,4.81-12.07,10.22-8.37V420.5l-17.9,7.94-5.74.18-1.31,1.88-7.15-1.87L196,428.5l1.61,12-13.42,3.34,1.25,2.33-4.67,11.95v11.78l-4-2.13-1.54,3.9-4.58-1.89-.75-1.92-11.24-7.06-6.05,5.55-2.63-.12,1,6.66,2.44,3.82-1.69,2.82,1.68,8.88-2.65,6.86H146.2l1.56,3.66h.87l11.22,3.28,3.28,3.28,3.43-3.61,5.44,3.56,6.66-1.5,1.57,3,3.44-1.49,1.81,3.33,5.18,3.39L189,515.94l5.38,1.83,3.13,6.61,3.21-8.54,8.6-2.1,6.53,2,1.88.06S218.12,514.34,218.11,514.34Z"/>
  <polygon id="pirai" class="bairro" points="299.42 527.72 291.53 526.08 291.58 521.01 284.58 515.95 295.14 510.62 296.4 505.72 303.44 503.77 302.1 494.62 301.97 493.67 298.44 488.53 289.81 488.53 289.81 484.99 294.82 481.59 291.63 478.37 288.3 480.03 283.24 476.8 279.87 476.67 279.87 479.92 278.04 483.43 264.33 479.97 252.54 492.2 245.5 489.36 241.79 497.15 230.2 497.15 222.61 500.96 218.13 514.34 217.77 515.76 219.91 515.83 218.26 520.91 219.62 524.09 219.62 521.13 223 515.92 228.47 512.4 237.31 514.04 238.75 516 235.66 522.68 240.47 526.22 246.55 521.76 255.71 527.77 255.71 532.76 262.42 529.54 264.57 532.8 272.55 529.71 273.13 538.19 269.64 538.57 267.96 543.12 266.5 543.4 273.16 545.07 271.22 550.4 269.66 550.4 274.73 559.8 284.66 556.49 291.45 550.12 284.96 547.18 285.91 538.29 299.42 527.72"/>
  <polygon id="porto_real" class="bairro" points="151.51 452.6 144.35 450.9 146.4 455.95 139.46 464.63 144.46 472.81 150.7 472.81 149.71 465.98 152.54 466.11 158.57 460.57 166.4 449.07 156.59 447.5 154.68 449.08 154.61 448.99 151.51 452.6"/>
  <polygon id="pinheiral" class="bairro" points="230.06 488.58 226.72 488.67 222.72 500.62 230.14 496.9 241.63 496.9 245.37 489.04 252.48 491.91 263.99 479.95 241.84 479.95 235.18 471.39 231.91 474.79 231.97 485.04 230.06 488.58"/>
  <path id="volta_redonda" class="bairro" d="M211.06,452.81,202.69,456l-3.31,5v20.43l5.12,3.23,11.86-1.49,1.84,3.38-3.16,9,1.4,1.59-1.59,3.56,1.66,3.59,1.68,9.13,8.35-24.94,3.37-.1,1.81-3.35-.06-10.19-5.31-5.3v-.05a4.78,4.78,0,0,0-.1-.57,5.48,5.48,0,0,0-.47-1.3,3.82,3.82,0,0,0-3.07-2.16h0l-1.34-.73,18.53-15.48H215Z"/>
</svg>