<svg id="regiao_12" xmlns="http://www.w3.org/2000/svg" viewBox="0 0 1071.39 709.6">
  <style>
    .bairro {
      fill: #82bb26; /* Cor base da Região 12 */
      stroke: #FFF;
      stroke-width: 0.5;
      transition: fill 0.2s ease-in-out;
    }
    .bairro:hover {
      fill: #FFD700 !important;
    }
    .bairro.selecionado {
      fill: #E44D26 !important;
    }
  </style>

  <g id="quissama" class="bairro">
    <path d="M1019.58,365.18l-2.69-1.41c0,.26-.07.51-.1.77v2.12l-.26-.05v0l-.13,0-8.54-1.4-.09.08c-.28.64-.72,1.37-1.44,1.51h-.2a2,2,0,0,1-1.22-.6,5.57,5.57,0,0,0-1.56-1,2.7,2.7,0,0,0-1.19-.16l-2.18,0c-1.38,0-3.05.06-4.43.06h-.48c-.81,0-2,0-3.5-.12h-.2l0-.08-5-8.4L952.09,338l-14.36-7.73-1.18,2.07-.74,1.43-3.19.36-.12,5.6-1.75-1.29-1.35-.79-2.28,1.56L924.61,341l-.13,0-.12.08-1.7.54-3.45,1.17-7.5,9.73h0l-.1.13-10.69-.78-9.71-.59-10.24,3.58q-4.83,6.78-9.68,13.55L903.49,377h0l5.25,3.51,0,0,5,10,.05.09-.09.07-5,3.59,1.74,5.13,3.15,1.74.07,0v1.61l15.37-6.34h0l6-1.93,30.79-8.44,26.56-7.35,21.33-8.28,11.39-7.31-4.79.22-.36,1.1-.17.57h0l-.09.26Z"/>
  </g>
  <g id="sao_francisco_de_itabapuana" class="bairro">
    <path d="M983.3,141l.5,1.1a6.3,6.3,0,0,1,4.21,6,5.82,5.82,0,0,1-.08,1v.05l-2.37,1.59-3.11,3.5.08,4,2.61,3.91L985,182.93l-1.49,3.55-.47,2.88L981.69,193l-.1,5a3.88,3.88,0,0,0,.72,1.11c.42.54,1,1.2,1.63,1.91,1.27,1.4,2.77,3,3.77,4l1.11,1.12,0,0,.76,3.67.19,15.36a5.65,5.65,0,0,1,2.54,1.27,36.93,36.93,0,0,1,3.27,2.76c2,1.89,3.8,3.76,4,4h8.6l.59,2-.09,9.26,1.22,1H1013l3.58,2,4.12,4.86,1.91,1.82-.56,1.5.27.36,6.71-6.71h0l.36-.18c.22-.12.55-.31.94-.56a18.11,18.11,0,0,0,2.89-2.28,12.83,12.83,0,0,0,4.18-9.28v-.06l10.4-7.92-7.17-16.08-.25-10.62,13.68-15.79,7.29-13.65h5l5.09-8.58-1.73-8.42,1.73-8.63-5.37-3.52-.24-1.35-4.77,1.43-1.94-10.24-4.78-1.57-5.44,3.11-10.15-9.15-6.42-.92-3.67,3.55-5.13-1.67-1.84,3.21-3.38.05-.25,1.88-5.21-.14-1.18-1.79-3.77,3.76.29-2h-3.69l0,0-.31-.31-4.63-4.69-1.93,1.92V126.7l-4.85-1.8-3.61,5.29L986,128.42l-.37,2.16.94,6.65Z"/>
  </g>
  <g id="campos_dos_goytacazes" class="bairro">
    <path d="M1057.24,306.11h0l-1.19-.13h-.25a16.93,16.93,0,0,1-3.2-.37h0l-.77-.08h0l-.7-.26h0a25.83,25.83,0,0,1-4.56-1.73h0l-.1,0H1033.2l-9.94-6.18-1.14-3.62,2.24-8v-.13h0v-.06l.12-26L1022,256.2l.08-.08.08-.08-.37-.5.55-1.47-1.81-1.72-4.09-4.83-3.48-1.93h-3.08l-1.39-1.08.09-9.35-.52-1.76h-8.53l0,0-.7-.74c-.44-.46-1.06-1.09-1.78-1.79a46.63,46.63,0,0,0-4.78-4.21,5.28,5.28,0,0,0-2.44-1.23h-.07l-.13,0-.19-15.59-.74-3.58a101.76,101.76,0,0,1-6.88-7.51,2.49,2.49,0,0,1-.39-.72v0l.1-5.06,1.4-3.63.47-2.89,1.48-3.53.09-20.6-2.6-3.91-.09-4.19,3.2-3.58,2.3-1.56a1.43,1.43,0,0,0,0-.21,6.13,6.13,0,0,0-4.07-6.49l0,0L983,141l3.27-3.84-.92-6.52-.87-1.13h-1.62l-2.64-2.74-.53-.52H976.9l-1.2-1.38-1.12-.76-.45-1.08h-3.77l0-.07s-.12-.3-.3-.67a6.7,6.7,0,0,0-.68-1.11c-.15-.19-.31-.29-.39-.28h-6.08l-2-.93h-1.31l-2.27-1.75h0l-.9-.67H953l-.23,1.15-3.12.29h0l-4.19.28-.29.92-3.6.2-1.49.74-2.28-.09-1.49-.28L933,120.3l-.65,6.44-6.8,5.53-1.26,4.39-5.51.5L914,141.48l-13.82,9.39,10.21,31.86,27-9.77.18-.07,10.64,11.89h0l0,2.22.09,4.71,3.81,2.46,5.37,7.11,1.88,7.27.49,1.89-1.36,1.46-7.1,7.62-1.49,10-5.25,1.88-15,16.93L928,250.06l-10.31-11.48-3.88-4.32-1.59.61-3.09,1.2-.27,1.78-.24,1.58-3.39.51L899.8,247l-15.75,1.48-1,2.11-1.37,3h0l-.12.06L871,259.11l-1.72,4.81.19,4.11h0l-1.91,3.05h0l-3.73,1.27-5.59,1.9-1.18,1.52-1.37,1.77V281l-7.05-.86-5.25-.63,0,.49-.15,2.46-5,.36-.28,0-5.76,9.65-14.11,9.1v3.05l1.24,1.24L831,308.28l12.16-3.47,2.25,3.47h22.12l-3.07,5.37-.25,9.92a8.86,8.86,0,0,1,1.14,3.51,1.49,1.49,0,0,1-1,1.57l-.12,5.45-11.67,9.53-.88-.64-3,1.27,3.28,3.53-1.5,3.37,5.15,10.06h3.1l4.81-5.55,5.78-4.4,6.75,3.62,3.56-.13,1.47-.3,10.07-3.54,9.75.71,10.66.65,7.46-9.66,0,0,.08-.11,3.43-1.08,1.8-.61L927,339l2.54-1.78,1.37,1,1.36.79v-5.11h.12v-.11l3.27-.37.68-1.2,1.21-2.34.09.05,0-.05,14.55,7.9,34.13,18.37,0,0,.12.21.48.26,4.49,7.74h0l.1.41h11.73l2.81,1.65,1.46-1.33a.61.61,0,0,1,.05-.12l0-.09h.12l.22-.2,8.32,1.56c.08-.6.15-1.19.23-1.79V363l3.11,1.61.09-.27.46-1.54h5.36l7.42-5.38,16.58-9.12,13.18-7.43,5-11.85-1.49-13.74-1.65-9.37-.14,0v0h-.21l-2.52.32Z"/>
  </g>
  <g id="sao_joao_da_barra" class="bairro">
    <path d="M1024.61,285.48v.29l-1.87,7.31.74,3.89,9.85,6,12.91.13h0l.35.17,4.56,1.72h0c.52.14,1,.25,1.46.34h0l3.4.35h8.12l-9.9-40.57,1.5-22.7,1.48-9.09a4.8,4.8,0,0,0-2.81-3.7,10.29,10.29,0,0,0-4.27-.81,15.65,15.65,0,0,0-1.58.08l-.59.07-10.37,7.9c-.05,8.37-8.24,12.33-8.48,12.45l-6.71,6.71,2.35,3.13Z"/>
  </g>
  <g id="italva" class="bairro">
    <path d="M889.11,226.6l-7.49-27.95-1-3.87,11.24-1.64,3,2.33,1.69,1.34,6.9-10.59,5.63-2.83,1.11-.56-10-31.21V154l-10.36,3.42-.13,5.33L883,159.09l-.32,3.69L877.56,159l-6.68,3.68-3.46,3.27-3.49-1.49-3,1.77c-3.88,2.33-4.49,2.72-5.49,3.29a52.9,52.9,0,0,1-6.48,3.08l-.89,2.66,17.9,15-8.86,1.36,4.23,3.34,13.49,10.65Z"/>
  </g>
  <g id="sao_fidelis" class="bairro">
    <polygon points="881.49 253.4 881.51 253.38 883.06 250.03 883.88 248.27 883.88 248.27 883.88 248.27 899.66 246.78 905.13 239.7 908.43 239.21 908.66 237.66 908.93 235.88 911.78 234.78 913.52 234.11 910.93 233.13 910.13 232.83 911.87 217.43 889.58 227.35 889.74 227.97 889.38 227.44 889.34 227.46 889.31 227.34 877.15 209.4 874.69 205.77 872.28 203.87 856.81 191.67 835.14 196.58 836.68 198.96 835.17 205.26 822.56 215.92 822.56 222.57 814.11 222.44 804.27 227.85 804.27 267.13 805.81 267.13 804.27 270.35 804.27 274.13 800.59 275.82 798.92 281.1 795.42 284.51 800.55 298.19 804.22 303.17 815.89 304.9 815.52 301.49 817.95 301.39 832.05 292.3 837.84 282.59 837.84 282.59 837.84 282.59 839.86 282.44 843.01 282.22 843.2 279.22 843.2 279.22 843.2 279.21 849.29 279.95 855.48 280.7 855.48 277.45 857.38 275 858.13 274.04 863.05 272.37 867.43 270.88 869.25 267.96 869.07 263.88 870.84 258.94 870.84 258.94 870.95 258.6 881.49 253.4"/>
  </g>
  <g id="cardoso_moreira" class="bairro">
    <polygon points="912.17 217.03 912.17 217.03 911.83 219.98 910.4 232.66 912.6 233.49 913.88 233.97 913.91 233.96 913.95 234 914.23 234.11 914.1 234.16 917.23 237.66 928.03 249.68 930.01 247.46 944.47 231.15 949.64 229.3 951.13 219.41 957.98 212.05 959.55 210.37 959.08 208.56 957.21 201.4 951.25 193.94 948.02 191.85 947.93 187.16 947.89 184.88 937.43 173.18 937.4 173.19 910.33 183.51 910.19 183.07 903.54 186.42 899.18 193.11 896.53 197.18 896.53 197.18 896.53 197.18 893.65 194.91 891.75 193.4 880.9 194.99 889.51 227.11 912.17 217.03 912.17 217.03"/>
  </g>
</svg>