<svg id="regiao_capital" data-name="regiao capital" xmlns="http://www.w3.org/2000/svg" viewBox="0 0 1071.4 483.5">
    <style>
        .bairro {
            fill: #7d806a; /* Cor base da Região Capital (cinza esverdeado) */
            stroke: #FFFFFF;
            stroke-width: 0.5;
            transition: fill 0.2s ease-in-out;
        }
        .bairro:hover {
            fill: #FFD700 !important; /* Amarelo dourado para hover */
            cursor: pointer;
        }
        .bairro.selecionado {
            fill: #E44D26 !important; /* Laranja para o item clicado/selecionado */
        }
    </style>

    <g id="rio_de_janeiro" class="bairro" data-name="rio de janeiro">
        <polygon points="0 461 133 450.1 144.7 448.7 0 451.6 0 461"/>
        <polygon points="1033.5 259.7 1023.1 228.7 1043.2 219.8 1043.5 209.8 1024.7 200.8 1023.9 190.4 963.8 190.4 952.5 178.5 972.9 150 923.3 159.6 913.4 109 859.9 62.8 854.5 66.8 843.6 49.4 814.6 38 772.5 38 673 58.8 642.1 67.5 624.1 99.2 579.2 119.6 560.5 98.7 530.9 89.6 529 70.4 388.3 88.8 366 99.3 357.8 139 307.7 139.6 279.7 129.7 229.7 139.6 117.2 149.5 107.3 177.5 36 201.6 36 202.2 36 253.9 103 329.6 233.1 432.6 152.3 449.1 5.8 452 5.8 464.4 140.4 453.4 170 449.8 237.7 443.6 359.3 443.6 396.6 464.1 396.6 483.5 429.5 483.5 429.5 462.8 448.1 443.1 538.2 413.4 559.4 423.6 559.4 413.4 583.3 402.3 670 383.4 830.9 383.4 791.9 350.6 747.6 352 741.6 342.7 759.6 332.4 808.7 353.3 840.5 393.2 870.7 364.3 921 363.2 951.6 343.2 1001.9 352.3 1013.2 342.5 1002.8 332.3 1010.9 323.7 1052.8 301.9 1052.8 291.8 1071.4 283 1071.4 260.6 1033.8 280.2 1033.5 259.7"/>
        <polygon points="962.1 58.9 996.7 68.4 1005.3 88.9 1039.5 77.2 1021.7 69 1012.7 36.9 1052.8 18.2 1052.8 0 1022.7 11 1023.2 0.8 995.2 26.6 931.9 9.1 905.7 49.6 894.2 47.9 885.5 59.7 914.2 88.9 962.1 58.9"/>
        <polygon points="943.4 118.8 953.8 99.1 913.7 98.4 923.9 139.2 953.1 149.6 953.1 139.2 963.5 129 945.8 128.5 933.6 108.8 942.7 100 943.4 118.8"/>
    </g>
</svg>