<svg id="regiao_capital" xmlns="http://www.w3.org/2000/svg" viewBox="0 0 1071.39 709.6">
  <style>
    .bairro {
      fill: #7d806a; /* Cor base da Região Capital */
      stroke: #FFF;
      stroke-width: 0.5;
      transition: fill 0.2s ease-in-out;
    }
    .bairro:hover {
      fill: #FFD700 !important;
    }
    .bairro.selecionado {
      fill: #E44D26 !important;
    }
  </style>

  <g id="rio_de_janeiro" class="bairro" data-id="rio_de_janeiro">
    <polygon points="291.8 628.71 314.44 626.86 316.43 626.62 291.8 627.11 291.8 628.71"/>
    <polygon points="467.7 594.46 465.92 589.18 469.35 587.66 469.4 585.96 466.19 584.43 466.06 582.66 455.83 582.66 453.91 580.63 457.38 575.78 448.94 577.42 447.25 568.8 438.14 560.95 437.23 561.63 435.37 558.66 430.44 556.73 423.27 556.73 406.34 560.26 401.08 561.74 398.02 567.13 390.38 570.61 387.19 567.05 382.15 565.51 381.83 562.24 357.88 565.36 354.09 567.16 352.7 573.92 344.16 574.01 339.4 572.33 330.9 574.02 311.75 575.7 310.06 580.46 297.93 584.57 297.93 584.66 297.93 593.46 309.33 606.35 331.47 623.88 317.72 626.68 292.78 627.18 292.78 629.3 315.7 627.42 320.73 626.8 332.26 625.75 352.95 625.75 359.29 629.24 359.29 632.54 364.9 632.54 364.9 629.02 368.07 625.67 383.39 620.61 387 622.35 387 620.61 391.07 618.73 405.82 615.51 433.21 615.51 426.58 609.92 419.03 610.17 418.02 608.58 421.08 606.83 429.44 610.39 434.84 617.18 439.99 612.25 448.54 612.06 453.75 608.67 462.32 610.21 464.24 608.54 462.46 606.81 463.85 605.34 470.97 601.63 470.97 599.91 474.14 598.42 474.14 594.6 467.74 597.94"/>
    <polygon points="455.54 560.28 461.42 561.9 462.89 565.38 468.72 563.39 465.69 562 464.16 556.53 470.98 553.36 470.98 550.26 465.85 552.13 465.94 550.39 461.18 554.79 450.4 551.81 445.94 558.69 443.98 558.41 442.5 560.41 447.38 565.38 455.54 560.28"/>
    <polygon points="452.36 570.48 454.13 567.12 447.3 567 449.04 573.95 454.01 575.72 454.01 573.95 455.77 572.21 452.76 572.12 450.69 568.77 452.24 567.28 452.36 570.48"/>
  </g>
</svg>