<svg id="regiao_07" xmlns="http://www.w3.org/2000/svg" viewBox="0 0 1071.39 709.6">
  <style>
    .bairro {
      fill: #d1af6c; /* Cor base da Região 07 */
      stroke: #FFF;
      stroke-width: 0.5;
      transition: fill 0.2s ease-in-out;
    }
    .bairro:hover {
      fill: #FFD700 !important; /* Destaque amarelo-ouro */
    }
    .bairro.selecionado {
      fill: #E44D26 !important; /* Laranja/vermelho para o bairro selecionado */
    }
  </style>

  <polygon id="itaperuna" class="bairro" points="894.53 145.29 894.53 140.43 885.51 134.87 887.52 135.08 886.25 133.53 881.12 131.65 873.82 135.4 868.71 129.16 867.24 125.03 861.91 125.03 863.63 121.69 860.46 119.73 863.64 114.58 862.09 112.76 862.09 111.25 855.26 111.25 851.66 112.91 851.66 106.11 841.26 104.34 841.26 96.13 832.8 99.21 837.5 93.6 831.19 87.42 822.54 92.81 821.5 95.81 816.15 97.3 814.15 101.17 809.4 100.93 811.02 102.81 809.31 102.66 807.35 105.96 805.28 107.84 793.35 101.11 793.35 97.84 785.34 99.3 783.34 100.92 780.01 101.05 778.38 95.69 783.13 87.31 780.06 85.4 776.5 85.4 773.14 75.58 764.92 73.77 764.92 75.22 764.92 75.22 764.92 75.27 759.46 75.27 759.46 77.02 759.49 78.85 759.46 78.87 759.46 78.87 759.35 78.99 754.86 83.5 754.75 83.89 754.23 85.88 754.17 85.89 754.15 85.93 751.77 86.56 751.12 86.75 749.41 92.11 749.38 92.2 749.38 92.2 749.37 92.23 742.19 92.23 740.84 99.11 733.81 107.67 738.8 112.48 740.54 107.56 744.35 107.56 742.34 109.77 742.59 112.35 745.65 109.52 752.78 109.23 754.47 111.02 752.72 111.33 751.11 114.27 754.39 117.64 752.53 119.5 755.89 122.78 757.46 121.21 759.27 114.23 762.64 117.69 764.56 112.29 775.06 114.5 771.77 117.5 773.41 118.11 774.93 124.57 771.74 127.86 778.29 131.66 771.43 133.3 769.58 137.2 766.17 138.67 766.45 146.67 763.07 148.5 766.52 152.51 763.31 153.93 764.61 157.6 761.33 159.24 761.33 160.84 766.97 162.48 778.43 158.69 780 155.44 783.33 153.74 786.68 153.74 789.94 152.11 789.94 150.55 793.7 148.89 805.58 150.31 808.94 145.15 814.26 146.96 817.98 145.16 822.83 146.96 831.57 143.47 838.41 154.17 838.4 154.17 848.91 172.25 850.63 171.52 855.36 169.27 863.91 164.15 864.14 164.25 864.16 164.24 864.35 164.34 867.16 165.54 869.81 163.32 870.73 162.45 874.92 160.14 877.52 158.68 877.55 158.7 877.58 158.68 882.42 162.3 882.48 158.56 882.74 158.69 882.74 158.69 883.01 158.83 889.37 162.13 889.49 157.24 899.85 153.83 899.85 150.89 899.85 150.82 899.85 150.82 899.85 147.24 894.53 145.29"/>
  <path id="miracema" class="bairro" d="M711.45,178l7.13,7,13.12,8.54,22.44,1.27,3.45-7,7.11.18,6.83-5.17q4.22-7.48,8.41-15l-3.56-3.57-.06-.05,2-5.23L767,162.74,761.08,161v-1.78l-5.72-2.12-4.71-4.33v-4l-1.35,1.86-2.17-2.07-4.89,3.78-8.38-1.67-8.27,6.78,0,0-1.9,1.55,1.54,1.45.06.06,0,.09-1.58,3.36-.08.1,0,0-1.74,2.32L718.47,171l3.09,1.68.06,0h0l0,0v1.65l-2.92,1.06-2.29.85-1.6-.88-1.83-1Z"/>
  <polygon id="bom_jesus_de_itabapoana" class="bairro" points="889.47 104.46 880.81 104.49 880.82 104.46 880.78 104.46 881.02 102.94 879.47 100.97 879.4 100.42 879.22 99.34 875.86 101.04 875.78 101.09 870.67 95.93 867.28 97.34 867.42 99.01 867.23 99.01 867.23 99.06 865.59 99.06 863.77 99.11 863.67 95.75 864.05 95.71 866.65 95.41 862.72 93.55 861.43 93.1 858.69 92.23 858.74 92.16 858.7 92.15 863.69 85.53 861.5 83.17 860.46 82.08 860.41 78.33 861.8 79.1 863.62 80.05 863.71 78.58 863.72 78.42 861.97 73.57 862.01 73.54 861.97 73.45 865.42 70.31 862.03 66.75 861.96 66.67 861.96 66.67 861.96 66.67 863.94 63.68 865.52 61.29 865.52 61.27 863.87 52.81 860.39 49.18 859.96 48.72 859.95 48.7 858.41 43.88 858.45 43.88 858.41 43.75 861.02 43.88 862.16 43.88 862.78 41.57 863.84 37.35 861.96 35.84 862.07 35.63 865.37 28.79 862.13 27.2 857.02 30.48 857.02 30.54 853.61 30.54 838.06 49.05 840.05 53.4 843.27 54.34 841.78 61.27 841.8 61.28 831.66 80.44 828.35 80.44 828.18 83.17 831.14 83.17 831.33 87.21 837.84 93.58 833.59 98.66 841.51 95.77 841.51 104.13 851.91 105.9 851.91 112.52 855.2 111 862.34 111 862.34 112.66 863.95 114.56 860.8 119.65 863.96 121.6 862.32 124.78 867.42 124.78 868.93 129.03 873.88 135.08 881.1 131.38 886.4 133.32 888.1 135.4 886.58 135.24 894.78 140.29 894.78 145.11 900.1 147.07 900.1 150.63 918.8 136.92 924.18 136.4 925.32 132.13 932.07 126.8 932.74 120.26 928.56 117.48 928.56 117.4 928.56 117.4 928.56 117.33 928.56 114.52 923.47 114.82 920.5 113.13 920.4 113.28 918.59 116.22 915.44 114.88 910.28 114.88 910.24 114.88 910.24 114.88 910.19 114.88 910.15 114.84 909.68 114.27 908.2 111.31 904.99 114.62 905.07 113.02 905.07 111.54 901.57 109.39 899.49 106.21 899.4 106.23 892.94 107.77 889.47 104.46"/>
  <polygon id="santo_antonio_de_padua" class="bairro" points="721.38 255.44 721.49 255.41 721.49 255.41 721.66 255.36 721.79 255.27 721.8 255.31 727.98 253.43 733.45 251.76 737.19 252.7 733.52 248.31 733.52 244.95 740.13 242.08 740.48 241.93 741.72 234.54 749 229.27 756.24 229.27 759.28 229.27 771.22 214.24 771.22 208.62 788.37 198.24 784.75 194.72 788.43 191.79 786.87 183.06 785.11 181.39 780.22 184.53 771.66 183.04 764.78 188.25 757.74 188.06 754.29 195.04 731.62 193.77 718.42 185.18 711.42 178.3 711.42 181.75 707.73 190 710.25 191.56 712.98 193.2 712.92 194.7 717.93 198.21 717.9 198.25 717.93 198.27 717 199.48 716.47 200.21 716.43 200.22 716.34 200.33 714.58 200.82 711.18 201.93 709.77 208.41 709.66 208.91 703.11 208.91 703.23 213.66 702.4 215 700.88 217.6 696.04 217.6 697.81 221.18 695.9 222.41 692.33 224.77 690.15 227.5 689.82 227.94 686.65 233.54 685.92 234.86 690.65 236.62 689.37 237.51 685.98 239.99 686.95 241.17 687.2 241.48 692.4 239.97 693.93 246.6 704.26 243.44 706.47 245.56 709.46 248.39 709.81 251.63 711.39 250.14 711.46 250.2 711.54 250.13 713.05 251.71 713.17 251.82 714.69 255.61 713.24 260.43 714.19 260.43 718.6 257.43 721.39 255.48 721.38 255.44"/>
  <polygon id="itaocara" class="bairro" points="786.92 240.08 785.36 239.82 779.94 236.49 776.54 238.44 752.85 256.87 737.5 253.03 733.12 252.13 724.47 254.76 721.89 255.55 730.53 278.74 742.84 300.02 747.59 300.02 748.01 299.44 748.83 298.09 747.08 294.39 750.14 295 753.97 297.44 755.11 295.86 755.8 294.86 751.87 290.61 755.93 291.14 759.05 286.44 759.1 286.47 759.12 286.44 759.9 287.01 761.17 287.86 761.93 286.06 762.54 284.35 769.95 284.63 770.42 284.51 771.2 284.25 769.29 281.28 769.22 281.2 769.23 281.19 769.23 281.19 769.32 281.11 773.58 277.62 773.65 277.73 773.7 277.69 774.79 279.31 775.3 278.45 777.96 273.75 782.92 275.22 781.39 272.16 781.33 272.05 781.44 271.98 792.34 265.03 792.89 265.98 793.81 267.2 800.95 263.75 801.09 263.9 801.2 263.84 804.02 266.53 804.02 228.02 786.92 240.08"/>
  <polygon id="varre-sai" class="bairro" points="814.33 30.89 814.33 37.57 819.39 44.52 811.01 46.16 809.38 51.41 812.47 54.32 822.38 57.63 825.75 51.12 838.46 54.72 836.95 57.93 841.55 61.11 842.98 54.52 839.87 53.6 837.77 49.01 853.5 30.29 856.78 30.29 857.9 20.08 858.44 15.09 853.38 12.57 848.48 10.2 848.47 10.2 822.49 29.16 814.33 30.89"/>
  <polygon id="porciuncula" class="bairro" points="786.58 68.29 786.58 54.53 792.29 52.63 800.18 54.28 800.18 47.44 804 51.07 807.12 45.93 810.9 45.93 818.95 44.35 814.08 37.65 814.08 30.68 822.39 28.93 847.89 10.32 837.75 12.29 837.8 12.21 837.73 12.23 838.36 11.44 839.28 10.18 834.38 10.24 834.38 10.18 834.31 10.18 834.31 6.61 833.39 6.29 829.52 5.19 829.2 3.99 827.97 0 822.52 0 814.19 10.2 814.04 10.16 814.03 10.16 813.2 9.95 807.63 8.55 804.36 18.8 807.78 20.51 807.73 20.55 807.73 20.56 807.23 21.04 799.41 28.69 800.77 30.66 800.95 30.91 797.44 35.8 795.32 42.91 795.26 42.94 792.05 44.66 793.58 47.79 781.82 44.74 769.59 47.67 769.53 47.67 769.53 47.67 761.24 47.67 755.65 51.27 756.66 53.11 756.56 53.11 756.57 53.13 756.36 53.13 756.02 53.13 752.51 53.25 751.57 53.96 746.24 58.08 746.24 59.37 749.36 63.18 764.92 71.58 764.92 71.62 768.82 71.62 786.58 68.29"/>
  <polygon id="cambuci" class="bairro" points="826.63 158.9 822.86 164.26 814.42 169.3 815.85 172.71 800.46 182.99 795.43 193.29 788.76 198.28 788.77 198.29 771.47 208.76 771.47 214.32 759.4 229.52 756.27 229.52 756.27 230.8 762.88 236.31 766.4 236.31 769.66 238.08 776.61 238.08 776.61 238.11 779.95 236.2 785.45 239.58 786.87 239.81 804.27 227.54 804.27 227.6 813.86 222.44 822.31 222.63 822.31 215.71 835.01 205.37 836.29 199.04 834.64 196.42 856.98 191.41 865.46 190 847.82 175.22 848.74 172.46 838.17 154.26 826.63 158.9"/>
  <polygon id="laje_de_muriae" class="bairro" points="742.18 152.14 747.15 148.29 749.27 150.32 750.9 148.08 750.9 152.69 755.5 156.92 761.19 159.03 764.3 157.48 763 153.79 766.12 152.42 762.68 148.42 766.19 146.53 765.91 138.51 769.39 137.01 771.26 133.08 777.62 131.56 771.33 127.91 774.65 124.5 773.2 118.3 771.3 117.6 774.53 114.64 764.73 112.58 762.74 118.16 759.4 114.72 757.68 121.34 755.89 123.13 752.18 119.51 754.04 117.64 750.8 114.31 752.55 111.11 753.97 110.86 752.67 109.49 745.75 109.76 742.39 112.88 742.08 109.69 743.79 107.81 740.71 107.81 738.91 112.94 733.7 107.91 731.96 112.83 731.91 112.83 731.9 112.87 731.25 112.83 730.39 112.83 730.85 113.82 733.68 119.93 733.68 119.95 733.68 119.96 733.57 120.39 732.47 124.79 735.3 126.25 735.43 126.31 735.42 126.31 735.49 126.34 734.18 128.76 733.7 129.69 735.47 133.79 725.47 141.92 724.76 144.66 723.85 148.5 722.37 151.48 722.07 152.15 725.45 157.31 733.8 150.47 742.18 152.14"/>
  <polygon id="aperibe" class="bairro" points="766.34 236.56 762.78 236.56 756.02 230.92 756.02 229.52 749.08 229.52 741.95 234.68 740.71 242.1 740.64 242.13 740.23 242.31 733.77 245.12 733.77 248.22 737.6 252.8 752.79 256.6 776.26 238.33 769.59 238.33 766.34 236.56"/>
  <path id="sao_joao_de_uba" class="bairro" d="M800.27,182.82l15.27-10.2-1.43-3.42,8.57-5.13,3.79-5.38L838,154.05l-6.57-10.28-8.64,3.46-4.83-1.8-3.73,1.8L809,145.44l-3.34,5.14-12-1.43-3.55,1.56v1.55L786.74,154h-3.35l-3.2,1.65-1.56,3.22-2,5.31,3.58,3.58.06.06,0,.09-8.39,14.92,8.35,1.46,5-3.2,2,1.87,1.61,9-3.58,2.84,3.45,3.36,6.66-5Z"/>
  <polygon id="natividade" class="bairro" points="827.91 83.42 828.11 80.19 831.51 80.19 841.48 61.36 836.64 58.01 838.11 54.88 825.88 51.41 822.5 57.94 812.34 54.54 809.1 51.49 810.75 46.18 807.26 46.18 804.05 51.46 800.43 48.02 800.43 54.59 792.3 52.88 786.83 54.71 786.83 68.5 768.85 71.87 764.92 71.87 764.92 73.51 773.34 75.36 776.68 85.15 780.13 85.15 783.46 87.22 778.65 95.72 780.19 100.79 783.25 100.67 785.23 99.06 793.6 97.54 793.6 100.97 805.25 107.53 807.15 105.8 809.17 102.4 809.25 102.41 810.43 102.5 808.83 100.65 814.01 100.91 815.98 97.09 821.31 95.6 822.33 92.64 831.08 87.2 830.9 83.42 827.91 83.42"/>
</svg>