<svg id="regiao_08" data-name="regiao 08" xmlns="http://www.w3.org/2000/svg" viewBox="0 0 953.4 671.1">
    <style>
        .bairro {
            fill: #d193f5; /* Cor base da Região 08 (roxo claro) */
            stroke: #FFFFFF;
            stroke-width: 0.5;
            transition: fill 0.2s ease-in-out;
        }
        .bairro:hover {
            fill: #FFD700 !important; /* Amarelo dourado para hover */
            cursor: pointer;
        }
        .bairro.selecionado {
            fill: #E44D26 !important; /* Laranja para o item clicado/selecionado */
        }
    </style>

    <g id="conceicao_de_macabu" class="bairro">
        <path d="M486.4,261.7l16,32.6,31.4-7.9,25.6-90.2,7.2-4.8L585,179l-8.8-49.8h0l52.9,28.3L650,168.6,749.3,81l46.4-64.9-22.2,1.2L741.5.1,714.4,20.7,691,47.7l-38.4,1.8L596,72.7,560.1,32.3l-17.9-.6-24-24-9.6-1.2L494.2,0,470.7,22.6,429,14.3l-9.6,16.8-23,8,7.1,51.7-16.1,15.3v31.3h25.3L436.4,154l4.8-2.5,12.2-6.4h0v16.6l5,.4,12,1.1h0l-6.2,12.2-1.4,3h14.9l-24,50.6,6.2,2.1,17.3,5.6h0V254h0l-6,1.2Z"/>
    </g>
    <g id="carapebus" class="bairro">
        <path d="M928.9,204.8l24.5-17.5-24-47.3-25.1-16.6L749.5,82.2l-98.9,87.3,83.5,102.3v23l24,32.3,195.3-80.4v-7.5L938,230.7Z"/>
    </g>
    <g id="macae" class="bairro">
        <path d="M732.9,295.4V272.5L649.4,170.1l-72.1-38.4,8.8,48.1h0l-25.8,17.4-6.6,23.2-19.2,67.3-24.8,6.2-8.2,2.1-16.2-33.1-5.8-2.5-12.4-5.3h0l6.7-1.3,2.2-.4V238l-24-7.8h0L475.7,180H460.9l7.5-15.3-4.8-.4-11.4-1h0V147.6L436.3,156l-24-16.8H386.5V106.7l-14.4-9.6-59.7,43.7-83,15.1-6.2,27.3v22.2L187,213.3H160.2l-18.6,8-35.1,36-16.1,4.5L50,295.9l-9,16.5-16.1,8.4L16,337.7,0,352.6l66.6,33.2,7.6,32.8-7.4,7.6-.6,9.6,8.2,7.9L59,466.2l24.7,9.6-1.2,24.3h24l15-9,32.8,8.8,8.3-25.2,17.9.8,8.9-8.1,26.9-.4-8.9,41.2h18.8l20.7-7.7,16.3,7.3-.8-14.4H262l.5-.5v-.4L314,443.2l32.8,15.7,47.3-15.6,24,6.2,4.1-11,5.9-16.5,2.2,28.5,38.4,9L509,481.4l5.8.5,11.1.8,9-16.7,41.2,9.6,8.1,7.5,64.4-39.3,1.4-16.7-9.1-8.7,9.2-15.5,106.1-75.2-24-32.3Z"/>
    </g>
    <g id="rio_das_ostras" class="bairro">
        <polygon points="509.2 482.4 508.8 482.4 467.6 460.4 429.5 451.5 429.5 451.4 429.4 451.3 427.3 428.9 423.6 438.7 419.3 450.9 394.3 444.5 346.8 460.2 314.3 444.6 264.8 492 266.6 493.4 285.3 497.9 299.9 500.1 331.4 491.5 314.5 508.9 322.2 526 306.5 533.7 314.3 551.8 363.6 598.9 362.7 632.1 380.4 671.1 397 639.3 420.8 632 437.1 640.6 487.5 574.4 511.4 574.4 529.4 554.5 543.7 525.2 565.9 503.2 584 484.1 574.4 476.4 536.3 467.4 527.3 484 515.3 483 509.4 482.6 509.2 482.4"/>
    </g>
</svg>