<svg id="regiao_01" xmlns="http://www.w3.org/2000/svg" viewBox="0 0 1071.39 709.6">
  <style>
    .bairro {
      fill: #f18637; /* Cor base da Região 01 */
      stroke: #FFF;
      stroke-width: 0.5;
      transition: fill 0.2s ease-in-out;
    }
    .bairro:hover {
      fill: #FFD700 !important; /* Destaque amarelo-ouro */
    }
    .bairro.selecionado {
      fill: #E44D26 !important; /* Laranja/vermelho para o bairro selecionado */
    }
  </style>

  <polygon id="japeri" class="bairro" points="341.18 535.68 346.27 527.83 351.48 525.67 351.48 525.67 351.48 525.67 352.98 527.54 361.87 525.59 361.87 524.42 361.76 524.4 361.87 524.28 361.87 524.28 361.87 524.28 361.87 524.17 361.95 524.19 368.16 517.5 363.65 517.5 363.65 517.5 363.65 517.5 361.52 512.13 358.52 510.63 358.52 510.63 358.52 510.63 358.25 503.93 345.28 514.1 345.03 514.3 345.03 514.3 344.84 514.45 344.83 514.25 336.18 505.76 332.94 509 331.35 515.7 334.44 517.48 337.93 515.48 340.03 517.58 339.39 521.03 336.69 524.48 339.93 534.81 341.07 535.63 341.18 535.68"/>
  <polygon id="duque_de_caxias" class="bairro" points="414.88 525.9 414.89 525.9 414.94 525.95 415.07 526.08 415.06 526.08 416.41 527.42 418.26 529.28 423.62 527.48 425.06 529.82 427.18 533.25 425.48 538.4 423.32 544.95 423.36 553.46 423.38 556.48 430.49 556.48 435.39 558.4 439.35 550.52 443.78 544.84 447.63 542.79 450.75 539.47 454.15 539.41 455.69 536.51 452.47 532.54 455.62 531.14 452.54 522.53 454.5 517.54 461.09 508.92 452.61 492.15 444.05 495.22 441.92 491.44 447.29 481.32 449.63 481.32 452.25 482.88 453.9 479.94 432.04 467.77 423.61 480 413.53 481.57 411.39 479.64 409.94 483.25 402.99 484.97 402.94 486.44 406.6 489.63 408.22 493.17 408.22 493.17 408.22 493.17 408.18 493.24 407.84 493.74 400.11 504.66 409.97 508.75 404.37 517.22 406.82 519.04 409.7 521.18 409.71 521.18 410.98 522.12 414.88 525.9"/>
  <path id="mesquita" class="bairro" d="M405.86,549.81l-6.51-3.48h0L400.8,545l.13-.12-2.72-1.1-2.28,2.65h0l-3.28,1.08-.91.6-1.81,1.2-3.43,3.1h0l-.32,0-.54,0-3.53,1.68-1,.23-.14,0-4,.94,2.63,2.45h0l-.07.56-.18,1.47.47.77,1,1.59h-.07l.29,3,4.94,1.51,10.56-8.12,4.65-3.57Z"/>
  <polygon id="nilopolis" class="bairro" points="398.91 557 386.07 566.86 389.15 570.3 397.84 566.93 400.92 561.52 406.07 560.08 405.4 559.43 401.15 555.28 398.91 557"/>
  <path id="sao_joao_de_meriti" class="bairro" d="M408,548l-6.62,7.14,3.62,3.53,1.4,1.36,16.78-3.5-.05-9.36v-2l-4.56.86Z"/>
  <path id="belford_roxo" class="bairro" d="M414.86,526.23l-.32.24-1.64,1.23h0l-3-1.5-3.42,1.3-10.24,3.87-.47,3.55-1.27,1.23,3.75,7.28,2.95,1.26h0l.19.08h0l-1.6,1.5,3.62,1.94,2.64,1.41,1.78-1.88h.05l5.44-1,9.79-1.86,3.8-11.55-3.39-5.5-5.32,1.78h0Z"/>
  <path id="nova_iguaçu" class="bairro" d="M412.59,524.09l-.46-.44-2.69-2.32-1.39-1-4.13-3.06h0l5.57-8.41-9.88-4.1.35-.49,7.87-11.14-.51-1.1-1-2.25-2.08-1.82-1.62-1.41,0-.62,0-.94h-3l-7.21-3.41-6.48,5-2-1.74-4.63,3.41-5.37,5.18-8.6.09-1.94,1.76-1.61-1.7-1.63,3.3-5.13.09-1.62,3.41-8.53,5,.18,8.56,8.45-6.63,4.76-3.73.08-.07.11-.08.14,3.42.15,3.62.89.45,2.06,1,2.1,5.3h4.92l-6.49,7.35c1.78.47,3.75,1.17,5.54,1.6s3.9.16,5.84.15l.19.84s-1,.23-1.29.34-1.34.82-1.83,1.08-5.13,3.27-5.36,3.49c0,0,1.29,2.5,1.29,2.5a12.32,12.32,0,0,1-.63,2.24c-.06.13-.83,2.51-.9,2.67.25.09,3.24.81,3.24.81v.11l-1.05,2.84-2,.58-3.27,1-15.58-1.51-3.49,6.45v1.93l-3-.1,3,11.9-7,5.53-4.69,1.47-1.4,3.18,8.27-1.64,4.76,1.68,8.54-.09,1.38-6.76,3.8-1.8,23.63-3.08-1.28-2.11h0l.24-2-2.89-2.68h0l5.62-1.3,1.42-.68,2.13-1h0l.32,0,.52,0,2.17-2,1.2-1.1,2.77-1.83,1.41-.46,1.83-.6,2.25-2.7-3.82-7.41h0l1.34-1.3.48-3.54v-.07l11.95-4.52,1.95-.74,3,1.48.49-.37,1.31-1Z"/>
  <path id="queimados" class="bairro" d="M373.5,526.94c0-.15-.06-.28-.09-.42a24.55,24.55,0,0,1-5.62-.09c-1-.21-1.92-.57-2.89-.8s-1.85-.48-2.78-.73v.89h0l-1.56.34-7.68,1.68-1-1.2-.52-.65-5,2.06h0l-5.12,8-.05,0,0,0-.3-.21-1.07-.58-1.77,7.94,1.82,8.13h2.83v-1.65l1.48-2.73,2.12-3.91,9.23.89,6.46.63,5.07-1.49.33-.89.65-1.78c-.54,0-3.12-.84-3.12-.84s.27-.89.37-1.14,1-3.19,1-3.44c0,0,0-.31.06-.39l-1.25-2.54c.36-.28,5.67-3.82,6.14-4.09a7.75,7.75,0,0,1,1.29-.64l.43-.1a2.06,2.06,0,0,1,.47-.13h0C373.51,527,373.51,527,373.5,526.94Z"/>
</svg>