<?xml version="1.0" encoding="utf-8"?>
<!-- Generator: Adobe Illustrator 26.2.1, SVG Export Plug-In . SVG Version: 6.00 Build 0)  -->
<svg version="1.1" id="regiao_01" xmlns="http://www.w3.org/2000/svg" xmlns:xlink="http://www.w3.org/1999/xlink" x="0px" y="0px"
	 viewBox="0 0 1071.4 709.6" style="enable-background:new 0 0 1071.4 709.6;" xml:space="preserve">
<style type="text/css">
	.st0{fill:#F18637;stroke:#FFFFFF;stroke-width:0.5;}
</style>
<polygon id="japeri" class="st0" points="147.7,454.9 181.8,402.3 216.7,387.8 216.7,387.8 216.7,387.8 226.7,400.3 286.3,387.3 
	286.3,379.4 285.5,379.3 286.3,378.5 286.3,378.5 286.3,378.5 286.3,377.8 286.8,377.9 328.4,333.1 298.2,333.1 298.2,333.1 
	298.2,333.1 283.9,297.1 263.8,287.1 263.8,287.1 263.8,287.1 262,242.2 175.2,310.3 173.5,311.7 173.5,311.7 172.2,312.7 
	172.1,311.3 114.2,254.5 92.5,276.2 81.8,321 102.5,333 125.9,319.6 140,333.6 135.7,356.7 117.6,379.9 139.3,449 147,454.5 "/>
<polygon id="duque_de_caxias" class="st0" points="641.3,389.4 641.4,389.4 641.7,389.7 642.6,390.6 642.5,390.6 651.6,399.5 
	664,412 699.9,399.9 709.5,415.6 723.7,438.6 712.3,473.1 697.9,517 698.1,574 698.3,594.2 745.9,594.2 778.7,607.1 805.2,554.3 
	834.9,516.2 860.7,502.5 881.6,480.3 904.4,479.9 914.7,460.4 893.1,433.8 914.2,424.5 893.6,366.8 906.7,333.4 950.9,275.6 
	894.1,163.3 836.7,183.9 822.5,158.5 858.4,90.8 874.1,90.8 891.6,101.2 902.7,81.5 756.3,0 699.8,81.9 632.3,92.4 618,79.5 
	608.3,103.7 561.7,115.2 561.4,125.1 585.9,146.4 596.7,170.1 596.7,170.1 596.7,170.1 596.5,170.6 594.2,174 542.4,247.1 
	608.5,274.5 570.9,331.2 587.4,343.4 606.6,357.7 606.7,357.7 615.2,364 "/>
<path id="mesquita" class="st0" d="M580.9,549.5l-43.6-23.3l0,0l9.7-8.9l0.9-0.8l-18.2-7.4l-15.3,17.8l0,0l-22,7.2l-6.1,4l-12.1,8
	l-23,20.8l0,0h-2.1h-3.6l-23.6,11.3l-6.7,1.5h-0.9l-26.8,6.3l17.6,16.4l0,0l-0.5,3.8l-1.2,9.8l3.1,5.2l6.7,10.7h-0.5l1.9,20.1
	l33.1,10.1l70.7-54.4l31.1-23.9L580.9,549.5z"/>
<polygon id="nilopolis" class="st0" points="534.4,597.7 448.4,663.7 469,686.8 527.2,664.2 547.8,627.9 582.3,618.3 577.8,614 
	549.4,586.2 "/>
<path id="sao_joao_de_meriti" class="st0" d="M595.3,537.4l-44.3,47.8l24.2,23.6l9.4,9.1l112.4-23.4l-0.3-62.7v-13.4l-30.5,5.8
	L595.3,537.4z"/>
<path id="belford_roxo" class="st0" d="M641.2,391.6l-2.1,1.6l-11,8.2l0,0l-20.1-10l-22.9,8.7L516.5,426l-3.1,23.8l-8.5,8.2
	l25.1,48.8l19.8,8.4l0,0l1.3,0.5l0,0l-10.7,10l24.2,13l17.7,9.4l11.9-12.6h0.3l36.4-6.7l65.6-12.5l25.5-77.4l-22.7-36.8l-35.6,11.9
	l0,0L641.2,391.6z"/>
<path id="nova_iguaçu" class="st0" d="M626,377.2l-3.1-2.9l-18-15.5l-9.3-6.7l-27.7-20.5l0,0l37.3-56.3l-66.2-27.5l2.3-3.3
	l52.7-74.6l-3.4-7.4l-6.7-15.1l-13.9-12.2l-10.9-9.4v-4.2v-6.3h-20.1l-48.3-22.8L447.4,126L434,114.3l-31,22.8l-36,34.7l-57.6,0.6
	l-13,11.8l-10.8-11.4L274.8,195l-34.4,0.6l-10.9,22.8l-57.1,33.5l1.2,57.3l56.6-44.4l31.9-25l0.5-0.5l0.7-0.5l0.9,22.9l1,24.2l6,3
	l13.8,6.7l14.1,35.5h33l-43.5,49.2c11.9,3.1,25.1,7.8,37.1,10.7c12,2.9,26.1,1.1,39.1,1l1.3,5.6c0,0-6.7,1.5-8.6,2.3
	c-1.9,0.7-9,5.5-12.3,7.2s-34.4,21.9-35.9,23.4l8.6,16.7c-0.9,5.1-2.3,10.1-4.2,15c-0.4,0.9-5.6,16.8-6,17.9
	c1.7,0.6,21.7,5.4,21.7,5.4v0.7l-7,19l-13.4,3.9l-21.9,6.7L182.7,506l-23.4,43.2v12.9l-20.1-0.7l20.1,79.7l-46.9,37L81,688
	l-9.4,21.3l55.4-11l31.9,11.3l57.2-0.6l9.2-45.3l25.5-12.1L409.1,631l-8.6-14.1l0,0l1.6-13.4l-19.4-18l0,0l37.6-8.7l9.5-4.6
	l14.3-6.7l0,0h2.1h3.5l14.5-13.4l8-7.4l18.6-12.3l9.4-3.1l12.3-4l15.1-18.1l-25.6-49.6l0,0l9-8.7l3.2-23.7v-0.5l80-30.3l13.1-5
	l20.1,9.9l3.3-2.5l8.8-6.7L626,377.2z"/>
<path id="queimados" class="st0" d="M364.2,396.3c0-1-0.4-1.9-0.6-2.8c-12.5,1.2-25.2,1-37.6-0.6c-6.7-1.4-12.9-3.8-19.4-5.4
	s-12.4-3.2-18.6-4.9v6l0,0l-10.4,2.3l-51.4,11.3l-6.7-8l-3.5-4.4l-33.5,13.8l0,0l-34.3,53.6h-0.3l0,0l-2-1.4l-7.2-3.9L126.7,505
	l12.2,54.5h19v-11.1l9.9-18.3L182,504l61.8,6l43.3,4.2l34-10l2.2-6l4.4-11.9c-3.6,0-20.9-5.6-20.9-5.6s1.8-6,2.5-7.6
	c0.7-1.7,6.7-21.4,6.7-23c0,0,0-2.1,0.4-2.6l-8.4-17c2.4-1.9,38-25.6,41.1-27.4c2.7-1.7,5.6-3.1,8.6-4.3l2.9-0.7
	c1-0.4,2.1-0.7,3.1-0.9l0,0C364.2,396.7,364.2,396.7,364.2,396.3z"/>
</svg>
