<svg id="regiao_03" xmlns="http://www.w3.org/2000/svg" viewBox="0 0 1071.39 709.6">
  <style>
    .bairro {
      fill: #a13a8e; /* Cor base da Região 03 */
      stroke: #FFF;
      stroke-width: 0.5;
      transition: fill 0.2s ease-in-out;
    }
    .bairro:hover {
      fill: #FFD700 !important; /* Destaque amarelo-ouro */
    }
    .bairro.selecionado {
      fill: #E44D26 !important; /* Laranja/vermelho para o bairro selecionado */
    }
  </style>

  <polygon id="marica" class="bairro" points="596.56 572.12 594.7 570.63 591.23 570.51 586.3 567.18 581.21 570.28 578.46 568.77 569.2 570.38 555.91 575.47 545.36 575.47 526.59 582.14 526.59 585.83 507.85 601.35 507.85 602.71 511.21 604.51 516.34 603.03 531.26 604.05 537.67 604.52 554.7 602.53 582.44 599.49 594.96 599.3 598.42 601.49 601.93 595.96 613.05 594.11 613.05 587.97 612 587.5 608.49 585.96 601.88 585.96 601.88 577.04 601.88 577.04 601.88 577.03 601.9 577.01 606.12 572.36 596.56 572.12"/>
  <polygon id="saquarema" class="bairro" points="657.22 563.81 655.1 565.3 655.1 565.3 655.1 565.3 644.32 563.54 641.24 558.5 636.29 560.48 636.29 560.48 636.29 560.48 632.7 556.64 627.16 559.78 614.23 567.1 614.23 569.58 612.15 571.15 610.39 572.48 610.38 572.36 606.72 572.36 602.13 577.14 602.13 585.71 608.54 585.71 612.21 587.32 613.3 587.8 613.3 587.8 613.3 587.8 613.3 594.09 687.02 594.21 684.09 587.9 681.38 582.06 685.32 567.13 665.23 564.24 657.22 563.81"/>
  <polygon id="rio_bonito" class="bairro" points="665.12 563.98 666.62 544.14 667.1 537.68 661.13 534.64 650.34 536.38 642.65 533.85 642.65 510.64 640.17 509.83 632.49 507.33 626.21 510.41 617.34 517.28 608.62 512.17 598.59 514.13 598.59 517.43 597.17 518.85 582.91 525.98 592.68 536.12 596.96 536.25 598.33 546.22 602.17 548.23 598.53 555.14 607.03 556.39 603.68 560.25 603.8 563.12 607.12 565.41 603.02 568.55 610.5 569.15 610.62 571.99 613.88 569.53 613.98 569.45 613.98 566.96 632.75 556.32 632.75 556.32 632.75 556.32 636.36 560.18 638.5 559.32 641.34 558.18 644.47 563.32 655.04 565.04 657.14 563.55 657.14 563.55 657.14 563.55 665.12 563.98"/>
  <polygon id="silva_jardim" class="bairro" points="667.3 537.5 672.55 539.48 677.79 537.15 678.16 534.36 678.17 534.23 686.06 536.23 689.64 532.77 689.64 532.77 689.89 532.53 695.81 531.05 701.2 516.8 703.12 511.72 706.41 508.44 710.5 508.44 712.24 506.5 714.86 503.58 718.35 504.59 719.61 504.96 723.28 503.54 723.07 503.19 722.18 501.71 722.18 501.71 722.18 501.71 723.78 500.43 724.74 499.67 725.22 498.93 725.78 498.1 728.64 499.71 731.62 495.39 735.52 489.72 734.86 489.23 728.89 484.8 719 486.67 718.1 485.21 716.93 483.3 715.82 483.2 714.73 483.1 714.73 483.1 714.73 483.1 716.22 478.52 716.87 476.5 712.68 470.21 708.58 466.05 706.89 465.95 705.4 465.86 705.4 465.86 705.4 465.86 705.4 455.59 703.83 455.06 701.02 454.13 700.74 454.03 700.82 453.99 698.46 452.3 694.31 455.69 693.4 453.86 691.58 456.05 687.24 452.33 686.23 453.76 681.15 453.76 663.5 457.48 658.25 461.04 649.83 457.49 646.92 457.49 640.21 462.51 636.01 462.51 636.01 466.05 632.6 466.05 632.6 471.23 629.11 472.17 627.5 482.01 622.45 486.07 632.57 507.1 638.56 509.05 642.9 510.46 642.9 533.67 644.5 534.2 650.36 536.12 660.41 534.5 661.17 534.38 662.41 535.01 667.29 537.5 667.3 537.5"/>
  <path id="casimiro_de_abreu" class="bairro" d="M736.46,488.72l1.69-1.75.75-.78h0l3.9.24,3.25,1.56.14.07,0,1.53,2.5-1.54-.37-.58-.86-1.35,1.68-1.55,2.17,2.16.2,1.22.34,2h2.92l-.13.2-1.8,2.92,8.9-1.7v0l.1,0-.18,3.34,2.91-1.45h0l.64,1.66,2.08-1.37.86-.56h0l1.23,1.24.38.38V491.3l5.62,2,3.31-2.09h0l-.09,2.28,3.33-.28.13,1.17.21,2,1.82-3.64h0l.51,1.95.92,3.47,3.39-3.31h0v.3h0l.26,5.93.36-.65c.31-.59.72-1.38,1.17-2.26.9-1.75,1.94-3.83,2.63-5.22.38-.77.66-1.32.74-1.48l-3.81-8.35.19-6.87-10.22-9.75-1.73-4,3.25-1.59-1.56-3.5,3-3.1-6,1.53-7-1.65-.2,3.39-3.55-1.64-4.25,1.58H758l1.86-8.57-5.19.09-1.87,1.68-3.65-.15-1.74,5.3-7-1.88-3,1.81-5.39,0,.25-5.13-5.27-2,3.25-4.76-1.64-1.58.13-2.22,1.48-1.54-4.92-3.32v1.83l-8.46,1.41-8.61,7,3.28,3.38L701.38,454l4.27,1.43h0v10.21l1.36.08,1.68.1.08.08,3.87,3.81,4.51,6.77h0l-2.08,6.42,2,.18,2,3.33,4.8-.9,5-.95,6.58,4.89.14.1Z"/>
  <polygon id="iguaba_grande" class="bairro" points="716.65 556.33 718.9 558.3 720.22 559.45 722.33 566.88 718.83 570.2 720.76 572.32 722.2 573.89 722.2 573.89 722.28 573.98 722.25 574 723.79 577.11 727.18 575.55 733.89 579.02 733.89 563.92 730.23 565.63 729.71 560.46 725.2 558.29 718.52 555.08 718.39 555.01 716.78 556.23 716.65 556.33"/>
  <polygon id="sao_pedro_da_aldeia" class="bairro" points="758.33 583.56 757.72 572.23 757.72 572.23 757.72 572.23 762.19 572.6 776.74 573.79 779.36 558.92 779.97 555.5 777.85 548.87 776.36 544.19 762.04 528.76 759.16 525.17 758.97 524.93 751.23 515.27 738.96 527.82 732.28 539.64 727.6 547.94 727.55 547.97 718.81 554.94 729.94 560.29 730.44 565.26 734.14 563.53 734.14 563.53 734.14 563.53 734.14 579.06 741.08 577.23 746.47 582.71 752.99 585.71 756.47 585.6 758.33 583.56"/>
  <polygon id="araruama" class="bairro" points="721.92 573.96 718.48 570.19 722.05 566.8 720.7 562.03 720 559.59 717.72 557.6 716.25 556.32 718.3 554.76 718.36 554.72 718.36 554.72 727.4 547.77 732.42 538.89 738.75 527.67 751.09 515.06 737.28 488.23 735.79 489.78 728.72 500.04 725.86 498.43 724.92 499.84 722.51 501.77 723.65 503.66 723.65 503.66 723.65 503.66 719.62 505.22 714.94 503.87 710.61 508.69 706.51 508.69 703.34 511.86 696 531.26 696 531.26 696 531.26 695.95 531.27 689.77 533 686.14 536.51 678.39 534.54 678.32 535.01 678.02 537.32 678.02 537.32 678.02 537.33 677.96 537.35 672.83 539.85 672.55 539.75 672.32 539.85 667.34 537.79 666.39 550.47 665.37 563.99 669.85 564.23 685.5 566.91 685.64 566.93 685.63 566.93 685.64 566.93 681.64 582.04 683.91 586.92 687.3 594.21 708.46 594.21 708.09 590.61 711.52 588.66 710.13 584.03 721.92 573.96"/>
  <g id="arraial_do_cabo" class="bairro" data-id="arraial_do_cabo">
    <polygon data-id="arraial_do_cabo" class="bairro" points="787.09 608.54 785.88 611.31 791.03 611.31 794.01 608.02 792.43 604.83 787.09 608.54"/>
    <path data-id="arraial_do_cabo" class="bairro" d="M708.71,594.22l53.8,4.62,7.53.84,8.76,3.38.63,2.11,2.84,1.36,1.65,3.18,1.53-3-3-.19-.17-3.65,1.48.1.17-1.77,3.45,1.82,1.73-3.44-3.25.14,1.34-1.62-4.85,3.11-1.89-1.59,1.59-3.18-3.35-.16,0-3.22-13,.36-2.67,2.9-17.87-1.9-.24-3.72-1.5,1.13-.07,2.07-6.82-1.24-2.5-1v-.08a6,6,0,0,1,0-.71,3.05,3.05,0,0,1,.72-2.26h0a1.45,1.45,0,0,0-.18-.75l-.16-.08a1,1,0,0,0-.55.33L732.36,591l-4.26.19-2-.29h0a10,10,0,0,1-.92-.7c-.46-.41-.94-.88-1-1.36l0-.19h0v-2.08l.78-1.23-.08-.08a.68.68,0,0,0-.42-.14,1.4,1.4,0,0,0-.78.3l-.11.19a6.74,6.74,0,0,0-.33.6,11.64,11.64,0,0,0-.8,2.1h0l-.78,1.86,0,0a3.88,3.88,0,0,1-1.49.31,2.84,2.84,0,0,1-1.5-.41l-1.79-.86-5.25-.38-3.34,1.9Z"/>
    <polygon data-id="arraial_do_cabo" class="bairro" points="790.42 601.51 789.14 601.4 789.14 602.74 790.42 601.51"/>
  </g>
  <g id="armacao_dos_buzios" class="bairro" data-id="armacao_dos_buzios">
    <polygon data-id="armacao_dos_buzios" class="bairro" points="805.96 560.09 806.18 556.46 811.16 551.58 816.25 553.06 817.98 549.84 819.4 552.05 817.81 548.05 821.43 549.48 821.78 547.61 824.43 544.73 821.2 543.11 822.93 541.23 819.74 539.88 818.02 544.68 811.23 544.93 811.23 548.29 807.34 548.29 802.22 544.52 798.86 538.11 794.34 538.11 792.59 540.76 785.83 551.03 786.67 552.84 787.65 554.94 790.85 557.64 795.76 561.76 802.63 558.47 805.96 560.09"/>
  </g>
  <g id="cabo_frio" class="bairro" data-id="cabo_frio">
    <path data-id="cabo_frio" class="bairro" d="M787.14,505.19l1.84-3.67,0-.06a1.09,1.09,0,0,1,0-.22c0-.18,0-.43-.07-.73,0-.6-.06-1.39-.08-2.18,0-1.18,0-2.35,0-2.88l-3.3,3.21h0l-1.36-5.2-1.91,3.81h0l-.38-3.52-3.27,0h-.12v-.19l.08-1.9-3,1.91h0l-5.4-2v3.52h0l-1.89-1.91-3,2h0l-.66-1.69-3,1.53v-.2l.09-3.24-9.28,1.8,2.1-3.29h-2.67l-.37-2.18-.2-1.14-1.93-1.94-.65.6-.71.65,1.26,2-2.1,1.29-1,.61h0l0-1.82-3.07-1.47-.14-.07-3.74-.23-.43.45L737.46,488l13.18,25.6.7,1.37,7.82,9.76,3.13,3.9,14.29,15.39,3.65,11.42-3.29,18.57h0l-19-1.55.09,1.6.52,9.55h0v.19l-2,2,0,0h0l-.11.12h-3.09l10.15,6.78,15.21.09,1.58-10.45,3.25-3.49,3.31,1.58,5.47-5-1.62-5.23,4.86-8.29-8.13-6.84-.59-1.26L785.54,551l8.58-13-3.74-5Z"/>
    <polygon data-id="cabo_frio" class="bairro" points="800.37 576.39 801.01 577 801.68 575.66 804.3 575.6 804.3 573.95 802.79 573.95 801.8 575.55 801.75 575.56 800.84 575.71 800.37 576.39"/>
    <polygon data-id="cabo_frio" class="bairro" points="792.17 583.76 792.17 580.89 790.42 580.89 792.17 583.76"/>
  </g>
</svg>