<svg id="mapa-rio" xmlns="http://www.w3.org/2000/svg" viewBox="0 0 1071.39 709.6">
  <style>
    .regiao {
      cursor: pointer;
      transition: opacity 0.3s ease;
    }
    .regiao:hover {
      opacity: 0.7;
    }
    .bairro {
      stroke: #FFF;
      stroke-width: 0.5;
      transition: fill 0.3s ease;
    }
    .bairro:hover {
      fill: #FFD700 !important; /* Amarelo para destacar */
      cursor: pointer;
    }
    .bairro.selecionado {
       fill: #E44D26 !important; /* Laranja para o bairro selecionado */
    }

    /* Cores de cada região */
    #regiao_12 { fill: #82bb26; }
    #regiao_11 { fill: #a88aac; }
    #regiao_10 { fill: #f2929e; }
    #regiao_09 { fill: #c4d179; }
    #regiao_08 { fill: #93d5f5; }
    #regiao_07 { fill: #d1af6c; }
    #regiao_06 { fill: #bc1f2b; }
    #regiao_05 { fill: #5ca67b; }
    #regiao_04 { fill: #29addd; }
    #regiao_03 { fill: #a13a8e; }
    #regiao_02 { fill: #fecc2c; }
    #regiao_01 { fill: #f18637; }
    #regiao_capital { fill: #7d806a; }
  </style>

  <g id="regiao_12" class="regiao">
    <path class="bairro" d="M1019.58,365.18l-2.69-1.41c0,.26-.07.51-.1.77v2.12l-.26-.05v0l-.13,0-8.54-1.4-.09.08c-.28.64-.72,1.37-1.44,1.51h-.2a2,2,0,0,1-1.22-.6,5.57,5.57,0,0,0-1.56-1,2.7,2.7,0,0,0-1.19-.16l-2.18,0c-1.38,0-3.05.06-4.43.06h-.48c-.81,0-2,0-3.5-.12h-.2l0-.08-5-8.4L952.09,338l-14.36-7.73-1.18,2.07-.74,1.43-3.19.36-.12,5.6-1.75-1.29-1.35-.79-2.28,1.56L924.61,341l-.13,0-.12.08-1.7.54-3.45,1.17-7.5,9.73h0l-.1.13-10.69-.78-9.71-.59-10.24,3.58q-4.83,6.78-9.68,13.55L903.49,377h0l5.25,3.51,0,0,5,10,.05.09-.09.07-5,3.59,1.74,5.13,3.15,1.74.07,0v1.61l15.37-6.34h0l6-1.93,30.79-8.44,26.56-7.35,21.33-8.28,11.39-7.31-4.79.22-.36,1.1-.17.57h0l-.09.26Z"/>
    <path class="bairro" d="M983.3,141l.5,1.1a6.3,6.3,0,0,1,4.21,6,5.82,5.82,0,0,1-.08,1v.05l-2.37,1.59-3.11,3.5.08,4,2.61,3.91L985,182.93l-1.49,3.55-.47,2.88L981.69,193l-.1,5a3.88,3.88,0,0,0,.72,1.11c.42.54,1,1.2,1.63,1.91,1.27,1.4,2.77,3,3.77,4l1.11,1.12,0,0,.76,3.67.19,15.36a5.65,5.65,0,0,1,2.54,1.27,36.93,36.93,0,0,1,3.27,2.76c2,1.89,3.8,3.76,4,4h8.6l.59,2-.09,9.26,1.22,1H1013l3.58,2,4.12,4.86,1.91,1.82-.56,1.5.27.36,6.71-6.71h0l.36-.18c.22-.12.55-.31.94-.56a18.11,18.11,0,0,0,2.89-2.28,12.83,12.83,0,0,0,4.18-9.28v-.06l10.4-7.92-7.17-16.08-.25-10.62,13.68-15.79,7.29-13.65h5l5.09-8.58-1.73-8.42,1.73-8.63-5.37-3.52-.24-1.35-4.77,1.43-1.94-10.24-4.78-1.57-5.44,3.11-10.15-9.15-6.42-.92-3.67,3.55-5.13-1.67-1.84,3.21-3.38.05-.25,1.88-5.21-.14-1.18-1.79-3.77,3.76.29-2h-3.69l0,0-.31-.31-4.63-4.69-1.93,1.92V126.7l-4.85-1.8-3.61,5.29L986,128.42l-.37,2.16.94,6.65Z"/>
    <path class="bairro" d="M1057.24,306.11h0l-1.19-.13h-.25a16.93,16.93,0,0,1-3.2-.37h0l-.77-.08h0l-.7-.26h0a25.83,25.83,0,0,1-4.56-1.73h0l-.1,0H1033.2l-9.94-6.18-1.14-3.62,2.24-8v-.13h0v-.06l.12-26L1022,256.2l.08-.08.08-.08-.37-.5.55-1.47-1.81-1.72-4.09-4.83-3.48-1.93h-3.08l-1.39-1.08.09-9.35-.52-1.76h-8.53l0,0-.7-.74c-.44-.46-1.06-1.09-1.78-1.79a46.63,46.63,0,0,0-4.78-4.21,5.28,5.28,0,0,0-2.44-1.23h-.07l-.13,0-.19-15.59-.74-3.58a101.76,101.76,0,0,1-6.88-7.51,2.49,2.49,0,0,1-.39-.72v0l.1-5.06,1.4-3.63.47-2.89,1.48-3.53.09-20.6-2.6-3.91-.09-4.19,3.2-3.58,2.3-1.56a1.43,1.43,0,0,0,0-.21,6.13,6.13,0,0,0-4.07-6.49l0,0L983,141l3.27-3.84-.92-6.52-.87-1.13h-1.62l-2.64-2.74-.53-.52H976.9l-1.2-1.38-1.12-.76-.45-1.08h-3.77l0-.07s-.12-.3-.3-.67a6.7,6.7,0,0,0-.68-1.11c-.15-.19-.31-.29-.39-.28h-6.08l-2-.93h-1.31l-2.27-1.75h0l-.9-.67H953l-.23,1.15-3.12.29h0l-4.19.28-.29.92-3.6.2-1.49.74-2.28-.09-1.49-.28L933,120.3l-.65,6.44-6.8,5.53-1.26,4.39-5.51.5L914,141.48l-13.82,9.39,10.21,31.86,27-9.77.18-.07,10.64,11.89h0l0,2.22.09,4.71,3.81,2.46,5.37,7.11,1.88,7.27.49,1.89-1.36,1.46-7.1,7.62-1.49,10-5.25,1.88-15,16.93L928,250.06l-10.31-11.48-3.88-4.32-1.59.61-3.09,1.2-.27,1.78-.24,1.58-3.39.51L899.8,247l-15.75,1.48-1,2.11-1.37,3h0l-.12.06L871,259.11l-1.72,4.81.19,4.11h0l-1.91,3.05h0l-3.73,1.27-5.59,1.9-1.18,1.52-1.37,1.77V281l-7.05-.86-5.25-.63,0,.49-.15,2.46-5,.36-.28,0-5.76,9.65-14.11,9.1v3.05l1.24,1.24L831,308.28l12.16-3.47,2.25,3.47h22.12l-3.07,5.37-.25,9.92a8.86,8.86,0,0,1,1.14,3.51,1.49,1.49,0,0,1-1,1.57l-.12,5.45-11.67,9.53-.88-.64-3,1.27,3.28,3.53-1.5,3.37,5.15,10.06h3.1l4.81-5.55,5.78-4.4,6.75,3.62,3.56-.13,1.47-.3,10.07-3.54,9.75.71,10.66.65,7.46-9.66,0,0,.08-.11,3.43-1.08,1.8-.61L927,339l2.54-1.78,1.37,1,1.36.79v-5.11h.12v-.11l3.27-.37.68-1.2,1.21-2.34.09.05,0-.05,14.55,7.9,34.13,18.37,0,0,.12.21.48.26,4.49,7.74h0l.1.41h11.73l2.81,1.65,1.46-1.33a.61.61,0,0,1,.05-.12l0-.09h.12l.22-.2,8.32,1.56c.08-.6.15-1.19.23-1.79V363l3.11,1.61.09-.27.46-1.54h5.36l7.42-5.38,16.58-9.12,13.18-7.43,5-11.85-1.49-13.74-1.65-9.37-.14,0v0h-.21l-2.52.32Z"/>
    <path class="bairro" d="M1024.61,285.48v.29l-1.87,7.31.74,3.89,9.85,6,12.91.13h0l.35.17,4.56,1.72h0c.52.14,1,.25,1.46.34h0l3.4.35h8.12l-9.9-40.57,1.5-22.7,1.48-9.09a4.8,4.8,0,0,0-2.81-3.7,10.29,10.29,0,0,0-4.27-.81,15.65,15.65,0,0,0-1.58.08l-.59.07-10.37,7.9c-.05,8.37-8.24,12.33-8.48,12.45l-6.71,6.71,2.35,3.13Z"/>
    <path class="bairro" d="M889.11,226.6l-7.49-27.95-1-3.87,11.24-1.64,3,2.33,1.69,1.34,6.9-10.59,5.63-2.83,1.11-.56-10-31.21V154l-10.36,3.42-.13,5.33L883,159.09l-.32,3.69L877.56,159l-6.68,3.68-3.46,3.27-3.49-1.49-3,1.77c-3.88,2.33-4.49,2.72-5.49,3.29a52.9,52.9,0,0,1-6.48,3.08l-.89,2.66,17.9,15-8.86,1.36,4.23,3.34,13.49,10.65Z"/>
    <polygon class="bairro" points="881.49 253.4 881.51 253.38 883.06 250.03 883.88 248.27 883.88 248.27 883.88 248.27 899.66 246.78 905.13 239.7 908.43 239.21 908.66 237.66 908.93 235.88 911.78 234.78 913.52 234.11 910.93 233.13 910.13 232.83 911.87 217.43 889.58 227.35 889.74 227.97 889.38 227.44 889.34 227.46 889.31 227.34 877.15 209.4 874.69 205.77 872.28 203.87 856.81 191.67 835.14 196.58 836.68 198.96 835.17 205.26 822.56 215.92 822.56 222.57 814.11 222.44 804.27 227.85 804.27 267.13 805.81 267.13 804.27 270.35 804.27 274.13 800.59 275.82 798.92 281.1 795.42 284.51 800.55 298.19 804.22 303.17 815.89 304.9 815.52 301.49 817.95 301.39 832.05 292.3 837.84 282.59 837.84 282.59 837.84 282.59 839.86 282.44 843.01 282.22 843.2 279.22 843.2 279.22 843.2 279.21 849.29 279.95 855.48 280.7 855.48 277.45 857.38 275 858.13 274.04 863.05 272.37 867.43 270.88 869.25 267.96 869.07 263.88 870.84 258.94 870.84 258.94 870.95 258.6 881.49 253.4"/>
    <polygon class="bairro" points="912.17 217.03 912.17 217.03 911.83 219.98 910.4 232.66 912.6 233.49 913.88 233.97 913.91 233.96 913.95 234 914.23 234.11 914.1 234.16 917.23 237.66 928.03 249.68 930.01 247.46 944.47 231.15 949.64 229.3 951.13 219.41 957.98 212.05 959.55 210.37 959.08 208.56 957.21 201.4 951.25 193.94 948.02 191.85 947.93 187.16 947.89 184.88 937.43 173.18 937.4 173.19 910.33 183.51 910.19 183.07 903.54 186.42 899.18 193.11 896.53 197.18 896.53 197.18 896.53 197.18 893.65 194.91 891.75 193.4 880.9 194.99 889.51 227.11 912.17 217.03 912.17 217.03"/>
  </g>
<g id="regiao_11" class="regiao">
  <polygon class="bairro" points="582.81 402.89 586.2 397.61 585.3 396.74 582.7 392.48 581.21 382.24 581.21 372.32 573.94 373.57 562.31 383.93 555.61 385.32 551.98 389.23 544.18 390.81 540.08 399.11 533.08 399.11 528.53 404.02 517.92 409.61 513.95 414.66 514.01 414.68 509.63 417.92 511.08 420.19 502.66 423.2 500.89 426.63 505.95 428.4 507.87 432.1 505 432.1 509.5 435.46 504.35 438.72 506.06 442.15 504.63 445.32 505.9 445.32 504.26 452.13 507.6 458.94 507.63 462.17 509.25 465.59 514.22 464.12 521.09 467.37 531.13 460.77 537.83 462.26 543.52 462.26 548.25 460.81 548.25 455.78 553.47 453.92 553.47 452.05 565.33 448.9 563.67 445.58 567.06 443.51 567.06 441.56 575.13 443.36 575.54 443.45 587.85 435.07 587.85 429.92 591.06 428.1 587.81 424.85 593.04 418 591.51 415 591.51 410.95 590.17 404.58 582.81 402.89"/>
  <polygon class="bairro" points="601.67 324.07 596.8 327.11 598.59 329.02 598.59 330.6 630.89 342.67 634.33 337.45 641.07 337.45 644.8 335.25 646.2 332.73 642.68 332.73 644.65 330.57 642.77 328.88 649.71 323.44 647.73 318.25 649.69 315.76 647.67 313.39 659.22 307.19 669.84 303.46 663.2 298.05 666.03 295.1 666.33 294.8 664.96 292.81 666.56 291.09 658.23 282.51 661.97 279.53 659.75 279.53 627.53 294.67 629.33 296.76 620.56 298.28 603.72 303.56 605.3 315.31 601.67 324.07"/>
  <polygon class="bairro" points="594.89 335.79 596.63 339.4 593.13 342.78 593.13 344.76 591.57 346.21 593.15 347.91 590.97 353.17 583.17 351.47 588.12 361.67 581.1 370.19 581.48 372.28 581.46 372.28 581.46 382.22 582.94 392.4 585.5 396.58 586.52 397.57 583.21 402.72 590.38 404.38 591.72 410.74 603.18 404.22 603.18 399.19 606.84 397.51 606.84 395.92 609.82 395.92 610.16 395.92 611.98 388.9 618.93 392.6 625.79 387.23 632.32 387.23 635.73 385.61 634.32 382.36 630.59 382.36 628.82 377.33 620.37 377.33 618.8 375.07 622.12 368.26 626.5 366.86 622.03 365.02 620.64 363.2 623.67 359.93 630.68 356.39 627.13 351 632.36 351.22 632.59 346.39 628.44 346.39 630.75 342.88 598.51 330.83 594.89 335.79"/>
  <polygon class="bairro" points="528.38 403.82 532.97 398.86 539.92 398.86 544.01 390.59 551.85 389 555.48 385.1 562.19 383.7 573.83 373.34 581.19 372.07 580.86 370.3 579.49 370.53 573.9 371.52 571.43 371.52 563.15 375.85 550.63 383.99 548.43 380.11 550.54 372.03 548.48 366.99 544.86 366.93 540.09 368.56 536.62 364.97 533.01 366.7 526.3 361.78 522.58 361.78 521.14 365.74 526.4 375.32 514.88 379.1 509.35 379.1 501.5 395.35 505.6 394.19 510.91 401.3 507.92 409.32 509.19 412.95 513.7 414.57 517.76 409.41 528.38 403.82"/>
  <polygon class="bairro" points="526.38 361.53 533.04 366.41 536.67 364.67 540.16 368.28 544.82 366.68 548.65 366.75 550.81 372.01 548.7 380.07 550.72 383.63 563.02 375.64 571.37 371.27 573.88 371.27 579.45 370.28 580.9 370.04 587.83 361.64 582.72 351.11 590.82 352.88 592.86 347.96 591.21 346.19 592.88 344.66 592.88 342.67 596.33 339.35 594.6 335.76 598.34 330.64 598.34 329.12 596.41 327.06 601.47 323.9 605.04 315.27 603.48 303.66 567.97 322.11 546.86 327.32 538.3 336.06 523.12 342.77 516.12 348.05 514.5 348.05 513.21 347.11 511.29 349.31 512.29 350.82 511.27 361.53 522.5 361.53 522.5 361.53 526.38 361.53"/>
</g>
<g id="regiao_10" class="regiao">
  <path class="bairro" d="M302.13,483l1.53-2.92,1.77-15.64h1.51l.09-3.07-5-3.57,6.66-8.78-6.89-10.1-1.57-1.81-3.43.12v-1.87l-2.8-.11-6.09,5.46-3.27-.12v3.22h-1.61l-.12-4.77-3.34,1.54,4.79-12-4.57-3.37-6.76,3.44-8.54,5.07-7.06,8.84-1.75-3.89,3-1.76v-3.16H253.8l-1.69-3.5-1.78,1.9-1.77-8.45H238.45l-5.37-3.13V422l-10.26,8.4-4.68,11.76L240.48,449l-18.69,15.62.84.51a4.24,4.24,0,0,1,1.76.61,4.76,4.76,0,0,1,2.2,3.61l5.19,5.19L235.2,471,242,479.7H264.3l13.61,3.44,1.71-3.05v-3.68l3.7.15,5,3.19,3.37-1.69,3.52,3.57-5.14,3.49v3.16h6.78l1.66-3.55Z"/>
  <polygon class="bairro" points="248.76 423.41 250.47 431.59 252.17 429.77 253.96 433.46 258.97 433.46 258.97 437.01 256.02 438.73 257.51 442.04 264.34 433.49 272.93 428.39 279.83 424.88 284.69 428.46 280.05 440.05 283.17 438.61 283.29 443.52 284.41 443.52 284.41 440.29 287.84 440.42 293.93 434.95 297.07 435.08 297.07 436.94 300.36 436.81 302.01 438.73 308.89 448.79 313.58 444.33 313.58 440.11 322.19 443.6 324.29 437.19 329.1 437.13 329.1 431.91 332.86 431.91 330.93 426.75 333.94 425.02 339.61 425.12 344.54 421.67 348.25 421.49 353.04 416.62 351.25 416.62 353.18 414.79 351.46 411.25 351.66 411.25 352.83 411.25 346.25 407.82 349.76 406.34 346.39 404.93 347.87 399.39 343.31 399.39 339.31 394.18 336.13 394.18 334.5 392.62 334.31 387.32 329.11 383.82 332.83 380.68 334.31 366.9 331.12 361.84 329.42 363.76 327.62 358.33 320.81 360.19 313.87 365.44 304.76 359.86 306.72 359.86 305.49 355.07 283.45 365.13 274.56 365.22 272.99 368.69 247.42 377.32 247.36 378.93 240.34 382.46 233.43 378.94 230.22 382.45 221.5 382.33 216.34 389.42 216.2 385.89 212.17 385.82 210.99 389.29 207.64 389.34 207.83 396.17 204.46 396.04 202.7 397.81 199.26 396.06 199.19 401.19 192.17 401.19 189.08 404.4 197.37 406.06 195.68 411.13 200.87 414.66 200.87 421.88 197.79 423.33 200.87 426.75 200.87 428.4 207.77 430.22 209.06 428.38 214.87 428.19 233.08 420.12 233.08 420.24 238.52 423.41 248.76 423.41"/>
  <polygon class="bairro" points="318.81 491.43 319.05 488.32 323.71 486.41 317.45 474.88 307.01 464.65 305.66 464.65 303.9 480.11 302.32 483.15 298.69 484.92 297.12 488.28 298.57 488.28 302.2 493.58 303.21 500.48 315.44 491.43 318.81 491.43"/>
  <polygon class="bairro" points="296.6 505.92 295.35 510.79 285.06 515.99 291.83 520.88 291.78 525.87 299.72 527.52 303.62 527.52 305.35 529.06 308.76 529.06 310.31 525.87 318.92 515.81 318.92 511.84 331.12 515.39 332.71 508.87 340.09 501.73 349.43 492.94 349.9 492.21 344.77 481.79 341.43 493.61 331.21 498.77 324.14 495.33 327.39 490.27 325.85 488.57 321.01 491.68 319.04 491.68 319.06 491.43 318.92 491.43 318.92 491.68 315.52 491.68 303.25 500.76 303.71 503.95 296.6 505.92"/>
  <polygon class="bairro" points="355 462.8 317.74 474.87 324.06 486.53 319.29 488.5 319.06 491.43 320.93 491.43 325.89 488.25 327.7 490.24 324.5 495.23 331.21 498.5 341.22 493.44 344.71 481.09 350.06 491.97 359.91 476.7 358.34 464.61 355 462.8"/>
  <polygon class="bairro" points="389.51 397.81 386 397.81 382.17 406.32 373.99 403.06 370.27 413.47 360.44 411.5 353.42 416.58 348.36 421.73 344.63 421.92 339.69 425.37 334 425.27 331.24 426.86 333.22 432.16 329.35 432.16 329.35 437.38 324.47 437.44 322.35 443.93 313.83 440.48 313.83 444.44 308.96 449.07 302.4 457.71 307.29 461.21 307.19 464.48 317.59 474.66 355.02 462.53 358.57 464.45 360.16 476.69 361.87 481.03 366.91 460.93 368.77 459.17 372.21 460.84 375.46 457.49 375.65 454.02 377.99 452.79 378.87 452.23 375.43 447.87 380.37 440.7 378.64 438.33 375.35 429.18 373.6 430.72 375.48 423.18 418.49 413.17 404.89 398.77 404.67 397.88 395.87 402.86 389.51 397.81"/>
  <polygon class="bairro" points="333.07 380.8 329.52 383.8 334.56 387.19 334.75 392.51 336.23 393.93 339.43 393.93 343.44 399.14 348.19 399.14 346.69 404.78 350.4 406.34 346.83 407.84 353.85 411.5 351.86 411.5 353.49 414.84 351.88 416.37 353.29 416.37 360.38 411.24 370.11 413.18 373.84 402.73 382.04 406 385.84 397.56 389.6 397.56 395.89 402.56 404.61 397.62 394.12 354.96 388.1 358.43 375.79 358.52 373.97 354.98 370.72 358.41 360.24 361.89 358.66 360.36 355 358.44 353.29 353.17 351.75 353.17 349.98 358.53 346.57 358.39 346.57 359.98 344.7 362.11 344.56 358.45 338.04 356.73 332.97 358.5 331.44 361.48 331.29 361.65 334.57 366.84 333.07 380.8"/>
</g>
<g id="regiao_09" class="regiao">
  <polygon id="seropedica" class="bairro" points="308.9 535.98 303.91 537.98 303.91 543.55 305.19 544.94 302.3 547.96 297.49 549.87 296.96 552.5 301.56 557.62 329.63 573.65 331.12 570.28 335.87 568.78 342.74 563.38 337.85 543.2 339.69 534.89 336.41 524.43 339.16 520.92 339.76 517.67 337.89 515.79 334.44 517.77 331.16 515.88 319.17 512.18 319.17 515.9 310.52 526.01 308.99 529.16 312.65 532.78 308.9 535.98"/>
  <polygon id="itaguai" class="bairro" points="265.88 578.82 273.12 578.82 273.24 588.4 274.58 585.92 279.82 583.9 286.22 586 279.91 589.28 283.44 592.62 289.75 589.05 289.88 587.39 291.8 587.39 291.8 589.12 296.7 589 296.7 584.26 308.83 580.15 310.51 575.38 329.28 573.74 301.4 557.82 296.69 552.58 297.27 549.69 302.15 547.75 304.85 544.93 303.66 543.65 303.66 537.81 308.77 535.76 312.28 532.76 308.78 529.31 305.25 529.31 303.53 527.77 299.75 527.77 286.14 538.42 285.23 547.03 291.9 550.05 284.79 556.71 274.75 560.06 271.21 565.65 264.48 567.11 265.9 568.71 257.38 578.13 257.38 580.73 260.51 582.16 265.88 578.82"/>
  <g id="mangaratiba" class="bairro">
    <polygon id="mangaratiba-2" data-name="mangaratiba" class="bairro" points="250.73 592.65 253.85 590.61 264.37 592.25 264.25 595.84 265.97 595.96 266.16 599.24 273.15 595.95 275.88 595.84 274.5 594.35 277.61 591.05 272.88 590.99 270.78 591.61 267.95 591.76 272.99 588.81 272.87 579.07 265.95 579.07 260.53 582.44 257.23 580.93 250.31 580.47 245.31 573.99 241.85 575.86 239.99 572.61 229.89 579 226.7 577.31 216.36 579.08 209.22 574.07 203.15 578.63 197.44 584.28 195.99 584.24 192.29 592.95 189.32 591.31 195.84 613 196.03 619.98 197.54 620.07 199.48 621.64 205.91 620.17 212.75 614.62 214.61 609.96 218.06 607.82 219.51 604.45 218.2 599.27 228.51 594.18 230.04 597.97 228.48 599.48 230.11 601.34 225.16 606.24 231.72 606.24 231.62 601.16 235.02 601.16 235.26 599.37 240.66 594.24 250.73 592.65"/>
    <polygon id="mangaratiba-3" data-name="mangaratiba" class="bairro" points="231.4 609.98 227.14 613.19 230.07 614.74 232.95 613.08 231.92 611.97 231.4 609.98"/>
    <polygon id="mangaratiba-4" data-name="mangaratiba" class="bairro" points="261.98 608.27 257.42 611.49 259.11 614.6 261.98 608.27"/>
    <polygon id="mangaratiba-5" data-name="mangaratiba" class="bairro" points="279.78 623.66 264.98 617.04 269.35 620.68 273.2 623.45 274.63 625.23 273.21 628.69 269.65 630.22 259.71 627.22 254.21 621.91 247.38 623.65 245.5 627.52 243.65 626.76 240.8 630.19 236.9 632.17 238.58 637.07 243.62 638.89 254.59 635.43 270.86 632.57 291.55 628.74 291.55 627.08 279.78 623.66"/>
  </g>
  <g id="angra" class="bairro">
    <polygon id="angra-2" data-name="angra" class="bairro" points="135.22 596.69 138.51 598.63 137.04 601.55 147.24 595.05 141.95 593.36 140.1 595.42 140.18 593.26 143.51 591.61 141.89 589.82 143.79 589.7 145.53 591.43 147.07 587.91 150.39 589.89 154.23 589.83 152.36 593.19 154.26 593.26 150.62 595.07 152.4 598.53 150.72 598.44 150.64 600.01 157.76 598.36 160.86 598.57 157.25 601.98 157.53 605.51 152.22 605.14 152.31 608.66 147.21 608.95 142.22 613.94 147.26 618.81 156.76 612.54 158.98 610.28 160.94 612.09 159.2 616.95 160.93 617.03 164.15 613.48 165.91 615.47 167.61 610.27 171.14 612.2 174.24 608.35 179.32 613.81 181.36 613.62 181.26 615.7 177.96 617.39 173.33 624.12 178.05 625.72 186.91 620.59 189.93 622.55 188.74 625.56 191.63 623.83 191.63 622.32 194.68 623.66 193.36 620.59 196.74 618.9 196.73 618.37 196.7 612.37 189.99 590.08 183.02 591.78 176.14 586.56 177.74 574.5 174.4 574.5 171.19 567.75 162.43 567.89 158.94 571.24 157.41 567.71 156.18 567.71 153.92 569.25 153.92 566.15 151.96 566.15 138.67 571.25 128.16 569.48 123.03 574.62 114.49 579.57 111 574.79 111 570.87 109.47 567.71 106.05 567.71 95.86 574.47 92.39 579.53 90.16 579.53 85.61 577.86 75.25 579.61 67.99 586.97 67.69 587 77.45 595.94 87.66 601.67 90.21 611.77 89.36 620.43 98.74 617.12 104.39 618.83 111.17 612 112.98 613.67 116.5 612.07 116.5 615.3 117.98 613.7 121.48 617.19 124.3 615.58 121.07 615.37 119.76 613.65 123.25 610.21 126.29 608.63 121.42 607.05 124.6 603.74 123.1 600.11 126.36 598.36 126.23 596.74 129.98 594.73 129.85 596.45 135.22 596.69"/>
    <polygon id="angra-3" data-name="angra" class="bairro" points="199.69 675.06 199.69 671.05 196.18 671.05 199.69 675.06"/>
    <polygon id="angra-4" data-name="angra" class="bairro" points="103.31 626.61 106.54 625.12 108.19 622.27 108.3 622.33 108.3 622.33 108.3 622.01 103.31 625.19 103.31 626.61"/>
    <polygon id="angra-5" data-name="angra" class="bairro" points="130.77 606.24 132.03 604.91 130.77 604.91 130.77 606.24"/>
    <polygon id="angra-6" data-name="angra" class="bairro" points="144.53 628.64 145.81 629.92 144.2 625.14 145.91 625.14 144.48 621.99 139.3 621.99 137.63 620.32 134.4 623.5 142.65 623.32 144.53 628.64"/>
    <polygon id="angra-7" data-name="angra" class="bairro" points="211.27 656.06 209.34 651.18 202.44 654.53 204.05 651.02 202.71 649.11 207.36 645.96 205.92 644.35 201.47 645.9 195.91 651.08 193.92 649.19 194.1 644.33 187.38 644.33 184.22 640.98 182.41 640.98 182.4 640.73 185.35 640.55 188.59 638.9 183.89 638.9 183.51 637.31 177.59 634.36 176.66 633.7 177.78 632.74 175.32 633.81 177.06 634.05 175.32 637.33 170.44 638.76 172.04 638.97 173.59 640.51 169.61 642.65 166.22 643.78 165.63 643.97 166.6 644.11 163.37 649.3 159.66 647.64 159.75 642.63 156.65 644.01 156.84 649.17 153.02 649.36 153.02 651.31 151.66 654.43 147.69 652.73 137.6 657.86 139.17 661.43 142.69 659.06 142.69 663.29 147.9 661.01 144.67 669.57 147.89 671.37 146.4 672.85 149.56 672.85 154.47 661.44 158.09 659.35 166.74 660.85 168.42 662.78 166.99 664.49 171.92 662.6 171.92 664.84 170.21 666.28 171.83 667.99 183.91 664.65 186.88 666.13 190.31 664.46 188.94 662.77 190.83 661.12 193.99 661.12 197.25 657.96 202.91 657.77 207.76 659.32 204.75 663.03 214.44 659.65 216.1 656.33 211.27 656.06"/>
  </g>
  <g id="paraty" class="bairro">
    <polygon id="paraty-2" data-name="paraty" class="bairro" points="93.95 682.42 92.43 686.02 83.48 684.19 81.68 682.53 85.55 678.79 88.48 672.38 78.63 673.82 78.51 677.57 73.58 680.63 70.16 687.72 65.22 689.3 67 693.01 63.12 690.82 71.63 678.81 73.28 673.98 68.28 675.81 68.21 673.96 64.97 673.9 61.88 677.31 58.49 677.62 52.26 679.22 56.18 676.99 56.36 675.34 57.78 673.65 59.92 673.47 62.55 672.13 61.37 672.03 61.58 668.4 64.61 670.34 68.27 668.41 66.9 670.5 69.75 671.92 71.53 666.82 73.07 666.87 70.14 663.66 66.47 663.66 66.47 660.32 63.28 661.82 61.6 666.95 59.95 666.95 52.99 674.21 47.47 674.21 47.79 668.61 44.18 665.32 49.17 661.75 46.06 660.01 50.89 656.75 47.73 653.21 52.66 649.59 51.04 646.29 54.28 644.61 51.12 643.06 54.39 629.27 56.27 629.27 55.97 627.58 59.8 624.04 64.83 625.78 64.83 622.11 68.13 624.05 73.33 622.35 73.62 623.94 80.6 622.24 78.79 627.32 89.1 620.53 89.34 620.45 90.1 611.74 87.64 601.67 77.35 595.94 67.67 587 58.13 587.99 54.77 593.42 47.83 591.78 39.07 595.33 37.7 598.16 35.84 604.95 35.81 605.03 25.7 605.38 25.82 608.56 22.3 610.36 25.71 613.91 22.2 624.57 20.54 625.87 22.25 627.7 18.51 634.3 20.39 637.8 18.63 639.55 20.12 644.89 18.62 646.52 18.62 648 17.01 649.74 17.04 654.99 3.22 660.04 0.02 665.16 1.69 668.68 0 672.25 0 673.6 1.64 673.78 3.5 678.72 13.81 680.52 11.96 682.46 16.98 687.57 15.92 689.04 21.98 687.35 27.18 692.64 29.03 702.66 33.74 704.23 37.55 708.23 43.85 709.57 42.3 707.79 44.57 707.79 49.25 702.8 54.4 704.85 58.1 700.95 58.03 704.38 61.44 704.49 61.37 702.66 63.3 704.39 66.44 701.12 70.18 702.63 68.65 705.7 71.78 702.68 73.62 706.36 76.91 706.23 75.32 709.6 81.8 708.17 88.66 701.37 86.99 697.9 90.25 694.13 93.84 694.13 97 689.23 100.87 689.04 102.62 692.49 104.03 690.98 93.95 682.42"/>
    <polygon id="paraty-3" data-name="paraty" class="bairro" points="52.16 654.16 52.16 657.35 55.21 654.42 53.59 652.74 52.16 654.16"/>
    <polygon id="paraty-4" data-name="paraty" class="bairro" points="76.37 671 80.94 668.12 79.23 666.63 73.16 672.58 76.37 671"/>
  </g>
  <g id="regiao_08" class="regiao">
  <path class="bairro" d="M816.34,406l3.33,6.78,6.54-1.64,5.33-18.78,1.5-1,3.8-2.57L835,378.43h0l11,5.89,4.34,2.32L871,368.41l9.65-13.51-4.62.24-6.66-3.58-5.64,4.29-4.86,5.62-8,.37-11.73,4.81-7.47-8.41-3.72-.12-5-5-2-.25-3-1.34-4.89,4.71-8.67-1.74-2,3.5-4.78,1.66,1.48,10.76-3.36,3.18v6.52H801l4.94,3.45,1-.53,2.53-1.33h0v3.45l1.05.09,2.49.22h0L811.73,388l-.3.62h3.1l-5,10.54,1.3.43,3.61,1.17h0v3.61h0l-1.25.25Z"/>
  <path class="bairro" d="M908.42,394.15l5.09-3.64-5-9.84-5.22-3.45-32.21-8.58L850.5,386.81l17.37,21.29v4.78l5,6.72,40.64-16.74V401.3l-3.21-1.76Z"/>
  <path class="bairro" d="M867.62,413v-4.77l-17.37-21.3-15-8,1.83,10h0l-5.37,3.62-1.37,4.82-4,14-5.16,1.29-1.71.43-3.38-6.88-1.21-.52-2.59-1.11h0l1.39-.28.45-.09V401l-5-1.63h0l4.94-10.44H811l1.56-3.18-1-.09-2.38-.21h0v-3.26l-3.3,1.74-5-3.5h-5.36v-6.76l-3-2-12.43,9.09-17.27,3.15-1.28,5.68v4.62L754,395.85h-5.57l-3.87,1.66L737.25,405l-3.36.94-8.4,7.1-1.87,3.43-3.35,1.74-1.86,3.52-3.3,3.18,13.86,6.9,1.58,6.82L729,440.22l-.12,2,1.71,1.64-3.2,4.68,5.15,2-.25,5.05h5l3.12-1.87,6.83,1.84,1.73-5.25,3.73.16,1.86-1.68,5.6-.09-1.86,8.57h3.92l4.31-1.6,3.4,1.52-.17-3h-.12l.11-.1V454l10.72-10.25,6.83,3.27,9.85-3.25,5,1.29.86-2.28,1.23-3.43.45,5.94,8,1.88,8.39,4.56,1.21.1,2.32.16,1.87-3.48,8.57,2,1.69,1.57,13.4-8.17.3-3.48-1.89-1.82,1.92-3.22,22.08-15.64-5-6.72Z"/>
  <polygon class="bairro" points="821.07 451.93 821 451.93 812.42 447.35 804.49 445.5 804.49 445.46 804.47 445.45 804.04 440.78 803.27 442.83 802.36 445.36 797.17 444.04 787.28 447.3 780.52 444.06 770.21 453.91 770.59 454.22 774.47 455.14 777.51 455.6 784.07 453.81 780.55 457.43 782.15 461 778.89 462.59 780.51 466.37 790.77 476.16 790.59 483.08 794.28 491.2 797.73 484.58 802.67 483.06 806.06 484.85 816.56 471.06 821.54 471.06 825.27 466.93 828.25 460.82 832.87 456.25 836.64 452.27 834.65 450.67 826.71 448.8 824.85 452.26 822.34 452.04 821.12 451.96 821.07 451.93"/>
</g>
<g id="regiao_07" class="regiao">
  <polygon id="itaperuna" class="bairro" points="894.53 145.29 894.53 140.43 885.51 134.87 887.52 135.08 886.25 133.53 881.12 131.65 873.82 135.4 868.71 129.16 867.24 125.03 861.91 125.03 863.63 121.69 860.46 119.73 863.64 114.58 862.09 112.76 862.09 111.25 855.26 111.25 851.66 112.91 851.66 106.11 841.26 104.34 841.26 96.13 832.8 99.21 837.5 93.6 831.19 87.42 822.54 92.81 821.5 95.81 816.15 97.3 814.15 101.17 809.4 100.93 811.02 102.81 809.31 102.66 807.35 105.96 805.28 107.84 793.35 101.11 793.35 97.84 785.34 99.3 783.34 100.92 780.01 101.05 778.38 95.69 783.13 87.31 780.06 85.4 776.5 85.4 773.14 75.58 764.92 73.77 764.92 75.22 764.92 75.22 764.92 75.27 759.46 75.27 759.46 77.02 759.49 78.85 759.46 78.87 759.46 78.87 759.35 78.99 754.86 83.5 754.75 83.89 754.23 85.88 754.17 85.89 754.15 85.93 751.77 86.56 751.12 86.75 749.41 92.11 749.38 92.2 749.38 92.2 749.37 92.23 742.19 92.23 740.84 99.11 733.81 107.67 738.8 112.48 740.54 107.56 744.35 107.56 742.34 109.77 742.59 112.35 745.65 109.52 752.78 109.23 754.47 111.02 752.72 111.33 751.11 114.27 754.39 117.64 752.53 119.5 755.89 122.78 757.46 121.21 759.27 114.23 762.64 117.69 764.56 112.29 775.06 114.5 771.77 117.5 773.41 118.11 774.93 124.57 771.74 127.86 778.29 131.66 771.43 133.3 769.58 137.2 766.17 138.67 766.45 146.67 763.07 148.5 766.52 152.51 763.31 153.93 764.61 157.6 761.33 159.24 761.33 160.84 766.97 162.48 778.43 158.69 780 155.44 783.33 153.74 786.68 153.74 789.94 152.11 789.94 150.55 793.7 148.89 805.58 150.31 808.94 145.15 814.26 146.96 817.98 145.16 822.83 146.96 831.57 143.47 838.41 154.17 838.4 154.17 848.91 172.25 850.63 171.52 855.36 169.27 863.91 164.15 864.14 164.25 864.16 164.24 864.35 164.34 867.16 165.54 869.81 163.32 870.73 162.45 874.92 160.14 877.52 158.68 877.55 158.7 877.58 158.68 882.42 162.3 882.48 158.56 882.74 158.69 882.74 158.69 883.01 158.83 889.37 162.13 889.49 157.24 899.85 153.83 899.85 150.89 899.85 150.82 899.85 150.82 899.85 147.24 894.53 145.29"/>
  <path id="miracema" class="bairro" d="M711.45,178l7.13,7,13.12,8.54,22.44,1.27,3.45-7,7.11.18,6.83-5.17q4.22-7.48,8.41-15l-3.56-3.57-.06-.05,2-5.23L767,162.74,761.08,161v-1.78l-5.72-2.12-4.71-4.33v-4l-1.35,1.86-2.17-2.07-4.89,3.78-8.38-1.67-8.27,6.78,0,0-1.9,1.55,1.54,1.45.06.06,0,.09-1.58,3.36-.08.1,0,0-1.74,2.32L718.47,171l3.09,1.68.06,0h0l0,0v1.65l-2.92,1.06-2.29.85-1.6-.88-1.83-1Z"/>
  <polygon id="bom_jesus_de_itabapoana" class="bairro" points="889.47 104.46 880.81 104.49 880.82 104.46 880.78 104.46 881.02 102.94 879.47 100.97 879.4 100.42 879.22 99.34 875.86 101.04 875.78 101.09 870.67 95.93 867.28 97.34 867.42 99.01 867.23 99.01 867.23 99.06 865.59 99.06 863.77 99.11 863.67 95.75 864.05 95.71 866.65 95.41 862.72 93.55 861.43 93.1 858.69 92.23 858.74 92.16 858.7 92.15 863.69 85.53 861.5 83.17 860.46 82.08 860.41 78.33 861.8 79.1 863.62 80.05 863.71 78.58 863.72 78.42 861.97 73.57 862.01 73.54 861.97 73.45 865.42 70.31 862.03 66.75 861.96 66.67 861.96 66.67 861.96 66.67 863.94 63.68 865.52 61.29 865.52 61.27 863.87 52.81 860.39 49.18 859.96 48.72 859.95 48.7 858.41 43.88 858.45 43.88 858.41 43.75 861.02 43.88 862.16 43.88 862.78 41.57 863.84 37.35 861.96 35.84 862.07 35.63 865.37 28.79 862.13 27.2 857.02 30.48 857.02 30.54 853.61 30.54 838.06 49.05 840.05 53.4 843.27 54.34 841.78 61.27 841.8 61.28 831.66 80.44 828.35 80.44 828.18 83.17 831.14 83.17 831.33 87.21 837.84 93.58 833.59 98.66 841.51 95.77 841.51 104.13 851.91 105.9 851.91 112.52 855.2 111 862.34 111 862.34 112.66 863.95 114.56 860.8 119.65 863.96 121.6 862.32 124.78 867.42 124.78 868.93 129.03 873.88 135.08 881.1 131.38 886.4 133.32 888.1 135.4 886.58 135.24 894.78 140.29 894.78 145.11 900.1 147.07 900.1 150.63 918.8 136.92 924.18 136.4 925.32 132.13 932.07 126.8 932.74 120.26 928.56 117.48 928.56 117.4 928.56 117.4 928.56 117.33 928.56 114.52 923.47 114.82 920.5 113.13 920.4 113.28 918.59 116.22 915.44 114.88 910.28 114.88 910.24 114.88 910.24 114.88 910.19 114.88 910.15 114.84 909.68 114.27 908.2 111.31 904.99 114.62 905.07 113.02 905.07 111.54 901.57 109.39 899.49 106.21 899.4 106.23 892.94 107.77 889.47 104.46"/>
  <polygon id="santo_antonio_de_padua" class="bairro" points="721.38 255.44 721.49 255.41 721.49 255.41 721.66 255.36 721.79 255.27 721.8 255.31 727.98 253.43 733.45 251.76 737.19 252.7 733.52 248.31 733.52 244.95 740.13 242.08 740.48 241.93 741.72 234.54 749 229.27 756.24 229.27 759.28 229.27 771.22 214.24 771.22 208.62 788.37 198.24 784.75 194.72 788.43 191.79 786.87 183.06 785.11 181.39 780.22 184.53 771.66 183.04 764.78 188.25 757.74 188.06 754.29 195.04 731.62 193.77 718.42 185.18 711.42 178.3 711.42 181.75 707.73 190 710.25 191.56 712.98 193.2 712.92 194.7 717.93 198.21 717.9 198.25 717.93 198.27 717 199.48 716.47 200.21 716.43 200.22 716.34 200.33 714.58 200.82 711.18 201.93 709.77 208.41 709.66 208.91 703.11 208.91 703.23 213.66 702.4 215 700.88 217.6 696.04 217.6 697.81 221.18 695.9 222.41 692.33 224.77 690.15 227.5 689.82 227.94 686.65 233.54 685.92 234.86 690.65 236.62 689.37 237.51 685.98 239.99 686.95 241.17 687.2 241.48 692.4 239.97 693.93 246.6 704.26 243.44 706.47 245.56 709.46 248.39 709.81 251.63 711.39 250.14 711.46 250.2 711.54 250.13 713.05 251.71 713.17 251.82 714.69 255.61 713.24 260.43 714.19 260.43 718.6 257.43 721.39 255.48 721.38 255.44"/>
  <polygon id="itaocara" class="bairro" points="786.92 240.08 785.36 239.82 779.94 236.49 776.54 238.44 752.85 256.87 737.5 253.03 733.12 252.13 724.47 254.76 721.89 255.55 730.53 278.74 742.84 300.02 747.59 300.02 748.01 299.44 748.83 298.09 747.08 294.39 750.14 295 753.97 297.44 755.11 295.86 755.8 294.86 751.87 290.61 755.93 291.14 759.05 286.44 759.1 286.47 759.12 286.44 759.9 287.01 761.17 287.86 761.93 286.06 762.54 284.35 769.95 284.63 770.42 284.51 771.2 284.25 769.29 281.28 769.22 281.2 769.23 281.19 769.23 281.19 769.32 281.11 773.58 277.62 773.65 277.73 773.7 277.69 774.79 279.31 775.3 278.45 777.96 273.75 782.92 275.22 781.39 272.16 781.33 272.05 781.44 271.98 792.34 265.03 792.89 265.98 793.81 267.2 800.95 263.75 801.09 263.9 801.2 263.84 804.02 266.53 804.02 228.02 786.92 240.08"/>
  <polygon id="varre-sai" class="bairro" points="814.33 30.89 814.33 37.57 819.39 44.52 811.01 46.16 809.38 51.41 812.47 54.32 822.38 57.63 825.75 51.12 838.46 54.72 836.95 57.93 841.55 61.11 842.98 54.52 839.87 53.6 837.77 49.01 853.5 30.29 856.78 30.29 857.9 20.08 858.44 15.09 853.38 12.57 848.48 10.2 848.47 10.2 822.49 29.16 814.33 30.89"/>
  <polygon id="porciuncula" class="bairro" points="786.58 68.29 786.58 54.53 792.29 52.63 800.18 54.28 800.18 47.44 804 51.07 807.12 45.93 810.9 45.93 818.95 44.35 814.08 37.65 814.08 30.68 822.39 28.93 847.89 10.32 837.75 12.29 837.8 12.21 837.73 12.23 838.36 11.44 839.28 10.18 834.38 10.24 834.38 10.18 834.31 10.18 834.31 6.61 833.39 6.29 829.52 5.19 829.2 3.99 827.97 0 822.52 0 814.19 10.2 814.04 10.16 814.03 10.16 813.2 9.95 807.63 8.55 804.36 18.8 807.78 20.51 807.73 20.55 807.73 20.56 807.23 21.04 799.41 28.69 800.77 30.66 800.95 30.91 797.44 35.8 795.32 42.91 795.26 42.94 792.05 44.66 793.58 47.79 781.82 44.74 769.59 47.67 769.53 47.67 769.53 47.67 761.24 47.67 755.65 51.27 756.66 53.11 756.56 53.11 756.57 53.13 756.36 53.13 756.02 53.13 752.51 53.25 751.57 53.96 746.24 58.08 746.24 59.37 749.36 63.18 764.92 71.58 764.92 71.62 768.82 71.62 786.58 68.29"/>
  <polygon id="cambuci" class="bairro" points="826.63 158.9 822.86 164.26 814.42 169.3 815.85 172.71 800.46 182.99 795.43 193.29 788.76 198.28 788.77 198.29 771.47 208.76 771.47 214.32 759.4 229.52 756.27 229.52 756.27 230.8 762.88 236.31 766.4 236.31 769.66 238.08 776.61 238.08 776.61 238.11 779.95 236.2 785.45 239.58 786.87 239.81 804.27 227.54 804.27 227.6 813.86 222.44 822.31 222.63 822.31 215.71 835.01 205.37 836.29 199.04 834.64 196.42 856.98 191.41 865.46 190 847.82 175.22 848.74 172.46 838.17 154.26 826.63 158.9"/>
  <polygon id="laje_de_muriae" class="bairro" points="742.18 152.14 747.15 148.29 749.27 150.32 750.9 148.08 750.9 152.69 755.5 156.92 761.19 159.03 764.3 157.48 763 153.79 766.12 152.42 762.68 148.42 766.19 146.53 765.91 138.51 769.39 137.01 771.26 133.08 777.62 131.56 771.33 127.91 774.65 124.5 773.2 118.3 771.3 117.6 774.53 114.64 764.73 112.58 762.74 118.16 759.4 114.72 757.68 121.34 755.89 123.13 752.18 119.51 754.04 117.64 750.8 114.31 752.55 111.11 753.97 110.86 752.67 109.49 745.75 109.76 742.39 112.88 742.08 109.69 743.79 107.81 740.71 107.81 738.91 112.94 733.7 107.91 731.96 112.83 731.91 112.83 731.9 112.87 731.25 112.83 730.39 112.83 730.85 113.82 733.68 119.93 733.68 119.95 733.68 119.96 733.57 120.39 732.47 124.79 735.3 126.25 735.43 126.31 735.42 126.31 735.49 126.34 734.18 128.76 733.7 129.69 735.47 133.79 725.47 141.92 724.76 144.66 723.85 148.5 722.37 151.48 722.07 152.15 725.45 157.31 733.8 150.47 742.18 152.14"/>
  <polygon id="aperibe" class="bairro" points="766.34 236.56 762.78 236.56 756.02 230.92 756.02 229.52 749.08 229.52 741.95 234.68 740.71 242.1 740.64 242.13 740.23 242.31 733.77 245.12 733.77 248.22 737.6 252.8 752.79 256.6 776.26 238.33 769.59 238.33 766.34 236.56"/>
  <path id="sao_joao_de_uba" class="bairro" d="M800.27,182.82l15.27-10.2-1.43-3.42,8.57-5.13,3.79-5.38L838,154.05l-6.57-10.28-8.64,3.46-4.83-1.8-3.73,1.8L809,145.44l-3.34,5.14-12-1.43-3.55,1.56v1.55L786.74,154h-3.35l-3.2,1.65-1.56,3.22-2,5.31,3.58,3.58.06.06,0,.09-8.39,14.92,8.35,1.46,5-3.2,2,1.87,1.61,9-3.58,2.84,3.45,3.36,6.66-5Z"/>
  <polygon id="natividade" class="bairro" points="827.91 83.42 828.11 80.19 831.51 80.19 841.48 61.36 836.64 58.01 838.11 54.88 825.88 51.41 822.5 57.94 812.34 54.54 809.1 51.49 810.75 46.18 807.26 46.18 804.05 51.46 800.43 48.02 800.43 54.59 792.3 52.88 786.83 54.71 786.83 68.5 768.85 71.87 764.92 71.87 764.92 73.51 773.34 75.36 776.68 85.15 780.13 85.15 783.46 87.22 778.65 95.72 780.19 100.79 783.25 100.67 785.23 99.06 793.6 97.54 793.6 100.97 805.25 107.53 807.15 105.8 809.17 102.4 809.25 102.41 810.43 102.5 808.83 100.65 814.01 100.91 815.98 97.09 821.31 95.6 822.33 92.64 831.08 87.2 830.9 83.42 827.91 83.42"/>
</g>
<g id="regiao_06" class="regiao">
  <polygon id="com_levy_gasparian" class="bairro" points="420.58 351.75 427.2 356.63 437.18 356.25 438.96 358.3 444.05 352.83 444.05 366.3 456.52 356.14 474.52 351.43 478.39 347.64 478.42 346.63 471.06 348.01 467.81 344.58 459.54 347.96 457.56 346.41 454.32 348.09 447.32 341.22 430.48 344.66 425.09 339.55 421.2 341.31 418.2 339.63 419.93 352.29 420.58 351.75"/>
  <polygon id="paty_do_alferes" class="bairro" points="374.04 430 375.46 428.75 378.86 438.22 380.67 440.69 375.74 447.86 379.02 452.32 394.52 459.33 394.52 464.74 393.01 465.96 396.03 467.47 401.43 466.61 412.88 460.98 411.56 459.24 414.89 452.3 421.6 452.3 426.51 444.14 436.94 437.13 418.68 413.38 375.69 423.39 374.04 430"/>
  <polygon id="petropolis" class="bairro" points="508.99 413.14 507.65 409.32 510.62 401.34 505.5 394.48 501.32 395.66 500.52 396.21 493.52 399.68 488.37 405.2 488.99 409.67 487.21 411.57 483.54 416.52 479.81 413.09 473.05 421.9 469.9 423.41 466.57 423.67 464.46 420.18 456.86 420.18 450.5 423.42 447.3 422.07 443.03 426.34 437.12 436.95 437.31 437.19 426.7 444.32 421.74 452.55 415.05 452.55 411.85 459.21 413.14 460.9 418.24 460.83 426.85 462.63 432.48 460.75 435.54 464.65 431.22 467.68 431.93 467.49 431.96 467.44 454.24 479.84 452.35 483.23 449.56 481.57 447.44 481.57 442.2 491.43 444.16 494.91 452.43 491.95 461.14 491.56 479.86 482.73 483.44 484.58 493.55 476.13 491.93 471.13 497.03 469.17 502.29 461.99 503.82 464 507.38 462.13 507.35 459 503.99 452.16 505.58 445.57 504.24 445.57 505.79 442.16 504.02 438.63 508.88 435.56 503.96 431.71 507.45 431.84 505.77 428.6 500.53 426.77 502.48 423 510.7 420.06 509.29 417.86 513.48 414.76 508.99 413.14"/>
  <path id="tres_rios" class="bairro" d="M520.87,365.76l1.45-4H511l1-10.89-1-1.47-.84-.17-6,2.27,1.69,5.09-8.38,6.81-3.82.07L492,361.78l-7,.09-4.88,1.47-3.52,5.44-5.47-8.91,5.46-5.18,1.65-3.12.13-3.57-3.73,3.65-18,4.72-12.58,10.24,1.59,8.08,14,12.42v5.14l8-3.29-.05-.11,16,3.46L504,382.25v1.59l-2,4.51-2.94,3.06,1.57,4c.05.1.12.37.22.37s.32-.34.32-.34l3.28-6.79,4.75-9.82,5.73,0L526,375.18Z"/>
  <polygon id="paraiba_do_sul" class="bairro" points="464.61 419.28 466.39 409.68 469.49 392.46 467.82 389.19 459.44 392.63 459.44 387.22 445.42 374.82 443.8 366.57 443.8 353.47 438.95 358.68 437.07 356.51 427.12 356.88 420.59 352.07 419.75 352.77 417.94 339.62 394.35 354.82 405.12 398.65 419.02 413.3 418.95 413.32 436.96 436.74 442.83 426.19 447.24 421.77 450.5 423.15 456.8 419.93 464.49 419.93 464.61 419.28"/>
  <polygon id="areal" class="bairro" points="483.66 392.57 468.11 389.2 469.75 392.42 466.64 409.73 464.86 419.28 464.7 420.03 466.7 423.4 469.83 423.16 472.89 421.7 479.78 412.72 483.5 416.15 487.02 411.41 488.72 409.59 488.1 405.12 493.37 399.48 500.55 395.92 498.76 391.36 501.79 388.21 503.75 383.79 503.75 382.65 483.66 392.57"/>
  <polygon id="miguel_pereira" class="bairro" points="435.18 464.6 432.39 461.05 426.86 462.89 418.21 461.08 413.1 461.15 401.51 466.85 395.99 467.73 392.55 466.01 394.27 464.62 394.27 459.49 378.94 452.56 375.89 454.18 375.71 457.6 372.26 461.14 368.81 459.47 367.13 461.06 361.93 481.85 360.01 477 349.93 492.82 336.36 505.59 344.83 513.89 344.64 505.24 353.24 500.19 354.88 496.71 360.02 496.62 361.74 493.14 363.43 494.92 365.27 493.27 373.86 493.17 379.17 488.05 383.97 484.51 386.02 486.25 392.45 481.3 399.76 484.75 402.85 484.75 409.75 483.04 411.29 479.21 413.61 481.31 423.46 479.77 431.71 467.81 429.94 468.27 435.18 464.6"/>
</g>
<g id="regiao_05" class="regiao">
    <polygon id="cantagalo" class="bairro" points="661.96 279.78 658.97 282.41 665.83 289.97 666.91 291.08 665.48 292.63 665.29 292.85 666.2 294.18 666.68 294.82 663.66 297.94 670.34 303.54 670.33 303.54 670.34 303.55 666.66 304.81 659.71 307.23 648.08 313.46 649.83 315.1 649.85 315.06 673.94 349.1 682.19 339.25 699.32 337.58 702.62 333.85 704.23 333.85 704.36 332.62 707.73 332.31 708.63 329.8 708.25 327.07 713.05 313.33 718.58 316.91 716.78 318.51 716.99 320.2 720.26 318.75 723.67 321.91 726.98 314.92 727.06 314.92 728.02 314.92 726.8 313.59 728.83 304.93 737.1 304.93 742.54 300.24 729.81 278.76 726.07 268.38 721.51 255.81 714.72 260.66 704.93 265.55 698.42 268.87 698.39 268.87 698.29 268.87 698.29 268.87 698.26 268.87 697.7 268.87 692.38 267.9 689.42 267.42 683.81 269.22 682.89 270.26 680.74 272.76 661.96 279.78"/>
    <path id="nova_friburgo" class="bairro" d="M714.75,424.93l.31-.3c-2.46-2.19-7-6.44-7-6.44l-14.51,3.42-4,.31-32.89-22.73,1.38-3.26-3.37-5.33-11.51-8.26-5.69-1.74-2.84,1.68,1.49,3.46-.91.43-2.45,1.37-6.81-.06L619,392.9l-6.82-3.63-1.76,6.81,0,.08h-3.27v1.51l0,0v.17l-2.44.94-1.19.55v5h0v.09L599,406.89,591.76,411v3.93l1.58,3.08-5.11,6.69,2.36,2.56.88.89-.78.43-2.59,1.64v4.82l5,1.8.06,5.3h3.54v1.66l3.48,1.56,6.92-1.74,3.4,3.46,8-3.43,8.73-8.54,5.52,1.78,3.27,6.85-1.65,6.47h1.71l-1.39,3.3-5.28,5.65,1.26,1.6h3.59l1.68,1.49h4.19l6.7-5,3.17-.19,8.28,3.71,5.21-3.58,13.8-2.89,3.8-.81,5,0,1.18-1.55,4.24,3.69,2-2.24.85,1.93,4.13-3.35,2.49,1.78,10-5-3.24-3.33,9-7.23,8.3-1.42v-2.05l5.22,3.44-1.35-6.28Z"/>
    <path id="trajano_de_morais" class="bairro" d="M797.35,359.67l-10.11-4.84-14.45-.25-13.27-3.07v-5.28L750.73,348l-1.57-1.85-.25.7v-2.46h-1.67l-4.51-5.07-5.3,1.71-2.26,1.88-8-1.86-3.63,5-2-1.65-2.76,1.36,3,1.85L715,351.49l-2.12,11.87h0l-1,1.24v2.15H715v4.93L707,370.3l4.87,3.29-1.76,3.46h-1.58l-1.94,1.77,3.38,8.26v5.41l13.71,8.62-5,1.54-.31,5.44-11.79,8.15s6.13,5.85,8.72,8.14l2.85-2.66,2-3.79,3.3-1.66,1.86-3.4,8.7-7.29,3.16-.75,7.34-7.44,4.24-1.79,5.1.07,7.52-1.66-.06-4.56,1.33-5.75,17.18-3.12,12.61-9.21,3.25,2,3.19-3Z"/>
    <polygon id="sao_sebastiao_do_alto" class="bairro" points="729.02 305.18 727.08 313.52 728.37 314.92 730.48 315.08 735.78 321.99 728.75 334.16 725.64 334.16 727.19 337.67 727.19 340.76 735.1 342.59 737.31 340.75 742.81 338.98 747.35 344.09 749.16 344.09 749.16 344.21 749.16 345.36 750.79 340.79 760.81 332.51 759.59 328.97 759.19 325.51 762.91 327.31 764.51 325.71 759.28 318.43 766.54 320.34 766.54 314.82 769.98 316.99 781.51 301.9 779.75 300.19 785.1 296.42 785.1 294.67 795.19 284.39 795.32 284.53 798.75 280.87 800.43 275.63 804 274.02 804.04 270.48 805.54 267.36 804.3 267.53 801.02 264.01 793.55 267.65 792.25 265.34 781.61 272.14 783.47 275.75 778.2 274.11 774.8 279.81 773.65 278.05 769.65 281.25 771.7 284.43 770 284.91 762.83 284.61 761.22 288.35 759.18 286.8 756.19 291.55 752.74 291.03 756.05 294.61 753.93 297.87 750.07 295.3 747.6 294.8 749.24 298.12 747.82 300.34 742.81 300.34 737.2 305.18 729.02 305.18"/>
    <polygon id="cachoeiras_de_macacu" class="bairro" points="630.55 461.02 629.08 459.15 634.48 453.38 635.7 450.47 634.05 450.47 635.76 443.78 632.57 437.11 627.3 435.41 618.64 443.87 610.48 447.39 607.05 443.91 600.19 445.64 596.48 443.97 596.48 442.4 592.94 442.4 592.88 437.03 587.99 435.28 575.59 443.72 567.31 441.88 567.31 443.65 564 445.68 565.69 449.06 553.72 452.24 553.72 454.1 548.5 455.96 548.5 460.99 543.55 462.51 537.85 462.51 535.55 464.04 535.1 467.57 540.08 474.25 543.48 476 543.38 478.08 541.82 479.69 543.51 485.23 550.4 493.43 545.33 500.25 540.33 501.73 538.41 507.01 541.76 512.18 540.1 517.26 555.31 512.23 571.25 512.16 582.67 525.73 597.23 518.66 598.43 517.36 598.38 513.96 608.82 511.78 617.54 517.07 626 510.23 632.19 507.25 622.14 485.95 627.39 481.82 628.92 471.94 632.23 471.07 632.39 465.77 635.74 465.77 635.76 462.44 634.17 461.02 630.55 461.02"/>
    <polygon id="macuco" class="bairro" points="706.52 346.08 701.52 358.19 706.38 361.48 712.69 363.05 714.79 351.33 721.3 347.56 718.24 345.69 721.56 344.07 723.44 345.65 726.94 340.82 726.94 337.73 725.26 333.91 728.61 333.91 735.48 322 730.35 315.32 728.3 315.17 728.3 315.17 727.14 315.17 723.75 322.33 720.21 319.04 716.78 320.56 716.52 318.41 718.17 316.94 713.18 313.71 708.51 327.1 708.88 329.83 707.91 332.54 704.59 332.85 704.46 334.1 702.73 334.1 699.53 337.72 702.94 346.08 706.52 346.08"/>
    <polygon id="duas_barras" class="bairro" points="630.76 382.11 634.37 382.11 637.36 380.32 643.14 382.1 659.58 373.6 659.25 372.26 658.24 368.15 658.43 368.23 667.1 371.63 670.13 369.9 679.05 371.97 680.84 373.49 682.92 371.17 683.95 370.02 691.82 367 692.26 366.82 673.95 349.49 673.93 349.51 667.09 339.85 649.97 315.67 648.42 317.96 648.03 318.62 648.37 319.53 650.01 323.52 649.89 323.62 649.91 323.67 647.19 325.73 643.26 328.81 644.87 330.43 644.87 330.43 645 330.55 643.25 332.48 646.62 332.48 644.98 335.43 644.9 335.48 644.86 335.56 642.08 337.14 641.14 337.7 641.11 337.7 640.89 337.82 634.47 337.7 629.18 346.01 632.73 346.01 632.73 346.14 632.86 346.14 632.6 351.35 632.6 351.48 632.47 351.48 627.95 351.48 627.74 351.48 629.61 354.32 631.04 356.49 631.04 356.49 631.04 356.49 631.01 356.51 624.36 359.83 621.02 363.29 621.83 364.33 622.25 364.84 624.21 365.64 624.4 365.72 627.4 366.88 624 367.92 622.29 368.46 619.09 375.05 620.48 377.05 624.5 377.08 629 377.08 630.76 382.11"/>
    <polygon id="cordeiro" class="bairro" points="692.57 366.71 692.6 366.8 692.72 366.92 692.65 366.94 694.42 371.72 701.16 368.26 706.37 371.57 706.27 369.84 706.46 369.96 714.77 371.38 714.77 366.99 711.55 366.99 711.55 364.5 712.57 363.28 706.28 361.71 701.22 358.29 706.15 346.33 702.77 346.33 699.3 337.83 682.32 339.49 674.11 349.29 692.52 366.73 692.57 366.71"/>
    <polygon id="bom_jardim" class="bairro" points="682.75 371.74 680.87 373.84 680.87 373.84 680.87 373.84 680.78 373.76 678.76 372.16 674.97 371.28 670.28 370.19 667.15 371.89 666.9 372.03 658.6 368.57 659.73 373.16 659.87 373.73 659.87 373.73 659.87 373.73 643.39 382.25 654.79 390.43 658.25 395.9 656.9 399.1 689.55 421.67 693.47 421.36 707.72 418.06 706.15 416.19 718.07 407.95 718.38 402.46 723.04 401.03 709.68 392.63 709.68 387.13 706.25 378.75 708.4 376.8 709.92 376.8 711.51 373.68 706.55 370.33 706.64 372.04 701.14 368.55 694.29 372.07 692.42 367.03 684.1 370.23 682.75 371.74"/>
    <path id="santa_maria_madalena" class="bairro" d="M785.34,296.55l-5.2,3.68,1.71,1.64L770,317.32l-3.25-2.05v5.4l-6.9-1.82,5,6.88L763,327.61l-3.47-1.68.34,3,1.27,3.67L751,340.94l-1.74,4.89,1.56,1.85,8.95-1.75v5.38l13.05,3,14.48.25,10.14,4.86,4.87-1.57,2-3.66,8.73,1.72,4.91-4.7,3.09,1.46,2.05.19,4.8,4.87,3.86.18,7.39,8.46,11.53-4.67,4.62-.32-5.12-10.23,1.49-3.32-3.37-3.65,3.49-1.45.05,0,.77.51L864,334l.13-5.58h.14l.1,0a1.15,1.15,0,0,0,.31-.18,1.5,1.5,0,0,0,.47-1.25,8.28,8.28,0,0,0-1.07-3.45l0,0,.19-10,2.76-4.87-21.51-.12-2.28-3.46L831,308.53l-11.79-2.43-1.27-1.42-.09-2.95h-2.15l.51,3.42-12.13-1.75-3.67-5.09-5.14-13.62-9.9,10.08Z"/>
</g>
<g id="regiao_04" class="regiao">
  <polygon id="quatis" class="bairro" points="176.04 426.01 170.02 421.95 166.86 423.85 166.86 425.4 161.63 425.4 158.36 428.86 151.44 430.59 149.59 435.4 147.99 436.99 147.99 442.1 154.53 448.88 156.52 447.24 166.83 448.89 158.84 460.61 170.13 467.7 170.87 469.6 175.11 471.35 176.66 467.43 180.51 469.49 180.51 458.08 185.16 446.2 183.8 443.69 197.32 440.32 195.7 428.25 200.62 428.37 200.62 426.85 197.38 423.25 200.62 421.72 200.62 414.79 195.39 411.23 197.05 406.25 188.85 404.61 185.89 406.38 182.09 406.28 177.06 411.4 173.43 411.31 171.63 409.96 170.15 411.69 170.15 419.76 176.04 426.01"/>
  <polygon id="itatiaia" class="bairro" points="72.58 477.16 69.07 479.93 72.56 490.8 76.2 493.53 80.71 491.72 80.71 486.9 85.82 483.43 82.31 481.21 90.08 474.38 99.37 471.41 101.42 467.89 107.82 466.58 106.54 464.58 110.1 462.52 108.3 457.65 78.73 447.98 72.24 443.77 80.99 437.31 89.5 438.79 92.7 428.54 91.14 426.97 85.94 428.64 81 425.28 74.02 426.94 60.71 442.35 72.58 471.67 72.58 477.16"/>
  <polygon id="resende" class="bairro" points="150.57 495.03 153.14 488.4 151.46 479.49 153.12 476.73 150.78 473.06 144.32 473.06 139.15 464.61 146.11 455.91 143.94 450.54 151.42 452.32 154.28 448.99 147.74 442.2 147.74 436.89 149.38 435.26 151.25 430.38 158.23 428.64 161.52 425.15 166.61 425.15 166.61 423.71 170.03 421.65 174.31 424.54 169.9 419.86 169.9 411.66 168.52 405.42 168.47 406.5 161.6 404.99 153.18 409.8 152.89 408.2 149.65 409.73 142.41 408.06 135.63 413.33 134 409.89 127 408.05 117.06 408.27 115.32 414.98 113.52 414.85 94.93 428.91 92.94 428.64 89.67 439.07 81.05 437.57 72.68 443.76 78.84 447.75 108.49 457.45 110.41 462.63 106.89 464.67 108.22 466.76 101.58 468.11 99.54 471.62 90.21 474.6 82.72 481.18 86.28 483.42 80.96 487.03 80.96 491.89 76.16 493.81 72.35 490.95 68.78 479.85 72.33 477.04 72.33 471.72 60.46 442.39 58.79 440.68 48.28 440.68 43.39 437.15 38.31 440.7 32.92 440.68 20.98 446.1 19.76 449.24 35.09 450.54 38.11 453.93 45.61 466.3 43.56 469.28 46.9 474.76 45.46 478.09 50.45 478.09 53.55 481.47 58.84 485.06 55.65 491.53 60.45 488.3 65.61 491.84 64.12 501.91 67.28 505.43 71 503.66 73.93 507.14 75.88 503.8 80.9 508.64 84.63 501.74 87.76 505.25 91.47 503.96 96.45 507.22 94.86 510.49 96.63 512.1 96.63 510.57 100.09 510.87 101.63 513.76 104.94 510.45 108.25 503.73 113.52 507.03 123.74 502.2 131.97 503.73 128.7 498.56 134.06 495.21 142.83 496.87 139.38 498.79 142.59 500.48 142.59 505.55 145.73 505.38 144.37 502.11 147.53 499.04 145.82 495.03 150.57 495.03"/>
  <polygon id="rio_claro" class="bairro" points="271.04 550.15 272.83 545.24 265.33 543.37 267.78 542.9 269.46 538.33 272.86 537.97 272.32 530.06 264.47 533.11 262.33 529.86 255.46 533.15 255.46 527.9 246.56 522.06 240.47 526.53 235.35 522.76 238.46 516.03 237.17 514.26 228.52 512.67 223.18 516.1 219.87 521.2 219.87 525.31 217.99 520.92 219.57 516.07 215.81 515.95 209.31 514 200.9 516.06 197.66 524.7 197.68 524.75 192.98 527.84 194.46 529.8 190.87 533.52 185.85 533.52 185.85 537.98 179.09 537.98 175.43 543.23 175.56 545.06 172.15 545.06 170.34 548.2 170.34 553.41 175.42 555.3 173.54 557.17 170.07 558.98 166.81 565.73 163.25 567.41 163.2 565.62 159.86 563.97 155.47 568.58 156.61 568.58 158.06 571.94 161.36 568.77 170.38 568.63 173.6 575.38 177.06 575.38 175.42 587.73 182.11 592.64 189.13 590.92 192.17 592.6 195.83 583.99 197.47 584.03 202.81 578.57 209.22 573.77 216.42 578.82 226.74 577.05 229.88 578.71 240.08 572.25 241.95 575.52 245.38 573.67 250.43 580.22 257.13 580.67 257.13 578.62 265.56 568.71 264.01 566.95 271.05 565.43 274.52 559.95 269.25 550.15 271.04 550.15"/>
  <path id="barra_mansa" class="bairro" d="M218.11,514.34h0l-1.85-10-1.69-3.67,1.57-3.51-1.39-1.58,3.17-9.05-1.7-3.13-11.79,1.48-5.31-3.35V460.86l3.4-5.09,8.39-3.17,3.93-3.65h24.53l-21.58-6.59,4.81-12.07,10.22-8.37V420.5l-17.9,7.94-5.74.18-1.31,1.88-7.15-1.87L196,428.5l1.61,12-13.42,3.34,1.25,2.33-4.67,11.95v11.78l-4-2.13-1.54,3.9-4.58-1.89-.75-1.92-11.24-7.06-6.05,5.55-2.63-.12,1,6.66,2.44,3.82-1.69,2.82,1.68,8.88-2.65,6.86H146.2l1.56,3.66h.87l11.22,3.28,3.28,3.28,3.43-3.61,5.44,3.56,6.66-1.5,1.57,3,3.44-1.49,1.81,3.33,5.18,3.39L189,515.94l5.38,1.83,3.13,6.61,3.21-8.54,8.6-2.1,6.53,2,1.88.06S218.12,514.34,218.11,514.34Z"/>
  <polygon id="pirai" class="bairro" points="299.42 527.72 291.53 526.08 291.58 521.01 284.58 515.95 295.14 510.62 296.4 505.72 303.44 503.77 302.1 494.62 301.97 493.67 298.44 488.53 289.81 488.53 289.81 484.99 294.82 481.59 291.63 478.37 288.3 480.03 283.24 476.8 279.87 476.67 279.87 479.92 278.04 483.43 264.33 479.97 252.54 492.2 245.5 489.36 241.79 497.15 230.2 497.15 222.61 500.96 218.13 514.34 217.77 515.76 219.91 515.83 218.26 520.91 219.62 524.09 219.62 521.13 223 515.92 228.47 512.4 237.31 514.04 238.75 516 235.66 522.68 240.47 526.22 246.55 521.76 255.71 527.77 255.71 532.76 262.42 529.54 264.57 532.8 272.55 529.71 273.13 538.19 269.64 538.57 267.96 543.12 266.5 543.4 273.16 545.07 271.22 550.4 269.66 550.4 274.73 559.8 284.66 556.49 291.45 550.12 284.96 547.18 285.91 538.29 299.42 527.72"/>
  <polygon id="porto_real" class="bairro" points="151.51 452.6 144.35 450.9 146.4 455.95 139.46 464.63 144.46 472.81 150.7 472.81 149.71 465.98 152.54 466.11 158.57 460.57 166.4 449.07 156.59 447.5 154.68 449.08 154.61 448.99 151.51 452.6"/>
  <polygon id="pinheiral" class="bairro" points="230.06 488.58 226.72 488.67 222.72 500.62 230.14 496.9 241.63 496.9 245.37 489.04 252.48 491.91 263.99 479.95 241.84 479.95 235.18 471.39 231.91 474.79 231.97 485.04 230.06 488.58"/>
  <path id="volta_redonda" class="bairro" d="M211.06,452.81,202.69,456l-3.31,5v20.43l5.12,3.23,11.86-1.49,1.84,3.38-3.16,9,1.4,1.59-1.59,3.56,1.66,3.59,1.68,9.13,8.35-24.94,3.37-.1,1.81-3.35-.06-10.19-5.31-5.3v-.05a4.78,4.78,0,0,0-.1-.57,5.48,5.48,0,0,0-.47-1.3,3.82,3.82,0,0,0-3.07-2.16h0l-1.34-.73,18.53-15.48H215Z"/>
</g>
<g id="regiao_03" class="regiao">
    <polygon id="marica" class="bairro" points="596.56 572.12 594.7 570.63 591.23 570.51 586.3 567.18 581.21 570.28 578.46 568.77 569.2 570.38 555.91 575.47 545.36 575.47 526.59 582.14 526.59 585.83 507.85 601.35 507.85 602.71 511.21 604.51 516.34 603.03 531.26 604.05 537.67 604.52 554.7 602.53 582.44 599.49 594.96 599.3 598.42 601.49 601.93 595.96 613.05 594.11 613.05 587.97 612 587.5 608.49 585.96 601.88 585.96 601.88 577.04 601.88 577.04 601.88 577.03 601.9 577.01 606.12 572.36 596.56 572.12"/>
    <polygon id="saquarema" class="bairro" points="657.22 563.81 655.1 565.3 655.1 565.3 655.1 565.3 644.32 563.54 641.24 558.5 636.29 560.48 636.29 560.48 636.29 560.48 632.7 556.64 627.16 559.78 614.23 567.1 614.23 569.58 612.15 571.15 610.39 572.48 610.38 572.36 606.72 572.36 602.13 577.14 602.13 585.71 608.54 585.71 612.21 587.32 613.3 587.8 613.3 587.8 613.3 587.8 613.3 594.09 687.02 594.21 684.09 587.9 681.38 582.06 685.32 567.13 665.23 564.24 657.22 563.81"/>
    <polygon id="rio_bonito" class="bairro" points="665.12 563.98 666.62 544.14 667.1 537.68 661.13 534.64 650.34 536.38 642.65 533.85 642.65 510.64 640.17 509.83 632.49 507.33 626.21 510.41 617.34 517.28 608.62 512.17 598.59 514.13 598.59 517.43 597.17 518.85 582.91 525.98 592.68 536.12 596.96 536.25 598.33 546.22 602.17 548.23 598.53 555.14 607.03 556.39 603.68 560.25 603.8 563.12 607.12 565.41 603.02 568.55 610.5 569.15 610.62 571.99 613.88 569.53 613.98 569.45 613.98 566.96 632.75 556.32 632.75 556.32 632.75 556.32 636.36 560.18 638.5 559.32 641.34 558.18 644.47 563.32 655.04 565.04 657.14 563.55 657.14 563.55 657.14 563.55 665.12 563.98"/>
    <polygon id="silva_jardim" class="bairro" points="667.3 537.5 672.55 539.48 677.79 537.15 678.16 534.36 678.17 534.23 686.06 536.23 689.64 532.77 689.64 532.77 689.89 532.53 695.81 531.05 701.2 516.8 703.12 511.72 706.41 508.44 710.5 508.44 712.24 506.5 714.86 503.58 718.35 504.59 719.61 504.96 723.28 503.54 723.07 503.19 722.18 501.71 722.18 501.71 722.18 501.71 723.78 500.43 724.74 499.67 725.22 498.93 725.78 498.1 728.64 499.71 731.62 495.39 735.52 489.72 734.86 489.23 728.89 484.8 719 486.67 718.1 485.21 716.93 483.3 715.82 483.2 714.73 483.1 714.73 483.1 714.73 483.1 716.22 478.52 716.87 476.5 712.68 470.21 708.58 466.05 706.89 465.95 705.4 465.86 705.4 465.86 705.4 465.86 705.4 455.59 703.83 455.06 701.02 454.13 700.74 454.03 700.82 453.99 698.46 452.3 694.31 455.69 693.4 453.86 691.58 456.05 687.24 452.33 686.23 453.76 681.15 453.76 663.5 457.48 658.25 461.04 649.83 457.49 646.92 457.49 640.21 462.51 636.01 462.51 636.01 466.05 632.6 466.05 632.6 471.23 629.11 472.17 627.5 482.01 622.45 486.07 632.57 507.1 638.56 509.05 642.9 510.46 642.9 533.67 644.5 534.2 650.36 536.12 660.41 534.5 661.17 534.38 662.41 535.01 667.29 537.5 667.3 537.5"/>
    <path id="casimiro_de_abreu" class="bairro" d="M736.46,488.72l1.69-1.75.75-.78h0l3.9.24,3.25,1.56.14.07,0,1.53,2.5-1.54-.37-.58-.86-1.35,1.68-1.55,2.17,2.16.2,1.22.34,2h2.92l-.13.2-1.8,2.92,8.9-1.7v0l.1,0-.18,3.34,2.91-1.45h0l.64,1.66,2.08-1.37.86-.56h0l1.23,1.24.38.38V491.3l5.62,2,3.31-2.09h0l-.09,2.28,3.33-.28.13,1.17.21,2,1.82-3.64h0l.51,1.95.92,3.47,3.39-3.31h0v.3h0l.26,5.93.36-.65c.31-.59.72-1.38,1.17-2.26.9-1.75,1.94-3.83,2.63-5.22.38-.77.66-1.32.74-1.48l-3.81-8.35.19-6.87-10.22-9.75-1.73-4,3.25-1.59-1.56-3.5,3-3.1-6,1.53-7-1.65-.2,3.39-3.55-1.64-4.25,1.58H758l1.86-8.57-5.19.09-1.87,1.68-3.65-.15-1.74,5.3-7-1.88-3,1.81-5.39,0,.25-5.13-5.27-2,3.25-4.76-1.64-1.58.13-2.22,1.48-1.54-4.92-3.32v1.83l-8.46,1.41-8.61,7,3.28,3.38L701.38,454l4.27,1.43h0v10.21l1.36.08,1.68.1.08.08,3.87,3.81,4.51,6.77h0l-2.08,6.42,2,.18,2,3.33,4.8-.9,5-.95,6.58,4.89.14.1Z"/>
    <polygon id="iguaba_grande" class="bairro" points="716.65 556.33 718.9 558.3 720.22 559.45 722.33 566.88 718.83 570.2 720.76 572.32 722.2 573.89 722.2 573.89 722.28 573.98 722.25 574 723.79 577.11 727.18 575.55 733.89 579.02 733.89 563.92 730.23 565.63 729.71 560.46 725.2 558.29 718.52 555.08 718.39 555.01 716.78 556.23 716.65 556.33"/>
    <polygon id="sao_pedro_da_aldeia" class="bairro" points="758.33 583.56 757.72 572.23 757.72 572.23 757.72 572.23 762.19 572.6 776.74 573.79 779.36 558.92 779.97 555.5 777.85 548.87 776.36 544.19 762.04 528.76 759.16 525.17 758.97 524.93 751.23 515.27 738.96 527.82 732.28 539.64 727.6 547.94 727.55 547.97 718.81 554.94 729.94 560.29 730.44 565.26 734.14 563.53 734.14 563.53 734.14 563.53 734.14 579.06 741.08 577.23 746.47 582.71 752.99 585.71 756.47 585.6 758.33 583.56"/>
    <polygon id="araruama" class="bairro" points="721.92 573.96 718.48 570.19 722.05 566.8 720.7 562.03 720 559.59 717.72 557.6 716.25 556.32 718.3 554.76 718.36 554.72 718.36 554.72 727.4 547.77 732.42 538.89 738.75 527.67 751.09 515.06 737.28 488.23 735.79 489.78 728.72 500.04 725.86 498.43 724.92 499.84 722.51 501.77 723.65 503.66 723.65 503.66 723.65 503.66 719.62 505.22 714.94 503.87 710.61 508.69 706.51 508.69 703.34 511.86 696 531.26 696 531.26 696 531.26 695.95 531.27 689.77 533 686.14 536.51 678.39 534.54 678.32 535.01 678.02 537.32 678.02 537.32 678.02 537.33 677.96 537.35 672.83 539.85 672.55 539.75 672.32 539.85 667.34 537.79 666.39 550.47 665.37 563.99 669.85 564.23 685.5 566.91 685.64 566.93 685.63 566.93 685.64 566.93 681.64 582.04 683.91 586.92 687.3 594.21 708.46 594.21 708.09 590.61 711.52 588.66 710.13 584.03 721.92 573.96"/>
    <polygon id="arraial_do_cabo" class="bairro" points="787.09 608.54 785.88 611.31 791.03 611.31 794.01 608.02 792.43 604.83 787.09 608.54"/>
    <path id="arraial_do_cabo-2" data-name="arraial_do_cabo" class="bairro" d="M708.71,594.22l53.8,4.62,7.53.84,8.76,3.38.63,2.11,2.84,1.36,1.65,3.18,1.53-3-3-.19-.17-3.65,1.48.1.17-1.77,3.45,1.82,1.73-3.44-3.25.14,1.34-1.62-4.85,3.11-1.89-1.59,1.59-3.18-3.35-.16,0-3.22-13,.36-2.67,2.9-17.87-1.9-.24-3.72-1.5,1.13-.07,2.07-6.82-1.24-2.5-1v-.08a6,6,0,0,1,0-.71,3.05,3.05,0,0,1,.72-2.26h0a1.45,1.45,0,0,0-.18-.75l-.16-.08a1,1,0,0,0-.55.33L732.36,591l-4.26.19-2-.29h0a10,10,0,0,1-.92-.7c-.46-.41-.94-.88-1-1.36l0-.19h0v-2.08l.78-1.23-.08-.08a.68.68,0,0,0-.42-.14,1.4,1.4,0,0,0-.78.3l-.11.19a6.74,6.74,0,0,0-.33.6,11.64,11.64,0,0,0-.8,2.1h0l-.78,1.86,0,0a3.88,3.88,0,0,1-1.49.31,2.84,2.84,0,0,1-1.5-.41l-1.79-.86-5.25-.38-3.34,1.9Z"/>
    <polygon id="arraial_do_cabo-3" data-name="arraial_do_cabo" class="bairro" points="790.42 601.51 789.14 601.4 789.14 602.74 790.42 601.51"/>
    <polygon id="armacao_dos_buzios" class="bairro" points="805.96 560.09 806.18 556.46 811.16 551.58 816.25 553.06 817.98 549.84 819.4 552.05 817.81 548.05 821.43 549.48 821.78 547.61 824.43 544.73 821.2 543.11 822.93 541.23 819.74 539.88 818.02 544.68 811.23 544.93 811.23 548.29 807.34 548.29 802.22 544.52 798.86 538.11 794.34 538.11 792.59 540.76 785.83 551.03 786.67 552.84 787.65 554.94 790.85 557.64 795.76 561.76 802.63 558.47 805.96 560.09"/>
    <path id="cabo_frio" class="bairro" d="M787.14,505.19l1.84-3.67,0-.06a1.09,1.09,0,0,1,0-.22c0-.18,0-.43-.07-.73,0-.6-.06-1.39-.08-2.18,0-1.18,0-2.35,0-2.88l-3.3,3.21h0l-1.36-5.2-1.91,3.81h0l-.38-3.52-3.27,0h-.12v-.19l.08-1.9-3,1.91h0l-5.4-2v3.52h0l-1.89-1.91-3,2h0l-.66-1.69-3,1.53v-.2l.09-3.24-9.28,1.8,2.1-3.29h-2.67l-.37-2.18-.2-1.14-1.93-1.94-.65.6-.71.65,1.26,2-2.1,1.29-1,.61h0l0-1.82-3.07-1.47-.14-.07-3.74-.23-.43.45L737.46,488l13.18,25.6.7,1.37,7.82,9.76,3.13,3.9,14.29,15.39,3.65,11.42-3.29,18.57h0l-19-1.55.09,1.6.52,9.55h0v.19l-2,2,0,0h0l-.11.12h-3.09l10.15,6.78,15.21.09,1.58-10.45,3.25-3.49,3.31,1.58,5.47-5-1.62-5.23,4.86-8.29-8.13-6.84-.59-1.26L785.54,551l8.58-13-3.74-5Z"/>
    <polygon id="cabo_frio-2" data-name="cabo_frio" class="bairro" points="800.37 576.39 801.01 577 801.68 575.66 804.3 575.6 804.3 573.95 802.79 573.95 801.8 575.55 801.75 575.56 800.84 575.71 800.37 576.39"/>
    <polygon id="cabo_frio-3" data-name="cabo_frio" class="bairro" points="792.17 583.76 792.17 580.89 790.42 580.89 792.17 583.76"/>
</g>
<g id="regiao_02" class="regiao">
    <polygon id="mage" class="bairro" points="493.69 475.63 493.69 475.64 493.84 476.21 483.47 484.88 479.85 483.01 461.2 491.81 452.87 492.11 461.38 508.95 454.83 517.38 452.81 522.53 456.18 531.16 452.87 532.63 455.88 536.35 473.52 530.97 480.31 532.51 481.61 531.09 483.33 525.65 485.07 527.27 485.07 525.63 488.35 525.75 490.43 522.29 495.41 525.88 502.26 525.7 506.68 519.94 510.76 512.08 508.97 481.13 505.61 477.96 505.61 474.38 497.1 469.42 492.24 471.27 493.69 475.63"/>
    <polygon id="guapimirim" class="bairro" points="522.88 536.17 529.62 531.04 529.34 529.15 529.34 529.15 529.34 529.15 530.63 528.61 532.95 527.64 537.33 521.79 537.92 521 538 519.97 538.21 517.19 539.9 517.19 541.45 512.12 538.18 506.81 540.28 501.57 545.23 499.99 550.17 493.49 543.24 485.17 541.44 479.57 543.23 477.97 543.23 476.15 540.01 474.59 534.84 467.54 535.23 463.99 537.88 462.53 531.18 461.03 521.11 467.65 514.2 464.38 509.12 465.89 507.45 462.37 503.75 464.32 502.3 462.41 497.29 469.24 505.86 474.23 505.86 474.23 505.86 474.23 505.86 477.85 509.21 481.01 509.34 483.3 511.02 512.13 507.49 518.94 506.65 520.55 502.52 525.77 505.94 527.26 504.32 529.14 508 531.3 504.29 532.84 507.79 540.92 514.89 537.74 516.25 537.58 516.25 537.58 521.89 536.93 522.88 536.17"/>
    <polygon id="itaborai" class="bairro" points="570.85 512.41 555.38 512.41 540.1 517.41 540.09 517.44 540.02 517.44 540.02 517.44 538.44 517.44 538.24 520.11 538.16 521.09 533.11 527.85 533.11 527.85 533.11 527.85 532.46 528.12 529.62 529.31 529.89 531.15 529.89 531.15 529.89 531.15 528.97 531.85 521.99 537.17 516.25 537.83 516.25 542.74 529.93 548.07 529.93 548.07 529.93 548.07 530.82 553.03 531.43 556.42 534.86 560.1 536.58 561.94 540.58 561.94 545.42 575.22 555.86 575.22 569.14 570.14 578.5 568.51 581.08 569.92 585.58 567.32 586 567.03 580.93 563.72 580.99 563.63 580.99 563.63 584.33 558.5 579.57 555.05 566.95 555.05 566.95 555.05 566.75 555.05 573.85 549.9 570.74 550.03 570.74 550.03 570.74 550.03 570.69 544.69 568.97 544.87 568.97 544.87 568.97 544.87 567.34 541.56 568.61 540.18 569.49 539.22 575.06 539.47 577.59 539.59 582.56 525.97 570.85 512.41"/>
    <polygon id="tangua" class="bairro" points="594.79 570.38 596.65 571.87 610.37 572.11 610.09 569.37 602.35 568.74 606.69 565.42 603.55 563.25 603.43 560.16 606.54 556.57 598.15 555.34 601.83 548.34 598.1 546.38 596.74 536.49 592.58 536.37 582.75 526.17 581.55 529.47 577.76 539.85 577.76 539.85 577.76 539.85 575.2 539.73 569.59 539.48 567.64 541.61 568.5 543.35 569.12 544.6 570.94 544.41 570.99 549.77 574.66 549.62 574.66 549.62 574.67 549.62 574.35 549.85 567.7 554.8 579.65 554.8 584.67 558.43 584.67 558.43 584.67 558.43 581.33 563.56 591.3 570.26 594.79 570.38"/>
    <polygon id="rio_de_janeiro" class="bairro" points="497.72 555.81 494.94 552.26 489.4 554.11 480.75 552.3 475.64 552.37 464.05 558.07 458.53 558.95 455.09 557.23 456.81 555.84 456.81 550.71 441.48 543.78 438.43 545.4 438.25 548.82 434.8 552.36 431.35 550.68 429.67 552.27 424.47 573.07 422.55 568.22 412.47 584.04 398.89 596.8 407.37 605.11 407.18 596.45 415.78 591.41 417.43 587.93 422.56 587.84 424.28 584.36 425.97 586.14 427.81 584.48 436.4 584.39 441.71 579.27 446.51 575.73 448.56 577.47 454.99 572.51 462.3 575.96 465.39 575.96 472.29 574.26 473.83 570.43 476.15 572.53 486 570.99 494.25 559.03 492.48 559.49 497.72 555.81"/>
    <polygon id="duque_de_caxias" class="bairro" points="505.37 517.41 509.78 512.99 513.03 514.37 519.34 511.15 527.14 511.15 529.24 514.62 532.37 514.38 535.43 512.91 542.32 503.94 546.04 507.37 549.56 502.63 551.26 500.81 550.64 496.34 555.91 490.69 563.09 487.13 561.3 482.57 564.33 479.43 566.29 475 566.29 473.87 546.2 483.79 530.65 480.42 521.98 483.84 521.98 478.44 507.96 466.03 506.34 457.79 506.34 444.69 501.49 449.89 499.61 447.73 489.66 448.1 483.13 443.29 482.29 443.99 480.48 430.83 456.89 446.04 467.66 489.86 481.56 504.52 481.49 504.54 499.5 527.95 505.37 517.41"/>
    <polygon id="japeri" class="bairro" points="414.9 661.69 516.67 658.34 509.84 658.22 511.58 665.17 516.55 666.94 516.55 665.17 518.32 663.43 515.3 663.34 513.23 659.99 514.78 658.5 514.9 661.69"/>
    <polygon id="sao_joao_de_meriti" class="bairro" points="529.71 548.25 516 542.91 516 537.86 514.96 537.98 512.46 539.1 507.78 541.2 497.63 546.65 492.27 553.3 492.27 556.57 495.51 556.57 488.83 563.64 488.83 567.07 485.46 572.16 502.18 576.38 505.55 577.23 505.55 577.24 505.61 577.25 510.92 582.25 516.19 580.75 516.19 580.75 516.19 580.75 519.71 588.8 521.2 585.73 525.19 584.44 526.34 584.07 526.34 581.96 545.17 575.27 540.41 562.19 536.47 562.19 536.47 562.19 536.47 536.47 534.71 560.31 531.19 556.54 529.71 548.25"/>
    <polygon id="mesquita" class="bairro" points="484.99 566.9 483.62 565.29 482.27 565.29 483.68 566.9 484.99 566.9"/>
    <polygon id="nilopolis" class="bairro" points="481.63 572.28 480.39 573.56 481.85 573.81 481.63 572.28"/>
    <polygon id="belford_roxo" class="bairro" points="480.59 575.63 483.27 577.24 483.31 575.63 480.59 575.63"/>
    <polygon id="nova_iguacu" class="bairro" points="483.53 547.92 485.13 546.49 485.13 543.1 483.03 544.98 483.53 547.92"/>
</g>
<g id="regiao_01" class="regiao">
  <polygon id="japeri" class="bairro" points="341.18 535.68 346.27 527.83 351.48 525.67 351.48 525.67 351.48 525.67 352.98 527.54 361.87 525.59 361.87 524.42 361.76 524.4 361.87 524.28 361.87 524.28 361.87 524.28 361.87 524.17 361.95 524.19 368.16 517.5 363.65 517.5 363.65 517.5 363.65 517.5 361.52 512.13 358.52 510.63 358.52 510.63 358.52 510.63 358.25 503.93 345.28 514.1 345.03 514.3 345.03 514.3 344.84 514.45 344.83 514.25 336.18 505.76 332.94 509 331.35 515.7 334.44 517.48 337.93 515.48 340.03 517.58 339.39 521.03 336.69 524.48 339.93 534.81 341.07 535.63 341.18 535.68"/>
  <polygon id="duque_de_caxias" class="bairro" points="414.88 525.9 414.89 525.9 414.94 525.95 415.07 526.08 415.06 526.08 416.41 527.42 418.26 529.28 423.62 527.48 425.06 529.82 427.18 533.25 425.48 538.4 423.32 544.95 423.36 553.46 423.38 556.48 430.49 556.48 435.39 558.4 439.35 550.52 443.78 544.84 447.63 542.79 450.75 539.47 454.15 539.41 455.69 536.51 452.47 532.54 455.62 531.14 452.54 522.53 454.5 517.54 461.09 508.92 452.61 492.15 444.05 495.22 441.92 491.44 447.29 481.32 449.63 481.32 452.25 482.88 453.9 479.94 432.04 467.77 423.61 480 413.53 481.57 411.39 479.64 409.94 483.25 402.99 484.97 402.94 486.44 406.6 489.63 408.22 493.17 408.22 493.17 408.22 493.17 408.18 493.24 407.84 493.74 400.11 504.66 409.97 508.75 404.37 517.22 406.82 519.04 409.7 521.18 409.71 521.18 410.98 522.12 414.88 525.9"/>
  <path id="mesquita" class="bairro" d="M405.86,549.81l-6.51-3.48h0L400.8,545l.13-.12-2.72-1.1-2.28,2.65h0l-3.28,1.08-.91.6-1.81,1.2-3.43,3.1h0l-.32,0-.54,0-3.53,1.68-1,.23-.14,0-4,.94,2.63,2.45h0l-.07.56-.18,1.47.47.77,1,1.59h-.07l.29,3,4.94,1.51,10.56-8.12,4.65-3.57Z"/>
  <polygon id="nilopolis" class="bairro" points="398.91 557 386.07 566.86 389.15 570.3 397.84 566.93 400.92 561.52 406.07 560.08 405.4 559.43 401.15 555.28 398.91 557"/>
  <path id="sao_joao_de_meriti" class="bairro" d="M408,548l-6.62,7.14,3.62,3.53,1.4,1.36,16.78-3.5-.05-9.36v-2l-4.56.86Z"/>
  <path id="belford_roxo" class="bairro" d="M414.86,526.23l-.32.24-1.64,1.23h0l-3-1.5-3.42,1.3-10.24,3.87-.47,3.55-1.27,1.23,3.75,7.28,2.95,1.26h0l.19.08h0l-1.6,1.5,3.62,1.94,2.64,1.41,1.78-1.88h.05l5.44-1,9.79-1.86,3.8-11.55-3.39-5.5-5.32,1.78h0Z"/>
  <path id="nova_iguaçu" class="bairro" d="M412.59,524.09l-.46-.44-2.69-2.32-1.39-1-4.13-3.06h0l5.57-8.41-9.88-4.1.35-.49,7.87-11.14-.51-1.1-1-2.25-2.08-1.82-1.62-1.41,0-.62,0-.94h-3l-7.21-3.41-6.48,5-2-1.74-4.63,3.41-5.37,5.18-8.6.09-1.94,1.76-1.61-1.7-1.63,3.3-5.13.09-1.62,3.41-8.53,5,.18,8.56,8.45-6.63,4.76-3.73.08-.07.11-.08.14,3.42.15,3.62.89.45,2.06,1,2.1,5.3h4.92l-6.49,7.35c1.78.47,3.75,1.17,5.54,1.6s3.9.16,5.84.15l.19.84s-1,.23-1.29.34-1.34.82-1.83,1.08-5.13,3.27-5.36,3.49c0,0,1.29,2.5,1.29,2.5a12.32,12.32,0,0,1-.63,2.24c-.06.13-.83,2.51-.9,2.67.25.09,3.24.81,3.24.81v.11l-1.05,2.84-2,.58-3.27,1-15.58-1.51-3.49,6.45v1.93l-3-.1,3,11.9-7,5.53-4.69,1.47-1.4,3.18,8.27-1.64,4.76,1.68,8.54-.09,1.38-6.76,3.8-1.8,23.63-3.08-1.28-2.11h0l.24-2-2.89-2.68h0l5.62-1.3,1.42-.68,2.13-1h0l.32,0,.52,0,2.17-2,1.2-1.1,2.77-1.83,1.41-.46,1.83-.6,2.25-2.7-3.82-7.41h0l1.34-1.3.48-3.54v-.07l11.95-4.52,1.95-.74,3,1.48.49-.37,1.31-1Z"/>
  <path id="queimados" class="bairro" d="M373.5,526.94c0-.15-.06-.28-.09-.42a24.55,24.55,0,0,1-5.62-.09c-1-.21-1.92-.57-2.89-.8s-1.85-.48-2.78-.73v.89h0l-1.56.34-7.68,1.68-1-1.2-.52-.65-5,2.06h0l-5.12,8-.05,0,0,0-.3-.21-1.07-.58-1.77,7.94,1.82,8.13h2.83v-1.65l1.48-2.73,2.12-3.91,9.23.89,6.46.63,5.07-1.49.33-.89.65-1.78c-.54,0-3.12-.84-3.12-.84s.27-.89.37-1.14,1-3.19,1-3.44c0,0,0-.31.06-.39l-1.25-2.54c.36-.28,5.67-3.82,6.14-4.09a7.75,7.75,0,0,1,1.29-.64l.43-.1a2.06,2.06,0,0,1,.47-.13h0C373.51,527,373.51,527,373.5,526.94Z"/>
</g>
<g id="regiao_capital" class="regiao">
  <polygon class="bairro" points="291.8 628.71 314.44 626.86 316.43 626.62 291.8 627.11 291.8 628.71"/>
  <polygon class="bairro" points="467.7 594.46 465.92 589.18 469.35 587.66 469.4 585.96 466.19 584.43 466.06 582.66 455.83 582.66 453.91 580.63 457.38 575.78 448.94 577.42 447.25 568.8 438.14 560.95 437.23 561.63 435.37 558.66 430.44 556.73 423.27 556.73 406.34 560.26 401.08 561.74 398.02 567.13 389.08 570.59 385.82 566.95 380.68 565.39 380.38 562.21 356.72 565.29 353.07 567.02 351.67 573.86 342.89 573.95 338.15 572.28 329.71 573.95 310.69 575.62 309.03 580.35 296.95 584.44 296.95 593.05 308.27 605.85 330.81 623.7 316.63 626.59 319.46 626.24 331.02 625.18 351.79 625.18 358.3 628.77 358.3 631.98 363.42 631.98 363.42 628.61 366.7 625.14 382.17 620.02 385.52 621.63 385.52 620.14 389.76 618.18 404.56 614.95 431.29 614.95 425.26 609.86 417.66 610.11 416.44 608.18 419.83 606.24 428.36 609.88 433.63 616.5 438.65 611.69 447.23 611.5 452.46 608.1 461.01 609.63 462.63 608.22 460.88 606.51 462.46 604.82 469.49 601.17 469.49 599.44 472.66 597.95 472.66 594.7 466.58 597.88 464.32 598.04 467.7 594.46"/>
  <polygon class="bairro" points="455.54 560.28 461.42 561.9 462.89 565.38 468.72 563.39 465.69 562 464.16 556.53 470.98 553.36 470.98 550.26 465.85 552.13 465.94 550.39 461.18 554.79 450.4 551.81 445.94 558.69 443.98 558.41 442.5 560.41 447.38 565.38 455.54 560.28"/>
  <polygon class="bairro" points="452.36 570.48 454.13 567.12 447.3 567 449.04 573.95 454.01 575.72 454.01 573.95 455.77 572.21 452.76 572.12 450.69 568.77 452.24 567.28 452.36 570.48"/>
</g>
  </svg>