<svg id="regiao_10" data-name="regiao 10" xmlns="http://www.w3.org/2000/svg" viewBox="0 0 925.6 709.6">
    <style>
        .bairro {
            fill: #f2929e; /* Cor base da Região 10 (rosa claro) */
            stroke: #FFFFFF;
            stroke-width: 0.5;
            transition: fill 0.2s ease-in-out;
        }
        .bairro:hover {
            fill: #FFD700 !important; /* Amarelo dourado para hover */
            cursor: pointer;
        }
        .bairro.selecionado {
            fill: #E44D26 !important; /* Laranja para o item clicado/selecionado */
        }
    </style>

    <g id="barra_do_pirai" class="bairro">
        <path d="M456.1,523.8l6.2-11.8,7.1-63.1h6.1l.4-12.4-20.2-14.4,26.9-35.4-27.8-40.8-6.3-7.3-13.8.5v-7.5l-11.3-.4-24.6,22-13.2-.5v13h-6.5l-.5-19.2-13.5,6.2,19.3-48.4L366,290.7l-27.3,13.9L304.3,325l-28.5,35.6-7.1-15.7,12.1-7.1V325.1H261.1L254.3,311l-7.2,7.7L240,284.6H199.2L177.5,272v5.8l-41.4,33.9L117.3,359l90.1,27.6-75.4,63,3.4,2.1a16.82,16.82,0,0,1,7.1,2.5,19.11,19.11,0,0,1,8.9,14.6l20.9,20.9,13.8-14.3,27.4,35.1h90l54.9,13.9,6.9-12.3V497.3l14.9.6,20.2,12.9L414,504l14.2,14.4-20.7,14.1v12.7h27.3l6.7-14.3Z"/>
    </g>
    <g id="valenca" class="bairro">
        <polygon points="240.8 283.4 247.7 316.4 254.6 309 261.8 323.9 282 323.9 282 338.2 270.1 345.2 276.1 358.5 303.7 324 338.3 303.5 366.2 289.3 385.8 303.7 367 350.5 379.6 344.7 380.1 364.5 384.6 364.5 384.6 351.5 398.5 352 423 329.9 435.7 330.5 435.7 338 449 337.4 455.6 345.2 483.4 385.8 502.3 367.8 502.3 350.7 537.1 364.8 545.5 339 564.9 338.7 564.9 317.7 580.1 317.7 572.3 296.8 584.5 289.9 607.3 290.3 627.2 276.4 642.2 275.6 661.5 256 654.3 256 662.1 248.6 655.1 234.3 655.9 234.3 660.7 234.3 634.1 220.5 648.3 214.5 634.7 208.8 640.7 186.5 622.3 186.5 606.1 165.4 593.3 165.4 586.7 159.2 585.9 137.8 565 123.7 580 111 585.9 55.4 573.1 35 566.2 42.7 559 20.8 531.5 28.3 503.5 49.5 466.7 27 474.6 27 469.7 7.7 380.8 48.3 344.9 48.6 338.6 62.6 235.4 97.4 235.2 103.9 206.8 118.2 179 104 166 118.1 130.8 117.6 110 146.2 109.5 132 93.2 131.7 88.4 145.7 74.9 145.9 75.7 173.5 62.1 173 55 180.1 41.1 173 40.8 193.7 12.5 193.7 0 206.7 33.5 213.4 26.7 233.8 47.6 248.1 47.6 277.2 35.2 283 47.6 296.8 47.6 303.5 75.4 310.8 80.6 303.4 104.1 302.7 177.6 270.1 177.6 270.6 199.5 283.4 240.8 283.4"/>
    </g>
    <g id="mendes" class="bairro">
        <polygon points="523.4 557.8 524.4 545.2 543.2 537.5 517.9 491 475.8 449.7 470.4 449.7 463.3 512.1 456.9 524.4 442.2 531.5 435.9 545.1 441.8 545.1 456.4 566.5 460.5 594.3 509.8 557.8 523.4 557.8"/>
    </g>
    <g id="paracambi" class="bairro">
        <polygon points="433.8 616.2 428.8 635.9 387.3 656.9 414.6 676.6 414.4 696.7 446.4 703.4 462.1 703.4 469.1 709.6 482.9 709.6 489.1 696.7 523.9 656.1 523.9 640.1 573.1 654.5 579.5 628.1 609.3 599.3 646.9 563.9 648.8 560.9 628.1 518.9 614.7 566.6 573.4 587.4 544.9 573.5 558 553.1 551.8 546.2 532.3 558.8 524.3 558.8 524.4 557.8 523.9 557.8 523.9 558.8 510.1 558.8 460.6 595.4 462.5 608.3 433.8 616.2"/>
    </g>
    <g id="engenheiro_paulo_de_frontin" class="bairro">
        <polygon points="669.4 442.3 519.1 491 544.6 538 525.4 546 524.4 557.8 532 557.8 552 545 559.3 553 546.4 573.1 573.4 586.3 613.8 565.9 627.9 516.1 649.5 560 689.2 498.4 682.9 449.6 669.4 442.3"/>
    </g>
    <g id="vassouras" class="bairro">
        <polygon points="808.6 180.1 794.5 180.1 779 214.4 746 201.3 731 243.3 691.4 235.3 663 255.8 642.6 276.6 627.6 277.4 607.7 291.3 584.7 290.9 573.6 297.3 581.6 318.7 565.9 318.7 565.9 339.7 546.2 340 537.7 366.2 503.3 352.2 503.3 368.2 483.7 386.9 457.2 421.7 476.9 435.9 476.5 449.1 518.5 490.1 669.5 441.2 683.8 448.9 690.2 498.3 697.1 515.8 717.5 434.7 725 427.6 738.8 434.4 752 420.9 752.7 406.9 762.2 401.9 765.7 399.6 751.8 382.1 771.8 353.1 764.8 343.6 751.5 306.7 744.5 312.9 752 282.4 925.6 242.1 870.7 184 869.8 180.4 834.3 200.5 808.6 180.1"/>
    </g>
    <g id="rio_das_flores" class="bairro">
        <polygon points="580.9 111.5 566.6 123.6 587 137.2 587.7 158.7 593.7 164.4 606.6 164.4 622.8 185.5 641.9 185.5 635.9 208.2 650.9 214.5 636.5 220.6 664.8 235.3 656.8 235.3 663.3 248.8 656.8 255 662.5 255 691.1 234.3 730.4 242.1 745.4 199.9 778.5 213.1 793.8 179.1 809 179.1 834.4 199.3 869.6 179.3 827.2 7.2 803 21.2 753.3 21.6 745.9 7.3 732.8 21.1 690.6 35.2 684.2 29 669.4 21.3 662.5 0 656.3 0 649.2 21.6 635.4 21.1 635.4 27.5 627.9 36.1 627.3 21.3 601 14.4 580.5 21.5 574.4 33.5 573.8 34.2 587 55.1 580.9 111.5"/>
    </g>
</svg>