<svg id="regiao_01" xmlns="http://www.w3.org/2000/svg" data-name="regiao 01" viewBox="0 0 880.02 710.18">
  <style>
    .bairro {
      fill: #f18637; /* Cor base da Região 01 */
      stroke: #FFFFFF;
      stroke-width: 0.5;
      transition: fill 0.2s ease-in-out;
    }
    .bairro:hover {
      fill: #FFD700 !important;
    }
    .bairro.selecionado {
      fill: #E44D26 !important;
    }
  </style>

  <g id="japeri" class="bairro">
    <polygon points="76.52 455.23 110.62 402.63 145.52 388.13 145.52 388.13 145.52 388.13 155.52 400.63 215.12 387.63 215.12 379.73 214.32 379.63 215.12 378.83 215.12 378.83 215.12 378.83 215.12 378.13 215.62 378.23 257.22 333.43 227.02 333.43 227.02 333.43 227.02 333.43 212.72 297.43 192.62 287.43 192.62 287.43 192.62 287.43 190.82 242.53 104.02 310.63 102.32 312.03 102.32 312.03 101.02 313.03 100.92 311.63 43.02 254.83 21.32 276.53 10.62 321.33 31.32 333.33 54.72 319.93 68.82 333.93 64.52 357.03 46.42 380.23 68.12 449.33 75.82 454.83 76.52 455.23"/>
  </g>
  <g id="duque_de_caxias" class="bairro">
    <polygon points="570.12 389.73 570.22 389.73 570.52 390.03 571.42 390.93 571.32 390.93 580.42 399.83 592.82 412.33 628.72 400.23 638.32 415.93 652.52 438.93 641.12 473.43 626.72 517.33 626.92 574.33 627.12 594.53 674.72 594.53 707.52 607.43 734.02 554.63 763.72 516.53 789.52 502.83 810.42 480.63 833.22 480.23 843.52 460.73 821.92 434.13 843.02 424.83 822.42 367.13 835.52 333.73 879.72 275.93 822.92 163.63 765.52 184.23 751.32 158.83 787.22 91.13 802.92 91.13 820.42 101.53 831.52 81.83 685.12 0.33 628.62 82.23 561.12 92.73 546.82 79.83 537.12 104.03 490.52 115.53 490.22 125.43 514.72 146.73 525.52 170.43 525.52 170.43 525.52 170.43 525.32 170.93 523.02 174.33 471.22 247.43 537.32 274.83 499.72 331.53 516.22 343.73 535.42 358.03 535.52 358.03 544.02 364.33 570.12 389.73"/>
  </g>
  <g id="mesquita" class="bairro">
    <path d="M509.72,549.83l-43.6-23.3h0l9.7-8.9.9-.8-18.2-7.4-15.3,17.8h0l-22,7.2-6.1,4-12.1,8,l-23,20.8h-5.7l-23.6,11.3L344,580h-.9l-26.8,6.3,17.6,16.4h0l-.5,3.8-1.2,9.8,3.1,5.2,6.7,10.7h-.5l1.9,20.1,l33.1,10.1,70.7-54.4,31.1-23.9Z"/>
  </g>
  <g id="nilopolis" class="bairro">
    <polygon points="463.22 598.03 377.22 664.03 397.82 687.13 456.02 664.53 476.62 628.23 511.12 618.63 506.62 614.33 478.22 586.53 463.22 598.03"/>
  </g>
  <g id="sao_joao_de_meriti" class="bairro">
    <path d="M524.12,537.73l-44.3,47.8,24.2,23.6,9.4,9.1,112.4-23.4-.3-62.7v-13.4l-30.5,5.8Z"/>
  </g>
  <g id="belford_roxo" class="bairro">
    <path d="M570,391.93l-2.1,1.6-11,8.2h0l-20.1-10-22.9,8.7-68.6,25.9-3.1,23.8-8.5,8.2,25.1,48.8,19.8,8.4h0l1.3.5h0l-10.7,10,24.2,13,17.7,9.4,11.9-12.6h.3l36.4-6.7,65.6-12.5,25.5-77.4-22.7-36.8-35.6,11.9h0Z"/>
  </g>
  <g id="nova_iguacu" class="bairro">
    <path d="M554.82,377.53l-3.1-2.9-18-15.5-9.3-6.7-27.7-20.5h0l37.3-56.3-66.2-27.5,2.3-3.3,52.7-74.6-3.4-7.4-6.7-15.1-13.9-12.2-10.9-9.4v-10.5h-20.1l-48.3-22.8-43.3,33.5-13.4-11.7-31,22.8-36,34.7-57.6.6-13,11.8-10.8-11.4-10.8,22.2-34.4.6-10.9,22.8-57.1,33.5,1.2,57.3,56.6-44.4,31.9-25,.5-.5.7-.5L193,262l1,24.2,6,3,13.8,6.7,14.1,35.5h33l-43.5,49.2c11.9,3.1,25.1,7.8,37.1,10.7s26.1,1.1,39.1,1l1.3,5.6s-6.7,1.5-8.6,2.3-9,5.5-12.3,7.2-34.4,21.9-35.9,23.4l8.6,16.7a79.73,79.73,0,0,1-4.2,15c-.4.9-5.6,16.8-6,17.9,1.7.6,21.7,5.4,21.7,5.4v.7l-7,19-13.4,3.9-21.9,6.7-104.4-9.8-23.4,43.2v12.9l-20.1-.7,20.1,79.7-46.9,37-31.4,9.9-9.4,21.3,55.4-11,31.9,11.3,57.2-.6,9.2-45.3,25.5-12.1,158.3-20.6-8.6-14.1h0l1.6-13.4-19.4-18h0l37.6-8.7,9.5-4.6,14.3-6.7h5.6l14.5-13.4,8-7.4,18.6-12.3,9.4-3.1,12.3-4,15.1-18.1-25.6-49.6h0l9-8.7,3.2-23.7V425l80-30.3,13.1-5,20.1,9.9,3.3-2.5,8.8-6.7Z"/>
  </g>
  <g id="queimados" class="bairro">
    <path d="M293,396.63a12.66,12.66,0,0,0-.6-2.8,168.8,168.8,0,0,1-37.6-.6c-6.7-1.4-12.9-3.8-19.4-5.4s-12.4-3.2-18.6-4.9v6h0l-10.4,2.3L155,402.53l-6.7-8-3.5-4.4-33.5,13.8h0L77,457.53h-.3l-2-1.4-7.2-3.9-12,53.1,12.2,54.5h19v-11.1l9.9-18.3,14.2-26.1,61.8,6,43.3,4.2,34-10,2.2-6,4.4-11.9c-3.6,0-20.9-5.6-20.9-5.6s1.8-6,2.5-7.6,6.7-21.4,6.7-23a7.11,7.11,0,0,1,.4-2.6l-8.4-17c2.4-1.9,38-25.6,41.1-27.4a53.11,53.11,0,0,1,8.6-4.3l2.9-.7a18.12,18.12,0,0,1,3.1-.9h0C293,397,293,397,293,396.63Z"/>
  </g>
</svg>