<svg id="regiao_02" xmlns="http://www.w3.org/2000/svg" data-name="regiao 02" viewBox="0 0 771.15 710.13">
  <style>
    .bairro {
      fill: #fecc2c; /* Cor base da Região 02 */
      stroke: #FFFFFF;
      stroke-width: 0.5;
      transition: fill 0.2s ease-in-out;
    }
    .bairro:hover {
      fill: #FFD700 !important;
    }
    .bairro.selecionado {
      fill: #E44D26 !important;
    }
  </style>

  <g id="tangua" class="bairro">
    <polygon points="694.67 535.07 703.77 542.37 770.87 543.57 769.47 530.17 731.67 527.07 752.87 510.77 737.47 500.17 736.87 485.07 752.17 467.57 711.07 461.47 729.07 427.27 710.87 417.67 704.17 369.37 683.87 368.77 635.77 318.87 629.87 334.97 611.37 385.77 611.37 385.77 611.37 385.77 598.87 385.17 571.37 383.97 561.87 394.37 566.07 402.87 569.07 408.97 577.97 408.07 578.27 434.27 596.17 433.57 596.17 433.57 596.27 433.57 594.67 434.67 562.17 458.87 620.57 458.87 645.17 476.67 645.17 476.67 645.17 476.67 628.87 501.67 677.57 534.47 694.67 535.07"/>
  </g>
  <g id="mage" class="bairro">
    <polygon points="200.17 71.67 200.17 71.77 200.97 74.47 150.17 116.87 132.47 107.77 41.27 150.77 0.57 152.27 42.17 234.67 10.17 275.87 0.27 301.07 16.77 343.27 0.57 350.47 15.27 368.67 101.57 342.37 134.77 349.87 141.07 342.87 149.57 316.27 158.07 324.27 158.07 316.17 174.07 316.77 184.27 299.87 208.57 317.47 242.07 316.57 263.77 288.37 283.67 249.97 274.97 98.57 258.47 83.07 258.47 65.57 216.87 41.27 193.07 50.37 200.17 71.67"/>
  </g>
  <g id="guapimirim" class="bairro">
    <polygon points="342.97 367.77 375.97 342.67 374.57 333.47 374.57 333.47 374.57 333.47 380.87 330.77 392.17 326.07 413.67 297.47 416.47 293.57 416.87 288.57 417.97 274.97 426.17 274.97 433.77 250.17 417.77 224.17 428.07 198.57 452.27 190.77 476.47 159.07 442.57 118.37 433.77 90.97 442.47 83.07 442.47 74.17 426.77 66.57 401.47 32.07 403.37 14.77 416.37 7.57 383.57 0.27 334.27 32.67 300.47 16.67 275.67 24.07 267.47 6.87 249.37 16.37 242.27 6.97 217.77 40.47 259.77 64.87 259.77 64.87 259.77 64.87 259.77 82.57 276.07 97.97 276.77 109.17 284.97 250.17 267.67 283.47 263.57 291.37 243.37 316.87 260.07 324.17 252.17 333.37 270.17 343.97 252.07 351.47 269.17 390.97 303.87 375.47 310.57 374.67 310.57 374.67 338.07 371.47 342.97 367.77"/>
  </g>
  <g id="itaborai" class="bairro">
    <polygon points="577.57 251.57 501.87 251.57 427.17 275.97 427.17 276.17 426.77 276.17 426.77 276.17 419.07 276.17 418.07 289.17 417.67 293.97 392.97 327.07 392.97 327.07 392.97 327.07 389.77 328.37 375.97 334.17 377.27 343.17 377.27 343.17 377.27 343.17 372.77 346.67 338.57 372.67 310.57 375.87 310.57 399.87 377.47 425.97 377.47 425.97 377.47 425.97 381.77 450.17 384.77 466.77 401.57 484.77 409.97 493.77 429.57 493.77 453.17 558.77 504.27 558.77 569.17 533.87 614.97 525.97 627.57 532.87 649.57 520.07 651.67 518.67 626.87 502.47 627.17 502.07 627.17 502.07 643.47 476.97 620.17 460.07 558.47 460.07 558.47 460.07 557.47 460.07 592.27 434.87 577.07 435.57 577.07 435.57 577.07 435.57 576.77 409.47 568.37 410.27 568.37 410.27 568.37 410.27 560.37 394.17 566.57 387.37 570.87 382.67 598.17 383.87 610.57 384.47 634.87 317.87 577.57 251.57"/>
  </g>
  <g id="sao_goncalo" class="bairro" data-id="sao_goncalo">
    <polygon points="376.37 426.87 309.27 400.77 309.27 376.07 304.27 376.57 291.97 382.07 269.07 392.37 219.47 418.97 193.27 451.57 193.27 467.57 209.07 467.57 176.47 502.07 176.47 518.87 159.97 543.77 241.77 564.37 258.17 568.57 258.17 568.67 258.47 568.67 284.47 593.17 310.27 585.77 310.27 585.77 310.27 585.77 327.47 625.17 334.77 610.17 354.27 603.87 359.87 602.07 359.87 591.67 451.97 558.97 428.67 494.97 409.47 494.97 409.47 494.97 409.47 494.97 400.77 485.87 383.57 467.37 376.37 426.87"/>
    <polygon points="157.67 518.07 150.97 510.17 144.37 510.17 151.27 518.07 157.67 518.07"/>
    <polygon points="150.47 425.27 158.37 418.27 158.37 401.67 148.07 410.87 150.47 425.27"/>
  </g>
  <g id="niteroi" class="bairro" data-id="niteroi">
    <polygon points="150.47 569.77 150.37 570.77 149.77 570.37 127.07 576.47 134.87 593.67 118.47 602.17 125.57 617.77 142.67 609.97 150.97 617.97 168.07 619.17 177.37 636.37 150.97 652.37 134.87 635.77 134.37 643.47 119.97 651.97 142.27 651.97 142.57 659.67 151.17 676.57 220.17 683.57 233.67 692.87 233.67 709.27 242.67 701.87 258.87 709.87 284.27 702.47 268.27 693.97 268.27 685.97 359.87 610.07 359.87 603.27 356.37 604.47 335.67 611.17 328.97 624.87 327.37 628.07 309.57 587.27 290.97 592.57 284.17 594.47 257.57 569.67 194.77 553.87 159.37 544.87 150.47 569.77"/>
    <polygon points="141.17 544.37 135.17 550.67 142.27 551.87 141.17 544.37"/>
    <polygon points="136.17 560.77 149.27 568.67 149.47 560.77 136.17 560.77"/>
  </g>
</svg>