<svg id="regiao_04" xmlns="http://www.w3.org/2000/svg" data-name="regiao 04" viewBox="0 0 1013.23 671.74">
  <style>
    .bairro {
      fill: #29addd; /* Cor base da Região 04 */
      stroke: #FFFFFF;
      stroke-width: 0.5;
      transition: fill 0.2s ease-in-out;
    }
    .bairro:hover {
      fill: #FFD700 !important;
    }
    .bairro.selecionado {
      fill: #E44D26 !important;
    }
  </style>

  <g id="quatis" class="bairro">
    <path d="m558.15 76.66-21.5-14.5-11.19 6.8v5.5h-18.71l-11.69 12.4-24.7 6.2-6.61 17.1-5.69 5.7v18.3l23.39 24.2 7.11-5.9 36.8 5.9-28.61 41.8 40.3 25.3 2.7 6.8 15.11 6.3 5.5-14 13.79 7.3v-40.7l16.6-42.4-4.89-9 48.29-12-5.79-43.1 17.6.5v-5.5l-11.6-12.8 11.6-5.5v-24.7l-18.71-12.7 5.9-17.8-29.19-5.9-10.6 6.4-13.61-.4-17.89 18.3-13-.3-6.4-4.9-5.31 6.2v28.8l21 22.3z"/>
  </g>
  <g id="itatiaia" class="bairro">
    <path d="m188.96 259.26-12.61 9.9 12.5 38.8 13 9.7 16.11-6.4v-17.2l18.2-12.4-12.5-7.9 27.69-24.4 33.21-10.6 7.3-12.6 22.79-4.7-4.5-7.1 12.71-7.4-6.5-17.3-105.51-34.6-23.19-15 31.3-23 30.29 5.2 11.5-36.5-5.59-5.6-18.6 5.9-17.6-12-24.9 5.9-47.5 55 42.4 104.7v19.6z"/>
  </g>
  <g id="resende" class="bairro">
    <path d="m467.25 323.06 9.2-23.7-6-31.8 5.91-9.8-8.3-13.1h-23.11l-18.39-30.2 24.8-31.1-7.71-19.1 26.71 6.3 10.2-11.8-23.41-24.3v-18.9l5.91-5.9 6.69-17.4 24.9-6.2 11.71-12.4h18.19v-5.2l12.2-7.3 15.3 10.3-15.8-16.7v-29.3l-4.89-22.3-.21 3.9-24.5-5.4-30.09 17.2-1-5.7-11.61 5.4-25.8-5.9-24.2 18.8-5.8-12.3-25-6.6-35.5.8-6.2 24-6.39-.5-66.41 50.2-7.09-1-11.6 37.2-30.8-5.3-29.91 22.1 22 14.2 105.81 34.6 6.89 18.5-12.59 7.3 4.79 7.5-23.7 4.8-7.3 12.5-33.3 10.7-26.79 23.4 12.79 8-19 12.9v17.4l-17.19 6.8-13.6-10.2-12.71-39.6 12.71-10v-19l-42.4-104.7-6-6.1h-37.5l-17.41-12.6-18.19 12.7-19.21-.1-42.6 19.3-4.4 11.2 54.7 4.7 10.81 12.1 26.8 44.1-7.3 10.7 11.89 19.5-5.09 11.9h17.79l11 12.1 18.9 12.8-11.39 23.1 17.2-11.5 18.4 12.6-5.31 35.9 11.21 12.6 13.29-6.3 10.5 12.4 6.91-11.9 17.9 17.3 13.4-24.7 11.1 12.6 13.3-4.6 17.79 11.6-5.7 11.7 6.3 5.7v-5.4l12.31 1 5.5 10.3 11.89-11.8 11.8-24 18.81 11.8 36.5-17.2 29.3 5.4-11.61-18.4 19.11-12 31.29 6-12.29 6.8 11.39 6v18.1l11.2-.6-4.8-11.6 11.3-11-6.09-14.3h16.89z"/>
  </g>
  <g id="rio_claro" class="bairro">
    <path d="m897.25 519.76 6.4-17.5-26.79-6.7 8.79-1.7 6-16.3 12.1-1.3-1.89-28.2-28 10.9-7.71-11.6-24.5 11.7v-18.7l-31.79-20.8-21.71 15.9-18.29-13.4 11.1-24.1-4.6-6.3-30.81-5.7-19.09 12.3-11.81 18.2v14.7l-6.69-15.7 5.59-17.3-13.4-.4-23.19-7-30 7.3-11.6 30.9.1.2-16.81 11 5.31 7-12.81 13.3h-17.9v15.9h-24.2l-13 18.7.41 6.6h-12.1l-6.5 11.2v18.6l18.1 6.7-6.71 6.7-12.39 6.4-11.61 24.1-12.7 6-.19-6.4-11.91-5.8-15.7 16.4h4.11l5.2 12 11.69-11.3 32.21-.5 11.5 24.1h12.4l-5.9 44.1 23.9 17.5 25.1-6.2 10.79 6 13.11-30.7 5.79.2 19.1-19.5 22.9-17.2 25.71 18.1 36.79-6.4 11.21 6 36.39-23.1 6.71 11.7 12.19-6.6 18.1 23.4 23.9 1.6v-7.4l30.1-35.3-5.6-6.3 25.21-5.4 12.29-19.6-18.79-35h6.39z"/>
  </g>
  <g id="barra_mansa" class="bairro">
    <path d="m708.36 392-6.6-35.7-6-13.1 5.6-12.5-5-5.6 11.3-32.3-6.1-11.2-42.1 5.3-19-12v-73.8l12.1-18.2 29.9-11.3 14-13h87.6l-77-23.5 17.2-43.1 36.5-29.9V57L697 85.36l-20.5.6-4.7 6.7L646.26 86l-16.8-.5 5.7 42.8-47.9 11.9 4.5 8.3-16.7 42.7v42l-14.3-7.6-5.5 13.9-16.3-6.7-2.7-6.9-40.1-25.2-21.6 19.8-9.4-.4 3.6 23.8 8.7 13.6-6 10.1 6 31.7-9.5 24.5h-16.3l5.6 13.1h3.1l40 11.7 11.7 11.7 12.2-12.9 19.4 12.7 23.8-5.4 5.6 10.7 12.3-5.3 6.5 11.9 18.5 12.1-5.9 13.5 19.2 6.5 11.2 23.6 11.5-30.5 30.7-7.5 23.3 7.1 6.7.2c-.06.16 1.3-5 1.3-5Z"/>
  </g>
  <g id="pirai" class="bairro">
    <path d="m998.55 439.76-28.09-5.9.09-18.1-24.9-18 37.6-19.1 4.5-17.5 25.21-6.9-4.81-32.7-.5-3.4-12.6-18.3h-30.8v-12.7l17.9-12.1-11.4-11.5-11.89 5.9-18-11.5-12.11-.5v11.6l-6.5 12.6-48.89-12.4-42.11 43.7-25.1-10.2-13.29 27.8h-41.31l-27.09 13.6-16 47.8-1.31 5.1 7.6.2-5.89 18.2 4.89 11.3v-10.6l12.11-18.6 19.5-12.5 31.5 5.8 5.19 7-11.09 23.9 17.19 12.6 21.71-15.9 32.69 21.4v17.9l24-11.5 7.6 11.6 28.5-11 2.1 30.2-12.5 1.4-6 16.2-5.2 1 23.81 6-6.9 19h-5.6l18.1 33.6 35.4-11.8 24.29-22.8-23.19-10.5 3.4-31.7 48.19-37.7z"/>
  </g>
  <g id="porto_real" class="bairro">
    <path d="m470.65 171.56-25.59-6 7.3 18-24.71 31 17.8 29.2h22.3l-3.5-24.4 10.11.5 21.5-19.8 27.89-41.1-35-5.6-6.8 5.7-.3-.3-11 12.8z"/>
  </g>
  <g id="pinheiral" class="bairro">
    <path d="m751.05 300.06-12 .3-14.19 42.6 26.39-13.2h41l13.4-28.1 25.4 10.2 41.1-42.6h-79.1l-23.8-30.6-11.6 12.1.21 36.6-6.81 12.7z"/>
  </g>
  <g id="volta_redonda" class="bairro">
    <path d="m683.16 172.36-29.9 11.4-11.8 17.8v72.9l18.3 11.5 42.3-5.3 6.6 12.1-11.3 32.1 5 5.7-5.7 12.7 5.9 12.8 6 32.6 29.8-89 12-.4 6.5-12-.2-36.4-19-18.9v-.2a11.8 11.8 0 0 0-.4-2 18.12 18.12 0 0 0-1.7-4.6 13.77 13.77 0 0 0-11-7.7l-4.8-2.6 66.1-55.3H697Z"/>
  </g>
</svg>