<svg id="regiao_03" xmlns="http://www.w3.org/2000/svg" viewBox="0 0 1072.06 596.42">
  <style>
    .bairro {
      fill: #a13a8e; /* Cor base da Região 03 */
      stroke: #FFFFFF;
      stroke-width: 0.5;
      transition: fill 0.2s ease-in-out;
    }
    .bairro:hover {
      fill: #FFD700 !important;
    }
    .bairro.selecionado {
      fill: #E44D26 !important;
    }
  </style>
<g id="marica" class="bairro">
    <polygon points="300.45 463.57 294.15 458.47 282.45 458.07 265.75 446.87 248.55 457.37 239.25 452.27 207.85 457.67 162.85 474.87 127.15 474.87 63.65 497.47 63.65 509.97 0.25 562.47 0.25 567.07 11.65 573.17 28.95 568.17 79.45 571.57 101.15 573.17 158.85 566.47 252.65 556.17 295.05 555.57 306.75 562.97 318.65 544.27 356.25 537.97 356.25 517.17 352.75 515.57 340.85 510.37 318.45 510.37 318.45 480.17 318.45 480.17 318.45 480.17 318.55 480.07 332.85 464.37 300.45 463.57"/>
  </g>
  <g id="saquarema" class="bairro">
    <polygon points="505.75 435.47 498.55 440.47 498.55 440.47 498.55 440.47 462.15 434.57 451.65 417.47 434.95 424.17 434.95 424.17 434.95 424.17 422.75 411.17 404.05 421.77 360.25 446.57 360.25 454.97 353.25 460.27 347.25 464.77 347.25 464.37 334.85 464.37 319.35 480.57 319.35 509.57 341.05 509.57 353.45 514.97 357.15 516.67 357.15 516.67 357.15 516.67 357.15 537.87 606.65 538.27 596.65 516.97 587.55 497.17 600.85 446.67 532.85 436.87 505.75 435.47"/>
  </g>
  <g id="rio_bonito" class="bairro">
    <polygon points="532.45 435.97 537.55 368.87 539.15 346.97 518.95 336.67 482.45 342.57 456.45 334.07 456.45 255.47 448.05 252.77 422.05 244.27 400.85 254.67 370.75 277.97 341.25 260.67 307.35 267.27 307.35 278.47 302.55 283.27 254.25 307.37 287.35 341.77 301.85 342.17 306.45 375.87 319.45 382.67 307.15 406.07 335.95 410.37 324.55 423.37 324.95 433.07 336.25 440.87 322.35 451.47 347.65 453.47 348.05 463.07 359.05 454.77 359.45 454.57 359.45 446.07 422.95 410.07 422.95 410.07 422.95 410.07 435.15 423.17 442.45 420.27 452.05 416.37 462.65 433.77 498.35 439.57 505.45 434.57 505.45 434.57 505.45 434.57 532.45 435.97"/>
  </g>
  <g id="silva_jardim" class="bairro">
    <polygon points="539.85 346.37 557.65 353.07 575.35 345.17 576.65 335.77 576.65 335.37 603.35 342.07 615.45 330.37 615.45 330.37 616.35 329.57 636.35 324.57 654.55 276.37 661.05 259.17 672.25 248.07 686.05 248.07 691.95 241.47 700.85 231.57 712.65 234.97 716.95 236.27 729.35 231.47 728.65 230.27 725.55 225.27 725.55 225.27 725.55 225.27 731.05 220.97 734.25 218.37 735.85 215.87 737.75 213.07 747.45 218.47 757.55 203.87 770.75 184.67 768.55 183.07 748.35 168.07 714.85 174.37 711.75 169.47 707.85 162.97 704.05 162.67 700.35 162.27 700.35 162.27 700.35 162.27 705.45 146.77 707.65 139.97 693.45 118.67 679.55 104.57 673.85 104.27 668.85 103.97 668.85 103.97 668.85 103.97 668.85 69.17 663.45 67.37 653.95 64.27 653.05 63.87 653.35 63.77 645.35 58.07 631.25 69.57 628.25 63.37 622.05 70.77 607.35 58.17 603.95 62.97 586.75 62.97 527.05 75.57 509.25 87.67 480.75 75.57 470.85 75.57 448.15 92.57 433.95 92.57 433.95 104.57 422.45 104.57 422.45 122.07 410.65 125.27 405.15 158.57 388.05 172.37 422.35 243.47 442.65 250.07 457.25 254.87 457.25 333.47 462.75 335.27 482.55 341.77 516.55 336.27 519.15 335.87 523.35 337.97 539.85 346.37"/>
  </g>
  <g id="casimiro_de_abreu" class="bairro">
    <path d="M774,181.27l5.7-5.9,2.5-2.6h0l13.2.8,11,5.3.5.2v5.2l8.5-5.2-1.3-2-2.9-4.6,5.7-5.2,7.3,7.3.7,4.1,1.2,6.8H836l-.4.7-6.1,9.9,30.1-5.8h.3l-.6,11.3,9.8-4.9h0l2.2,5.6,7-4.6,2.9-1.9h0l4.2,4.2,1.3,1.3v-11.2l19,6.8,11.2-7.1h0l-.3,7.7,11.3-.9.4,4,.7,6.8,6.2-12.3h0l1.7,6.6,3.1,11.7,11.5-11.2h0v1h0l.9,20.1,1.2-2.2c1-2,2.4-4.7,4-7.6,3-5.9,6.6-13,8.9-17.7,1.3-2.6,2.2-4.5,2.5-5l-12.9-28.3.6-23.2-34.6-33-5.9-13.5,11-5.4-5.3-11.8,10.2-10.5-20.3,5.2-23.7-5.6-.7,11.5-12-5.6-14.4,5.3h-14.2l6.3-29-17.6.3-6.3,5.7-12.4-.5-5.9,17.9-23.7-6.4L777,70h-18.2l.8-17.4-17.8-6.8,11-16.1-5.6-5.3.4-7.5,5-5.2L735.85.47v6.2l-28.6,4.8-29.1,23.7,11.1,11.4-34,17.2,14.5,4.8h0v34.6l4.6.3,5.7.3.3.3,13.1,12.9,15.3,22.9h0l-7,21.7,6.8.6,6.8,11.3,16.2-3,16.9-3.2,22.3,16.5.5.3Z"/>
  </g>
  <g id="iguaba_grande" class="bairro">
    <polygon points="706.85 410.17 714.45 416.77 718.95 420.67 726.15 445.87 714.25 457.07 720.75 464.27 725.65 469.57 725.65 469.57 725.95 469.87 725.85 469.87 731.05 480.47 742.55 475.17 765.25 486.87 765.25 435.77 752.85 441.57 751.05 424.07 735.85 416.77 713.25 405.87 712.75 405.67 707.35 409.77 706.85 410.17"/>
  </g>
  <g id="sao_pedro_da_aldeia" class="bairro">
    <polygon points="847.95 502.27 845.85 463.97 845.85 463.97 845.85 463.97 861.05 465.17 910.25 469.17 919.15 418.87 921.15 407.27 914.05 384.87 908.95 369.07 860.45 316.77 850.75 304.67 850.15 303.87 823.95 271.17 782.35 313.67 759.75 353.67 743.95 381.77 743.75 381.87 714.15 405.37 751.85 423.57 753.55 440.37 766.05 434.47 766.05 434.47 766.05 434.47 766.05 487.07 789.55 480.87 807.85 499.37 829.85 509.57 841.65 509.17 847.95 502.27"/>
  </g>
  <g id="araruama" class="bairro">
    <polygon points="724.75 469.77 713.05 457.07 725.15 445.57 720.55 429.37 718.25 421.17 710.55 414.37 705.55 410.07 712.45 404.77 712.65 404.67 712.65 404.67 743.25 381.17 760.25 351.07 781.65 313.17 823.45 270.47 776.75 179.67 771.65 184.87 747.75 219.57 738.05 214.17 734.85 218.97 726.75 225.47 730.55 231.87 730.55 231.87 730.55 231.87 716.95 237.17 701.05 232.57 686.45 248.87 672.55 248.87 661.85 259.67 636.95 325.27 636.95 325.27 636.95 325.27 636.85 325.27 615.95 331.17 603.65 343.07 577.45 336.37 577.15 337.97 576.15 345.77 576.15 345.77 576.15 345.77 575.95 345.87 558.55 354.37 557.65 353.97 556.85 354.37 540.05 347.37 536.75 390.27 533.35 436.07 548.55 436.87 601.45 445.97 601.95 445.97 601.95 445.97 601.95 445.97 588.45 497.17 596.05 513.67 607.55 538.27 679.15 538.27 677.95 526.17 689.55 519.57 684.85 503.87 724.75 469.77"/>
  </g>
  <g id="arraial_do_cabo" class="bairro" data-id="arraial_do_cabo">
    <polygon points="945.25 586.77 941.15 596.17 958.65 596.17 968.65 585.07 963.35 574.27 945.25 586.77"/>
    <path d="M680.05,538.37,862.15,554l25.5,2.8,29.6,11.4,2.1,7.1,9.6,4.6,5.6,10.8,5.2-10.2-10.2-.6-.6-12.4,5,.3.6-6,11.7,6.2,5.9-11.6-11,.5,4.5-5.5L929.25,562l-6.4-5.4,5.4-10.8-11.3-.5v-10.8l-44,1.2-9,9.8-60.5-6.4-.8-12.6-5.1,3.8-.2,7-23.1-4.2-8.5-3.4V527a10,10,0,0,1,2.4-7.6h0a5.14,5.14,0,0,0-.6-2.5l-.5-.3a4.53,4.53,0,0,0-1.9,1.1l-5.1,9.8-14.4.6-6.8-1h0a23.4,23.4,0,0,1-3.1-2.4c-1.6-1.4-3.2-3-3.4-4.6v-.6h0v-7l2.6-4.2-.3-.3a2.39,2.39,0,0,0-1.4-.5,4.61,4.61,0,0,0-2.6,1l-.4.6a19.83,19.83,0,0,0-1.1,2,47.05,47.05,0,0,0-2.7,7.1l-2.6,6.3a12.41,12.41,0,0,1-5,1,10.3,10.3,0,0,1-5.1-1.4l-6.1-2.9-17.8-1.3-11.3,6.4Z"/>
    <polygon points="956.55 563.07 952.25 562.67 952.25 567.17 956.55 563.07"/>
  </g>
  <g id="armacao_dos_buzios" class="bairro" data-id="armacao_dos_buzios">
    <polygon points="1009.15 422.87 1009.85 410.57 1026.75 394.07 1043.95 399.07 1049.85 388.17 1054.65 395.67 1049.25 382.07 1061.45 386.97 1062.65 380.57 1071.65 370.87 1060.75 365.37 1066.55 358.97 1055.75 354.47 1049.95 370.67 1026.95 371.57 1026.95 382.87 1013.85 382.87 996.45 370.17 985.15 348.47 969.85 348.47 963.85 357.47 941.05 392.17 943.85 398.27 947.15 405.37 957.95 414.57 974.65 428.47 997.85 417.37 1009.15 422.87"/>
  </g>
  <g id="cabo_frio" class="bairro" data-id="cabo_frio">
    <path d="M945.45,237.07l6.2-12.4v-.9a12.36,12.36,0,0,0-.2-2.5c0-2-.2-4.7-.3-7.4v-9.7L940,215.07h0l-4.6-17.6-6.5,12.9h0l-1.3-11.9h-11.5v-.6l.3-6.4-10.2,6.5h0l-18.3-6.8v11.9h0l-6.4-6.5-10.2,6.8h0l-2-5.9-10.2,5.2V202l.3-11-31.4,6.1,7.1-11.1h-9l-1.3-7.4-.7-3.9-6.5-6.6-2.2,2-2.4,2.2,4.3,6.8-7.1,4.4-3.4,2.1h0v-6.2l-10.4-5-.5-.2-12.6-.7-1.5,1.5-4.5,3.9,44.6,86.6,2.4,4.6,26.5,33,10.6,13.2,48.4,52.1,12.4,38.6-11.1,62.8h0l-64.3-5.2.3,5.4,1.8,32.3h0v.6l-6.8,6.8h0l-.4.4h-10.5l34.4,22.9,51.5.3,5.3-35.4,11-11.8,11.2,5.3,18.5-16.9-5.5-17.7,16.4-28.1-27.5-23.1-2-4.3-4.4-9.5,29-44-12.7-16.9Z"/>
    <polygon points="990.25 477.97 992.35 480.07 994.65 475.57 1003.55 475.37 1003.55 469.77 998.45 469.77 995.05 475.17 994.85 475.17 991.85 475.67 990.25 477.97"/>
    <polygon points="962.45 502.97 962.45 493.27 956.55 493.27 962.45 502.97"/>
  </g>
</svg>