<svg id="regiao_12" data-name="regiao 12" xmlns="http://www.w3.org/2000/svg" viewBox="0 0 687.1 709.6">
    <style>
        .bairro {
            fill: #82bb26; /* Cor base da Região 12 (verde acinzentado) */
            stroke: #FFFFFF;
            stroke-width: 0.5;
            transition: fill 0.2s ease-in-out;
        }
        .bairro:hover {
            fill: #FFD700 !important; /* Amarelo dourado para hover */
            cursor: pointer;
        }
        .bairro.selecionado {
            fill: #E44D26 !important; /* Laranja para o item clicado/selecionado */
        }
    </style>

    <g id="quissama" class="bairro">
        <path d="M557.8,616.1l-6.7-3.5c0,.6-.2,1.3-.2,1.9v5.3l-.6-.1H550l-21.2-3.5-.2.2c-.7,1.6-1.8,3.4-3.6,3.8h-.5a4.81,4.81,0,0,1-3-1.5,14.44,14.44,0,0,0-3.9-2.5,6.1,6.1,0,0,0-3-.4h-5.4c-3.4,0-7.6.1-11,.1H497c-2,0-5,0-8.7-.3h-.5v-.2l-12.4-20.9-85.3-46-35.7-19.2-2.9,5.2-1.8,3.6-7.9.9-.3,13.9-4.4-3.2-3.4-2-5.7,3.9-6.2,4.5h-.3l-.3.2-4.2,1.3-8.6,2.9-18.7,24.2h0l-.2.3-26.6-1.9-24.2-1.5-25.5,8.9c-8,11.2-16,22.5-24.1,33.7l80.1,21.4h0l13.1,8.7h0l12.4,24.9.1.2-.2.2-12.4,8.9,4.3,12.8,7.8,4.3h.2v4l38.2-15.8h0l14.9-4.8,76.6-21,66.1-18.3,53.1-20.6,28.3-18.2-11.9.5-.9,2.7-.4,1.4h0l-.2.6Z"/>
    </g>
    <g id="sao_francisco_de_itabapuana" class="bairro">
        <path d="M467.5,58.3l1.2,2.7a15.76,15.76,0,0,1,10.5,14.9,21.05,21.05,0,0,1-.2,2.5v.1l-5.9,4-7.7,8.7.2,10,6.5,9.7-.3,51.7-3.7,8.8-1.2,7.2-3.4,9.1-.2,12.4a8.39,8.39,0,0,0,1.8,2.8c1,1.3,2.5,3,4.1,4.8,3.2,3.5,6.9,7.5,9.4,10l2.8,2.8h0l1.9,9.1.5,38.2a14,14,0,0,1,6.3,3.2,75.72,75.72,0,0,1,8.1,6.9c5,4.7,9.5,9.4,10,10h21.4l1.5,5-.2,23,3,2.5h7.7l8.9,5,10.3,12.1,4.8,4.5-1.4,3.7.7.9,16.7-16.7h0l.9-.4c.5-.3,1.4-.8,2.3-1.4a39.25,39.25,0,0,0,7.2-5.7,31.76,31.76,0,0,0,10.4-23.1V297l25.9-19.7-17.8-40-.6-26.4,34-39.3,18.1-34h12.4l12.7-21.3-4.3-21,4.3-21.5L673.7,65l-.6-3.4-11.9,3.6-4.8-25.5-11.9-3.9-13.8,7.9L605.4,20.9l-16-2.3-9.1,8.8-12.8-4.2-4.6,8-8.4.1-.6,4.7-13-.3L538,31.2l-9.4,9.4.7-5h-9.2l-.8-.8L507.8,23.1,503,27.9V22.7l-12.1-4.5-9,13.2L474,27l-.9,5.4,2.3,16.5Z"/>
    </g>
    <g id="campos_dos_goytacazes" class="bairro">
        <path d="M651.5,469.2h0l-3-.3h-.6a54.42,54.42,0,0,1-8-.9h0l-1.9-.2h0l-1.7-.6h0a64.18,64.18,0,0,1-11.3-4.3H591.7L567,447.5l-2.8-9,5.6-19.9v-.3h0V418l.3-64.7-6.2-8.3.2-.2.2-.2-.9-1.2,1.4-3.7-4.5-4.3-10.2-12-8.7-4.8h-7.7l-3.5-2.7.2-23.3-1.3-4.4H507.9l-1.7-1.8c-1.1-1.1-2.6-2.7-4.4-4.5a107.68,107.68,0,0,0-11.9-10.5,13.63,13.63,0,0,0-6.1-3.1h-.5l-.5-38.8-1.8-8.9a252.65,252.65,0,0,1-17.1-18.7,7.68,7.68,0,0,1-1-1.8h0l.2-12.6,3.5-9,1.2-7.2,3.7-8.8.2-51.3-6.5-9.7L465,91.1l8-8.9,5.7-3.9v-.5a15.19,15.19,0,0,0-10.1-16.1h0l-1.8-3.4,8.1-9.6-2.3-16.2-2.2-2.8h-4l-6.6-6.8-1.3-1.3h-6.9l-3-3.4-2.8-1.9-1.1-2.7h-9.4v-.2s-.3-.7-.7-1.7a16.09,16.09,0,0,0-1.7-2.8,1.62,1.62,0,0,0-1-.7H416.7l-5-2.3h-3.3l-5.6-4.4h0L400.6,0h-8.5l-.6,2.9-7.8.7h0l-10.4.7-.7,2.3-9,.5-3.7,1.8-5.7-.2L350.6,8l-8.2-1.1-1.6,16L323.9,36.7l-3.2,10.8L307,48.7,295.1,59.4,260.7,82.9l25.4,79.3,67.2-24.3.4-.2,26.5,29.6h0v5.5l.2,11.7,9.5,6.1,13.4,17.7,4.7,18.1,1.2,4.7-3.4,3.6-17.7,19-3.7,24.9-13.1,4.7L334,325.4l-4.1,4.3-25.7-28.6-9.7-10.7-4,1.5-7.7,3-.7,4.4-.6,3.9-8.4,1.3-13.4,17.6-39.2,3.7-2.5,5.3-3.4,7.5h0l-.3.1L188,352.3l-4.3,12,.5,10.2h0l-4.8,7.6h0l-9.3,3.2L156.2,390l-2.9,3.8-3.4,4.4v8.6l-17.5-2.1-13.1-1.6v1.2l-.4,6.1-12.4.9h-.7l-14.3,24L56.4,457.9v7.6l3.1,3.1,29,6,30.3-8.6,5.6,8.6h55L171.8,488l-.6,24.7a22.79,22.79,0,0,1,2.8,8.7,3.67,3.67,0,0,1-2.5,3.9l-.3,13.6-29,23.7L140,561l-7.5,3.2,8.2,8.8-3.7,8.4,12.8,25h7.7l12-13.8,14.4-10.9,16.8,9,8.9-.3,3.7-.7,25.1-8.8,24.3,1.8,26.5,1.6,18.6-24h0l.2-.3,8.5-2.7,4.5-1.5,6.6-4.5,6.3-4.4,3.4,2.5,3.4,2V538.7h.3V538l8.1-.9,1.7-3,3-5.8.2.1v-.1L390.2,548l84.9,45.7h0l.3.5,1.2.6,11.2,19.3h0l.2,1h29.2l7,4.1,3.6-3.3c0-.1.1-.2.1-.3v-.2h.3l.5-.5,20.7,3.9.6-4.5v-3.6l7.7,4,.2-.7,1.1-3.8h13.3l18.5-13.4,41.3-22.7,32.8-18.5,12.4-29.5-3.7-34.2-4.1-23.3h-.8l-6.3.8Z"/>
    </g>
    <g id="sao_joao_da_barra" class="bairro">
        <path d="M570.3,417.8v.7l-4.7,18.2,1.8,9.7,24.5,14.9,32.1.3h0l.9.4,11.3,4.3h0c1.3.3,2.5.6,3.6.8h0l8.5.9h20.2L643.9,367.1l3.7-56.5,3.7-22.6a11.89,11.89,0,0,0-7-9.2,26,26,0,0,0-10.6-2c-1.3,0-2.6.1-3.9.2l-1.5.2-25.8,19.7c-.1,20.8-20.5,30.7-21.1,31l-16.7,16.7,5.8,7.8Z"/>
    </g>
    <g id="italva" class="bairro">
        <path d="M233.1,271.3l-18.6-69.5-2.5-9.6,28-4.1,7.5,5.8,4.2,3.3,17.2-26.3,14-7,2.8-1.4-25-77.7v5.9l-25.8,8.5-.3,13.3-16.7-9.1-.8,9.2-12.7-9.4-16.6,9.2-8.6,8.1-8.7-3.7-7.5,4.4c-9.7,5.8-11.2,6.8-13.7,8.2a139.66,139.66,0,0,1-16.1,7.7l-2.2,6.6L175.5,181l-22,3.4,10.5,8.3,33.6,26.5Z"/>
    </g>
    <g id="sao_fidelis" class="bairro">
        <polygon points="214.2 338 214.2 338 218.1 329.6 220.1 325.3 220.1 325.3 220.1 325.3 259.4 321.5 273 303.9 281.2 302.7 281.8 298.9 282.4 294.4 289.5 291.7 293.9 290 287.4 287.6 285.4 286.8 289.8 248.5 234.3 273.2 234.7 274.7 233.8 273.4 233.7 273.5 233.6 273.2 203.4 228.5 197.2 219.5 191.2 214.8 152.8 184.4 98.8 196.6 102.7 202.6 98.9 218.2 67.5 244.8 67.5 261.3 46.5 261 22 274.4 22 372.2 25.9 372.2 22 380.2 22 389.6 12.9 393.8 8.7 406.9 0 415.4 12.8 449.5 21.9 461.9 50.9 466.2 50 457.7 56.1 457.4 91.1 434.8 105.6 410.6 105.6 410.6 105.6 410.6 110.6 410.3 118.4 409.7 118.9 402.3 118.9 402.3 118.9 402.2 134 404.1 149.4 405.9 149.4 397.9 154.2 391.8 156 389.4 168.3 385.2 179.2 381.5 183.7 374.2 183.3 364.1 187.7 351.8 187.7 351.8 187.9 351 214.2 338"/>
    </g>
    <g id="cardoso_moreira" class="bairro">
        <polygon points="290.5 247.5 290.5 247.5 289.7 254.9 286.1 286.4 291.6 288.5 294.8 289.7 294.8 289.6 294.9 289.7 295.6 290 295.3 290.1 303.1 298.9 330 328.8 334.9 323.2 370.9 282.7 383.7 278.1 387.4 253.4 404.5 235.1 408.4 231 407.2 226.4 402.6 208.6 387.7 190.1 379.7 184.9 379.5 173.2 379.4 167.5 353.3 138.4 353.3 138.4 285.9 164.1 285.6 163 269 171.4 258.2 188 251.6 198.1 251.6 198.1 251.6 198.1 244.4 192.5 239.7 188.7 212.7 192.7 234.1 272.6 290.5 247.5"/>
    </g>
</svg>